<?xml version="1.0" encoding="UTF-8" standalone="no"?><svg xmlns="http://www.w3.org/2000/svg" xmlns:xlink="http://www.w3.org/1999/xlink" contentStyleType="text/css" height="315px" preserveAspectRatio="none" style="width:267px;height:315px;background:#FFFFFF;" version="1.1" viewBox="0 0 267 315" width="267px" zoomAndPan="magnify"><defs/><g><!--MD5=[6a2fb15e218508915d20a8217bd135ad]
class nz.ac.vuw.ecs.swen225.gp22.domain.ColorableTile--><a href="ColorableTile.html" target="_top" title="ColorableTile.html" xlink:actuate="onRequest" xlink:href="ColorableTile.html" xlink:show="new" xlink:title="ColorableTile.html" xlink:type="simple"><g id="elem_nz.ac.vuw.ecs.swen225.gp22.domain.ColorableTile"><rect codeLine="5" fill="#F1F1F1" height="83.4063" id="nz.ac.vuw.ecs.swen225.gp22.domain.ColorableTile" rx="2.5" ry="2.5" style="stroke:#181818;stroke-width:0.5;" width="253" x="7" y="107"/><ellipse cx="42.25" cy="127.0938" fill="#A9DCDF" rx="11" ry="11" style="stroke:#181818;stroke-width:1.0;"/><path d="M44.4375,128.8594 L40.2969,128.8594 L39.875,129.8906 L40.2969,129.8906 Q40.9063,129.8906 41.1719,130.125 Q41.4375,130.3594 41.4375,130.75 Q41.4375,131.125 41.1719,131.3594 Q40.9063,131.5938 40.2969,131.5938 L38,131.5938 Q37.3906,131.5938 37.1406,131.3594 Q36.875,131.125 36.875,130.7344 Q36.875,130.3594 37.1563,130.125 Q37.4219,129.875 38.0469,129.8906 L40.7188,123.2344 L39.6094,123.2344 Q39,123.2344 38.7344,123 Q38.4688,122.7656 38.4688,122.375 Q38.4688,122 38.7344,121.7656 Q39,121.5313 39.6094,121.5313 L43.2813,121.5313 L46.6719,129.8906 Q47.2656,129.8906 47.4531,130.0313 Q47.8438,130.2969 47.8438,130.75 Q47.8438,131.125 47.5781,131.3594 Q47.3281,131.5938 46.7188,131.5938 L44.4219,131.5938 Q43.8125,131.5938 43.5469,131.3594 Q43.2813,131.125 43.2813,130.7344 Q43.2813,130.3594 43.5469,130.125 Q43.8125,129.8906 44.4219,129.8906 L44.8438,129.8906 L44.4375,128.8594 Z M43.7188,127.1563 L42.3594,123.7813 L40.9844,127.1563 L43.7188,127.1563 Z " fill="#000000"/><text fill="#000000" font-family="sans-serif" font-size="14" font-style="italic" lengthAdjust="spacing" textLength="84" x="106.75" y="126.5332">ColorableTile</text><text fill="#000000" font-family="sans-serif" font-size="10" font-style="italic" lengthAdjust="spacing" textLength="176" x="60.75" y="139.9902">nz.ac.vuw.ecs.swen225.gp22.domain</text><line style="stroke:#181818;stroke-width:0.5;" x1="8" x2="259" y1="147.1875" y2="147.1875"/><ellipse cx="18" cy="161.4922" fill="#84BE84" rx="3" ry="3" style="stroke:#038048;stroke-width:1.0;"/><text fill="#000000" font-family="sans-serif" font-size="14" lengthAdjust="spacing" textLength="227" x="27" y="165.7207">ColorableTile(Point, boolean, Color)</text><ellipse cx="18" cy="179.1016" fill="#84BE84" rx="3" ry="3" style="stroke:#038048;stroke-width:1.0;"/><text fill="#000000" font-family="sans-serif" font-size="14" lengthAdjust="spacing" textLength="106" x="27" y="183.3301">getColor(): Color</text></g></a><!--MD5=[186e21ba2cd9930336d13f364b5bb404]
class nz.ac.vuw.ecs.swen225.gp22.domain.Tile--><a href="Tile.html" target="_top" title="Tile.html" xlink:actuate="onRequest" xlink:href="Tile.html" xlink:show="new" xlink:title="Tile.html" xlink:type="simple"><g id="elem_nz.ac.vuw.ecs.swen225.gp22.domain.Tile"><rect codeLine="10" fill="#F1F1F1" height="40.1875" id="nz.ac.vuw.ecs.swen225.gp22.domain.Tile" rx="2.5" ry="2.5" style="stroke:#181818;stroke-width:0.5;" width="208" x="29.5" y="7"/><ellipse cx="44.5" cy="27.0938" fill="#A9DCDF" rx="11" ry="11" style="stroke:#181818;stroke-width:1.0;"/><path d="M46.6875,28.8594 L42.5469,28.8594 L42.125,29.8906 L42.5469,29.8906 Q43.1563,29.8906 43.4219,30.125 Q43.6875,30.3594 43.6875,30.75 Q43.6875,31.125 43.4219,31.3594 Q43.1563,31.5938 42.5469,31.5938 L40.25,31.5938 Q39.6406,31.5938 39.3906,31.3594 Q39.125,31.125 39.125,30.7344 Q39.125,30.3594 39.4063,30.125 Q39.6719,29.875 40.2969,29.8906 L42.9688,23.2344 L41.8594,23.2344 Q41.25,23.2344 40.9844,23 Q40.7188,22.7656 40.7188,22.375 Q40.7188,22 40.9844,21.7656 Q41.25,21.5313 41.8594,21.5313 L45.5313,21.5313 L48.9219,29.8906 Q49.5156,29.8906 49.7031,30.0313 Q50.0938,30.2969 50.0938,30.75 Q50.0938,31.125 49.8281,31.3594 Q49.5781,31.5938 48.9688,31.5938 L46.6719,31.5938 Q46.0625,31.5938 45.7969,31.3594 Q45.5313,31.125 45.5313,30.7344 Q45.5313,30.3594 45.7969,30.125 Q46.0625,29.8906 46.6719,29.8906 L47.0938,29.8906 L46.6875,28.8594 Z M45.9688,27.1563 L44.6094,23.7813 L43.2344,27.1563 L45.9688,27.1563 Z " fill="#000000"/><text fill="#000000" font-family="sans-serif" font-size="14" font-style="italic" lengthAdjust="spacing" textLength="23" x="135" y="26.5332">Tile</text><text fill="#000000" font-family="sans-serif" font-size="10" font-style="italic" lengthAdjust="spacing" textLength="176" x="58.5" y="39.9902">nz.ac.vuw.ecs.swen225.gp22.domain</text></g></a><!--MD5=[8ea08ee2b4f3176fab40778f45a302a2]
class nz.ac.vuw.ecs.swen225.gp22.domain.ColorableTile.Color--><a href="ColorableTile.Color.html" target="_top" title="ColorableTile.Color.html" xlink:actuate="onRequest" xlink:href="ColorableTile.Color.html" xlink:show="new" xlink:title="ColorableTile.Color.html" xlink:type="simple"><g id="elem_nz.ac.vuw.ecs.swen225.gp22.domain.ColorableTile.Color"><rect codeLine="11" fill="#F1F1F1" height="40.1875" id="nz.ac.vuw.ecs.swen225.gp22.domain.ColorableTile.Color" rx="2.5" ry="2.5" style="stroke:#181818;stroke-width:0.5;" width="208" x="29.5" y="250"/><ellipse cx="44.5" cy="270.0938" fill="#EB937F" rx="11" ry="11" style="stroke:#181818;stroke-width:1.0;"/><path d="M43.3594,270.8906 L43.3594,273.3906 L47.6875,273.3906 L47.6875,272.4688 Q47.6875,271.8594 47.9219,271.5938 Q48.1719,271.3281 48.5469,271.3281 Q48.9219,271.3281 49.1563,271.5938 Q49.3906,271.8594 49.3906,272.4688 L49.3906,275.0938 L41.3906,275.0938 Q40.7656,275.0938 40.5,274.8594 Q40.25,274.625 40.25,274.2344 Q40.25,273.8594 40.5156,273.625 Q40.7813,273.3906 41.3906,273.3906 L41.6563,273.3906 L41.6563,266.7344 L41.3906,266.7344 Q40.7656,266.7344 40.5,266.5 Q40.25,266.2656 40.25,265.875 Q40.25,265.5 40.5,265.2656 Q40.7656,265.0313 41.3906,265.0313 L49.0156,265.0313 L49.0156,267.625 Q49.0156,268.2344 48.7813,268.5 Q48.5625,268.75 48.1719,268.75 Q47.7969,268.75 47.5625,268.5 Q47.3281,268.2344 47.3281,267.625 L47.3281,266.7344 L43.3594,266.7344 L43.3594,269.1875 L44.8438,269.1875 Q44.8438,268.5313 44.9688,268.3438 Q45.2344,267.9375 45.7031,267.9375 Q46.0781,267.9375 46.3125,268.2031 Q46.5469,268.4531 46.5469,269.0625 L46.5469,271.0313 Q46.5469,271.5781 46.4219,271.7656 Q46.1563,272.1563 45.7031,272.1563 Q45.2344,272.1563 44.9688,271.75 Q44.8438,271.5625 44.8438,270.8906 L43.3594,270.8906 Z " fill="#000000"/><text fill="#000000" font-family="sans-serif" font-size="14" lengthAdjust="spacing" textLength="122" x="85.5" y="269.5332">ColorableTile.Color</text><text fill="#000000" font-family="sans-serif" font-size="10" lengthAdjust="spacing" textLength="176" x="58.5" y="282.9902">nz.ac.vuw.ecs.swen225.gp22.domain</text></g></a><!--MD5=[dd4722c4dda16af78bab9bdff9f44c43]
reverse link nz.ac.vuw.ecs.swen225.gp22.domain.Tile to nz.ac.vuw.ecs.swen225.gp22.domain.ColorableTile--><g id="link_nz.ac.vuw.ecs.swen225.gp22.domain.Tile_nz.ac.vuw.ecs.swen225.gp22.domain.ColorableTile"><path codeLine="13" d="M133.5,67.23 C133.5,79.84 133.5,93.83 133.5,106.56 " fill="none" id="nz.ac.vuw.ecs.swen225.gp22.domain.Tile-backto-nz.ac.vuw.ecs.swen225.gp22.domain.ColorableTile" style="stroke:#181818;stroke-width:1.0;"/><polygon fill="none" points="126.5,67.2,133.5,47.2,140.5,67.2,126.5,67.2" style="stroke:#181818;stroke-width:1.0;"/></g><!--MD5=[ff1bc6fb0809c40c3fc6f3cfba01f256]
reverse link nz.ac.vuw.ecs.swen225.gp22.domain.ColorableTile to nz.ac.vuw.ecs.swen225.gp22.domain.ColorableTile.Color--><g id="link_nz.ac.vuw.ecs.swen225.gp22.domain.ColorableTile_nz.ac.vuw.ecs.swen225.gp22.domain.ColorableTile.Color"><path codeLine="14" d="M133.5,205.34 C133.5,221.32 133.5,237.67 133.5,249.8 " fill="none" id="nz.ac.vuw.ecs.swen225.gp22.domain.ColorableTile-backto-nz.ac.vuw.ecs.swen225.gp22.domain.ColorableTile.Color" style="stroke:#181818;stroke-width:1.0;"/><ellipse cx="133.5" cy="198.29" fill="#FFFFFF" rx="8" ry="8" style="stroke:#181818;stroke-width:1.0;"/><line style="stroke:#181818;stroke-width:1.0;" x1="133.5" x2="133.5" y1="206.29" y2="190.29"/><line style="stroke:#181818;stroke-width:1.0;" x1="125.5" x2="141.5" y1="198.29" y2="198.29"/></g><rect fill="none" height="12.5781" style="stroke:none;stroke-width:1.0;" width="184" x="34.5" y="295.1875"/><text fill="#888888" font-family="sans-serif" font-size="10" lengthAdjust="spacing" textLength="184" x="34.5" y="305.5684">UMLDoclet 2.0.19, PlantUML 1.2022.8</text><!--MD5=[768d460344e88d15124c1c9fb8cca0a3]
@startuml
    set namespaceSeparator none
    hide empty fields
    hide empty methods

    abstract class "<size:14>ColorableTile\n<size:10>nz.ac.vuw.ecs.swen225.gp22.domain" as nz.ac.vuw.ecs.swen225.gp22.domain.ColorableTile [[ColorableTile.html]] {
        +ColorableTile(Point, boolean, Color)
        +getColor(): Color
    }

    abstract class "<size:14>Tile\n<size:10>nz.ac.vuw.ecs.swen225.gp22.domain" as nz.ac.vuw.ecs.swen225.gp22.domain.Tile [[Tile.html]]
    enum "<size:14>ColorableTile.Color\n<size:10>nz.ac.vuw.ecs.swen225.gp22.domain" as nz.ac.vuw.ecs.swen225.gp22.domain.ColorableTile.Color [[ColorableTile.Color.html]]

    nz.ac.vuw.ecs.swen225.gp22.domain.Tile <|- - nz.ac.vuw.ecs.swen225.gp22.domain.ColorableTile
    nz.ac.vuw.ecs.swen225.gp22.domain.ColorableTile +- - nz.ac.vuw.ecs.swen225.gp22.domain.ColorableTile.Color

    center footer UMLDoclet 2.0.19, PlantUML 1.2022.8
@enduml

PlantUML version 1.2022.8(Sun Sep 25 22:00:33 NZDT 2022)
(APACHE source distribution)
Java Runtime: Java(TM) SE Runtime Environment
JVM: Java HotSpot(TM) 64-Bit Server VM
Default Encoding: Cp1252
Language: en
Country: NZ
--></g></svg>