<?xml version="1.0" encoding="UTF-8" standalone="no"?><svg xmlns="http://www.w3.org/2000/svg" xmlns:xlink="http://www.w3.org/1999/xlink" contentStyleType="text/css" height="241px" preserveAspectRatio="none" style="width:953px;height:241px;background:#FFFFFF;" version="1.1" viewBox="0 0 953 241" width="953px" zoomAndPan="magnify"><defs/><g><!--MD5=[b2ee5003f6ec486ad1b2dae7b1212cc8]
class nz.ac.vuw.ecs.swen225.gp22.domain.DevMarkers--><a href="DevMarkers.html" target="_top" title="DevMarkers.html" xlink:actuate="onRequest" xlink:href="DevMarkers.html" xlink:show="new" xlink:title="DevMarkers.html" xlink:type="simple"><g id="elem_nz.ac.vuw.ecs.swen225.gp22.domain.DevMarkers"><rect codeLine="5" fill="#F1F1F1" height="109.0156" id="nz.ac.vuw.ecs.swen225.gp22.domain.DevMarkers" rx="2.5" ry="2.5" style="stroke:#181818;stroke-width:0.5;" width="305" x="324.5" y="7"/><ellipse cx="384.75" cy="27.0938" fill="#ADD1B2" rx="11" ry="11" style="stroke:#181818;stroke-width:1.0;"/><path d="M387.5156,22.9688 Q387.6719,22.75 387.8594,22.6406 Q388.0469,22.5313 388.2656,22.5313 Q388.6406,22.5313 388.875,22.7969 Q389.1094,23.0469 389.1094,23.6563 L389.1094,25.1094 Q389.1094,25.7188 388.875,25.9844 Q388.6406,26.25 388.2656,26.25 Q387.9219,26.25 387.7188,26.0469 Q387.5156,25.8594 387.4063,25.3438 Q387.3594,24.9844 387.1719,24.7969 Q386.8438,24.4219 386.2344,24.2031 Q385.625,23.9844 385,23.9844 Q384.2344,23.9844 383.5938,24.3125 Q382.9688,24.6406 382.4688,25.3906 Q381.9844,26.1406 381.9844,27.1719 L381.9844,28.2656 Q381.9844,29.5 382.875,30.3281 Q383.7656,31.1406 385.3594,31.1406 Q386.2969,31.1406 386.9531,30.8906 Q387.3438,30.7344 387.7656,30.2969 Q388.0313,30.0313 388.1719,29.9531 Q388.3281,29.875 388.5313,29.875 Q388.8594,29.875 389.1094,30.1406 Q389.375,30.3906 389.375,30.7344 Q389.375,31.0781 389.0313,31.4844 Q388.5313,32.0625 387.7344,32.3906 Q386.6563,32.8438 385.3594,32.8438 Q383.8438,32.8438 382.6406,32.2188 Q381.6563,31.7188 380.9688,30.6563 Q380.2813,29.5781 380.2813,28.2969 L380.2813,27.1406 Q380.2813,25.8125 380.8906,24.6719 Q381.5156,23.5156 382.6094,22.9063 Q383.7031,22.2813 384.9375,22.2813 Q385.6719,22.2813 386.3125,22.4531 Q386.9688,22.6094 387.5156,22.9688 Z " fill="#000000"/><text fill="#000000" font-family="sans-serif" font-size="14" lengthAdjust="spacing" textLength="76" x="455.25" y="26.5332">DevMarkers</text><text fill="#000000" font-family="sans-serif" font-size="10" lengthAdjust="spacing" textLength="176" x="405.25" y="39.9902">nz.ac.vuw.ecs.swen225.gp22.domain</text><line style="stroke:#181818;stroke-width:0.5;" x1="325.5" x2="628.5" y1="47.1875" y2="47.1875"/><ellipse cx="335.5" cy="61.4922" fill="none" rx="3" ry="3" style="stroke:#038048;stroke-width:1.0;"/><text fill="#000000" font-family="sans-serif" font-size="14" lengthAdjust="spacing" text-decoration="underline" textLength="162" x="344.5" y="65.7207">markersEnabled: boolean</text><line style="stroke:#181818;stroke-width:0.5;" x1="325.5" x2="628.5" y1="72.7969" y2="72.7969"/><ellipse cx="335.5" cy="87.1016" fill="#84BE84" rx="3" ry="3" style="stroke:#038048;stroke-width:1.0;"/><text fill="#000000" font-family="sans-serif" font-size="14" lengthAdjust="spacing" text-decoration="underline" textLength="119" x="344.5" y="91.3301">main(String[]): void</text><ellipse cx="335.5" cy="104.7109" fill="#84BE84" rx="3" ry="3" style="stroke:#038048;stroke-width:1.0;"/><text fill="#000000" font-family="sans-serif" font-size="14" lengthAdjust="spacing" text-decoration="underline" textLength="279" x="344.5" y="108.9395">findPackageClasses(String): Set&lt;Class&lt;?&gt;&gt;</text></g></a><!--MD5=[f9e1f9da2ec41ded4ab306e70060b7ad]
class nz.ac.vuw.ecs.swen225.gp22.domain.DevMarkers.NeedsPrecons--><a href="DevMarkers.NeedsPrecons.html" target="_top" title="DevMarkers.NeedsPrecons.html" xlink:actuate="onRequest" xlink:href="DevMarkers.NeedsPrecons.html" xlink:show="new" xlink:title="DevMarkers.NeedsPrecons.html" xlink:type="simple"><g id="elem_nz.ac.vuw.ecs.swen225.gp22.domain.DevMarkers.NeedsPrecons"><rect codeLine="10" fill="#F1F1F1" height="40.1875" id="nz.ac.vuw.ecs.swen225.gp22.domain.DevMarkers.NeedsPrecons" rx="2.5" ry="2.5" style="stroke:#181818;stroke-width:0.5;" width="208" x="7" y="176"/><ellipse cx="22" cy="196.0938" fill="#E3664A" rx="11" ry="11" style="stroke:#181818;stroke-width:1.0;"/><path d="M24.3438,193.6719 L24.3438,193.1563 Q24.3438,192.3281 23.8594,191.8281 Q23.3906,191.3281 22.6406,191.3281 Q22.0469,191.3281 21.5156,191.7344 Q20.9844,192.125 20.7188,192.75 Q20.25,193.8438 20.25,194.9531 L20.25,197.4688 Q20.25,199.3906 21.1094,200.5156 Q21.6719,201.2656 22.6875,201.2656 Q23.2344,201.2656 23.6719,201.125 Q24.125,200.9844 24.375,200.7344 Q24.625,200.4844 24.8438,200.4844 Q25.1094,200.4844 25.2969,200.6719 Q25.4844,200.8594 25.4844,201.125 Q25.4844,201.5469 24.9063,201.9375 Q24.0781,202.5 22.6406,202.5 Q21.5469,202.5 20.8281,202 Q19.9063,201.3594 19.4531,200.0938 Q19,198.8281 19,197.5938 L19,194.8594 Q19,192.875 19.9844,191.4844 Q20.9688,190.0781 22.6094,190.0781 Q23.3594,190.0781 24,190.3906 Q24.6563,190.6875 25.125,191.4531 Q25.5938,192.2188 25.5938,193.1563 L25.5938,197.6875 Q25.9531,197.8594 25.9531,198.25 Q25.9531,198.5313 25.75,198.7188 Q25.5625,198.8906 25.0938,198.8906 L24.3438,198.8906 L24.3438,198.8438 Q23.9531,198.9063 23.7656,198.9063 Q22.7656,198.9063 22.0156,198.1719 Q21.2813,197.4219 21.2813,196.4219 Q21.2813,195.3594 22.0938,194.5625 Q22.9219,193.7656 24.3438,193.6719 Z M24.3438,194.9531 Q23.4531,195.0469 22.9844,195.4688 Q22.5313,195.8906 22.5313,196.4375 Q22.5313,196.9219 22.9063,197.2656 Q23.2969,197.6094 23.9375,197.6094 Q24.0625,197.6094 24.3438,197.5938 L24.3438,194.9531 Z " fill="#000000"/><text fill="#000000" font-family="sans-serif" font-size="14" lengthAdjust="spacing" textLength="172" x="38" y="195.5332">DevMarkers.NeedsPrecons</text><text fill="#000000" font-family="sans-serif" font-size="10" lengthAdjust="spacing" textLength="176" x="36" y="208.9902">nz.ac.vuw.ecs.swen225.gp22.domain</text></g></a><!--MD5=[02690f327e04ed6b7938bd8665b1ed4c]
class nz.ac.vuw.ecs.swen225.gp22.domain.DevMarkers.NeedsPostcons--><a href="DevMarkers.NeedsPostcons.html" target="_top" title="DevMarkers.NeedsPostcons.html" xlink:actuate="onRequest" xlink:href="DevMarkers.NeedsPostcons.html" xlink:show="new" xlink:title="DevMarkers.NeedsPostcons.html" xlink:type="simple"><g id="elem_nz.ac.vuw.ecs.swen225.gp22.domain.DevMarkers.NeedsPostcons"><rect codeLine="11" fill="#F1F1F1" height="40.1875" id="nz.ac.vuw.ecs.swen225.gp22.domain.DevMarkers.NeedsPostcons" rx="2.5" ry="2.5" style="stroke:#181818;stroke-width:0.5;" width="210" x="250" y="176"/><ellipse cx="265" cy="196.0938" fill="#E3664A" rx="11" ry="11" style="stroke:#181818;stroke-width:1.0;"/><path d="M267.3438,193.6719 L267.3438,193.1563 Q267.3438,192.3281 266.8594,191.8281 Q266.3906,191.3281 265.6406,191.3281 Q265.0469,191.3281 264.5156,191.7344 Q263.9844,192.125 263.7188,192.75 Q263.25,193.8438 263.25,194.9531 L263.25,197.4688 Q263.25,199.3906 264.1094,200.5156 Q264.6719,201.2656 265.6875,201.2656 Q266.2344,201.2656 266.6719,201.125 Q267.125,200.9844 267.375,200.7344 Q267.625,200.4844 267.8438,200.4844 Q268.1094,200.4844 268.2969,200.6719 Q268.4844,200.8594 268.4844,201.125 Q268.4844,201.5469 267.9063,201.9375 Q267.0781,202.5 265.6406,202.5 Q264.5469,202.5 263.8281,202 Q262.9063,201.3594 262.4531,200.0938 Q262,198.8281 262,197.5938 L262,194.8594 Q262,192.875 262.9844,191.4844 Q263.9688,190.0781 265.6094,190.0781 Q266.3594,190.0781 267,190.3906 Q267.6563,190.6875 268.125,191.4531 Q268.5938,192.2188 268.5938,193.1563 L268.5938,197.6875 Q268.9531,197.8594 268.9531,198.25 Q268.9531,198.5313 268.75,198.7188 Q268.5625,198.8906 268.0938,198.8906 L267.3438,198.8906 L267.3438,198.8438 Q266.9531,198.9063 266.7656,198.9063 Q265.7656,198.9063 265.0156,198.1719 Q264.2813,197.4219 264.2813,196.4219 Q264.2813,195.3594 265.0938,194.5625 Q265.9219,193.7656 267.3438,193.6719 Z M267.3438,194.9531 Q266.4531,195.0469 265.9844,195.4688 Q265.5313,195.8906 265.5313,196.4375 Q265.5313,196.9219 265.9063,197.2656 Q266.2969,197.6094 266.9375,197.6094 Q267.0625,197.6094 267.3438,197.5938 L267.3438,194.9531 Z " fill="#000000"/><text fill="#000000" font-family="sans-serif" font-size="14" lengthAdjust="spacing" textLength="178" x="279" y="195.5332">DevMarkers.NeedsPostcons</text><text fill="#000000" font-family="sans-serif" font-size="10" lengthAdjust="spacing" textLength="176" x="280" y="208.9902">nz.ac.vuw.ecs.swen225.gp22.domain</text></g></a><!--MD5=[9e3063b4e5ee6fbe1b9720d8a23cdda8]
class nz.ac.vuw.ecs.swen225.gp22.domain.DevMarkers.WIP--><a href="DevMarkers.WIP.html" target="_top" title="DevMarkers.WIP.html" xlink:actuate="onRequest" xlink:href="DevMarkers.WIP.html" xlink:show="new" xlink:title="DevMarkers.WIP.html" xlink:type="simple"><g id="elem_nz.ac.vuw.ecs.swen225.gp22.domain.DevMarkers.WIP"><rect codeLine="12" fill="#F1F1F1" height="40.1875" id="nz.ac.vuw.ecs.swen225.gp22.domain.DevMarkers.WIP" rx="2.5" ry="2.5" style="stroke:#181818;stroke-width:0.5;" width="208" x="495" y="176"/><ellipse cx="510" cy="196.0938" fill="#E3664A" rx="11" ry="11" style="stroke:#181818;stroke-width:1.0;"/><path d="M512.3438,193.6719 L512.3438,193.1563 Q512.3438,192.3281 511.8594,191.8281 Q511.3906,191.3281 510.6406,191.3281 Q510.0469,191.3281 509.5156,191.7344 Q508.9844,192.125 508.7188,192.75 Q508.25,193.8438 508.25,194.9531 L508.25,197.4688 Q508.25,199.3906 509.1094,200.5156 Q509.6719,201.2656 510.6875,201.2656 Q511.2344,201.2656 511.6719,201.125 Q512.125,200.9844 512.375,200.7344 Q512.625,200.4844 512.8438,200.4844 Q513.1094,200.4844 513.2969,200.6719 Q513.4844,200.8594 513.4844,201.125 Q513.4844,201.5469 512.9063,201.9375 Q512.0781,202.5 510.6406,202.5 Q509.5469,202.5 508.8281,202 Q507.9063,201.3594 507.4531,200.0938 Q507,198.8281 507,197.5938 L507,194.8594 Q507,192.875 507.9844,191.4844 Q508.9688,190.0781 510.6094,190.0781 Q511.3594,190.0781 512,190.3906 Q512.6563,190.6875 513.125,191.4531 Q513.5938,192.2188 513.5938,193.1563 L513.5938,197.6875 Q513.9531,197.8594 513.9531,198.25 Q513.9531,198.5313 513.75,198.7188 Q513.5625,198.8906 513.0938,198.8906 L512.3438,198.8906 L512.3438,198.8438 Q511.9531,198.9063 511.7656,198.9063 Q510.7656,198.9063 510.0156,198.1719 Q509.2813,197.4219 509.2813,196.4219 Q509.2813,195.3594 510.0938,194.5625 Q510.9219,193.7656 512.3438,193.6719 Z M512.3438,194.9531 Q511.4531,195.0469 510.9844,195.4688 Q510.5313,195.8906 510.5313,196.4375 Q510.5313,196.9219 510.9063,197.2656 Q511.2969,197.6094 511.9375,197.6094 Q512.0625,197.6094 512.3438,197.5938 L512.3438,194.9531 Z " fill="#000000"/><text fill="#000000" font-family="sans-serif" font-size="14" lengthAdjust="spacing" textLength="105" x="559.5" y="195.5332">DevMarkers.WIP</text><text fill="#000000" font-family="sans-serif" font-size="10" lengthAdjust="spacing" textLength="176" x="524" y="208.9902">nz.ac.vuw.ecs.swen225.gp22.domain</text></g></a><!--MD5=[a55ae96a0c0ca04c1b0698cf6f0b2490]
class nz.ac.vuw.ecs.swen225.gp22.domain.DevMarkers.WIPList--><a href="DevMarkers.WIPList.html" target="_top" title="DevMarkers.WIPList.html" xlink:actuate="onRequest" xlink:href="DevMarkers.WIPList.html" xlink:show="new" xlink:title="DevMarkers.WIPList.html" xlink:type="simple"><g id="elem_nz.ac.vuw.ecs.swen225.gp22.domain.DevMarkers.WIPList"><rect codeLine="13" fill="#F1F1F1" height="40.1875" id="nz.ac.vuw.ecs.swen225.gp22.domain.DevMarkers.WIPList" rx="2.5" ry="2.5" style="stroke:#181818;stroke-width:0.5;" width="208" x="738" y="176"/><ellipse cx="753" cy="196.0938" fill="#E3664A" rx="11" ry="11" style="stroke:#181818;stroke-width:1.0;"/><path d="M755.3438,193.6719 L755.3438,193.1563 Q755.3438,192.3281 754.8594,191.8281 Q754.3906,191.3281 753.6406,191.3281 Q753.0469,191.3281 752.5156,191.7344 Q751.9844,192.125 751.7188,192.75 Q751.25,193.8438 751.25,194.9531 L751.25,197.4688 Q751.25,199.3906 752.1094,200.5156 Q752.6719,201.2656 753.6875,201.2656 Q754.2344,201.2656 754.6719,201.125 Q755.125,200.9844 755.375,200.7344 Q755.625,200.4844 755.8438,200.4844 Q756.1094,200.4844 756.2969,200.6719 Q756.4844,200.8594 756.4844,201.125 Q756.4844,201.5469 755.9063,201.9375 Q755.0781,202.5 753.6406,202.5 Q752.5469,202.5 751.8281,202 Q750.9063,201.3594 750.4531,200.0938 Q750,198.8281 750,197.5938 L750,194.8594 Q750,192.875 750.9844,191.4844 Q751.9688,190.0781 753.6094,190.0781 Q754.3594,190.0781 755,190.3906 Q755.6563,190.6875 756.125,191.4531 Q756.5938,192.2188 756.5938,193.1563 L756.5938,197.6875 Q756.9531,197.8594 756.9531,198.25 Q756.9531,198.5313 756.75,198.7188 Q756.5625,198.8906 756.0938,198.8906 L755.3438,198.8906 L755.3438,198.8438 Q754.9531,198.9063 754.7656,198.9063 Q753.7656,198.9063 753.0156,198.1719 Q752.2813,197.4219 752.2813,196.4219 Q752.2813,195.3594 753.0938,194.5625 Q753.9219,193.7656 755.3438,193.6719 Z M755.3438,194.9531 Q754.4531,195.0469 753.9844,195.4688 Q753.5313,195.8906 753.5313,196.4375 Q753.5313,196.9219 753.9063,197.2656 Q754.2969,197.6094 754.9375,197.6094 Q755.0625,197.6094 755.3438,197.5938 L755.3438,194.9531 Z " fill="#000000"/><text fill="#000000" font-family="sans-serif" font-size="14" lengthAdjust="spacing" textLength="127" x="791.5" y="195.5332">DevMarkers.WIPList</text><text fill="#000000" font-family="sans-serif" font-size="10" lengthAdjust="spacing" textLength="176" x="767" y="208.9902">nz.ac.vuw.ecs.swen225.gp22.domain</text></g></a><!--MD5=[87e941d976be028bc585cd107942f2b5]
reverse link nz.ac.vuw.ecs.swen225.gp22.domain.DevMarkers to nz.ac.vuw.ecs.swen225.gp22.domain.DevMarkers.NeedsPrecons--><g id="link_nz.ac.vuw.ecs.swen225.gp22.domain.DevMarkers_nz.ac.vuw.ecs.swen225.gp22.domain.DevMarkers.NeedsPrecons"><path codeLine="15" d="M315.05,121.13 C260.62,140.83 203.68,161.45 163.82,175.88 " fill="none" id="nz.ac.vuw.ecs.swen225.gp22.domain.DevMarkers-backto-nz.ac.vuw.ecs.swen225.gp22.domain.DevMarkers.NeedsPrecons" style="stroke:#181818;stroke-width:1.0;"/><ellipse cx="321.667" cy="118.7311" fill="#FFFFFF" rx="8" ry="8" style="stroke:#181818;stroke-width:1.0;"/><line style="stroke:#181818;stroke-width:1.0;" x1="314.144" x2="329.19" y1="121.4522" y2="116.01"/><line style="stroke:#181818;stroke-width:1.0;" x1="318.9459" x2="324.3881" y1="111.2081" y2="126.2541"/></g><!--MD5=[7b69952d98e0be35e497a02812173e3e]
reverse link nz.ac.vuw.ecs.swen225.gp22.domain.DevMarkers to nz.ac.vuw.ecs.swen225.gp22.domain.DevMarkers.NeedsPostcons--><g id="link_nz.ac.vuw.ecs.swen225.gp22.domain.DevMarkers_nz.ac.vuw.ecs.swen225.gp22.domain.DevMarkers.NeedsPostcons"><path codeLine="16" d="M417.37,127.26 C401.08,144.96 384.65,162.79 372.75,175.72 " fill="none" id="nz.ac.vuw.ecs.swen225.gp22.domain.DevMarkers-backto-nz.ac.vuw.ecs.swen225.gp22.domain.DevMarkers.NeedsPostcons" style="stroke:#181818;stroke-width:1.0;"/><ellipse cx="422.3104" cy="121.8946" fill="#FFFFFF" rx="8" ry="8" style="stroke:#181818;stroke-width:1.0;"/><line style="stroke:#181818;stroke-width:1.0;" x1="416.8908" x2="427.73" y1="127.7791" y2="116.01"/><line style="stroke:#181818;stroke-width:1.0;" x1="416.4259" x2="428.195" y1="116.475" y2="127.3141"/></g><!--MD5=[a53d5472793fe0ac07c0627f06dab580]
reverse link nz.ac.vuw.ecs.swen225.gp22.domain.DevMarkers to nz.ac.vuw.ecs.swen225.gp22.domain.DevMarkers.WIP--><g id="link_nz.ac.vuw.ecs.swen225.gp22.domain.DevMarkers_nz.ac.vuw.ecs.swen225.gp22.domain.DevMarkers.WIP"><path codeLine="17" d="M536.63,127.26 C552.92,144.96 569.35,162.79 581.25,175.72 " fill="none" id="nz.ac.vuw.ecs.swen225.gp22.domain.DevMarkers-backto-nz.ac.vuw.ecs.swen225.gp22.domain.DevMarkers.WIP" style="stroke:#181818;stroke-width:1.0;"/><ellipse cx="531.6896" cy="121.8946" fill="#FFFFFF" rx="8" ry="8" style="stroke:#181818;stroke-width:1.0;"/><line style="stroke:#181818;stroke-width:1.0;" x1="537.1092" x2="526.27" y1="127.7791" y2="116.01"/><line style="stroke:#181818;stroke-width:1.0;" x1="525.805" x2="537.5741" y1="127.3141" y2="116.475"/></g><!--MD5=[8f8df7f1ad6d3b861b911555fbe866fa]
reverse link nz.ac.vuw.ecs.swen225.gp22.domain.DevMarkers to nz.ac.vuw.ecs.swen225.gp22.domain.DevMarkers.WIPList--><g id="link_nz.ac.vuw.ecs.swen225.gp22.domain.DevMarkers_nz.ac.vuw.ecs.swen225.gp22.domain.DevMarkers.WIPList"><path codeLine="18" d="M638.51,121.13 C692.79,140.83 749.58,161.45 789.33,175.88 " fill="none" id="nz.ac.vuw.ecs.swen225.gp22.domain.DevMarkers-backto-nz.ac.vuw.ecs.swen225.gp22.domain.DevMarkers.WIPList" style="stroke:#181818;stroke-width:1.0;"/><ellipse cx="631.9306" cy="118.7378" fill="#FFFFFF" rx="8" ry="8" style="stroke:#181818;stroke-width:1.0;"/><line style="stroke:#181818;stroke-width:1.0;" x1="639.4511" x2="624.41" y1="121.4657" y2="116.01"/><line style="stroke:#181818;stroke-width:1.0;" x1="629.2027" x2="634.6584" y1="126.2584" y2="111.2173"/></g><rect fill="none" height="12.5781" style="stroke:none;stroke-width:1.0;" width="184" x="377.5" y="221.1875"/><text fill="#888888" font-family="sans-serif" font-size="10" lengthAdjust="spacing" textLength="184" x="377.5" y="231.5684">UMLDoclet 2.0.19, PlantUML 1.2022.8</text><!--MD5=[25695eac0300c1ea6f0632552088a14b]
@startuml
    set namespaceSeparator none
    hide empty fields
    hide empty methods

    class "<size:14>DevMarkers\n<size:10>nz.ac.vuw.ecs.swen225.gp22.domain" as nz.ac.vuw.ecs.swen225.gp22.domain.DevMarkers [[DevMarkers.html]] {
        {static} +markersEnabled: boolean
        {static} +main(String[]): void
        {static} +findPackageClasses(String): Set<Class<?>>
    }
    annotation "<size:14>DevMarkers.NeedsPrecons\n<size:10>nz.ac.vuw.ecs.swen225.gp22.domain" as nz.ac.vuw.ecs.swen225.gp22.domain.DevMarkers.NeedsPrecons [[DevMarkers.NeedsPrecons.html]]
    annotation "<size:14>DevMarkers.NeedsPostcons\n<size:10>nz.ac.vuw.ecs.swen225.gp22.domain" as nz.ac.vuw.ecs.swen225.gp22.domain.DevMarkers.NeedsPostcons [[DevMarkers.NeedsPostcons.html]]
    annotation "<size:14>DevMarkers.WIP\n<size:10>nz.ac.vuw.ecs.swen225.gp22.domain" as nz.ac.vuw.ecs.swen225.gp22.domain.DevMarkers.WIP [[DevMarkers.WIP.html]]
    annotation "<size:14>DevMarkers.WIPList\n<size:10>nz.ac.vuw.ecs.swen225.gp22.domain" as nz.ac.vuw.ecs.swen225.gp22.domain.DevMarkers.WIPList [[DevMarkers.WIPList.html]]

    nz.ac.vuw.ecs.swen225.gp22.domain.DevMarkers +- - nz.ac.vuw.ecs.swen225.gp22.domain.DevMarkers.NeedsPrecons
    nz.ac.vuw.ecs.swen225.gp22.domain.DevMarkers +- - nz.ac.vuw.ecs.swen225.gp22.domain.DevMarkers.NeedsPostcons
    nz.ac.vuw.ecs.swen225.gp22.domain.DevMarkers +- - nz.ac.vuw.ecs.swen225.gp22.domain.DevMarkers.WIP
    nz.ac.vuw.ecs.swen225.gp22.domain.DevMarkers +- - nz.ac.vuw.ecs.swen225.gp22.domain.DevMarkers.WIPList

    center footer UMLDoclet 2.0.19, PlantUML 1.2022.8
@enduml

PlantUML version 1.2022.8(Sun Sep 25 22:00:33 NZDT 2022)
(APACHE source distribution)
Java Runtime: Java(TM) SE Runtime Environment
JVM: Java HotSpot(TM) 64-Bit Server VM
Default Encoding: Cp1252
Language: en
Country: NZ
--></g></svg>