<?xml version="1.0" encoding="UTF-8" standalone="no"?><svg xmlns="http://www.w3.org/2000/svg" xmlns:xlink="http://www.w3.org/1999/xlink" contentStyleType="text/css" height="172px" preserveAspectRatio="none" style="width:222px;height:172px;background:#FFFFFF;" version="1.1" viewBox="0 0 222 172" width="222px" zoomAndPan="magnify"><defs/><g><!--MD5=[9e3063b4e5ee6fbe1b9720d8a23cdda8]
class nz.ac.vuw.ecs.swen225.gp22.domain.DevMarkers.WIP--><a href="DevMarkers.WIP.html" target="_top" title="DevMarkers.WIP.html" xlink:actuate="onRequest" xlink:href="DevMarkers.WIP.html" xlink:show="new" xlink:title="DevMarkers.WIP.html" xlink:type="simple"><g id="elem_nz.ac.vuw.ecs.swen225.gp22.domain.DevMarkers.WIP"><rect codeLine="5" fill="#F1F1F1" height="40.1875" id="nz.ac.vuw.ecs.swen225.gp22.domain.DevMarkers.WIP" rx="2.5" ry="2.5" style="stroke:#181818;stroke-width:0.5;" width="208" x="7" y="107"/><ellipse cx="22" cy="127.0938" fill="#E3664A" rx="11" ry="11" style="stroke:#181818;stroke-width:1.0;"/><path d="M24.3438,124.6719 L24.3438,124.1563 Q24.3438,123.3281 23.8594,122.8281 Q23.3906,122.3281 22.6406,122.3281 Q22.0469,122.3281 21.5156,122.7344 Q20.9844,123.125 20.7188,123.75 Q20.25,124.8438 20.25,125.9531 L20.25,128.4688 Q20.25,130.3906 21.1094,131.5156 Q21.6719,132.2656 22.6875,132.2656 Q23.2344,132.2656 23.6719,132.125 Q24.125,131.9844 24.375,131.7344 Q24.625,131.4844 24.8438,131.4844 Q25.1094,131.4844 25.2969,131.6719 Q25.4844,131.8594 25.4844,132.125 Q25.4844,132.5469 24.9063,132.9375 Q24.0781,133.5 22.6406,133.5 Q21.5469,133.5 20.8281,133 Q19.9063,132.3594 19.4531,131.0938 Q19,129.8281 19,128.5938 L19,125.8594 Q19,123.875 19.9844,122.4844 Q20.9688,121.0781 22.6094,121.0781 Q23.3594,121.0781 24,121.3906 Q24.6563,121.6875 25.125,122.4531 Q25.5938,123.2188 25.5938,124.1563 L25.5938,128.6875 Q25.9531,128.8594 25.9531,129.25 Q25.9531,129.5313 25.75,129.7188 Q25.5625,129.8906 25.0938,129.8906 L24.3438,129.8906 L24.3438,129.8438 Q23.9531,129.9063 23.7656,129.9063 Q22.7656,129.9063 22.0156,129.1719 Q21.2813,128.4219 21.2813,127.4219 Q21.2813,126.3594 22.0938,125.5625 Q22.9219,124.7656 24.3438,124.6719 Z M24.3438,125.9531 Q23.4531,126.0469 22.9844,126.4688 Q22.5313,126.8906 22.5313,127.4375 Q22.5313,127.9219 22.9063,128.2656 Q23.2969,128.6094 23.9375,128.6094 Q24.0625,128.6094 24.3438,128.5938 L24.3438,125.9531 Z " fill="#000000"/><text fill="#000000" font-family="sans-serif" font-size="14" lengthAdjust="spacing" textLength="105" x="71.5" y="126.5332">DevMarkers.WIP</text><text fill="#000000" font-family="sans-serif" font-size="10" lengthAdjust="spacing" textLength="176" x="36" y="139.9902">nz.ac.vuw.ecs.swen225.gp22.domain</text></g></a><!--MD5=[b2ee5003f6ec486ad1b2dae7b1212cc8]
class nz.ac.vuw.ecs.swen225.gp22.domain.DevMarkers--><a href="DevMarkers.html" target="_top" title="DevMarkers.html" xlink:actuate="onRequest" xlink:href="DevMarkers.html" xlink:show="new" xlink:title="DevMarkers.html" xlink:type="simple"><g id="elem_nz.ac.vuw.ecs.swen225.gp22.domain.DevMarkers"><rect codeLine="7" fill="#F1F1F1" height="40.1875" id="nz.ac.vuw.ecs.swen225.gp22.domain.DevMarkers" rx="2.5" ry="2.5" style="stroke:#181818;stroke-width:0.5;" width="208" x="7" y="7"/><ellipse cx="22" cy="27.0938" fill="#ADD1B2" rx="11" ry="11" style="stroke:#181818;stroke-width:1.0;"/><path d="M24.7656,22.9688 Q24.9219,22.75 25.1094,22.6406 Q25.2969,22.5313 25.5156,22.5313 Q25.8906,22.5313 26.125,22.7969 Q26.3594,23.0469 26.3594,23.6563 L26.3594,25.1094 Q26.3594,25.7188 26.125,25.9844 Q25.8906,26.25 25.5156,26.25 Q25.1719,26.25 24.9688,26.0469 Q24.7656,25.8594 24.6563,25.3438 Q24.6094,24.9844 24.4219,24.7969 Q24.0938,24.4219 23.4844,24.2031 Q22.875,23.9844 22.25,23.9844 Q21.4844,23.9844 20.8438,24.3125 Q20.2188,24.6406 19.7188,25.3906 Q19.2344,26.1406 19.2344,27.1719 L19.2344,28.2656 Q19.2344,29.5 20.125,30.3281 Q21.0156,31.1406 22.6094,31.1406 Q23.5469,31.1406 24.2031,30.8906 Q24.5938,30.7344 25.0156,30.2969 Q25.2813,30.0313 25.4219,29.9531 Q25.5781,29.875 25.7813,29.875 Q26.1094,29.875 26.3594,30.1406 Q26.625,30.3906 26.625,30.7344 Q26.625,31.0781 26.2813,31.4844 Q25.7813,32.0625 24.9844,32.3906 Q23.9063,32.8438 22.6094,32.8438 Q21.0938,32.8438 19.8906,32.2188 Q18.9063,31.7188 18.2188,30.6563 Q17.5313,29.5781 17.5313,28.2969 L17.5313,27.1406 Q17.5313,25.8125 18.1406,24.6719 Q18.7656,23.5156 19.8594,22.9063 Q20.9531,22.2813 22.1875,22.2813 Q22.9219,22.2813 23.5625,22.4531 Q24.2188,22.6094 24.7656,22.9688 Z " fill="#000000"/><text fill="#000000" font-family="sans-serif" font-size="14" lengthAdjust="spacing" textLength="76" x="86" y="26.5332">DevMarkers</text><text fill="#000000" font-family="sans-serif" font-size="10" lengthAdjust="spacing" textLength="176" x="36" y="39.9902">nz.ac.vuw.ecs.swen225.gp22.domain</text></g></a><!--MD5=[a53d5472793fe0ac07c0627f06dab580]
reverse link nz.ac.vuw.ecs.swen225.gp22.domain.DevMarkers to nz.ac.vuw.ecs.swen225.gp22.domain.DevMarkers.WIP--><g id="link_nz.ac.vuw.ecs.swen225.gp22.domain.DevMarkers_nz.ac.vuw.ecs.swen225.gp22.domain.DevMarkers.WIP"><path codeLine="9" d="M111,62.41 C111,77.26 111,94.07 111,106.68 " fill="none" id="nz.ac.vuw.ecs.swen225.gp22.domain.DevMarkers-backto-nz.ac.vuw.ecs.swen225.gp22.domain.DevMarkers.WIP" style="stroke:#181818;stroke-width:1.0;"/><ellipse cx="111" cy="55.36" fill="#FFFFFF" rx="8" ry="8" style="stroke:#181818;stroke-width:1.0;"/><line style="stroke:#181818;stroke-width:1.0;" x1="111" x2="111" y1="63.36" y2="47.36"/><line style="stroke:#181818;stroke-width:1.0;" x1="103" x2="119" y1="55.36" y2="55.36"/></g><rect fill="none" height="12.5781" style="stroke:none;stroke-width:1.0;" width="184" x="12" y="152.1875"/><text fill="#888888" font-family="sans-serif" font-size="10" lengthAdjust="spacing" textLength="184" x="12" y="162.5684">UMLDoclet 2.0.19, PlantUML 1.2022.8</text><!--MD5=[03e285965bdeea3a1d617134ae5d61e4]
@startuml
    set namespaceSeparator none
    hide empty fields
    hide empty methods

    annotation "<size:14>DevMarkers.WIP\n<size:10>nz.ac.vuw.ecs.swen225.gp22.domain" as nz.ac.vuw.ecs.swen225.gp22.domain.DevMarkers.WIP [[DevMarkers.WIP.html]]

    class "<size:14>DevMarkers\n<size:10>nz.ac.vuw.ecs.swen225.gp22.domain" as nz.ac.vuw.ecs.swen225.gp22.domain.DevMarkers [[DevMarkers.html]]

    nz.ac.vuw.ecs.swen225.gp22.domain.DevMarkers +- - nz.ac.vuw.ecs.swen225.gp22.domain.DevMarkers.WIP

    center footer UMLDoclet 2.0.19, PlantUML 1.2022.8
@enduml

PlantUML version 1.2022.8(Sun Sep 25 22:00:33 NZDT 2022)
(APACHE source distribution)
Java Runtime: Java(TM) SE Runtime Environment
JVM: Java HotSpot(TM) 64-Bit Server VM
Default Encoding: Cp1252
Language: en
Country: NZ
--></g></svg>