<?xml version="1.0" encoding="UTF-8" standalone="no"?><svg xmlns="http://www.w3.org/2000/svg" xmlns:xlink="http://www.w3.org/1999/xlink" contentStyleType="text/css" height="288px" preserveAspectRatio="none" style="width:374px;height:288px;background:#FFFFFF;" version="1.1" viewBox="0 0 374 288" width="374px" zoomAndPan="magnify"><defs/><g><!--MD5=[57b291128dc68164abad2304da37947c]
class nz.ac.vuw.ecs.swen225.gp22.domain.EnemyEntity--><a href="EnemyEntity.html" target="_top" title="EnemyEntity.html" xlink:actuate="onRequest" xlink:href="EnemyEntity.html" xlink:show="new" xlink:title="EnemyEntity.html" xlink:type="simple"><g id="elem_nz.ac.vuw.ecs.swen225.gp22.domain.EnemyEntity"><rect codeLine="5" fill="#F1F1F1" height="109.0156" id="nz.ac.vuw.ecs.swen225.gp22.domain.EnemyEntity" rx="2.5" ry="2.5" style="stroke:#181818;stroke-width:0.5;" width="356" x="7" y="153"/><ellipse cx="22" cy="173.0938" fill="#A9DCDF" rx="11" ry="11" style="stroke:#181818;stroke-width:1.0;"/><path d="M24.1875,174.8594 L20.0469,174.8594 L19.625,175.8906 L20.0469,175.8906 Q20.6563,175.8906 20.9219,176.125 Q21.1875,176.3594 21.1875,176.75 Q21.1875,177.125 20.9219,177.3594 Q20.6563,177.5938 20.0469,177.5938 L17.75,177.5938 Q17.1406,177.5938 16.8906,177.3594 Q16.625,177.125 16.625,176.7344 Q16.625,176.3594 16.9063,176.125 Q17.1719,175.875 17.7969,175.8906 L20.4688,169.2344 L19.3594,169.2344 Q18.75,169.2344 18.4844,169 Q18.2188,168.7656 18.2188,168.375 Q18.2188,168 18.4844,167.7656 Q18.75,167.5313 19.3594,167.5313 L23.0313,167.5313 L26.4219,175.8906 Q27.0156,175.8906 27.2031,176.0313 Q27.5938,176.2969 27.5938,176.75 Q27.5938,177.125 27.3281,177.3594 Q27.0781,177.5938 26.4688,177.5938 L24.1719,177.5938 Q23.5625,177.5938 23.2969,177.3594 Q23.0313,177.125 23.0313,176.7344 Q23.0313,176.3594 23.2969,176.125 Q23.5625,175.8906 24.1719,175.8906 L24.5938,175.8906 L24.1875,174.8594 Z M23.4688,173.1563 L22.1094,169.7813 L20.7344,173.1563 L23.4688,173.1563 Z " fill="#000000"/><text fill="#000000" font-family="sans-serif" font-size="14" font-style="italic" lengthAdjust="spacing" textLength="78" x="85" y="172.5332">EnemyEntity</text><text fill="#000000" font-family="sans-serif" font-size="10" font-style="italic" lengthAdjust="spacing" textLength="176" x="36" y="185.9902">nz.ac.vuw.ecs.swen225.gp22.domain</text><rect fill="#FFFFFF" height="17.0938" style="stroke:#181818;stroke-width:1.0;stroke-dasharray:2.0,2.0;" width="146" x="220" y="150"/><text fill="#000000" font-family="sans-serif" font-size="12" font-style="italic" lengthAdjust="spacing" textLength="144" x="221" y="163.457">S extends Observable&lt;S&gt;</text><line style="stroke:#181818;stroke-width:0.5;" x1="8" x2="362" y1="193.1875" y2="193.1875"/><ellipse cx="18" cy="207.4922" fill="none" rx="3" ry="3" style="stroke:#038048;stroke-width:1.0;"/><text fill="#000000" font-family="sans-serif" font-size="14" lengthAdjust="spacing" text-decoration="underline" textLength="304" x="27" y="211.7207">imageMap: HashMap&lt;Direction, BufferedImage&gt;</text><line style="stroke:#181818;stroke-width:0.5;" x1="8" x2="362" y1="218.7969" y2="218.7969"/><ellipse cx="18" cy="233.1016" fill="#84BE84" rx="3" ry="3" style="stroke:#038048;stroke-width:1.0;"/><text fill="#000000" font-family="sans-serif" font-size="14" lengthAdjust="spacing" textLength="207" x="27" y="237.3301">EnemyEntity(Point, Direction, int)</text><ellipse cx="18" cy="250.7109" fill="#84BE84" rx="3" ry="3" style="stroke:#038048;stroke-width:1.0;"/><text fill="#000000" font-family="sans-serif" font-size="14" lengthAdjust="spacing" textLength="94" x="27" y="254.9395">getSpeed(): int</text></g></a><!--MD5=[c1afd2d57aec8c90a42dc3be3bff6847]
class nz.ac.vuw.ecs.swen225.gp22.domain.Entity--><a href="Entity.html" target="_top" title="Entity.html" xlink:actuate="onRequest" xlink:href="Entity.html" xlink:show="new" xlink:title="Entity.html" xlink:type="simple"><g id="elem_nz.ac.vuw.ecs.swen225.gp22.domain.Entity"><rect codeLine="11" fill="#F1F1F1" height="83.4063" id="nz.ac.vuw.ecs.swen225.gp22.domain.Entity" rx="2.5" ry="2.5" style="stroke:#181818;stroke-width:0.5;" width="356" x="7" y="10"/><ellipse cx="22" cy="30.0938" fill="#A9DCDF" rx="11" ry="11" style="stroke:#181818;stroke-width:1.0;"/><path d="M24.1875,31.8594 L20.0469,31.8594 L19.625,32.8906 L20.0469,32.8906 Q20.6563,32.8906 20.9219,33.125 Q21.1875,33.3594 21.1875,33.75 Q21.1875,34.125 20.9219,34.3594 Q20.6563,34.5938 20.0469,34.5938 L17.75,34.5938 Q17.1406,34.5938 16.8906,34.3594 Q16.625,34.125 16.625,33.7344 Q16.625,33.3594 16.9063,33.125 Q17.1719,32.875 17.7969,32.8906 L20.4688,26.2344 L19.3594,26.2344 Q18.75,26.2344 18.4844,26 Q18.2188,25.7656 18.2188,25.375 Q18.2188,25 18.4844,24.7656 Q18.75,24.5313 19.3594,24.5313 L23.0313,24.5313 L26.4219,32.8906 Q27.0156,32.8906 27.2031,33.0313 Q27.5938,33.2969 27.5938,33.75 Q27.5938,34.125 27.3281,34.3594 Q27.0781,34.5938 26.4688,34.5938 L24.1719,34.5938 Q23.5625,34.5938 23.2969,34.3594 Q23.0313,34.125 23.0313,33.7344 Q23.0313,33.3594 23.2969,33.125 Q23.5625,32.8906 24.1719,32.8906 L24.5938,32.8906 L24.1875,31.8594 Z M23.4688,30.1563 L22.1094,26.7813 L20.7344,30.1563 L23.4688,30.1563 Z " fill="#000000"/><text fill="#000000" font-family="sans-serif" font-size="14" font-style="italic" lengthAdjust="spacing" textLength="35" x="106.5" y="29.5332">Entity</text><text fill="#000000" font-family="sans-serif" font-size="10" font-style="italic" lengthAdjust="spacing" textLength="176" x="36" y="42.9902">nz.ac.vuw.ecs.swen225.gp22.domain</text><rect fill="#FFFFFF" height="17.0938" style="stroke:#181818;stroke-width:1.0;stroke-dasharray:2.0,2.0;" width="146" x="220" y="7"/><text fill="#000000" font-family="sans-serif" font-size="12" font-style="italic" lengthAdjust="spacing" textLength="144" x="221" y="20.457">S extends Observable&lt;S&gt;</text><line style="stroke:#181818;stroke-width:0.5;" x1="8" x2="362" y1="50.1875" y2="50.1875"/><ellipse cx="18" cy="64.4922" fill="#84BE84" rx="3" ry="3" style="stroke:#038048;stroke-width:1.0;"/><text fill="#000000" font-family="sans-serif" font-size="14" font-style="italic" lengthAdjust="spacing" textLength="70" x="27" y="68.7207">ping(): void</text><ellipse cx="18" cy="82.1016" fill="#84BE84" rx="3" ry="3" style="stroke:#038048;stroke-width:1.0;"/><text fill="#000000" font-family="sans-serif" font-size="14" font-style="italic" lengthAdjust="spacing" textLength="86" x="27" y="86.3301">unping(): void</text></g></a><!--MD5=[26893c9b485200bf22ac1333747527b6]
reverse link nz.ac.vuw.ecs.swen225.gp22.domain.Entity to nz.ac.vuw.ecs.swen225.gp22.domain.EnemyEntity--><g id="link_nz.ac.vuw.ecs.swen225.gp22.domain.Entity_nz.ac.vuw.ecs.swen225.gp22.domain.EnemyEntity"><path codeLine="16" d="M185,113.68 C185,126.67 185,140.28 185,152.95 " fill="none" id="nz.ac.vuw.ecs.swen225.gp22.domain.Entity-backto-nz.ac.vuw.ecs.swen225.gp22.domain.EnemyEntity" style="stroke:#181818;stroke-width:1.0;"/><polygon fill="none" points="178,113.36,185,93.36,192,113.36,178,113.36" style="stroke:#181818;stroke-width:1.0;"/></g><rect fill="none" height="12.5781" style="stroke:none;stroke-width:1.0;" width="184" x="88" y="268.0156"/><text fill="#888888" font-family="sans-serif" font-size="10" lengthAdjust="spacing" textLength="184" x="88" y="278.3965">UMLDoclet 2.0.19, PlantUML 1.2022.8</text><!--MD5=[48fcde7b9761e704b3c1555ebbe86efc]
@startuml
    set namespaceSeparator none
    hide empty fields
    hide empty methods

    abstract class "<size:14>EnemyEntity\n<size:10>nz.ac.vuw.ecs.swen225.gp22.domain" as nz.ac.vuw.ecs.swen225.gp22.domain.EnemyEntity<S extends Observable<S>> [[EnemyEntity.html]] {
        {static} +imageMap: HashMap<Direction, BufferedImage>
        +EnemyEntity(Point, Direction, int)
        +getSpeed(): int
    }

    abstract class "<size:14>Entity\n<size:10>nz.ac.vuw.ecs.swen225.gp22.domain" as nz.ac.vuw.ecs.swen225.gp22.domain.Entity<S extends Observable<S>> [[Entity.html]] {
        {abstract} +ping(): void
        {abstract} +unping(): void
    }

    nz.ac.vuw.ecs.swen225.gp22.domain.Entity <|- - nz.ac.vuw.ecs.swen225.gp22.domain.EnemyEntity

    center footer UMLDoclet 2.0.19, PlantUML 1.2022.8
@enduml

PlantUML version 1.2022.8(Sun Sep 25 22:00:33 NZDT 2022)
(APACHE source distribution)
Java Runtime: Java(TM) SE Runtime Environment
JVM: Java HotSpot(TM) 64-Bit Server VM
Default Encoding: Cp1252
Language: en
Country: NZ
--></g></svg>