<?xml version="1.0" encoding="UTF-8" standalone="no"?><svg xmlns="http://www.w3.org/2000/svg" xmlns:xlink="http://www.w3.org/1999/xlink" contentStyleType="text/css" height="591px" preserveAspectRatio="none" style="width:465px;height:591px;background:#FFFFFF;" version="1.1" viewBox="0 0 465 591" width="465px" zoomAndPan="magnify"><defs/><g><!--MD5=[c1afd2d57aec8c90a42dc3be3bff6847]
class nz.ac.vuw.ecs.swen225.gp22.domain.Entity--><a href="Entity.html" target="_top" title="Entity.html" xlink:actuate="onRequest" xlink:href="Entity.html" xlink:show="new" xlink:title="Entity.html" xlink:type="simple"><g id="elem_nz.ac.vuw.ecs.swen225.gp22.domain.Entity"><rect codeLine="5" fill="#F1F1F1" height="355.5469" id="nz.ac.vuw.ecs.swen225.gp22.domain.Entity" rx="2.5" ry="2.5" style="stroke:#181818;stroke-width:0.5;" width="356" x="54" y="110"/><ellipse cx="69" cy="130.0938" fill="#A9DCDF" rx="11" ry="11" style="stroke:#181818;stroke-width:1.0;"/><path d="M71.1875,131.8594 L67.0469,131.8594 L66.625,132.8906 L67.0469,132.8906 Q67.6563,132.8906 67.9219,133.125 Q68.1875,133.3594 68.1875,133.75 Q68.1875,134.125 67.9219,134.3594 Q67.6563,134.5938 67.0469,134.5938 L64.75,134.5938 Q64.1406,134.5938 63.8906,134.3594 Q63.625,134.125 63.625,133.7344 Q63.625,133.3594 63.9063,133.125 Q64.1719,132.875 64.7969,132.8906 L67.4688,126.2344 L66.3594,126.2344 Q65.75,126.2344 65.4844,126 Q65.2188,125.7656 65.2188,125.375 Q65.2188,125 65.4844,124.7656 Q65.75,124.5313 66.3594,124.5313 L70.0313,124.5313 L73.4219,132.8906 Q74.0156,132.8906 74.2031,133.0313 Q74.5938,133.2969 74.5938,133.75 Q74.5938,134.125 74.3281,134.3594 Q74.0781,134.5938 73.4688,134.5938 L71.1719,134.5938 Q70.5625,134.5938 70.2969,134.3594 Q70.0313,134.125 70.0313,133.7344 Q70.0313,133.3594 70.2969,133.125 Q70.5625,132.8906 71.1719,132.8906 L71.5938,132.8906 L71.1875,131.8594 Z M70.4688,130.1563 L69.1094,126.7813 L67.7344,130.1563 L70.4688,130.1563 Z " fill="#000000"/><text fill="#000000" font-family="sans-serif" font-size="14" font-style="italic" lengthAdjust="spacing" textLength="35" x="153.5" y="129.5332">Entity</text><text fill="#000000" font-family="sans-serif" font-size="10" font-style="italic" lengthAdjust="spacing" textLength="176" x="83" y="142.9902">nz.ac.vuw.ecs.swen225.gp22.domain</text><rect fill="#FFFFFF" height="17.0938" style="stroke:#181818;stroke-width:1.0;stroke-dasharray:2.0,2.0;" width="146" x="267" y="107"/><text fill="#000000" font-family="sans-serif" font-size="12" font-style="italic" lengthAdjust="spacing" textLength="144" x="268" y="120.457">S extends Observable&lt;S&gt;</text><line style="stroke:#181818;stroke-width:0.5;" x1="55" x2="409" y1="150.1875" y2="150.1875"/><ellipse cx="65" cy="164.4922" fill="none" rx="3" ry="3" style="stroke:#038048;stroke-width:1.0;"/><text fill="#000000" font-family="sans-serif" font-size="14" lengthAdjust="spacing" textLength="85" x="74" y="168.7207">action: Action</text><line style="stroke:#181818;stroke-width:0.5;" x1="55" x2="409" y1="175.7969" y2="175.7969"/><ellipse cx="65" cy="190.1016" fill="#84BE84" rx="3" ry="3" style="stroke:#038048;stroke-width:1.0;"/><text fill="#000000" font-family="sans-serif" font-size="14" lengthAdjust="spacing" textLength="141" x="74" y="194.3301">Entity(Point, Direction)</text><ellipse cx="65" cy="207.7109" fill="#84BE84" rx="3" ry="3" style="stroke:#038048;stroke-width:1.0;"/><text fill="#000000" font-family="sans-serif" font-size="14" font-style="italic" lengthAdjust="spacing" textLength="70" x="74" y="211.9395">ping(): void</text><ellipse cx="65" cy="225.3203" fill="#84BE84" rx="3" ry="3" style="stroke:#038048;stroke-width:1.0;"/><text fill="#000000" font-family="sans-serif" font-size="14" font-style="italic" lengthAdjust="spacing" textLength="86" x="74" y="229.5488">unping(): void</text><ellipse cx="65" cy="242.9297" fill="#84BE84" rx="3" ry="3" style="stroke:#038048;stroke-width:1.0;"/><text fill="#000000" font-family="sans-serif" font-size="14" lengthAdjust="spacing" textLength="131" x="74" y="247.1582">hasAction(): boolean</text><ellipse cx="65" cy="260.5391" fill="#84BE84" rx="3" ry="3" style="stroke:#038048;stroke-width:1.0;"/><text fill="#000000" font-family="sans-serif" font-size="14" lengthAdjust="spacing" textLength="118" x="74" y="264.7676">pollAction(): Action</text><ellipse cx="65" cy="278.1484" fill="#84BE84" rx="3" ry="3" style="stroke:#038048;stroke-width:1.0;"/><text fill="#000000" font-family="sans-serif" font-size="14" lengthAdjust="spacing" textLength="134" x="74" y="282.377">move(Direction): void</text><ellipse cx="65" cy="295.7578" fill="#84BE84" rx="3" ry="3" style="stroke:#038048;stroke-width:1.0;"/><text fill="#000000" font-family="sans-serif" font-size="14" lengthAdjust="spacing" textLength="110" x="74" y="299.9863">move(Point): void</text><ellipse cx="65" cy="313.3672" fill="#84BE84" rx="3" ry="3" style="stroke:#038048;stroke-width:1.0;"/><text fill="#000000" font-family="sans-serif" font-size="14" lengthAdjust="spacing" textLength="116" x="74" y="317.5957">move(int, int): void</text><ellipse cx="65" cy="330.9766" fill="#84BE84" rx="3" ry="3" style="stroke:#038048;stroke-width:1.0;"/><text fill="#000000" font-family="sans-serif" font-size="14" lengthAdjust="spacing" textLength="78" x="74" y="335.2051">move(): void</text><ellipse cx="65" cy="348.5859" fill="#84BE84" rx="3" ry="3" style="stroke:#038048;stroke-width:1.0;"/><text fill="#000000" font-family="sans-serif" font-size="14" lengthAdjust="spacing" textLength="189" x="74" y="352.8145">moveAndTurn(Direction): void</text><ellipse cx="65" cy="366.1953" fill="#84BE84" rx="3" ry="3" style="stroke:#038048;stroke-width:1.0;"/><text fill="#000000" font-family="sans-serif" font-size="14" lengthAdjust="spacing" textLength="94" x="74" y="370.4238">getPos(): Point</text><ellipse cx="65" cy="383.8047" fill="#84BE84" rx="3" ry="3" style="stroke:#038048;stroke-width:1.0;"/><text fill="#000000" font-family="sans-serif" font-size="14" lengthAdjust="spacing" textLength="112" x="74" y="388.0332">getDir(): Direction</text><ellipse cx="65" cy="401.4141" fill="#84BE84" rx="3" ry="3" style="stroke:#038048;stroke-width:1.0;"/><text fill="#000000" font-family="sans-serif" font-size="14" lengthAdjust="spacing" textLength="44" x="74" y="405.6426">id(): int</text><ellipse cx="65" cy="419.0234" fill="#84BE84" rx="3" ry="3" style="stroke:#038048;stroke-width:1.0;"/><text fill="#000000" font-family="sans-serif" font-size="14" lengthAdjust="spacing" textLength="119" x="74" y="423.252">setPos(Point): void</text><ellipse cx="65" cy="436.6328" fill="#84BE84" rx="3" ry="3" style="stroke:#038048;stroke-width:1.0;"/><text fill="#000000" font-family="sans-serif" font-size="14" lengthAdjust="spacing" textLength="137" x="74" y="440.8613">setDir(Direction): void</text><ellipse cx="65" cy="454.2422" fill="#84BE84" rx="3" ry="3" style="stroke:#038048;stroke-width:1.0;"/><text fill="#000000" font-family="sans-serif" font-size="14" lengthAdjust="spacing" textLength="118" x="74" y="458.4707">deleteEntity(): void</text></g></a><!--MD5=[d7ed978ab8e35c0d5f67cabd5136a37f]
class nz.ac.vuw.ecs.swen225.gp22.domain.Observable--><a href="Observable.html" target="_top" title="Observable.html" xlink:actuate="onRequest" xlink:href="Observable.html" xlink:show="new" xlink:title="Observable.html" xlink:type="simple"><g id="elem_nz.ac.vuw.ecs.swen225.gp22.domain.Observable"><rect codeLine="25" fill="#F1F1F1" height="40.1875" id="nz.ac.vuw.ecs.swen225.gp22.domain.Observable" rx="2.5" ry="2.5" style="stroke:#181818;stroke-width:0.5;" width="356" x="54" y="10"/><ellipse cx="69" cy="30.0938" fill="#A9DCDF" rx="11" ry="11" style="stroke:#181818;stroke-width:1.0;"/><path d="M71.1875,31.8594 L67.0469,31.8594 L66.625,32.8906 L67.0469,32.8906 Q67.6563,32.8906 67.9219,33.125 Q68.1875,33.3594 68.1875,33.75 Q68.1875,34.125 67.9219,34.3594 Q67.6563,34.5938 67.0469,34.5938 L64.75,34.5938 Q64.1406,34.5938 63.8906,34.3594 Q63.625,34.125 63.625,33.7344 Q63.625,33.3594 63.9063,33.125 Q64.1719,32.875 64.7969,32.8906 L67.4688,26.2344 L66.3594,26.2344 Q65.75,26.2344 65.4844,26 Q65.2188,25.7656 65.2188,25.375 Q65.2188,25 65.4844,24.7656 Q65.75,24.5313 66.3594,24.5313 L70.0313,24.5313 L73.4219,32.8906 Q74.0156,32.8906 74.2031,33.0313 Q74.5938,33.2969 74.5938,33.75 Q74.5938,34.125 74.3281,34.3594 Q74.0781,34.5938 73.4688,34.5938 L71.1719,34.5938 Q70.5625,34.5938 70.2969,34.3594 Q70.0313,34.125 70.0313,33.7344 Q70.0313,33.3594 70.2969,33.125 Q70.5625,32.8906 71.1719,32.8906 L71.5938,32.8906 L71.1875,31.8594 Z M70.4688,30.1563 L69.1094,26.7813 L67.7344,30.1563 L70.4688,30.1563 Z " fill="#000000"/><text fill="#000000" font-family="sans-serif" font-size="14" font-style="italic" lengthAdjust="spacing" textLength="72" x="135" y="29.5332">Observable</text><text fill="#000000" font-family="sans-serif" font-size="10" font-style="italic" lengthAdjust="spacing" textLength="176" x="83" y="42.9902">nz.ac.vuw.ecs.swen225.gp22.domain</text><rect fill="#FFFFFF" height="17.0938" style="stroke:#181818;stroke-width:1.0;stroke-dasharray:2.0,2.0;" width="146" x="267" y="7"/><text fill="#000000" font-family="sans-serif" font-size="12" font-style="italic" lengthAdjust="spacing" textLength="144" x="268" y="20.457">S extends Observable&lt;S&gt;</text></g></a><!--MD5=[9c9be3ec0448261232b3cede1d2ec08c]
class nz.ac.vuw.ecs.swen225.gp22.domain.Entity.Direction--><a href="Entity.Direction.html" target="_top" title="Entity.Direction.html" xlink:actuate="onRequest" xlink:href="Entity.Direction.html" xlink:show="new" xlink:title="Entity.Direction.html" xlink:type="simple"><g id="elem_nz.ac.vuw.ecs.swen225.gp22.domain.Entity.Direction"><rect codeLine="26" fill="#F1F1F1" height="40.1875" id="nz.ac.vuw.ecs.swen225.gp22.domain.Entity.Direction" rx="2.5" ry="2.5" style="stroke:#181818;stroke-width:0.5;" width="208" x="7" y="526"/><ellipse cx="22" cy="546.0938" fill="#EB937F" rx="11" ry="11" style="stroke:#181818;stroke-width:1.0;"/><path d="M20.8594,546.8906 L20.8594,549.3906 L25.1875,549.3906 L25.1875,548.4688 Q25.1875,547.8594 25.4219,547.5938 Q25.6719,547.3281 26.0469,547.3281 Q26.4219,547.3281 26.6563,547.5938 Q26.8906,547.8594 26.8906,548.4688 L26.8906,551.0938 L18.8906,551.0938 Q18.2656,551.0938 18,550.8594 Q17.75,550.625 17.75,550.2344 Q17.75,549.8594 18.0156,549.625 Q18.2813,549.3906 18.8906,549.3906 L19.1563,549.3906 L19.1563,542.7344 L18.8906,542.7344 Q18.2656,542.7344 18,542.5 Q17.75,542.2656 17.75,541.875 Q17.75,541.5 18,541.2656 Q18.2656,541.0313 18.8906,541.0313 L26.5156,541.0313 L26.5156,543.625 Q26.5156,544.2344 26.2813,544.5 Q26.0625,544.75 25.6719,544.75 Q25.2969,544.75 25.0625,544.5 Q24.8281,544.2344 24.8281,543.625 L24.8281,542.7344 L20.8594,542.7344 L20.8594,545.1875 L22.3438,545.1875 Q22.3438,544.5313 22.4688,544.3438 Q22.7344,543.9375 23.2031,543.9375 Q23.5781,543.9375 23.8125,544.2031 Q24.0469,544.4531 24.0469,545.0625 L24.0469,547.0313 Q24.0469,547.5781 23.9219,547.7656 Q23.6563,548.1563 23.2031,548.1563 Q22.7344,548.1563 22.4688,547.75 Q22.3438,547.5625 22.3438,546.8906 L20.8594,546.8906 Z " fill="#000000"/><text fill="#000000" font-family="sans-serif" font-size="14" lengthAdjust="spacing" textLength="95" x="76.5" y="545.5332">Entity.Direction</text><text fill="#000000" font-family="sans-serif" font-size="10" lengthAdjust="spacing" textLength="176" x="36" y="558.9902">nz.ac.vuw.ecs.swen225.gp22.domain</text></g></a><!--MD5=[4977e73d2b22484a4891fd5c99a952f4]
class nz.ac.vuw.ecs.swen225.gp22.domain.Entity.Action--><a href="Entity.Action.html" target="_top" title="Entity.Action.html" xlink:actuate="onRequest" xlink:href="Entity.Action.html" xlink:show="new" xlink:title="Entity.Action.html" xlink:type="simple"><g id="elem_nz.ac.vuw.ecs.swen225.gp22.domain.Entity.Action"><rect codeLine="27" fill="#F1F1F1" height="40.1875" id="nz.ac.vuw.ecs.swen225.gp22.domain.Entity.Action" rx="2.5" ry="2.5" style="stroke:#181818;stroke-width:0.5;" width="208" x="250" y="526"/><ellipse cx="265" cy="546.0938" fill="#ADD1B2" rx="11" ry="11" style="stroke:#181818;stroke-width:1.0;"/><path d="M267.7656,541.9688 Q267.9219,541.75 268.1094,541.6406 Q268.2969,541.5313 268.5156,541.5313 Q268.8906,541.5313 269.125,541.7969 Q269.3594,542.0469 269.3594,542.6563 L269.3594,544.1094 Q269.3594,544.7188 269.125,544.9844 Q268.8906,545.25 268.5156,545.25 Q268.1719,545.25 267.9688,545.0469 Q267.7656,544.8594 267.6563,544.3438 Q267.6094,543.9844 267.4219,543.7969 Q267.0938,543.4219 266.4844,543.2031 Q265.875,542.9844 265.25,542.9844 Q264.4844,542.9844 263.8438,543.3125 Q263.2188,543.6406 262.7188,544.3906 Q262.2344,545.1406 262.2344,546.1719 L262.2344,547.2656 Q262.2344,548.5 263.125,549.3281 Q264.0156,550.1406 265.6094,550.1406 Q266.5469,550.1406 267.2031,549.8906 Q267.5938,549.7344 268.0156,549.2969 Q268.2813,549.0313 268.4219,548.9531 Q268.5781,548.875 268.7813,548.875 Q269.1094,548.875 269.3594,549.1406 Q269.625,549.3906 269.625,549.7344 Q269.625,550.0781 269.2813,550.4844 Q268.7813,551.0625 267.9844,551.3906 Q266.9063,551.8438 265.6094,551.8438 Q264.0938,551.8438 262.8906,551.2188 Q261.9063,550.7188 261.2188,549.6563 Q260.5313,548.5781 260.5313,547.2969 L260.5313,546.1406 Q260.5313,544.8125 261.1406,543.6719 Q261.7656,542.5156 262.8594,541.9063 Q263.9531,541.2813 265.1875,541.2813 Q265.9219,541.2813 266.5625,541.4531 Q267.2188,541.6094 267.7656,541.9688 Z " fill="#000000"/><text fill="#000000" font-family="sans-serif" font-size="14" lengthAdjust="spacing" textLength="78" x="328" y="545.5332">Entity.Action</text><text fill="#000000" font-family="sans-serif" font-size="10" lengthAdjust="spacing" textLength="176" x="279" y="558.9902">nz.ac.vuw.ecs.swen225.gp22.domain</text></g></a><!--MD5=[3462c879e111843e7d22be23b7d5ba6a]
reverse link nz.ac.vuw.ecs.swen225.gp22.domain.Observable to nz.ac.vuw.ecs.swen225.gp22.domain.Entity--><g id="link_nz.ac.vuw.ecs.swen225.gp22.domain.Observable_nz.ac.vuw.ecs.swen225.gp22.domain.Entity"><path codeLine="29" d="M232,70.41 C232,81.93 232,95.34 232,109.73 " fill="none" id="nz.ac.vuw.ecs.swen225.gp22.domain.Observable-backto-nz.ac.vuw.ecs.swen225.gp22.domain.Entity" style="stroke:#181818;stroke-width:1.0;"/><polygon fill="none" points="225,70.24,232,50.24,239,70.24,225,70.24" style="stroke:#181818;stroke-width:1.0;"/></g><!--MD5=[476dc300720b94343f2da40621ed6248]
reverse link nz.ac.vuw.ecs.swen225.gp22.domain.Entity to nz.ac.vuw.ecs.swen225.gp22.domain.Entity.Direction--><g id="link_nz.ac.vuw.ecs.swen225.gp22.domain.Entity_nz.ac.vuw.ecs.swen225.gp22.domain.Entity.Direction"><path codeLine="30" d="M141.79,479.86 C133.1,498.24 125.5,514.32 120.02,525.91 " fill="none" id="nz.ac.vuw.ecs.swen225.gp22.domain.Entity-backto-nz.ac.vuw.ecs.swen225.gp22.domain.Entity.Direction" style="stroke:#181818;stroke-width:1.0;"/><ellipse cx="144.8715" cy="473.3328" fill="#FFFFFF" rx="8" ry="8" style="stroke:#181818;stroke-width:1.0;"/><line style="stroke:#181818;stroke-width:1.0;" x1="141.4531" x2="148.29" y1="480.5657" y2="466.1"/><line style="stroke:#181818;stroke-width:1.0;" x1="137.6387" x2="152.1044" y1="469.9144" y2="476.7513"/></g><!--MD5=[71b85eda9e886cf4eb1749a9b4fee2de]
reverse link nz.ac.vuw.ecs.swen225.gp22.domain.Entity to nz.ac.vuw.ecs.swen225.gp22.domain.Entity.Action--><g id="link_nz.ac.vuw.ecs.swen225.gp22.domain.Entity_nz.ac.vuw.ecs.swen225.gp22.domain.Entity.Action"><path codeLine="31" d="M322.96,479.86 C331.72,498.24 339.38,514.32 344.9,525.91 " fill="none" id="nz.ac.vuw.ecs.swen225.gp22.domain.Entity-backto-nz.ac.vuw.ecs.swen225.gp22.domain.Entity.Action" style="stroke:#181818;stroke-width:1.0;"/><ellipse cx="319.8368" cy="473.3242" fill="#FFFFFF" rx="8" ry="8" style="stroke:#181818;stroke-width:1.0;"/><line style="stroke:#181818;stroke-width:1.0;" x1="323.2736" x2="316.4" y1="480.5483" y2="466.1"/><line style="stroke:#181818;stroke-width:1.0;" x1="312.6127" x2="327.061" y1="476.761" y2="469.8873"/></g><rect fill="none" height="12.5781" style="stroke:none;stroke-width:1.0;" width="184" x="133.5" y="571.1875"/><text fill="#888888" font-family="sans-serif" font-size="10" lengthAdjust="spacing" textLength="184" x="133.5" y="581.5684">UMLDoclet 2.0.19, PlantUML 1.2022.8</text><!--MD5=[67087c73d9855826045144dbb9a553fe]
@startuml
    set namespaceSeparator none
    hide empty fields
    hide empty methods

    abstract class "<size:14>Entity\n<size:10>nz.ac.vuw.ecs.swen225.gp22.domain" as nz.ac.vuw.ecs.swen225.gp22.domain.Entity<S extends Observable<S>> [[Entity.html]] {
        +action: Action
        +Entity(Point, Direction)
        {abstract} +ping(): void
        {abstract} +unping(): void
        +hasAction(): boolean
        +pollAction(): Action
        +move(Direction): void
        +move(Point): void
        +move(int, int): void
        +move(): void
        +moveAndTurn(Direction): void
        +getPos(): Point
        +getDir(): Direction
        +id(): int
        +setPos(Point): void
        +setDir(Direction): void
        +deleteEntity(): void
    }

    abstract class "<size:14>Observable\n<size:10>nz.ac.vuw.ecs.swen225.gp22.domain" as nz.ac.vuw.ecs.swen225.gp22.domain.Observable<S extends Observable<S>> [[Observable.html]]
    enum "<size:14>Entity.Direction\n<size:10>nz.ac.vuw.ecs.swen225.gp22.domain" as nz.ac.vuw.ecs.swen225.gp22.domain.Entity.Direction [[Entity.Direction.html]]
    class "<size:14>Entity.Action\n<size:10>nz.ac.vuw.ecs.swen225.gp22.domain" as nz.ac.vuw.ecs.swen225.gp22.domain.Entity.Action [[Entity.Action.html]]

    nz.ac.vuw.ecs.swen225.gp22.domain.Observable <|- - nz.ac.vuw.ecs.swen225.gp22.domain.Entity
    nz.ac.vuw.ecs.swen225.gp22.domain.Entity +- - nz.ac.vuw.ecs.swen225.gp22.domain.Entity.Direction
    nz.ac.vuw.ecs.swen225.gp22.domain.Entity +- - nz.ac.vuw.ecs.swen225.gp22.domain.Entity.Action

    center footer UMLDoclet 2.0.19, PlantUML 1.2022.8
@enduml

PlantUML version 1.2022.8(Sun Sep 25 22:00:33 NZDT 2022)
(APACHE source distribution)
Java Runtime: Java(TM) SE Runtime Environment
JVM: Java HotSpot(TM) 64-Bit Server VM
Default Encoding: Cp1252
Language: en
Country: NZ
--></g></svg>