<?xml version="1.0" encoding="UTF-8" standalone="no"?><svg xmlns="http://www.w3.org/2000/svg" xmlns:xlink="http://www.w3.org/1999/xlink" contentStyleType="text/css" height="432px" preserveAspectRatio="none" style="width:488px;height:432px;background:#FFFFFF;" version="1.1" viewBox="0 0 488 432" width="488px" zoomAndPan="magnify"><defs/><g><!--MD5=[4977e73d2b22484a4891fd5c99a952f4]
class nz.ac.vuw.ecs.swen225.gp22.domain.Entity.Action--><a href="Entity.Action.html" target="_top" title="Entity.Action.html" xlink:actuate="onRequest" xlink:href="Entity.Action.html" xlink:show="new" xlink:title="Entity.Action.html" xlink:type="simple"><g id="elem_nz.ac.vuw.ecs.swen225.gp22.domain.Entity.Action"><rect codeLine="5" fill="#F1F1F1" height="153.8438" id="nz.ac.vuw.ecs.swen225.gp22.domain.Entity.Action" rx="2.5" ry="2.5" style="stroke:#181818;stroke-width:0.5;" width="332" x="7" y="153"/><ellipse cx="80.75" cy="173.0938" fill="#ADD1B2" rx="11" ry="11" style="stroke:#181818;stroke-width:1.0;"/><path d="M83.5156,168.9688 Q83.6719,168.75 83.8594,168.6406 Q84.0469,168.5313 84.2656,168.5313 Q84.6406,168.5313 84.875,168.7969 Q85.1094,169.0469 85.1094,169.6563 L85.1094,171.1094 Q85.1094,171.7188 84.875,171.9844 Q84.6406,172.25 84.2656,172.25 Q83.9219,172.25 83.7188,172.0469 Q83.5156,171.8594 83.4063,171.3438 Q83.3594,170.9844 83.1719,170.7969 Q82.8438,170.4219 82.2344,170.2031 Q81.625,169.9844 81,169.9844 Q80.2344,169.9844 79.5938,170.3125 Q78.9688,170.6406 78.4688,171.3906 Q77.9844,172.1406 77.9844,173.1719 L77.9844,174.2656 Q77.9844,175.5 78.875,176.3281 Q79.7656,177.1406 81.3594,177.1406 Q82.2969,177.1406 82.9531,176.8906 Q83.3438,176.7344 83.7656,176.2969 Q84.0313,176.0313 84.1719,175.9531 Q84.3281,175.875 84.5313,175.875 Q84.8594,175.875 85.1094,176.1406 Q85.375,176.3906 85.375,176.7344 Q85.375,177.0781 85.0313,177.4844 Q84.5313,178.0625 83.7344,178.3906 Q82.6563,178.8438 81.3594,178.8438 Q79.8438,178.8438 78.6406,178.2188 Q77.6563,177.7188 76.9688,176.6563 Q76.2813,175.5781 76.2813,174.2969 L76.2813,173.1406 Q76.2813,171.8125 76.8906,170.6719 Q77.5156,169.5156 78.6094,168.9063 Q79.7031,168.2813 80.9375,168.2813 Q81.6719,168.2813 82.3125,168.4531 Q82.9688,168.6094 83.5156,168.9688 Z " fill="#000000"/><text fill="#000000" font-family="sans-serif" font-size="14" lengthAdjust="spacing" textLength="78" x="150.25" y="172.5332">Entity.Action</text><text fill="#000000" font-family="sans-serif" font-size="10" lengthAdjust="spacing" textLength="176" x="101.25" y="185.9902">nz.ac.vuw.ecs.swen225.gp22.domain</text><line style="stroke:#181818;stroke-width:0.5;" x1="8" x2="338" y1="193.1875" y2="193.1875"/><ellipse cx="18" cy="207.4922" fill="#84BE84" rx="3" ry="3" style="stroke:#038048;stroke-width:1.0;"/><text fill="#000000" font-family="sans-serif" font-size="14" lengthAdjust="spacing" textLength="306" x="27" y="211.7207">Action(int, Point, Direction, Direction, Interaction)</text><ellipse cx="18" cy="225.1016" fill="#84BE84" rx="3" ry="3" style="stroke:#038048;stroke-width:1.0;"/><text fill="#000000" font-family="sans-serif" font-size="14" lengthAdjust="spacing" textLength="44" x="27" y="229.3301">id(): int</text><ellipse cx="18" cy="242.7109" fill="#84BE84" rx="3" ry="3" style="stroke:#038048;stroke-width:1.0;"/><text fill="#000000" font-family="sans-serif" font-size="14" lengthAdjust="spacing" textLength="125" x="27" y="246.9395">moveVector(): Point</text><ellipse cx="18" cy="260.3203" fill="#84BE84" rx="3" ry="3" style="stroke:#038048;stroke-width:1.0;"/><text fill="#000000" font-family="sans-serif" font-size="14" lengthAdjust="spacing" textLength="111" x="27" y="264.5488">oldDir(): Direction</text><ellipse cx="18" cy="277.9297" fill="#84BE84" rx="3" ry="3" style="stroke:#038048;stroke-width:1.0;"/><text fill="#000000" font-family="sans-serif" font-size="14" lengthAdjust="spacing" textLength="117" x="27" y="282.1582">newDir(): Direction</text><ellipse cx="18" cy="295.5391" fill="#84BE84" rx="3" ry="3" style="stroke:#038048;stroke-width:1.0;"/><text fill="#000000" font-family="sans-serif" font-size="14" lengthAdjust="spacing" textLength="150" x="27" y="299.7676">interaction(): Interaction</text></g></a><!--MD5=[aeced6b90a5f9cea7e9b0d4e8b5a9b7c]
class java.lang.Record--><g id="elem_java.lang.Record"><rect codeLine="14" fill="#F1F1F1" height="40.1875" id="java.lang.Record" rx="2.5" ry="2.5" style="stroke:#181818;stroke-width:0.5;" width="78" x="8" y="31.5"/><ellipse cx="23" cy="51.5938" fill="#A9DCDF" rx="11" ry="11" style="stroke:#181818;stroke-width:1.0;"/><path d="M25.1875,53.3594 L21.0469,53.3594 L20.625,54.3906 L21.0469,54.3906 Q21.6563,54.3906 21.9219,54.625 Q22.1875,54.8594 22.1875,55.25 Q22.1875,55.625 21.9219,55.8594 Q21.6563,56.0938 21.0469,56.0938 L18.75,56.0938 Q18.1406,56.0938 17.8906,55.8594 Q17.625,55.625 17.625,55.2344 Q17.625,54.8594 17.9063,54.625 Q18.1719,54.375 18.7969,54.3906 L21.4688,47.7344 L20.3594,47.7344 Q19.75,47.7344 19.4844,47.5 Q19.2188,47.2656 19.2188,46.875 Q19.2188,46.5 19.4844,46.2656 Q19.75,46.0313 20.3594,46.0313 L24.0313,46.0313 L27.4219,54.3906 Q28.0156,54.3906 28.2031,54.5313 Q28.5938,54.7969 28.5938,55.25 Q28.5938,55.625 28.3281,55.8594 Q28.0781,56.0938 27.4688,56.0938 L25.1719,56.0938 Q24.5625,56.0938 24.2969,55.8594 Q24.0313,55.625 24.0313,55.2344 Q24.0313,54.8594 24.2969,54.625 Q24.5625,54.3906 25.1719,54.3906 L25.5938,54.3906 L25.1875,53.3594 Z M24.4688,51.6563 L23.1094,48.2813 L21.7344,51.6563 L24.4688,51.6563 Z " fill="#000000"/><text fill="#000000" font-family="sans-serif" font-size="14" font-style="italic" lengthAdjust="spacing" textLength="46" x="37" y="51.0332">Record</text><text fill="#000000" font-family="sans-serif" font-size="10" font-style="italic" lengthAdjust="spacing" textLength="43" x="38.5" y="64.4902">java.lang</text></g><!--MD5=[c1afd2d57aec8c90a42dc3be3bff6847]
class nz.ac.vuw.ecs.swen225.gp22.domain.Entity--><a href="Entity.html" target="_top" title="Entity.html" xlink:actuate="onRequest" xlink:href="Entity.html" xlink:show="new" xlink:title="Entity.html" xlink:type="simple"><g id="elem_nz.ac.vuw.ecs.swen225.gp22.domain.Entity"><rect codeLine="15" fill="#F1F1F1" height="83.4063" id="nz.ac.vuw.ecs.swen225.gp22.domain.Entity" rx="2.5" ry="2.5" style="stroke:#181818;stroke-width:0.5;" width="356" x="121" y="10"/><ellipse cx="136" cy="30.0938" fill="#A9DCDF" rx="11" ry="11" style="stroke:#181818;stroke-width:1.0;"/><path d="M138.1875,31.8594 L134.0469,31.8594 L133.625,32.8906 L134.0469,32.8906 Q134.6563,32.8906 134.9219,33.125 Q135.1875,33.3594 135.1875,33.75 Q135.1875,34.125 134.9219,34.3594 Q134.6563,34.5938 134.0469,34.5938 L131.75,34.5938 Q131.1406,34.5938 130.8906,34.3594 Q130.625,34.125 130.625,33.7344 Q130.625,33.3594 130.9063,33.125 Q131.1719,32.875 131.7969,32.8906 L134.4688,26.2344 L133.3594,26.2344 Q132.75,26.2344 132.4844,26 Q132.2188,25.7656 132.2188,25.375 Q132.2188,25 132.4844,24.7656 Q132.75,24.5313 133.3594,24.5313 L137.0313,24.5313 L140.4219,32.8906 Q141.0156,32.8906 141.2031,33.0313 Q141.5938,33.2969 141.5938,33.75 Q141.5938,34.125 141.3281,34.3594 Q141.0781,34.5938 140.4688,34.5938 L138.1719,34.5938 Q137.5625,34.5938 137.2969,34.3594 Q137.0313,34.125 137.0313,33.7344 Q137.0313,33.3594 137.2969,33.125 Q137.5625,32.8906 138.1719,32.8906 L138.5938,32.8906 L138.1875,31.8594 Z M137.4688,30.1563 L136.1094,26.7813 L134.7344,30.1563 L137.4688,30.1563 Z " fill="#000000"/><text fill="#000000" font-family="sans-serif" font-size="14" font-style="italic" lengthAdjust="spacing" textLength="35" x="220.5" y="29.5332">Entity</text><text fill="#000000" font-family="sans-serif" font-size="10" font-style="italic" lengthAdjust="spacing" textLength="176" x="150" y="42.9902">nz.ac.vuw.ecs.swen225.gp22.domain</text><rect fill="#FFFFFF" height="17.0938" style="stroke:#181818;stroke-width:1.0;stroke-dasharray:2.0,2.0;" width="146" x="334" y="7"/><text fill="#000000" font-family="sans-serif" font-size="12" font-style="italic" lengthAdjust="spacing" textLength="144" x="335" y="20.457">S extends Observable&lt;S&gt;</text><line style="stroke:#181818;stroke-width:0.5;" x1="122" x2="476" y1="50.1875" y2="50.1875"/><ellipse cx="132" cy="64.4922" fill="#84BE84" rx="3" ry="3" style="stroke:#038048;stroke-width:1.0;"/><text fill="#000000" font-family="sans-serif" font-size="14" font-style="italic" lengthAdjust="spacing" textLength="70" x="141" y="68.7207">ping(): void</text><ellipse cx="132" cy="82.1016" fill="#84BE84" rx="3" ry="3" style="stroke:#038048;stroke-width:1.0;"/><text fill="#000000" font-family="sans-serif" font-size="14" font-style="italic" lengthAdjust="spacing" textLength="86" x="141" y="86.3301">unping(): void</text></g></a><!--MD5=[c2606eb6a1ebdcd60dbbb794ea7defb5]
class nz.ac.vuw.ecs.swen225.gp22.domain.Entity.Action.Interaction--><a href="Entity.Action.Interaction.html" target="_top" title="Entity.Action.Interaction.html" xlink:actuate="onRequest" xlink:href="Entity.Action.Interaction.html" xlink:show="new" xlink:title="Entity.Action.Interaction.html" xlink:type="simple"><g id="elem_nz.ac.vuw.ecs.swen225.gp22.domain.Entity.Action.Interaction"><rect codeLine="19" fill="#F1F1F1" height="40.1875" id="nz.ac.vuw.ecs.swen225.gp22.domain.Entity.Action.Interaction" rx="2.5" ry="2.5" style="stroke:#181818;stroke-width:0.5;" width="208" x="69" y="367"/><ellipse cx="84" cy="387.0938" fill="#ADD1B2" rx="11" ry="11" style="stroke:#181818;stroke-width:1.0;"/><path d="M86.7656,382.9688 Q86.9219,382.75 87.1094,382.6406 Q87.2969,382.5313 87.5156,382.5313 Q87.8906,382.5313 88.125,382.7969 Q88.3594,383.0469 88.3594,383.6563 L88.3594,385.1094 Q88.3594,385.7188 88.125,385.9844 Q87.8906,386.25 87.5156,386.25 Q87.1719,386.25 86.9688,386.0469 Q86.7656,385.8594 86.6563,385.3438 Q86.6094,384.9844 86.4219,384.7969 Q86.0938,384.4219 85.4844,384.2031 Q84.875,383.9844 84.25,383.9844 Q83.4844,383.9844 82.8438,384.3125 Q82.2188,384.6406 81.7188,385.3906 Q81.2344,386.1406 81.2344,387.1719 L81.2344,388.2656 Q81.2344,389.5 82.125,390.3281 Q83.0156,391.1406 84.6094,391.1406 Q85.5469,391.1406 86.2031,390.8906 Q86.5938,390.7344 87.0156,390.2969 Q87.2813,390.0313 87.4219,389.9531 Q87.5781,389.875 87.7813,389.875 Q88.1094,389.875 88.3594,390.1406 Q88.625,390.3906 88.625,390.7344 Q88.625,391.0781 88.2813,391.4844 Q87.7813,392.0625 86.9844,392.3906 Q85.9063,392.8438 84.6094,392.8438 Q83.0938,392.8438 81.8906,392.2188 Q80.9063,391.7188 80.2188,390.6563 Q79.5313,389.5781 79.5313,388.2969 L79.5313,387.1406 Q79.5313,385.8125 80.1406,384.6719 Q80.7656,383.5156 81.8594,382.9063 Q82.9531,382.2813 84.1875,382.2813 Q84.9219,382.2813 85.5625,382.4531 Q86.2188,382.6094 86.7656,382.9688 Z " fill="#000000"/><text fill="#000000" font-family="sans-serif" font-size="14" lengthAdjust="spacing" textLength="148" x="112" y="386.5332">Entity.Action.Interaction</text><text fill="#000000" font-family="sans-serif" font-size="10" lengthAdjust="spacing" textLength="176" x="98" y="399.9902">nz.ac.vuw.ecs.swen225.gp22.domain</text></g></a><!--MD5=[610ec9c5ca2e7c953330e18a46defa5c]
reverse link java.lang.Record to nz.ac.vuw.ecs.swen225.gp22.domain.Entity.Action--><g id="link_java.lang.Record_nz.ac.vuw.ecs.swen225.gp22.domain.Entity.Action"><path codeLine="21" d="M72.45,88.15 C85.72,106.73 102.48,130.22 118.5,152.66 " fill="none" id="java.lang.Record-backto-nz.ac.vuw.ecs.swen225.gp22.domain.Entity.Action" style="stroke:#181818;stroke-width:1.0;"/><polygon fill="none" points="66.65,92.07,60.72,71.72,78.04,83.94,66.65,92.07" style="stroke:#181818;stroke-width:1.0;"/></g><!--MD5=[71b85eda9e886cf4eb1749a9b4fee2de]
reverse link nz.ac.vuw.ecs.swen225.gp22.domain.Entity to nz.ac.vuw.ecs.swen225.gp22.domain.Entity.Action--><g id="link_nz.ac.vuw.ecs.swen225.gp22.domain.Entity_nz.ac.vuw.ecs.swen225.gp22.domain.Entity.Action"><path codeLine="22" d="M260.82,105.98 C250.26,120.78 238.59,137.12 227.3,152.93 " fill="none" id="nz.ac.vuw.ecs.swen225.gp22.domain.Entity-backto-nz.ac.vuw.ecs.swen225.gp22.domain.Entity.Action" style="stroke:#181818;stroke-width:1.0;"/><ellipse cx="265.1251" cy="99.9463" fill="#FFFFFF" rx="8" ry="8" style="stroke:#181818;stroke-width:1.0;"/><line style="stroke:#181818;stroke-width:1.0;" x1="260.4701" x2="269.78" y1="106.4525" y2="93.44"/><line style="stroke:#181818;stroke-width:1.0;" x1="258.6188" x2="271.6313" y1="95.2913" y2="104.6012"/></g><!--MD5=[0f48b98d2e7ac6ff4fccf11308051f0e]
reverse link nz.ac.vuw.ecs.swen225.gp22.domain.Entity.Action to nz.ac.vuw.ecs.swen225.gp22.domain.Entity.Action.Interaction--><g id="link_nz.ac.vuw.ecs.swen225.gp22.domain.Entity.Action_nz.ac.vuw.ecs.swen225.gp22.domain.Entity.Action.Interaction"><path codeLine="23" d="M173,322.17 C173,339.1 173,355.14 173,366.9 " fill="none" id="nz.ac.vuw.ecs.swen225.gp22.domain.Entity.Action-backto-nz.ac.vuw.ecs.swen225.gp22.domain.Entity.Action.Interaction" style="stroke:#181818;stroke-width:1.0;"/><ellipse cx="173" cy="315.14" fill="#FFFFFF" rx="8" ry="8" style="stroke:#181818;stroke-width:1.0;"/><line style="stroke:#181818;stroke-width:1.0;" x1="173" x2="173" y1="323.14" y2="307.14"/><line style="stroke:#181818;stroke-width:1.0;" x1="165" x2="181" y1="315.14" y2="315.14"/></g><rect fill="none" height="12.5781" style="stroke:none;stroke-width:1.0;" width="184" x="145" y="412.1875"/><text fill="#888888" font-family="sans-serif" font-size="10" lengthAdjust="spacing" textLength="184" x="145" y="422.5684">UMLDoclet 2.0.19, PlantUML 1.2022.8</text><!--MD5=[7a1a8046dddc621071ef116251c6d088]
@startuml
    set namespaceSeparator none
    hide empty fields
    hide empty methods

    class "<size:14>Entity.Action\n<size:10>nz.ac.vuw.ecs.swen225.gp22.domain" as nz.ac.vuw.ecs.swen225.gp22.domain.Entity.Action [[Entity.Action.html]] {
        +Action(int, Point, Direction, Direction, Interaction)
        +id(): int
        +moveVector(): Point
        +oldDir(): Direction
        +newDir(): Direction
        +interaction(): Interaction
    }

    abstract class "<size:14>Record\n<size:10>java.lang" as java.lang.Record
    abstract class "<size:14>Entity\n<size:10>nz.ac.vuw.ecs.swen225.gp22.domain" as nz.ac.vuw.ecs.swen225.gp22.domain.Entity<S extends Observable<S>> [[Entity.html]] {
        {abstract} +ping(): void
        {abstract} +unping(): void
    }
    class "<size:14>Entity.Action.Interaction\n<size:10>nz.ac.vuw.ecs.swen225.gp22.domain" as nz.ac.vuw.ecs.swen225.gp22.domain.Entity.Action.Interaction [[Entity.Action.Interaction.html]]

    java.lang.Record <|- - nz.ac.vuw.ecs.swen225.gp22.domain.Entity.Action
    nz.ac.vuw.ecs.swen225.gp22.domain.Entity +- - nz.ac.vuw.ecs.swen225.gp22.domain.Entity.Action
    nz.ac.vuw.ecs.swen225.gp22.domain.Entity.Action +- - nz.ac.vuw.ecs.swen225.gp22.domain.Entity.Action.Interaction

    center footer UMLDoclet 2.0.19, PlantUML 1.2022.8
@enduml

PlantUML version 1.2022.8(Sun Sep 25 22:00:33 NZDT 2022)
(APACHE source distribution)
Java Runtime: Java(TM) SE Runtime Environment
JVM: Java HotSpot(TM) 64-Bit Server VM
Default Encoding: Cp1252
Language: en
Country: NZ
--></g></svg>