<?xml version="1.0" encoding="UTF-8" standalone="no"?><svg xmlns="http://www.w3.org/2000/svg" xmlns:xlink="http://www.w3.org/1999/xlink" contentStyleType="text/css" height="323px" preserveAspectRatio="none" style="width:374px;height:323px;background:#FFFFFF;" version="1.1" viewBox="0 0 374 323" width="374px" zoomAndPan="magnify"><defs/><g><!--MD5=[9c9be3ec0448261232b3cede1d2ec08c]
class nz.ac.vuw.ecs.swen225.gp22.domain.Entity.Direction--><a href="Entity.Direction.html" target="_top" title="Entity.Direction.html" xlink:actuate="onRequest" xlink:href="Entity.Direction.html" xlink:show="new" xlink:title="Entity.Direction.html" xlink:type="simple"><g id="elem_nz.ac.vuw.ecs.swen225.gp22.domain.Entity.Direction"><rect codeLine="5" fill="#F1F1F1" height="144.2344" id="nz.ac.vuw.ecs.swen225.gp22.domain.Entity.Direction" rx="2.5" ry="2.5" style="stroke:#181818;stroke-width:0.5;" width="208" x="81" y="153"/><ellipse cx="96" cy="173.0938" fill="#EB937F" rx="11" ry="11" style="stroke:#181818;stroke-width:1.0;"/><path d="M94.8594,173.8906 L94.8594,176.3906 L99.1875,176.3906 L99.1875,175.4688 Q99.1875,174.8594 99.4219,174.5938 Q99.6719,174.3281 100.0469,174.3281 Q100.4219,174.3281 100.6563,174.5938 Q100.8906,174.8594 100.8906,175.4688 L100.8906,178.0938 L92.8906,178.0938 Q92.2656,178.0938 92,177.8594 Q91.75,177.625 91.75,177.2344 Q91.75,176.8594 92.0156,176.625 Q92.2813,176.3906 92.8906,176.3906 L93.1563,176.3906 L93.1563,169.7344 L92.8906,169.7344 Q92.2656,169.7344 92,169.5 Q91.75,169.2656 91.75,168.875 Q91.75,168.5 92,168.2656 Q92.2656,168.0313 92.8906,168.0313 L100.5156,168.0313 L100.5156,170.625 Q100.5156,171.2344 100.2813,171.5 Q100.0625,171.75 99.6719,171.75 Q99.2969,171.75 99.0625,171.5 Q98.8281,171.2344 98.8281,170.625 L98.8281,169.7344 L94.8594,169.7344 L94.8594,172.1875 L96.3438,172.1875 Q96.3438,171.5313 96.4688,171.3438 Q96.7344,170.9375 97.2031,170.9375 Q97.5781,170.9375 97.8125,171.2031 Q98.0469,171.4531 98.0469,172.0625 L98.0469,174.0313 Q98.0469,174.5781 97.9219,174.7656 Q97.6563,175.1563 97.2031,175.1563 Q96.7344,175.1563 96.4688,174.75 Q96.3438,174.5625 96.3438,173.8906 L94.8594,173.8906 Z " fill="#000000"/><text fill="#000000" font-family="sans-serif" font-size="14" lengthAdjust="spacing" textLength="95" x="150.5" y="172.5332">Entity.Direction</text><text fill="#000000" font-family="sans-serif" font-size="10" lengthAdjust="spacing" textLength="176" x="110" y="185.9902">nz.ac.vuw.ecs.swen225.gp22.domain</text><line style="stroke:#181818;stroke-width:0.5;" x1="82" x2="288" y1="193.1875" y2="193.1875"/><ellipse cx="92" cy="207.4922" fill="none" rx="3" ry="3" style="stroke:#038048;stroke-width:1.0;"/><text fill="#000000" font-family="sans-serif" font-size="14" lengthAdjust="spacing" text-decoration="underline" textLength="17" x="101" y="211.7207">Up</text><ellipse cx="92" cy="225.1016" fill="none" rx="3" ry="3" style="stroke:#038048;stroke-width:1.0;"/><text fill="#000000" font-family="sans-serif" font-size="14" lengthAdjust="spacing" text-decoration="underline" textLength="35" x="101" y="229.3301">Down</text><ellipse cx="92" cy="242.7109" fill="none" rx="3" ry="3" style="stroke:#038048;stroke-width:1.0;"/><text fill="#000000" font-family="sans-serif" font-size="14" lengthAdjust="spacing" text-decoration="underline" textLength="24" x="101" y="246.9395">Left</text><ellipse cx="92" cy="260.3203" fill="none" rx="3" ry="3" style="stroke:#038048;stroke-width:1.0;"/><text fill="#000000" font-family="sans-serif" font-size="14" lengthAdjust="spacing" text-decoration="underline" textLength="33" x="101" y="264.5488">Right</text><line style="stroke:#181818;stroke-width:0.5;" x1="82" x2="288" y1="271.625" y2="271.625"/><ellipse cx="92" cy="285.9297" fill="#84BE84" rx="3" ry="3" style="stroke:#038048;stroke-width:1.0;"/><text fill="#000000" font-family="sans-serif" font-size="14" font-style="italic" lengthAdjust="spacing" textLength="128" x="101" y="290.1582">opposite(): Direction</text></g></a><!--MD5=[c1afd2d57aec8c90a42dc3be3bff6847]
class nz.ac.vuw.ecs.swen225.gp22.domain.Entity--><a href="Entity.html" target="_top" title="Entity.html" xlink:actuate="onRequest" xlink:href="Entity.html" xlink:show="new" xlink:title="Entity.html" xlink:type="simple"><g id="elem_nz.ac.vuw.ecs.swen225.gp22.domain.Entity"><rect codeLine="13" fill="#F1F1F1" height="83.4063" id="nz.ac.vuw.ecs.swen225.gp22.domain.Entity" rx="2.5" ry="2.5" style="stroke:#181818;stroke-width:0.5;" width="356" x="7" y="10"/><ellipse cx="22" cy="30.0938" fill="#A9DCDF" rx="11" ry="11" style="stroke:#181818;stroke-width:1.0;"/><path d="M24.1875,31.8594 L20.0469,31.8594 L19.625,32.8906 L20.0469,32.8906 Q20.6563,32.8906 20.9219,33.125 Q21.1875,33.3594 21.1875,33.75 Q21.1875,34.125 20.9219,34.3594 Q20.6563,34.5938 20.0469,34.5938 L17.75,34.5938 Q17.1406,34.5938 16.8906,34.3594 Q16.625,34.125 16.625,33.7344 Q16.625,33.3594 16.9063,33.125 Q17.1719,32.875 17.7969,32.8906 L20.4688,26.2344 L19.3594,26.2344 Q18.75,26.2344 18.4844,26 Q18.2188,25.7656 18.2188,25.375 Q18.2188,25 18.4844,24.7656 Q18.75,24.5313 19.3594,24.5313 L23.0313,24.5313 L26.4219,32.8906 Q27.0156,32.8906 27.2031,33.0313 Q27.5938,33.2969 27.5938,33.75 Q27.5938,34.125 27.3281,34.3594 Q27.0781,34.5938 26.4688,34.5938 L24.1719,34.5938 Q23.5625,34.5938 23.2969,34.3594 Q23.0313,34.125 23.0313,33.7344 Q23.0313,33.3594 23.2969,33.125 Q23.5625,32.8906 24.1719,32.8906 L24.5938,32.8906 L24.1875,31.8594 Z M23.4688,30.1563 L22.1094,26.7813 L20.7344,30.1563 L23.4688,30.1563 Z " fill="#000000"/><text fill="#000000" font-family="sans-serif" font-size="14" font-style="italic" lengthAdjust="spacing" textLength="35" x="106.5" y="29.5332">Entity</text><text fill="#000000" font-family="sans-serif" font-size="10" font-style="italic" lengthAdjust="spacing" textLength="176" x="36" y="42.9902">nz.ac.vuw.ecs.swen225.gp22.domain</text><rect fill="#FFFFFF" height="17.0938" style="stroke:#181818;stroke-width:1.0;stroke-dasharray:2.0,2.0;" width="146" x="220" y="7"/><text fill="#000000" font-family="sans-serif" font-size="12" font-style="italic" lengthAdjust="spacing" textLength="144" x="221" y="20.457">S extends Observable&lt;S&gt;</text><line style="stroke:#181818;stroke-width:0.5;" x1="8" x2="362" y1="50.1875" y2="50.1875"/><ellipse cx="18" cy="64.4922" fill="#84BE84" rx="3" ry="3" style="stroke:#038048;stroke-width:1.0;"/><text fill="#000000" font-family="sans-serif" font-size="14" font-style="italic" lengthAdjust="spacing" textLength="70" x="27" y="68.7207">ping(): void</text><ellipse cx="18" cy="82.1016" fill="#84BE84" rx="3" ry="3" style="stroke:#038048;stroke-width:1.0;"/><text fill="#000000" font-family="sans-serif" font-size="14" font-style="italic" lengthAdjust="spacing" textLength="86" x="27" y="86.3301">unping(): void</text></g></a><!--MD5=[476dc300720b94343f2da40621ed6248]
reverse link nz.ac.vuw.ecs.swen225.gp22.domain.Entity to nz.ac.vuw.ecs.swen225.gp22.domain.Entity.Direction--><g id="link_nz.ac.vuw.ecs.swen225.gp22.domain.Entity_nz.ac.vuw.ecs.swen225.gp22.domain.Entity.Direction"><path codeLine="18" d="M185,108.49 C185,122.63 185,138 185,152.78 " fill="none" id="nz.ac.vuw.ecs.swen225.gp22.domain.Entity-backto-nz.ac.vuw.ecs.swen225.gp22.domain.Entity.Direction" style="stroke:#181818;stroke-width:1.0;"/><ellipse cx="185" cy="101.14" fill="#FFFFFF" rx="8" ry="8" style="stroke:#181818;stroke-width:1.0;"/><line style="stroke:#181818;stroke-width:1.0;" x1="185" x2="185" y1="109.14" y2="93.14"/><line style="stroke:#181818;stroke-width:1.0;" x1="177" x2="193" y1="101.14" y2="101.14"/></g><rect fill="none" height="12.5781" style="stroke:none;stroke-width:1.0;" width="184" x="88" y="303.2344"/><text fill="#888888" font-family="sans-serif" font-size="10" lengthAdjust="spacing" textLength="184" x="88" y="313.6152">UMLDoclet 2.0.19, PlantUML 1.2022.8</text><!--MD5=[9d82e5487cd0372cb7e7831d294facbe]
@startuml
    set namespaceSeparator none
    hide empty fields
    hide empty methods

    enum "<size:14>Entity.Direction\n<size:10>nz.ac.vuw.ecs.swen225.gp22.domain" as nz.ac.vuw.ecs.swen225.gp22.domain.Entity.Direction [[Entity.Direction.html]] {
        {static} +Up
        {static} +Down
        {static} +Left
        {static} +Right
        {abstract} +opposite(): Direction
    }

    abstract class "<size:14>Entity\n<size:10>nz.ac.vuw.ecs.swen225.gp22.domain" as nz.ac.vuw.ecs.swen225.gp22.domain.Entity<S extends Observable<S>> [[Entity.html]] {
        {abstract} +ping(): void
        {abstract} +unping(): void
    }

    nz.ac.vuw.ecs.swen225.gp22.domain.Entity +- - nz.ac.vuw.ecs.swen225.gp22.domain.Entity.Direction

    center footer UMLDoclet 2.0.19, PlantUML 1.2022.8
@enduml

PlantUML version 1.2022.8(Sun Sep 25 22:00:33 NZDT 2022)
(APACHE source distribution)
Java Runtime: Java(TM) SE Runtime Environment
JVM: Java HotSpot(TM) 64-Bit Server VM
Default Encoding: Cp1252
Language: en
Country: NZ
--></g></svg>