<?xml version="1.0" encoding="UTF-8" standalone="no"?><svg xmlns="http://www.w3.org/2000/svg" xmlns:xlink="http://www.w3.org/1999/xlink" contentStyleType="text/css" height="333px" preserveAspectRatio="none" style="width:335px;height:333px;background:#FFFFFF;" version="1.1" viewBox="0 0 335 333" width="335px" zoomAndPan="magnify"><defs/><g><!--MD5=[c2606eb6a1ebdcd60dbbb794ea7defb5]
class nz.ac.vuw.ecs.swen225.gp22.domain.Entity.Action.Interaction--><a href="Entity.Action.Interaction.html" target="_top" title="Entity.Action.Interaction.html" xlink:actuate="onRequest" xlink:href="Entity.Action.Interaction.html" xlink:show="new" xlink:title="Entity.Action.Interaction.html" xlink:type="simple"><g id="elem_nz.ac.vuw.ecs.swen225.gp22.domain.Entity.Action.Interaction"><rect codeLine="5" fill="#F1F1F1" height="101.0156" id="nz.ac.vuw.ecs.swen225.gp22.domain.Entity.Action.Interaction" rx="2.5" ry="2.5" style="stroke:#181818;stroke-width:0.5;" width="215" x="27.5" y="107"/><ellipse cx="45.65" cy="127.0938" fill="#ADD1B2" rx="11" ry="11" style="stroke:#181818;stroke-width:1.0;"/><path d="M48.4156,122.9688 Q48.5719,122.75 48.7594,122.6406 Q48.9469,122.5313 49.1656,122.5313 Q49.5406,122.5313 49.775,122.7969 Q50.0094,123.0469 50.0094,123.6563 L50.0094,125.1094 Q50.0094,125.7188 49.775,125.9844 Q49.5406,126.25 49.1656,126.25 Q48.8219,126.25 48.6188,126.0469 Q48.4156,125.8594 48.3063,125.3438 Q48.2594,124.9844 48.0719,124.7969 Q47.7438,124.4219 47.1344,124.2031 Q46.525,123.9844 45.9,123.9844 Q45.1344,123.9844 44.4938,124.3125 Q43.8688,124.6406 43.3688,125.3906 Q42.8844,126.1406 42.8844,127.1719 L42.8844,128.2656 Q42.8844,129.5 43.775,130.3281 Q44.6656,131.1406 46.2594,131.1406 Q47.1969,131.1406 47.8531,130.8906 Q48.2438,130.7344 48.6656,130.2969 Q48.9313,130.0313 49.0719,129.9531 Q49.2281,129.875 49.4313,129.875 Q49.7594,129.875 50.0094,130.1406 Q50.275,130.3906 50.275,130.7344 Q50.275,131.0781 49.9313,131.4844 Q49.4313,132.0625 48.6344,132.3906 Q47.5563,132.8438 46.2594,132.8438 Q44.7438,132.8438 43.5406,132.2188 Q42.5563,131.7188 41.8688,130.6563 Q41.1813,129.5781 41.1813,128.2969 L41.1813,127.1406 Q41.1813,125.8125 41.7906,124.6719 Q42.4156,123.5156 43.5094,122.9063 Q44.6031,122.2813 45.8375,122.2813 Q46.5719,122.2813 47.2125,122.4531 Q47.8688,122.6094 48.4156,122.9688 Z " fill="#000000"/><text fill="#000000" font-family="sans-serif" font-size="14" lengthAdjust="spacing" textLength="148" x="74.35" y="126.5332">Entity.Action.Interaction</text><text fill="#000000" font-family="sans-serif" font-size="10" lengthAdjust="spacing" textLength="176" x="60.35" y="139.9902">nz.ac.vuw.ecs.swen225.gp22.domain</text><line style="stroke:#181818;stroke-width:0.5;" x1="28.5" x2="241.5" y1="147.1875" y2="147.1875"/><ellipse cx="38.5" cy="161.4922" fill="#84BE84" rx="3" ry="3" style="stroke:#038048;stroke-width:1.0;"/><text fill="#000000" font-family="sans-serif" font-size="14" lengthAdjust="spacing" textLength="189" x="47.5" y="165.7207">Interaction(ActionType, Color)</text><ellipse cx="38.5" cy="179.1016" fill="#84BE84" rx="3" ry="3" style="stroke:#038048;stroke-width:1.0;"/><text fill="#000000" font-family="sans-serif" font-size="14" lengthAdjust="spacing" textLength="116" x="47.5" y="183.3301">type(): ActionType</text><ellipse cx="38.5" cy="196.7109" fill="#84BE84" rx="3" ry="3" style="stroke:#038048;stroke-width:1.0;"/><text fill="#000000" font-family="sans-serif" font-size="14" lengthAdjust="spacing" textLength="83" x="47.5" y="200.9395">color(): Color</text></g></a><!--MD5=[aeced6b90a5f9cea7e9b0d4e8b5a9b7c]
class java.lang.Record--><g id="elem_java.lang.Record"><rect codeLine="11" fill="#F1F1F1" height="40.1875" id="java.lang.Record" rx="2.5" ry="2.5" style="stroke:#181818;stroke-width:0.5;" width="78" x="7" y="7"/><ellipse cx="22" cy="27.0938" fill="#A9DCDF" rx="11" ry="11" style="stroke:#181818;stroke-width:1.0;"/><path d="M24.1875,28.8594 L20.0469,28.8594 L19.625,29.8906 L20.0469,29.8906 Q20.6563,29.8906 20.9219,30.125 Q21.1875,30.3594 21.1875,30.75 Q21.1875,31.125 20.9219,31.3594 Q20.6563,31.5938 20.0469,31.5938 L17.75,31.5938 Q17.1406,31.5938 16.8906,31.3594 Q16.625,31.125 16.625,30.7344 Q16.625,30.3594 16.9063,30.125 Q17.1719,29.875 17.7969,29.8906 L20.4688,23.2344 L19.3594,23.2344 Q18.75,23.2344 18.4844,23 Q18.2188,22.7656 18.2188,22.375 Q18.2188,22 18.4844,21.7656 Q18.75,21.5313 19.3594,21.5313 L23.0313,21.5313 L26.4219,29.8906 Q27.0156,29.8906 27.2031,30.0313 Q27.5938,30.2969 27.5938,30.75 Q27.5938,31.125 27.3281,31.3594 Q27.0781,31.5938 26.4688,31.5938 L24.1719,31.5938 Q23.5625,31.5938 23.2969,31.3594 Q23.0313,31.125 23.0313,30.7344 Q23.0313,30.3594 23.2969,30.125 Q23.5625,29.8906 24.1719,29.8906 L24.5938,29.8906 L24.1875,28.8594 Z M23.4688,27.1563 L22.1094,23.7813 L20.7344,27.1563 L23.4688,27.1563 Z " fill="#000000"/><text fill="#000000" font-family="sans-serif" font-size="14" font-style="italic" lengthAdjust="spacing" textLength="46" x="36" y="26.5332">Record</text><text fill="#000000" font-family="sans-serif" font-size="10" font-style="italic" lengthAdjust="spacing" textLength="43" x="37.5" y="39.9902">java.lang</text></g><!--MD5=[4977e73d2b22484a4891fd5c99a952f4]
class nz.ac.vuw.ecs.swen225.gp22.domain.Entity.Action--><a href="Entity.Action.html" target="_top" title="Entity.Action.html" xlink:actuate="onRequest" xlink:href="Entity.Action.html" xlink:show="new" xlink:title="Entity.Action.html" xlink:type="simple"><g id="elem_nz.ac.vuw.ecs.swen225.gp22.domain.Entity.Action"><rect codeLine="12" fill="#F1F1F1" height="40.1875" id="nz.ac.vuw.ecs.swen225.gp22.domain.Entity.Action" rx="2.5" ry="2.5" style="stroke:#181818;stroke-width:0.5;" width="208" x="120" y="7"/><ellipse cx="135" cy="27.0938" fill="#ADD1B2" rx="11" ry="11" style="stroke:#181818;stroke-width:1.0;"/><path d="M137.7656,22.9688 Q137.9219,22.75 138.1094,22.6406 Q138.2969,22.5313 138.5156,22.5313 Q138.8906,22.5313 139.125,22.7969 Q139.3594,23.0469 139.3594,23.6563 L139.3594,25.1094 Q139.3594,25.7188 139.125,25.9844 Q138.8906,26.25 138.5156,26.25 Q138.1719,26.25 137.9688,26.0469 Q137.7656,25.8594 137.6563,25.3438 Q137.6094,24.9844 137.4219,24.7969 Q137.0938,24.4219 136.4844,24.2031 Q135.875,23.9844 135.25,23.9844 Q134.4844,23.9844 133.8438,24.3125 Q133.2188,24.6406 132.7188,25.3906 Q132.2344,26.1406 132.2344,27.1719 L132.2344,28.2656 Q132.2344,29.5 133.125,30.3281 Q134.0156,31.1406 135.6094,31.1406 Q136.5469,31.1406 137.2031,30.8906 Q137.5938,30.7344 138.0156,30.2969 Q138.2813,30.0313 138.4219,29.9531 Q138.5781,29.875 138.7813,29.875 Q139.1094,29.875 139.3594,30.1406 Q139.625,30.3906 139.625,30.7344 Q139.625,31.0781 139.2813,31.4844 Q138.7813,32.0625 137.9844,32.3906 Q136.9063,32.8438 135.6094,32.8438 Q134.0938,32.8438 132.8906,32.2188 Q131.9063,31.7188 131.2188,30.6563 Q130.5313,29.5781 130.5313,28.2969 L130.5313,27.1406 Q130.5313,25.8125 131.1406,24.6719 Q131.7656,23.5156 132.8594,22.9063 Q133.9531,22.2813 135.1875,22.2813 Q135.9219,22.2813 136.5625,22.4531 Q137.2188,22.6094 137.7656,22.9688 Z " fill="#000000"/><text fill="#000000" font-family="sans-serif" font-size="14" lengthAdjust="spacing" textLength="78" x="198" y="26.5332">Entity.Action</text><text fill="#000000" font-family="sans-serif" font-size="10" lengthAdjust="spacing" textLength="176" x="149" y="39.9902">nz.ac.vuw.ecs.swen225.gp22.domain</text></g></a><!--MD5=[c069d1ea57242fbf36072e990c879e78]
class nz.ac.vuw.ecs.swen225.gp22.domain.Entity.Action.Interaction.ActionType--><a href="Entity.Action.Interaction.ActionType.html" target="_top" title="Entity.Action.Interaction.ActionType.html" xlink:actuate="onRequest" xlink:href="Entity.Action.Interaction.ActionType.html" xlink:show="new" xlink:title="Entity.Action.Interaction.ActionType.html" xlink:type="simple"><g id="elem_nz.ac.vuw.ecs.swen225.gp22.domain.Entity.Action.Interaction.ActionType"><rect codeLine="13" fill="#F1F1F1" height="40.1875" id="nz.ac.vuw.ecs.swen225.gp22.domain.Entity.Action.Interaction.ActionType" rx="2.5" ry="2.5" style="stroke:#181818;stroke-width:0.5;" width="255" x="7.5" y="268"/><ellipse cx="22.5" cy="288.0938" fill="#EB937F" rx="11" ry="11" style="stroke:#181818;stroke-width:1.0;"/><path d="M21.3594,288.8906 L21.3594,291.3906 L25.6875,291.3906 L25.6875,290.4688 Q25.6875,289.8594 25.9219,289.5938 Q26.1719,289.3281 26.5469,289.3281 Q26.9219,289.3281 27.1563,289.5938 Q27.3906,289.8594 27.3906,290.4688 L27.3906,293.0938 L19.3906,293.0938 Q18.7656,293.0938 18.5,292.8594 Q18.25,292.625 18.25,292.2344 Q18.25,291.8594 18.5156,291.625 Q18.7813,291.3906 19.3906,291.3906 L19.6563,291.3906 L19.6563,284.7344 L19.3906,284.7344 Q18.7656,284.7344 18.5,284.5 Q18.25,284.2656 18.25,283.875 Q18.25,283.5 18.5,283.2656 Q18.7656,283.0313 19.3906,283.0313 L27.0156,283.0313 L27.0156,285.625 Q27.0156,286.2344 26.7813,286.5 Q26.5625,286.75 26.1719,286.75 Q25.7969,286.75 25.5625,286.5 Q25.3281,286.2344 25.3281,285.625 L25.3281,284.7344 L21.3594,284.7344 L21.3594,287.1875 L22.8438,287.1875 Q22.8438,286.5313 22.9688,286.3438 Q23.2344,285.9375 23.7031,285.9375 Q24.0781,285.9375 24.3125,286.2031 Q24.5469,286.4531 24.5469,287.0625 L24.5469,289.0313 Q24.5469,289.5781 24.4219,289.7656 Q24.1563,290.1563 23.7031,290.1563 Q23.2344,290.1563 22.9688,289.75 Q22.8438,289.5625 22.8438,288.8906 L21.3594,288.8906 Z " fill="#000000"/><text fill="#000000" font-family="sans-serif" font-size="14" lengthAdjust="spacing" textLength="223" x="36.5" y="287.5332">Entity.Action.Interaction.ActionType</text><text fill="#000000" font-family="sans-serif" font-size="10" lengthAdjust="spacing" textLength="176" x="60" y="300.9902">nz.ac.vuw.ecs.swen225.gp22.domain</text></g></a><!--MD5=[fec530e7eade1ce0ef2c008c8a4c4096]
reverse link java.lang.Record to nz.ac.vuw.ecs.swen225.gp22.domain.Entity.Action.Interaction--><g id="link_java.lang.Record_nz.ac.vuw.ecs.swen225.gp22.domain.Entity.Action.Interaction"><path codeLine="15" d="M70.83,63.84 C80.05,77.16 90.68,92.51 100.61,106.84 " fill="none" id="java.lang.Record-backto-nz.ac.vuw.ecs.swen225.gp22.domain.Entity.Action.Interaction" style="stroke:#181818;stroke-width:1.0;"/><polygon fill="none" points="64.96,67.66,59.32,47.24,76.47,59.69,64.96,67.66" style="stroke:#181818;stroke-width:1.0;"/></g><!--MD5=[0f48b98d2e7ac6ff4fccf11308051f0e]
reverse link nz.ac.vuw.ecs.swen225.gp22.domain.Entity.Action to nz.ac.vuw.ecs.swen225.gp22.domain.Entity.Action.Interaction--><g id="link_nz.ac.vuw.ecs.swen225.gp22.domain.Entity.Action_nz.ac.vuw.ecs.swen225.gp22.domain.Entity.Action.Interaction"><path codeLine="16" d="M201.96,59.83 C192.13,74.01 180.33,91.05 169.39,106.84 " fill="none" id="nz.ac.vuw.ecs.swen225.gp22.domain.Entity.Action-backto-nz.ac.vuw.ecs.swen225.gp22.domain.Entity.Action.Interaction" style="stroke:#181818;stroke-width:1.0;"/><ellipse cx="206.1235" cy="53.8156" fill="#FFFFFF" rx="8" ry="8" style="stroke:#181818;stroke-width:1.0;"/><line style="stroke:#181818;stroke-width:1.0;" x1="201.5671" x2="210.68" y1="60.3912" y2="47.24"/><line style="stroke:#181818;stroke-width:1.0;" x1="199.5479" x2="212.6992" y1="49.2592" y2="58.3721"/></g><!--MD5=[c6d783a193924dc11b5054a4d24e5d57]
reverse link nz.ac.vuw.ecs.swen225.gp22.domain.Entity.Action.Interaction to nz.ac.vuw.ecs.swen225.gp22.domain.Entity.Action.Interaction.ActionType--><g id="link_nz.ac.vuw.ecs.swen225.gp22.domain.Entity.Action.Interaction_nz.ac.vuw.ecs.swen225.gp22.domain.Entity.Action.Interaction.ActionType"><path codeLine="17" d="M135,223.37 C135,239.67 135,255.92 135,267.91 " fill="none" id="nz.ac.vuw.ecs.swen225.gp22.domain.Entity.Action.Interaction-backto-nz.ac.vuw.ecs.swen225.gp22.domain.Entity.Action.Interaction.ActionType" style="stroke:#181818;stroke-width:1.0;"/><ellipse cx="135" cy="216.18" fill="#FFFFFF" rx="8" ry="8" style="stroke:#181818;stroke-width:1.0;"/><line style="stroke:#181818;stroke-width:1.0;" x1="135" x2="135" y1="224.18" y2="208.18"/><line style="stroke:#181818;stroke-width:1.0;" x1="127" x2="143" y1="216.18" y2="216.18"/></g><rect fill="none" height="12.5781" style="stroke:none;stroke-width:1.0;" width="184" x="68.5" y="313.1875"/><text fill="#888888" font-family="sans-serif" font-size="10" lengthAdjust="spacing" textLength="184" x="68.5" y="323.5684">UMLDoclet 2.0.19, PlantUML 1.2022.8</text><!--MD5=[50ccfba47c330dd3d1df24b018e085eb]
@startuml
    set namespaceSeparator none
    hide empty fields
    hide empty methods

    class "<size:14>Entity.Action.Interaction\n<size:10>nz.ac.vuw.ecs.swen225.gp22.domain" as nz.ac.vuw.ecs.swen225.gp22.domain.Entity.Action.Interaction [[Entity.Action.Interaction.html]] {
        +Interaction(ActionType, Color)
        +type(): ActionType
        +color(): Color
    }

    abstract class "<size:14>Record\n<size:10>java.lang" as java.lang.Record
    class "<size:14>Entity.Action\n<size:10>nz.ac.vuw.ecs.swen225.gp22.domain" as nz.ac.vuw.ecs.swen225.gp22.domain.Entity.Action [[Entity.Action.html]]
    enum "<size:14>Entity.Action.Interaction.ActionType\n<size:10>nz.ac.vuw.ecs.swen225.gp22.domain" as nz.ac.vuw.ecs.swen225.gp22.domain.Entity.Action.Interaction.ActionType [[Entity.Action.Interaction.ActionType.html]]

    java.lang.Record <|- - nz.ac.vuw.ecs.swen225.gp22.domain.Entity.Action.Interaction
    nz.ac.vuw.ecs.swen225.gp22.domain.Entity.Action +- - nz.ac.vuw.ecs.swen225.gp22.domain.Entity.Action.Interaction
    nz.ac.vuw.ecs.swen225.gp22.domain.Entity.Action.Interaction +- - nz.ac.vuw.ecs.swen225.gp22.domain.Entity.Action.Interaction.ActionType

    center footer UMLDoclet 2.0.19, PlantUML 1.2022.8
@enduml

PlantUML version 1.2022.8(Sun Sep 25 22:00:33 NZDT 2022)
(APACHE source distribution)
Java Runtime: Java(TM) SE Runtime Environment
JVM: Java HotSpot(TM) 64-Bit Server VM
Default Encoding: Cp1252
Language: en
Country: NZ
--></g></svg>