<?xml version="1.0" encoding="UTF-8" standalone="no"?><svg xmlns="http://www.w3.org/2000/svg" xmlns:xlink="http://www.w3.org/1999/xlink" contentStyleType="text/css" height="313px" preserveAspectRatio="none" style="width:269px;height:313px;background:#FFFFFF;" version="1.1" viewBox="0 0 269 313" width="269px" zoomAndPan="magnify"><defs/><g><!--MD5=[c069d1ea57242fbf36072e990c879e78]
class nz.ac.vuw.ecs.swen225.gp22.domain.Entity.Action.Interaction.ActionType--><a href="Entity.Action.Interaction.ActionType.html" target="_top" title="Entity.Action.Interaction.ActionType.html" xlink:actuate="onRequest" xlink:href="Entity.Action.Interaction.ActionType.html" xlink:show="new" xlink:title="Entity.Action.Interaction.ActionType.html" xlink:type="simple"><g id="elem_nz.ac.vuw.ecs.swen225.gp22.domain.Entity.Action.Interaction.ActionType"><rect codeLine="5" fill="#F1F1F1" height="179.4531" id="nz.ac.vuw.ecs.swen225.gp22.domain.Entity.Action.Interaction.ActionType" rx="2.5" ry="2.5" style="stroke:#181818;stroke-width:0.5;" width="255" x="7" y="107"/><ellipse cx="22" cy="127.0938" fill="#EB937F" rx="11" ry="11" style="stroke:#181818;stroke-width:1.0;"/><path d="M20.8594,127.8906 L20.8594,130.3906 L25.1875,130.3906 L25.1875,129.4688 Q25.1875,128.8594 25.4219,128.5938 Q25.6719,128.3281 26.0469,128.3281 Q26.4219,128.3281 26.6563,128.5938 Q26.8906,128.8594 26.8906,129.4688 L26.8906,132.0938 L18.8906,132.0938 Q18.2656,132.0938 18,131.8594 Q17.75,131.625 17.75,131.2344 Q17.75,130.8594 18.0156,130.625 Q18.2813,130.3906 18.8906,130.3906 L19.1563,130.3906 L19.1563,123.7344 L18.8906,123.7344 Q18.2656,123.7344 18,123.5 Q17.75,123.2656 17.75,122.875 Q17.75,122.5 18,122.2656 Q18.2656,122.0313 18.8906,122.0313 L26.5156,122.0313 L26.5156,124.625 Q26.5156,125.2344 26.2813,125.5 Q26.0625,125.75 25.6719,125.75 Q25.2969,125.75 25.0625,125.5 Q24.8281,125.2344 24.8281,124.625 L24.8281,123.7344 L20.8594,123.7344 L20.8594,126.1875 L22.3438,126.1875 Q22.3438,125.5313 22.4688,125.3438 Q22.7344,124.9375 23.2031,124.9375 Q23.5781,124.9375 23.8125,125.2031 Q24.0469,125.4531 24.0469,126.0625 L24.0469,128.0313 Q24.0469,128.5781 23.9219,128.7656 Q23.6563,129.1563 23.2031,129.1563 Q22.7344,129.1563 22.4688,128.75 Q22.3438,128.5625 22.3438,127.8906 L20.8594,127.8906 Z " fill="#000000"/><text fill="#000000" font-family="sans-serif" font-size="14" lengthAdjust="spacing" textLength="223" x="36" y="126.5332">Entity.Action.Interaction.ActionType</text><text fill="#000000" font-family="sans-serif" font-size="10" lengthAdjust="spacing" textLength="176" x="59.5" y="139.9902">nz.ac.vuw.ecs.swen225.gp22.domain</text><line style="stroke:#181818;stroke-width:0.5;" x1="8" x2="261" y1="147.1875" y2="147.1875"/><ellipse cx="18" cy="161.4922" fill="none" rx="3" ry="3" style="stroke:#038048;stroke-width:1.0;"/><text fill="#000000" font-family="sans-serif" font-size="14" lengthAdjust="spacing" text-decoration="underline" textLength="33" x="27" y="165.7207">None</text><ellipse cx="18" cy="179.1016" fill="none" rx="3" ry="3" style="stroke:#038048;stroke-width:1.0;"/><text fill="#000000" font-family="sans-serif" font-size="14" lengthAdjust="spacing" text-decoration="underline" textLength="66" x="27" y="183.3301">PickupKey</text><ellipse cx="18" cy="196.7109" fill="none" rx="3" ry="3" style="stroke:#038048;stroke-width:1.0;"/><text fill="#000000" font-family="sans-serif" font-size="14" lengthAdjust="spacing" text-decoration="underline" textLength="100" x="27" y="200.9395">PickupTreasure</text><ellipse cx="18" cy="214.3203" fill="none" rx="3" ry="3" style="stroke:#038048;stroke-width:1.0;"/><text fill="#000000" font-family="sans-serif" font-size="14" lengthAdjust="spacing" text-decoration="underline" textLength="73" x="27" y="218.5488">UnlockDoor</text><ellipse cx="18" cy="231.9297" fill="none" rx="3" ry="3" style="stroke:#038048;stroke-width:1.0;"/><text fill="#000000" font-family="sans-serif" font-size="14" lengthAdjust="spacing" text-decoration="underline" textLength="64" x="27" y="236.1582">UnlockExit</text><ellipse cx="18" cy="249.5391" fill="none" rx="3" ry="3" style="stroke:#038048;stroke-width:1.0;"/><text fill="#000000" font-family="sans-serif" font-size="14" lengthAdjust="spacing" text-decoration="underline" textLength="44" x="27" y="253.7676">Pinged</text><line style="stroke:#181818;stroke-width:0.5;" x1="8" x2="261" y1="260.8438" y2="260.8438"/><ellipse cx="18" cy="275.1484" fill="#84BE84" rx="3" ry="3" style="stroke:#038048;stroke-width:1.0;"/><text fill="#000000" font-family="sans-serif" font-size="14" lengthAdjust="spacing" textLength="150" x="27" y="279.377">undo(Point, Color): void</text></g></a><!--MD5=[c2606eb6a1ebdcd60dbbb794ea7defb5]
class nz.ac.vuw.ecs.swen225.gp22.domain.Entity.Action.Interaction--><a href="Entity.Action.Interaction.html" target="_top" title="Entity.Action.Interaction.html" xlink:actuate="onRequest" xlink:href="Entity.Action.Interaction.html" xlink:show="new" xlink:title="Entity.Action.Interaction.html" xlink:type="simple"><g id="elem_nz.ac.vuw.ecs.swen225.gp22.domain.Entity.Action.Interaction"><rect codeLine="15" fill="#F1F1F1" height="40.1875" id="nz.ac.vuw.ecs.swen225.gp22.domain.Entity.Action.Interaction" rx="2.5" ry="2.5" style="stroke:#181818;stroke-width:0.5;" width="208" x="30.5" y="7"/><ellipse cx="45.5" cy="27.0938" fill="#ADD1B2" rx="11" ry="11" style="stroke:#181818;stroke-width:1.0;"/><path d="M48.2656,22.9688 Q48.4219,22.75 48.6094,22.6406 Q48.7969,22.5313 49.0156,22.5313 Q49.3906,22.5313 49.625,22.7969 Q49.8594,23.0469 49.8594,23.6563 L49.8594,25.1094 Q49.8594,25.7188 49.625,25.9844 Q49.3906,26.25 49.0156,26.25 Q48.6719,26.25 48.4688,26.0469 Q48.2656,25.8594 48.1563,25.3438 Q48.1094,24.9844 47.9219,24.7969 Q47.5938,24.4219 46.9844,24.2031 Q46.375,23.9844 45.75,23.9844 Q44.9844,23.9844 44.3438,24.3125 Q43.7188,24.6406 43.2188,25.3906 Q42.7344,26.1406 42.7344,27.1719 L42.7344,28.2656 Q42.7344,29.5 43.625,30.3281 Q44.5156,31.1406 46.1094,31.1406 Q47.0469,31.1406 47.7031,30.8906 Q48.0938,30.7344 48.5156,30.2969 Q48.7813,30.0313 48.9219,29.9531 Q49.0781,29.875 49.2813,29.875 Q49.6094,29.875 49.8594,30.1406 Q50.125,30.3906 50.125,30.7344 Q50.125,31.0781 49.7813,31.4844 Q49.2813,32.0625 48.4844,32.3906 Q47.4063,32.8438 46.1094,32.8438 Q44.5938,32.8438 43.3906,32.2188 Q42.4063,31.7188 41.7188,30.6563 Q41.0313,29.5781 41.0313,28.2969 L41.0313,27.1406 Q41.0313,25.8125 41.6406,24.6719 Q42.2656,23.5156 43.3594,22.9063 Q44.4531,22.2813 45.6875,22.2813 Q46.4219,22.2813 47.0625,22.4531 Q47.7188,22.6094 48.2656,22.9688 Z " fill="#000000"/><text fill="#000000" font-family="sans-serif" font-size="14" lengthAdjust="spacing" textLength="148" x="73.5" y="26.5332">Entity.Action.Interaction</text><text fill="#000000" font-family="sans-serif" font-size="10" lengthAdjust="spacing" textLength="176" x="59.5" y="39.9902">nz.ac.vuw.ecs.swen225.gp22.domain</text></g></a><!--MD5=[c6d783a193924dc11b5054a4d24e5d57]
reverse link nz.ac.vuw.ecs.swen225.gp22.domain.Entity.Action.Interaction to nz.ac.vuw.ecs.swen225.gp22.domain.Entity.Action.Interaction.ActionType--><g id="link_nz.ac.vuw.ecs.swen225.gp22.domain.Entity.Action.Interaction_nz.ac.vuw.ecs.swen225.gp22.domain.Entity.Action.Interaction.ActionType"><path codeLine="17" d="M134.5,62.3 C134.5,75.4 134.5,91.03 134.5,106.89 " fill="none" id="nz.ac.vuw.ecs.swen225.gp22.domain.Entity.Action.Interaction-backto-nz.ac.vuw.ecs.swen225.gp22.domain.Entity.Action.Interaction.ActionType" style="stroke:#181818;stroke-width:1.0;"/><ellipse cx="134.5" cy="55.21" fill="#FFFFFF" rx="8" ry="8" style="stroke:#181818;stroke-width:1.0;"/><line style="stroke:#181818;stroke-width:1.0;" x1="134.5" x2="134.5" y1="63.21" y2="47.21"/><line style="stroke:#181818;stroke-width:1.0;" x1="126.5" x2="142.5" y1="55.21" y2="55.21"/></g><rect fill="none" height="12.5781" style="stroke:none;stroke-width:1.0;" width="184" x="35.5" y="292.4531"/><text fill="#888888" font-family="sans-serif" font-size="10" lengthAdjust="spacing" textLength="184" x="35.5" y="302.834">UMLDoclet 2.0.19, PlantUML 1.2022.8</text><!--MD5=[97c9a18b676e11a3196d9868c40197ac]
@startuml
    set namespaceSeparator none
    hide empty fields
    hide empty methods

    enum "<size:14>Entity.Action.Interaction.ActionType\n<size:10>nz.ac.vuw.ecs.swen225.gp22.domain" as nz.ac.vuw.ecs.swen225.gp22.domain.Entity.Action.Interaction.ActionType [[Entity.Action.Interaction.ActionType.html]] {
        {static} +None
        {static} +PickupKey
        {static} +PickupTreasure
        {static} +UnlockDoor
        {static} +UnlockExit
        {static} +Pinged
        +undo(Point, Color): void
    }

    class "<size:14>Entity.Action.Interaction\n<size:10>nz.ac.vuw.ecs.swen225.gp22.domain" as nz.ac.vuw.ecs.swen225.gp22.domain.Entity.Action.Interaction [[Entity.Action.Interaction.html]]

    nz.ac.vuw.ecs.swen225.gp22.domain.Entity.Action.Interaction +- - nz.ac.vuw.ecs.swen225.gp22.domain.Entity.Action.Interaction.ActionType

    center footer UMLDoclet 2.0.19, PlantUML 1.2022.8
@enduml

PlantUML version 1.2022.8(Sun Sep 25 22:00:33 NZDT 2022)
(APACHE source distribution)
Java Runtime: Java(TM) SE Runtime Environment
JVM: Java HotSpot(TM) 64-Bit Server VM
Default Encoding: Cp1252
Language: en
Country: NZ
--></g></svg>