<?xml version="1.0" encoding="UTF-8" standalone="no"?><svg xmlns="http://www.w3.org/2000/svg" xmlns:xlink="http://www.w3.org/1999/xlink" contentStyleType="text/css" height="270px" preserveAspectRatio="none" style="width:308px;height:270px;background:#FFFFFF;" version="1.1" viewBox="0 0 308 270" width="308px" zoomAndPan="magnify"><defs/><g><!--MD5=[8c057b5d167072b905aebf0268e9082a]
class nz.ac.vuw.ecs.swen225.gp22.domain.GummyGuard--><a href="GummyGuard.html" target="_top" title="GummyGuard.html" xlink:actuate="onRequest" xlink:href="GummyGuard.html" xlink:show="new" xlink:title="GummyGuard.html" xlink:type="simple"><g id="elem_nz.ac.vuw.ecs.swen225.gp22.domain.GummyGuard"><rect codeLine="5" fill="#F1F1F1" height="133.7188" id="nz.ac.vuw.ecs.swen225.gp22.domain.GummyGuard" rx="2.5" ry="2.5" style="stroke:#181818;stroke-width:0.5;" width="220" x="42" y="110"/><ellipse cx="62.4" cy="137.6406" fill="#ADD1B2" rx="11" ry="11" style="stroke:#181818;stroke-width:1.0;"/><path d="M65.1656,133.5156 Q65.3219,133.2969 65.5094,133.1875 Q65.6969,133.0781 65.9156,133.0781 Q66.2906,133.0781 66.525,133.3438 Q66.7594,133.5938 66.7594,134.2031 L66.7594,135.6563 Q66.7594,136.2656 66.525,136.5313 Q66.2906,136.7969 65.9156,136.7969 Q65.5719,136.7969 65.3688,136.5938 Q65.1656,136.4063 65.0563,135.8906 Q65.0094,135.5313 64.8219,135.3438 Q64.4938,134.9688 63.8844,134.75 Q63.275,134.5313 62.65,134.5313 Q61.8844,134.5313 61.2438,134.8594 Q60.6188,135.1875 60.1188,135.9375 Q59.6344,136.6875 59.6344,137.7188 L59.6344,138.8125 Q59.6344,140.0469 60.525,140.875 Q61.4156,141.6875 63.0094,141.6875 Q63.9469,141.6875 64.6031,141.4375 Q64.9938,141.2813 65.4156,140.8438 Q65.6813,140.5781 65.8219,140.5 Q65.9781,140.4219 66.1813,140.4219 Q66.5094,140.4219 66.7594,140.6875 Q67.025,140.9375 67.025,141.2813 Q67.025,141.625 66.6813,142.0313 Q66.1813,142.6094 65.3844,142.9375 Q64.3063,143.3906 63.0094,143.3906 Q61.4938,143.3906 60.2906,142.7656 Q59.3063,142.2656 58.6188,141.2031 Q57.9313,140.125 57.9313,138.8438 L57.9313,137.6875 Q57.9313,136.3594 58.5406,135.2188 Q59.1656,134.0625 60.2594,133.4531 Q61.3531,132.8281 62.5875,132.8281 Q63.3219,132.8281 63.9625,133 Q64.6188,133.1563 65.1656,133.5156 Z " fill="#000000"/><text fill="#000000" font-family="sans-serif" font-size="12" font-style="italic" lengthAdjust="spacing" textLength="76" x="127.6" y="127.457">«deprecated»</text><text fill="#000000" font-family="sans-serif" font-size="14" lengthAdjust="spacing" textLength="88" x="121.6" y="144.627">GummyGuard</text><text fill="#000000" font-family="sans-serif" font-size="10" lengthAdjust="spacing" textLength="176" x="77.6" y="158.084">nz.ac.vuw.ecs.swen225.gp22.domain</text><line style="stroke:#181818;stroke-width:0.5;" x1="43" x2="261" y1="165.2813" y2="165.2813"/><ellipse cx="53" cy="179.5859" fill="#84BE84" rx="3" ry="3" style="stroke:#038048;stroke-width:1.0;"/><text fill="#000000" font-family="sans-serif" font-size="14" lengthAdjust="spacing" textLength="194" x="62" y="183.8145">GummyGuard(Point, Direction)</text><ellipse cx="53" cy="197.1953" fill="#84BE84" rx="3" ry="3" style="stroke:#038048;stroke-width:1.0;"/><text fill="#000000" font-family="sans-serif" font-size="14" lengthAdjust="spacing" textLength="71" x="62" y="201.4238">ping(): void</text><ellipse cx="53" cy="214.8047" fill="#84BE84" rx="3" ry="3" style="stroke:#038048;stroke-width:1.0;"/><text fill="#000000" font-family="sans-serif" font-size="14" lengthAdjust="spacing" textLength="87" x="62" y="219.0332">unping(): void</text><ellipse cx="53" cy="232.4141" fill="#84BE84" rx="3" ry="3" style="stroke:#038048;stroke-width:1.0;"/><text fill="#000000" font-family="sans-serif" font-size="14" lengthAdjust="spacing" textLength="118" x="62" y="236.6426">deleteEntity(): void</text></g></a><!--MD5=[57b291128dc68164abad2304da37947c]
class nz.ac.vuw.ecs.swen225.gp22.domain.EnemyEntity--><a href="EnemyEntity.html" target="_top" title="EnemyEntity.html" xlink:actuate="onRequest" xlink:href="EnemyEntity.html" xlink:show="new" xlink:title="EnemyEntity.html" xlink:type="simple"><g id="elem_nz.ac.vuw.ecs.swen225.gp22.domain.EnemyEntity"><rect codeLine="12" fill="#F1F1F1" height="40.1875" id="nz.ac.vuw.ecs.swen225.gp22.domain.EnemyEntity" rx="2.5" ry="2.5" style="stroke:#181818;stroke-width:0.5;" width="290" x="7" y="10"/><ellipse cx="22" cy="30.0938" fill="#A9DCDF" rx="11" ry="11" style="stroke:#181818;stroke-width:1.0;"/><path d="M24.1875,31.8594 L20.0469,31.8594 L19.625,32.8906 L20.0469,32.8906 Q20.6563,32.8906 20.9219,33.125 Q21.1875,33.3594 21.1875,33.75 Q21.1875,34.125 20.9219,34.3594 Q20.6563,34.5938 20.0469,34.5938 L17.75,34.5938 Q17.1406,34.5938 16.8906,34.3594 Q16.625,34.125 16.625,33.7344 Q16.625,33.3594 16.9063,33.125 Q17.1719,32.875 17.7969,32.8906 L20.4688,26.2344 L19.3594,26.2344 Q18.75,26.2344 18.4844,26 Q18.2188,25.7656 18.2188,25.375 Q18.2188,25 18.4844,24.7656 Q18.75,24.5313 19.3594,24.5313 L23.0313,24.5313 L26.4219,32.8906 Q27.0156,32.8906 27.2031,33.0313 Q27.5938,33.2969 27.5938,33.75 Q27.5938,34.125 27.3281,34.3594 Q27.0781,34.5938 26.4688,34.5938 L24.1719,34.5938 Q23.5625,34.5938 23.2969,34.3594 Q23.0313,34.125 23.0313,33.7344 Q23.0313,33.3594 23.2969,33.125 Q23.5625,32.8906 24.1719,32.8906 L24.5938,32.8906 L24.1875,31.8594 Z M23.4688,30.1563 L22.1094,26.7813 L20.7344,30.1563 L23.4688,30.1563 Z " fill="#000000"/><text fill="#000000" font-family="sans-serif" font-size="14" font-style="italic" lengthAdjust="spacing" textLength="78" x="85" y="29.5332">EnemyEntity</text><text fill="#000000" font-family="sans-serif" font-size="10" font-style="italic" lengthAdjust="spacing" textLength="176" x="36" y="42.9902">nz.ac.vuw.ecs.swen225.gp22.domain</text><rect fill="#FFFFFF" height="17.0938" style="stroke:#181818;stroke-width:1.0;stroke-dasharray:2.0,2.0;" width="80" x="220" y="7"/><text fill="#000000" font-family="sans-serif" font-size="12" font-style="italic" lengthAdjust="spacing" textLength="78" x="221" y="20.457">GummyGuard</text></g></a><!--MD5=[5550f0af3a4e4d5fe6a5af56587cc9a5]
reverse link nz.ac.vuw.ecs.swen225.gp22.domain.EnemyEntity to nz.ac.vuw.ecs.swen225.gp22.domain.GummyGuard--><g id="link_nz.ac.vuw.ecs.swen225.gp22.domain.EnemyEntity_nz.ac.vuw.ecs.swen225.gp22.domain.GummyGuard"><path codeLine="14" d="M152,70.65 C152,82.82 152,96.55 152,109.99 " fill="none" id="nz.ac.vuw.ecs.swen225.gp22.domain.EnemyEntity-backto-nz.ac.vuw.ecs.swen225.gp22.domain.GummyGuard" style="stroke:#181818;stroke-width:1.0;"/><polygon fill="none" points="145,70.25,152,50.25,159,70.25,145,70.25" style="stroke:#181818;stroke-width:1.0;"/></g><rect fill="none" height="12.5781" style="stroke:none;stroke-width:1.0;" width="184" x="55" y="249.7188"/><text fill="#888888" font-family="sans-serif" font-size="10" lengthAdjust="spacing" textLength="184" x="55" y="260.0996">UMLDoclet 2.0.19, PlantUML 1.2022.8</text><!--MD5=[cf4b6349ffe56fc204a6697e896cc69d]
@startuml
    set namespaceSeparator none
    hide empty fields
    hide empty methods

    class "<size:14>GummyGuard\n<size:10>nz.ac.vuw.ecs.swen225.gp22.domain" as nz.ac.vuw.ecs.swen225.gp22.domain.GummyGuard <<deprecated>> [[GummyGuard.html]] {
        +GummyGuard(Point, Direction)
        +ping(): void
        +unping(): void
        +deleteEntity(): void
    }

    abstract class "<size:14>EnemyEntity\n<size:10>nz.ac.vuw.ecs.swen225.gp22.domain" as nz.ac.vuw.ecs.swen225.gp22.domain.EnemyEntity<GummyGuard> [[EnemyEntity.html]]

    nz.ac.vuw.ecs.swen225.gp22.domain.EnemyEntity <|- - nz.ac.vuw.ecs.swen225.gp22.domain.GummyGuard

    center footer UMLDoclet 2.0.19, PlantUML 1.2022.8
@enduml

PlantUML version 1.2022.8(Sun Sep 25 22:00:33 NZDT 2022)
(APACHE source distribution)
Java Runtime: Java(TM) SE Runtime Environment
JVM: Java HotSpot(TM) 64-Bit Server VM
Default Encoding: Cp1252
Language: en
Country: NZ
--></g></svg>