<?xml version="1.0" encoding="UTF-8" standalone="no"?><svg xmlns="http://www.w3.org/2000/svg" xmlns:xlink="http://www.w3.org/1999/xlink" contentStyleType="text/css" height="593px" preserveAspectRatio="none" style="width:310px;height:593px;background:#FFFFFF;" version="1.1" viewBox="0 0 310 593" width="310px" zoomAndPan="magnify"><defs/><g><!--MD5=[02e57345d016cacb810ea02e8ecd6a98]
class nz.ac.vuw.ecs.swen225.gp22.domain.Maze--><a href="Maze.html" target="_top" title="Maze.html" xlink:actuate="onRequest" xlink:href="Maze.html" xlink:show="new" xlink:title="Maze.html" xlink:type="simple"><g id="elem_nz.ac.vuw.ecs.swen225.gp22.domain.Maze"><rect codeLine="5" fill="#F1F1F1" height="461.2031" id="nz.ac.vuw.ecs.swen225.gp22.domain.Maze" rx="2.5" ry="2.5" style="stroke:#181818;stroke-width:0.5;" width="296" x="7" y="7"/><ellipse cx="62.75" cy="27.0938" fill="#ADD1B2" rx="11" ry="11" style="stroke:#181818;stroke-width:1.0;"/><path d="M65.5156,22.9688 Q65.6719,22.75 65.8594,22.6406 Q66.0469,22.5313 66.2656,22.5313 Q66.6406,22.5313 66.875,22.7969 Q67.1094,23.0469 67.1094,23.6563 L67.1094,25.1094 Q67.1094,25.7188 66.875,25.9844 Q66.6406,26.25 66.2656,26.25 Q65.9219,26.25 65.7188,26.0469 Q65.5156,25.8594 65.4063,25.3438 Q65.3594,24.9844 65.1719,24.7969 Q64.8438,24.4219 64.2344,24.2031 Q63.625,23.9844 63,23.9844 Q62.2344,23.9844 61.5938,24.3125 Q60.9688,24.6406 60.4688,25.3906 Q59.9844,26.1406 59.9844,27.1719 L59.9844,28.2656 Q59.9844,29.5 60.875,30.3281 Q61.7656,31.1406 63.3594,31.1406 Q64.2969,31.1406 64.9531,30.8906 Q65.3438,30.7344 65.7656,30.2969 Q66.0313,30.0313 66.1719,29.9531 Q66.3281,29.875 66.5313,29.875 Q66.8594,29.875 67.1094,30.1406 Q67.375,30.3906 67.375,30.7344 Q67.375,31.0781 67.0313,31.4844 Q66.5313,32.0625 65.7344,32.3906 Q64.6563,32.8438 63.3594,32.8438 Q61.8438,32.8438 60.6406,32.2188 Q59.6563,31.7188 58.9688,30.6563 Q58.2813,29.5781 58.2813,28.2969 L58.2813,27.1406 Q58.2813,25.8125 58.8906,24.6719 Q59.5156,23.5156 60.6094,22.9063 Q61.7031,22.2813 62.9375,22.2813 Q63.6719,22.2813 64.3125,22.4531 Q64.9688,22.6094 65.5156,22.9688 Z " fill="#000000"/><text fill="#000000" font-family="sans-serif" font-size="14" lengthAdjust="spacing" textLength="33" x="154.75" y="26.5332">Maze</text><text fill="#000000" font-family="sans-serif" font-size="10" lengthAdjust="spacing" textLength="176" x="83.25" y="39.9902">nz.ac.vuw.ecs.swen225.gp22.domain</text><line style="stroke:#181818;stroke-width:0.5;" x1="8" x2="302" y1="47.1875" y2="47.1875"/><ellipse cx="18" cy="61.4922" fill="none" rx="3" ry="3" style="stroke:#038048;stroke-width:1.0;"/><text fill="#000000" font-family="sans-serif" font-size="14" lengthAdjust="spacing" text-decoration="underline" textLength="87" x="27" y="65.7207">player: Player</text><ellipse cx="18" cy="79.1016" fill="none" rx="3" ry="3" style="stroke:#038048;stroke-width:1.0;"/><text fill="#000000" font-family="sans-serif" font-size="14" lengthAdjust="spacing" text-decoration="underline" textLength="160" x="27" y="83.3301">entities: ArrayList&lt;Entity&gt;</text><ellipse cx="18" cy="96.7109" fill="none" rx="3" ry="3" style="stroke:#038048;stroke-width:1.0;"/><text fill="#000000" font-family="sans-serif" font-size="14" lengthAdjust="spacing" text-decoration="underline" textLength="270" x="27" y="100.9395">unclaimedInteractions: Queue&lt;Interaction&gt;</text><ellipse cx="18" cy="114.3203" fill="none" rx="3" ry="3" style="stroke:#038048;stroke-width:1.0;"/><text fill="#000000" font-family="sans-serif" font-size="14" lengthAdjust="spacing" text-decoration="underline" textLength="74" x="27" y="118.5488">globalID: int</text><line style="stroke:#181818;stroke-width:0.5;" x1="8" x2="302" y1="125.625" y2="125.625"/><ellipse cx="18" cy="139.9297" fill="#84BE84" rx="3" ry="3" style="stroke:#038048;stroke-width:1.0;"/><text fill="#000000" font-family="sans-serif" font-size="14" lengthAdjust="spacing" text-decoration="underline" textLength="206" x="27" y="144.1582">generateMap(Point, int, int): void</text><ellipse cx="18" cy="157.5391" fill="#84BE84" rx="3" ry="3" style="stroke:#038048;stroke-width:1.0;"/><text fill="#000000" font-family="sans-serif" font-size="14" lengthAdjust="spacing" text-decoration="underline" textLength="143" x="27" y="161.7676">getDimensions(): Point</text><ellipse cx="18" cy="175.1484" fill="#84BE84" rx="3" ry="3" style="stroke:#038048;stroke-width:1.0;"/><text fill="#000000" font-family="sans-serif" font-size="14" lengthAdjust="spacing" text-decoration="underline" textLength="116" x="27" y="179.377">getTile(Point): Tile</text><ellipse cx="18" cy="192.7578" fill="#84BE84" rx="3" ry="3" style="stroke:#038048;stroke-width:1.0;"/><text fill="#000000" font-family="sans-serif" font-size="14" lengthAdjust="spacing" text-decoration="underline" textLength="149" x="27" y="196.9863">setTile(Point, Tile): void</text><ellipse cx="18" cy="210.3672" fill="#84BE84" rx="3" ry="3" style="stroke:#038048;stroke-width:1.0;"/><text fill="#000000" font-family="sans-serif" font-size="14" lengthAdjust="spacing" text-decoration="underline" textLength="131" x="27" y="214.5957">resetTile(Point): void</text><ellipse cx="18" cy="227.9766" fill="#84BE84" rx="3" ry="3" style="stroke:#038048;stroke-width:1.0;"/><text fill="#000000" font-family="sans-serif" font-size="14" lengthAdjust="spacing" text-decoration="underline" textLength="192" x="27" y="232.2051">getChangeMap(): List&lt;Action&gt;</text><ellipse cx="18" cy="245.5859" fill="#84BE84" rx="3" ry="3" style="stroke:#038048;stroke-width:1.0;"/><text fill="#000000" font-family="sans-serif" font-size="14" lengthAdjust="spacing" text-decoration="underline" textLength="155" x="27" y="249.8145">apply(List&lt;Action&gt;): void</text><ellipse cx="18" cy="263.1953" fill="#84BE84" rx="3" ry="3" style="stroke:#038048;stroke-width:1.0;"/><text fill="#000000" font-family="sans-serif" font-size="14" lengthAdjust="spacing" text-decoration="underline" textLength="153" x="27" y="267.4238">undo(List&lt;Action&gt;): void</text><ellipse cx="18" cy="280.8047" fill="#84BE84" rx="3" ry="3" style="stroke:#038048;stroke-width:1.0;"/><text fill="#000000" font-family="sans-serif" font-size="14" lengthAdjust="spacing" text-decoration="underline" textLength="123" x="27" y="285.0332">getEntity(int): Entity</text><ellipse cx="18" cy="298.4141" fill="#84BE84" rx="3" ry="3" style="stroke:#038048;stroke-width:1.0;"/><text fill="#000000" font-family="sans-serif" font-size="14" lengthAdjust="spacing" text-decoration="underline" textLength="142" x="27" y="302.6426">collectTreasure(): void</text><ellipse cx="18" cy="316.0234" fill="#84BE84" rx="3" ry="3" style="stroke:#038048;stroke-width:1.0;"/><text fill="#000000" font-family="sans-serif" font-size="14" lengthAdjust="spacing" text-decoration="underline" textLength="126" x="27" y="320.252">addTreasure(): void</text><ellipse cx="18" cy="333.6328" fill="#84BE84" rx="3" ry="3" style="stroke:#038048;stroke-width:1.0;"/><text fill="#000000" font-family="sans-serif" font-size="14" lengthAdjust="spacing" text-decoration="underline" textLength="205" x="27" y="337.8613">collectedAllTreasures(): boolean</text><ellipse cx="18" cy="351.2422" fill="#84BE84" rx="3" ry="3" style="stroke:#038048;stroke-width:1.0;"/><text fill="#000000" font-family="sans-serif" font-size="14" lengthAdjust="spacing" text-decoration="underline" textLength="142" x="27" y="355.4707">getTreasuresLeft(): int</text><ellipse cx="18" cy="368.8516" fill="#84BE84" rx="3" ry="3" style="stroke:#038048;stroke-width:1.0;"/><text fill="#000000" font-family="sans-serif" font-size="14" lengthAdjust="spacing" text-decoration="underline" textLength="114" x="27" y="373.0801">getNextLevel(): int</text><ellipse cx="18" cy="386.4609" fill="#84BE84" rx="3" ry="3" style="stroke:#038048;stroke-width:1.0;"/><text fill="#000000" font-family="sans-serif" font-size="14" lengthAdjust="spacing" text-decoration="underline" textLength="164" x="27" y="390.6895">gameComplete(): boolean</text><ellipse cx="18" cy="404.0703" fill="#84BE84" rx="3" ry="3" style="stroke:#038048;stroke-width:1.0;"/><text fill="#000000" font-family="sans-serif" font-size="14" lengthAdjust="spacing" text-decoration="underline" textLength="133" x="27" y="408.2988">gameWon(): boolean</text><ellipse cx="18" cy="421.6797" fill="#84BE84" rx="3" ry="3" style="stroke:#038048;stroke-width:1.0;"/><text fill="#000000" font-family="sans-serif" font-size="14" lengthAdjust="spacing" text-decoration="underline" textLength="144" x="27" y="425.9082">isGameLost(): boolean</text><ellipse cx="18" cy="439.2891" fill="#84BE84" rx="3" ry="3" style="stroke:#038048;stroke-width:1.0;"/><text fill="#000000" font-family="sans-serif" font-size="14" lengthAdjust="spacing" text-decoration="underline" textLength="108" x="27" y="443.5176">loseGame(): void</text><ellipse cx="18" cy="456.8984" fill="#84BE84" rx="3" ry="3" style="stroke:#038048;stroke-width:1.0;"/><text fill="#000000" font-family="sans-serif" font-size="14" lengthAdjust="spacing" text-decoration="underline" textLength="145" x="27" y="461.127">getStringState(): String</text></g></a><!--MD5=[b955458c06e1959c80a58f6434dacc24]
class nz.ac.vuw.ecs.swen225.gp22.domain.Maze.Point--><a href="Maze.Point.html" target="_top" title="Maze.Point.html" xlink:actuate="onRequest" xlink:href="Maze.Point.html" xlink:show="new" xlink:title="Maze.Point.html" xlink:type="simple"><g id="elem_nz.ac.vuw.ecs.swen225.gp22.domain.Maze.Point"><rect codeLine="30" fill="#F1F1F1" height="40.1875" id="nz.ac.vuw.ecs.swen225.gp22.domain.Maze.Point" rx="2.5" ry="2.5" style="stroke:#181818;stroke-width:0.5;" width="208" x="51" y="528"/><ellipse cx="66" cy="548.0938" fill="#ADD1B2" rx="11" ry="11" style="stroke:#181818;stroke-width:1.0;"/><path d="M68.7656,543.9688 Q68.9219,543.75 69.1094,543.6406 Q69.2969,543.5313 69.5156,543.5313 Q69.8906,543.5313 70.125,543.7969 Q70.3594,544.0469 70.3594,544.6563 L70.3594,546.1094 Q70.3594,546.7188 70.125,546.9844 Q69.8906,547.25 69.5156,547.25 Q69.1719,547.25 68.9688,547.0469 Q68.7656,546.8594 68.6563,546.3438 Q68.6094,545.9844 68.4219,545.7969 Q68.0938,545.4219 67.4844,545.2031 Q66.875,544.9844 66.25,544.9844 Q65.4844,544.9844 64.8438,545.3125 Q64.2188,545.6406 63.7188,546.3906 Q63.2344,547.1406 63.2344,548.1719 L63.2344,549.2656 Q63.2344,550.5 64.125,551.3281 Q65.0156,552.1406 66.6094,552.1406 Q67.5469,552.1406 68.2031,551.8906 Q68.5938,551.7344 69.0156,551.2969 Q69.2813,551.0313 69.4219,550.9531 Q69.5781,550.875 69.7813,550.875 Q70.1094,550.875 70.3594,551.1406 Q70.625,551.3906 70.625,551.7344 Q70.625,552.0781 70.2813,552.4844 Q69.7813,553.0625 68.9844,553.3906 Q67.9063,553.8438 66.6094,553.8438 Q65.0938,553.8438 63.8906,553.2188 Q62.9063,552.7188 62.2188,551.6563 Q61.5313,550.5781 61.5313,549.2969 L61.5313,548.1406 Q61.5313,546.8125 62.1406,545.6719 Q62.7656,544.5156 63.8594,543.9063 Q64.9531,543.2813 66.1875,543.2813 Q66.9219,543.2813 67.5625,543.4531 Q68.2188,543.6094 68.7656,543.9688 Z " fill="#000000"/><text fill="#000000" font-family="sans-serif" font-size="14" lengthAdjust="spacing" textLength="69" x="133.5" y="547.5332">Maze.Point</text><text fill="#000000" font-family="sans-serif" font-size="10" lengthAdjust="spacing" textLength="176" x="80" y="560.9902">nz.ac.vuw.ecs.swen225.gp22.domain</text></g></a><!--MD5=[30d3803f60f7d70def09ab00ab758169]
reverse link nz.ac.vuw.ecs.swen225.gp22.domain.Maze to nz.ac.vuw.ecs.swen225.gp22.domain.Maze.Point--><g id="link_nz.ac.vuw.ecs.swen225.gp22.domain.Maze_nz.ac.vuw.ecs.swen225.gp22.domain.Maze.Point"><path codeLine="32" d="M155,483.51 C155,501.32 155,516.63 155,527.75 " fill="none" id="nz.ac.vuw.ecs.swen225.gp22.domain.Maze-backto-nz.ac.vuw.ecs.swen225.gp22.domain.Maze.Point" style="stroke:#181818;stroke-width:1.0;"/><ellipse cx="155" cy="476.35" fill="#FFFFFF" rx="8" ry="8" style="stroke:#181818;stroke-width:1.0;"/><line style="stroke:#181818;stroke-width:1.0;" x1="155" x2="155" y1="484.35" y2="468.35"/><line style="stroke:#181818;stroke-width:1.0;" x1="147" x2="163" y1="476.35" y2="476.35"/></g><rect fill="none" height="12.5781" style="stroke:none;stroke-width:1.0;" width="184" x="56" y="573.1875"/><text fill="#888888" font-family="sans-serif" font-size="10" lengthAdjust="spacing" textLength="184" x="56" y="583.5684">UMLDoclet 2.0.19, PlantUML 1.2022.8</text><!--MD5=[3dd336231cc6c4129f2611a62f64f78b]
@startuml
    set namespaceSeparator none
    hide empty fields
    hide empty methods

    class "<size:14>Maze\n<size:10>nz.ac.vuw.ecs.swen225.gp22.domain" as nz.ac.vuw.ecs.swen225.gp22.domain.Maze [[Maze.html]] {
        {static} +player: Player
        {static} +entities: ArrayList<Entity>
        {static} +unclaimedInteractions: Queue<Interaction>
        {static} +globalID: int
        {static} +generateMap(Point, int, int): void
        {static} +getDimensions(): Point
        {static} +getTile(Point): Tile
        {static} +setTile(Point, Tile): void
        {static} +resetTile(Point): void
        {static} +getChangeMap(): List<Action>
        {static} +apply(List<Action>): void
        {static} +undo(List<Action>): void
        {static} +getEntity(int): Entity
        {static} +collectTreasure(): void
        {static} +addTreasure(): void
        {static} +collectedAllTreasures(): boolean
        {static} +getTreasuresLeft(): int
        {static} +getNextLevel(): int
        {static} +gameComplete(): boolean
        {static} +gameWon(): boolean
        {static} +isGameLost(): boolean
        {static} +loseGame(): void
        {static} +getStringState(): String
    }
    class "<size:14>Maze.Point\n<size:10>nz.ac.vuw.ecs.swen225.gp22.domain" as nz.ac.vuw.ecs.swen225.gp22.domain.Maze.Point [[Maze.Point.html]]

    nz.ac.vuw.ecs.swen225.gp22.domain.Maze +- - nz.ac.vuw.ecs.swen225.gp22.domain.Maze.Point

    center footer UMLDoclet 2.0.19, PlantUML 1.2022.8
@enduml

PlantUML version 1.2022.8(Sun Sep 25 22:00:33 NZDT 2022)
(APACHE source distribution)
Java Runtime: Java(TM) SE Runtime Environment
JVM: Java HotSpot(TM) 64-Bit Server VM
Default Encoding: Cp1252
Language: en
Country: NZ
--></g></svg>