<?xml version="1.0" encoding="UTF-8" standalone="no"?><svg xmlns="http://www.w3.org/2000/svg" xmlns:xlink="http://www.w3.org/1999/xlink" contentStyleType="text/css" height="357px" preserveAspectRatio="none" style="width:335px;height:357px;background:#FFFFFF;" version="1.1" viewBox="0 0 335 357" width="335px" zoomAndPan="magnify"><defs/><g><!--MD5=[b955458c06e1959c80a58f6434dacc24]
class nz.ac.vuw.ecs.swen225.gp22.domain.Maze.Point--><a href="Maze.Point.html" target="_top" title="Maze.Point.html" xlink:actuate="onRequest" xlink:href="Maze.Point.html" xlink:show="new" xlink:title="Maze.Point.html" xlink:type="simple"><g id="elem_nz.ac.vuw.ecs.swen225.gp22.domain.Maze.Point"><rect codeLine="5" fill="#F1F1F1" height="224.2813" id="nz.ac.vuw.ecs.swen225.gp22.domain.Maze.Point" rx="2.5" ry="2.5" style="stroke:#181818;stroke-width:0.5;" width="208" x="31" y="107"/><ellipse cx="46" cy="127.0938" fill="#ADD1B2" rx="11" ry="11" style="stroke:#181818;stroke-width:1.0;"/><path d="M48.7656,122.9688 Q48.9219,122.75 49.1094,122.6406 Q49.2969,122.5313 49.5156,122.5313 Q49.8906,122.5313 50.125,122.7969 Q50.3594,123.0469 50.3594,123.6563 L50.3594,125.1094 Q50.3594,125.7188 50.125,125.9844 Q49.8906,126.25 49.5156,126.25 Q49.1719,126.25 48.9688,126.0469 Q48.7656,125.8594 48.6563,125.3438 Q48.6094,124.9844 48.4219,124.7969 Q48.0938,124.4219 47.4844,124.2031 Q46.875,123.9844 46.25,123.9844 Q45.4844,123.9844 44.8438,124.3125 Q44.2188,124.6406 43.7188,125.3906 Q43.2344,126.1406 43.2344,127.1719 L43.2344,128.2656 Q43.2344,129.5 44.125,130.3281 Q45.0156,131.1406 46.6094,131.1406 Q47.5469,131.1406 48.2031,130.8906 Q48.5938,130.7344 49.0156,130.2969 Q49.2813,130.0313 49.4219,129.9531 Q49.5781,129.875 49.7813,129.875 Q50.1094,129.875 50.3594,130.1406 Q50.625,130.3906 50.625,130.7344 Q50.625,131.0781 50.2813,131.4844 Q49.7813,132.0625 48.9844,132.3906 Q47.9063,132.8438 46.6094,132.8438 Q45.0938,132.8438 43.8906,132.2188 Q42.9063,131.7188 42.2188,130.6563 Q41.5313,129.5781 41.5313,128.2969 L41.5313,127.1406 Q41.5313,125.8125 42.1406,124.6719 Q42.7656,123.5156 43.8594,122.9063 Q44.9531,122.2813 46.1875,122.2813 Q46.9219,122.2813 47.5625,122.4531 Q48.2188,122.6094 48.7656,122.9688 Z " fill="#000000"/><text fill="#000000" font-family="sans-serif" font-size="14" lengthAdjust="spacing" textLength="69" x="113.5" y="126.5332">Maze.Point</text><text fill="#000000" font-family="sans-serif" font-size="10" lengthAdjust="spacing" textLength="176" x="60" y="139.9902">nz.ac.vuw.ecs.swen225.gp22.domain</text><line style="stroke:#181818;stroke-width:0.5;" x1="32" x2="238" y1="147.1875" y2="147.1875"/><ellipse cx="42" cy="161.4922" fill="#84BE84" rx="3" ry="3" style="stroke:#038048;stroke-width:1.0;"/><text fill="#000000" font-family="sans-serif" font-size="14" lengthAdjust="spacing" textLength="80" x="51" y="165.7207">Point(int, int)</text><ellipse cx="42" cy="179.1016" fill="#84BE84" rx="3" ry="3" style="stroke:#038048;stroke-width:1.0;"/><text fill="#000000" font-family="sans-serif" font-size="14" lengthAdjust="spacing" textLength="106" x="51" y="183.3301">add(Point): Point</text><ellipse cx="42" cy="196.7109" fill="#84BE84" rx="3" ry="3" style="stroke:#038048;stroke-width:1.0;"/><text fill="#000000" font-family="sans-serif" font-size="14" lengthAdjust="spacing" textLength="130" x="51" y="200.9395">add(Direction): Point</text><ellipse cx="42" cy="214.3203" fill="#84BE84" rx="3" ry="3" style="stroke:#038048;stroke-width:1.0;"/><text fill="#000000" font-family="sans-serif" font-size="14" lengthAdjust="spacing" textLength="112" x="51" y="218.5488">add(int, int): Point</text><ellipse cx="42" cy="231.9297" fill="#84BE84" rx="3" ry="3" style="stroke:#038048;stroke-width:1.0;"/><text fill="#000000" font-family="sans-serif" font-size="14" lengthAdjust="spacing" textLength="133" x="51" y="236.1582">subtract(Point): Point</text><ellipse cx="42" cy="249.5391" fill="#84BE84" rx="3" ry="3" style="stroke:#038048;stroke-width:1.0;"/><text fill="#000000" font-family="sans-serif" font-size="14" lengthAdjust="spacing" textLength="157" x="51" y="253.7676">subtract(Direction): Point</text><ellipse cx="42" cy="267.1484" fill="#84BE84" rx="3" ry="3" style="stroke:#038048;stroke-width:1.0;"/><text fill="#000000" font-family="sans-serif" font-size="14" lengthAdjust="spacing" textLength="139" x="51" y="271.377">subtract(int, int): Point</text><ellipse cx="42" cy="284.7578" fill="#84BE84" rx="3" ry="3" style="stroke:#038048;stroke-width:1.0;"/><text fill="#000000" font-family="sans-serif" font-size="14" lengthAdjust="spacing" textLength="110" x="51" y="288.9863">isValid(): boolean</text><ellipse cx="42" cy="302.3672" fill="#84BE84" rx="3" ry="3" style="stroke:#038048;stroke-width:1.0;"/><text fill="#000000" font-family="sans-serif" font-size="14" lengthAdjust="spacing" textLength="39" x="51" y="306.5957">x(): int</text><ellipse cx="42" cy="319.9766" fill="#84BE84" rx="3" ry="3" style="stroke:#038048;stroke-width:1.0;"/><text fill="#000000" font-family="sans-serif" font-size="14" lengthAdjust="spacing" textLength="40" x="51" y="324.2051">y(): int</text></g></a><!--MD5=[aeced6b90a5f9cea7e9b0d4e8b5a9b7c]
class java.lang.Record--><g id="elem_java.lang.Record"><rect codeLine="18" fill="#F1F1F1" height="40.1875" id="java.lang.Record" rx="2.5" ry="2.5" style="stroke:#181818;stroke-width:0.5;" width="78" x="7" y="7"/><ellipse cx="22" cy="27.0938" fill="#A9DCDF" rx="11" ry="11" style="stroke:#181818;stroke-width:1.0;"/><path d="M24.1875,28.8594 L20.0469,28.8594 L19.625,29.8906 L20.0469,29.8906 Q20.6563,29.8906 20.9219,30.125 Q21.1875,30.3594 21.1875,30.75 Q21.1875,31.125 20.9219,31.3594 Q20.6563,31.5938 20.0469,31.5938 L17.75,31.5938 Q17.1406,31.5938 16.8906,31.3594 Q16.625,31.125 16.625,30.7344 Q16.625,30.3594 16.9063,30.125 Q17.1719,29.875 17.7969,29.8906 L20.4688,23.2344 L19.3594,23.2344 Q18.75,23.2344 18.4844,23 Q18.2188,22.7656 18.2188,22.375 Q18.2188,22 18.4844,21.7656 Q18.75,21.5313 19.3594,21.5313 L23.0313,21.5313 L26.4219,29.8906 Q27.0156,29.8906 27.2031,30.0313 Q27.5938,30.2969 27.5938,30.75 Q27.5938,31.125 27.3281,31.3594 Q27.0781,31.5938 26.4688,31.5938 L24.1719,31.5938 Q23.5625,31.5938 23.2969,31.3594 Q23.0313,31.125 23.0313,30.7344 Q23.0313,30.3594 23.2969,30.125 Q23.5625,29.8906 24.1719,29.8906 L24.5938,29.8906 L24.1875,28.8594 Z M23.4688,27.1563 L22.1094,23.7813 L20.7344,27.1563 L23.4688,27.1563 Z " fill="#000000"/><text fill="#000000" font-family="sans-serif" font-size="14" font-style="italic" lengthAdjust="spacing" textLength="46" x="36" y="26.5332">Record</text><text fill="#000000" font-family="sans-serif" font-size="10" font-style="italic" lengthAdjust="spacing" textLength="43" x="37.5" y="39.9902">java.lang</text></g><!--MD5=[02e57345d016cacb810ea02e8ecd6a98]
class nz.ac.vuw.ecs.swen225.gp22.domain.Maze--><a href="Maze.html" target="_top" title="Maze.html" xlink:actuate="onRequest" xlink:href="Maze.html" xlink:show="new" xlink:title="Maze.html" xlink:type="simple"><g id="elem_nz.ac.vuw.ecs.swen225.gp22.domain.Maze"><rect codeLine="19" fill="#F1F1F1" height="40.1875" id="nz.ac.vuw.ecs.swen225.gp22.domain.Maze" rx="2.5" ry="2.5" style="stroke:#181818;stroke-width:0.5;" width="208" x="120" y="7"/><ellipse cx="135" cy="27.0938" fill="#ADD1B2" rx="11" ry="11" style="stroke:#181818;stroke-width:1.0;"/><path d="M137.7656,22.9688 Q137.9219,22.75 138.1094,22.6406 Q138.2969,22.5313 138.5156,22.5313 Q138.8906,22.5313 139.125,22.7969 Q139.3594,23.0469 139.3594,23.6563 L139.3594,25.1094 Q139.3594,25.7188 139.125,25.9844 Q138.8906,26.25 138.5156,26.25 Q138.1719,26.25 137.9688,26.0469 Q137.7656,25.8594 137.6563,25.3438 Q137.6094,24.9844 137.4219,24.7969 Q137.0938,24.4219 136.4844,24.2031 Q135.875,23.9844 135.25,23.9844 Q134.4844,23.9844 133.8438,24.3125 Q133.2188,24.6406 132.7188,25.3906 Q132.2344,26.1406 132.2344,27.1719 L132.2344,28.2656 Q132.2344,29.5 133.125,30.3281 Q134.0156,31.1406 135.6094,31.1406 Q136.5469,31.1406 137.2031,30.8906 Q137.5938,30.7344 138.0156,30.2969 Q138.2813,30.0313 138.4219,29.9531 Q138.5781,29.875 138.7813,29.875 Q139.1094,29.875 139.3594,30.1406 Q139.625,30.3906 139.625,30.7344 Q139.625,31.0781 139.2813,31.4844 Q138.7813,32.0625 137.9844,32.3906 Q136.9063,32.8438 135.6094,32.8438 Q134.0938,32.8438 132.8906,32.2188 Q131.9063,31.7188 131.2188,30.6563 Q130.5313,29.5781 130.5313,28.2969 L130.5313,27.1406 Q130.5313,25.8125 131.1406,24.6719 Q131.7656,23.5156 132.8594,22.9063 Q133.9531,22.2813 135.1875,22.2813 Q135.9219,22.2813 136.5625,22.4531 Q137.2188,22.6094 137.7656,22.9688 Z " fill="#000000"/><text fill="#000000" font-family="sans-serif" font-size="14" lengthAdjust="spacing" textLength="33" x="220.5" y="26.5332">Maze</text><text fill="#000000" font-family="sans-serif" font-size="10" lengthAdjust="spacing" textLength="176" x="149" y="39.9902">nz.ac.vuw.ecs.swen225.gp22.domain</text></g></a><!--MD5=[1ad491a68dfac0fc85cd28ccc6bc7d8b]
reverse link java.lang.Record to nz.ac.vuw.ecs.swen225.gp22.domain.Maze.Point--><g id="link_java.lang.Record_nz.ac.vuw.ecs.swen225.gp22.domain.Maze.Point"><path codeLine="21" d="M63.65,65.67 C69.37,77.9 76.05,92.15 82.98,106.94 " fill="none" id="java.lang.Record-backto-nz.ac.vuw.ecs.swen225.gp22.domain.Maze.Point" style="stroke:#181818;stroke-width:1.0;"/><polygon fill="none" points="57.17,68.34,55.02,47.26,69.85,62.41,57.17,68.34" style="stroke:#181818;stroke-width:1.0;"/></g><!--MD5=[30d3803f60f7d70def09ab00ab758169]
reverse link nz.ac.vuw.ecs.swen225.gp22.domain.Maze to nz.ac.vuw.ecs.swen225.gp22.domain.Maze.Point--><g id="link_nz.ac.vuw.ecs.swen225.gp22.domain.Maze_nz.ac.vuw.ecs.swen225.gp22.domain.Maze.Point"><path codeLine="22" d="M208.61,60.86 C202.41,74.09 194.88,90.17 187.02,106.94 " fill="none" id="nz.ac.vuw.ecs.swen225.gp22.domain.Maze-backto-nz.ac.vuw.ecs.swen225.gp22.domain.Maze.Point" style="stroke:#181818;stroke-width:1.0;"/><ellipse cx="211.5894" cy="54.506" fill="#FFFFFF" rx="8" ry="8" style="stroke:#181818;stroke-width:1.0;"/><line style="stroke:#181818;stroke-width:1.0;" x1="208.1988" x2="214.98" y1="61.7519" y2="47.26"/><line style="stroke:#181818;stroke-width:1.0;" x1="204.3435" x2="218.8354" y1="51.1154" y2="57.8965"/></g><rect fill="none" height="12.5781" style="stroke:none;stroke-width:1.0;" width="184" x="68.5" y="337.2813"/><text fill="#888888" font-family="sans-serif" font-size="10" lengthAdjust="spacing" textLength="184" x="68.5" y="347.6621">UMLDoclet 2.0.19, PlantUML 1.2022.8</text><!--MD5=[c92c2c0d570e347ba537360bff9f0791]
@startuml
    set namespaceSeparator none
    hide empty fields
    hide empty methods

    class "<size:14>Maze.Point\n<size:10>nz.ac.vuw.ecs.swen225.gp22.domain" as nz.ac.vuw.ecs.swen225.gp22.domain.Maze.Point [[Maze.Point.html]] {
        +Point(int, int)
        +add(Point): Point
        +add(Direction): Point
        +add(int, int): Point
        +subtract(Point): Point
        +subtract(Direction): Point
        +subtract(int, int): Point
        +isValid(): boolean
        +x(): int
        +y(): int
    }

    abstract class "<size:14>Record\n<size:10>java.lang" as java.lang.Record
    class "<size:14>Maze\n<size:10>nz.ac.vuw.ecs.swen225.gp22.domain" as nz.ac.vuw.ecs.swen225.gp22.domain.Maze [[Maze.html]]

    java.lang.Record <|- - nz.ac.vuw.ecs.swen225.gp22.domain.Maze.Point
    nz.ac.vuw.ecs.swen225.gp22.domain.Maze +- - nz.ac.vuw.ecs.swen225.gp22.domain.Maze.Point

    center footer UMLDoclet 2.0.19, PlantUML 1.2022.8
@enduml

PlantUML version 1.2022.8(Sun Sep 25 22:00:33 NZDT 2022)
(APACHE source distribution)
Java Runtime: Java(TM) SE Runtime Environment
JVM: Java HotSpot(TM) 64-Bit Server VM
Default Encoding: Cp1252
Language: en
Country: NZ
--></g></svg>