<?xml version="1.0" encoding="UTF-8" standalone="no"?><svg xmlns="http://www.w3.org/2000/svg" xmlns:xlink="http://www.w3.org/1999/xlink" contentStyleType="text/css" height="100px" preserveAspectRatio="none" style="width:426px;height:100px;background:#FFFFFF;" version="1.1" viewBox="0 0 426 100" width="426px" zoomAndPan="magnify"><defs/><g><!--MD5=[25838a10e99d1328ab81f2f4013dfa90]
class nz.ac.vuw.ecs.swen225.gp22.domain.Observer--><a href="Observer.html" target="_top" title="Observer.html" xlink:actuate="onRequest" xlink:href="Observer.html" xlink:show="new" xlink:title="Observer.html" xlink:type="simple"><g id="elem_nz.ac.vuw.ecs.swen225.gp22.domain.Observer"><rect codeLine="5" fill="#F1F1F1" height="65.7969" id="nz.ac.vuw.ecs.swen225.gp22.domain.Observer" rx="2.5" ry="2.5" style="stroke:#181818;stroke-width:0.5;" width="405" x="7" y="7"/><ellipse cx="44.05" cy="27.0938" fill="#B4A7E5" rx="11" ry="11" style="stroke:#181818;stroke-width:1.0;"/><path d="M45.0031,23.7344 L45.0031,30.3906 L46.7219,30.3906 Q47.3313,30.3906 47.5969,30.625 Q47.8625,30.8594 47.8625,31.25 Q47.8625,31.625 47.5969,31.8594 Q47.3313,32.0938 46.7219,32.0938 L41.5813,32.0938 Q40.9719,32.0938 40.7063,31.8594 Q40.4406,31.625 40.4406,31.2344 Q40.4406,30.8594 40.7063,30.625 Q40.9719,30.3906 41.5813,30.3906 L43.3,30.3906 L43.3,23.7344 L41.5813,23.7344 Q40.9719,23.7344 40.7063,23.5 Q40.4406,23.2656 40.4406,22.875 Q40.4406,22.5 40.7063,22.2656 Q40.9719,22.0313 41.5813,22.0313 L46.7219,22.0313 Q47.3313,22.0313 47.5969,22.2656 Q47.8625,22.5 47.8625,22.875 Q47.8625,23.2656 47.5969,23.5 Q47.3313,23.7344 46.7219,23.7344 L45.0031,23.7344 Z " fill="#000000"/><text fill="#000000" font-family="sans-serif" font-size="14" font-style="italic" lengthAdjust="spacing" textLength="58" x="121.95" y="26.5332">Observer</text><text fill="#000000" font-family="sans-serif" font-size="10" font-style="italic" lengthAdjust="spacing" textLength="176" x="62.95" y="39.9902">nz.ac.vuw.ecs.swen225.gp22.domain</text><rect fill="#FFFFFF" height="17.0938" style="stroke:#181818;stroke-width:1.0;stroke-dasharray:2.0,2.0;" width="146" x="269" y="4"/><text fill="#000000" font-family="sans-serif" font-size="12" font-style="italic" lengthAdjust="spacing" textLength="144" x="270" y="17.457">S extends Observable&lt;S&gt;</text><line style="stroke:#181818;stroke-width:0.5;" x1="8" x2="411" y1="47.1875" y2="47.1875"/><ellipse cx="18" cy="61.4922" fill="#84BE84" rx="3" ry="3" style="stroke:#038048;stroke-width:1.0;"/><text fill="#000000" font-family="sans-serif" font-size="14" font-style="italic" lengthAdjust="spacing" textLength="333" x="27" y="65.7207">update(S extends Observable&lt;S extends Observable</text><text fill="#000000" font-family="sans-serif" font-size="14" font-style="italic" lengthAdjust="spacing" text-decoration="line-through" textLength="46" x="360" y="65.7207">&gt;): void</text></g></a><rect fill="none" height="12.5781" style="stroke:none;stroke-width:1.0;" width="184" x="117" y="79.7969"/><text fill="#888888" font-family="sans-serif" font-size="10" lengthAdjust="spacing" textLength="184" x="117" y="90.1777">UMLDoclet 2.0.19, PlantUML 1.2022.8</text><!--MD5=[9e8b60132a4150458ebec9e697873c4a]
@startuml
    set namespaceSeparator none
    hide empty fields
    hide empty methods

    interface "<size:14>Observer\n<size:10>nz.ac.vuw.ecs.swen225.gp22.domain" as nz.ac.vuw.ecs.swen225.gp22.domain.Observer<S extends Observable<S>> [[Observer.html]] {
        {abstract} +update(S extends Observable<S extends Observable<S>>): void
    }

    center footer UMLDoclet 2.0.19, PlantUML 1.2022.8
@enduml

PlantUML version 1.2022.8(Sun Sep 25 22:00:33 NZDT 2022)
(APACHE source distribution)
Java Runtime: Java(TM) SE Runtime Environment
JVM: Java HotSpot(TM) 64-Bit Server VM
Default Encoding: Cp1252
Language: en
Country: NZ
--></g></svg>