<?xml version="1.0" encoding="UTF-8" standalone="no"?><svg xmlns="http://www.w3.org/2000/svg" xmlns:xlink="http://www.w3.org/1999/xlink" contentStyleType="text/css" height="135px" preserveAspectRatio="none" style="width:411px;height:135px;background:#FFFFFF;" version="1.1" viewBox="0 0 411 135" width="411px" zoomAndPan="magnify"><defs/><g><!--MD5=[d7ed978ab8e35c0d5f67cabd5136a37f]
class nz.ac.vuw.ecs.swen225.gp22.domain.Observable--><a href="Observable.html" target="_top" title="Observable.html" xlink:actuate="onRequest" xlink:href="Observable.html" xlink:show="new" xlink:title="Observable.html" xlink:type="simple"><g id="elem_nz.ac.vuw.ecs.swen225.gp22.domain.Observable"><rect codeLine="5" fill="#F1F1F1" height="101.0156" id="nz.ac.vuw.ecs.swen225.gp22.domain.Observable" rx="2.5" ry="2.5" style="stroke:#181818;stroke-width:0.5;" width="390" x="7" y="7"/><ellipse cx="37.3" cy="27.0938" fill="#A9DCDF" rx="11" ry="11" style="stroke:#181818;stroke-width:1.0;"/><path d="M39.4875,28.8594 L35.3469,28.8594 L34.925,29.8906 L35.3469,29.8906 Q35.9563,29.8906 36.2219,30.125 Q36.4875,30.3594 36.4875,30.75 Q36.4875,31.125 36.2219,31.3594 Q35.9563,31.5938 35.3469,31.5938 L33.05,31.5938 Q32.4406,31.5938 32.1906,31.3594 Q31.925,31.125 31.925,30.7344 Q31.925,30.3594 32.2063,30.125 Q32.4719,29.875 33.0969,29.8906 L35.7688,23.2344 L34.6594,23.2344 Q34.05,23.2344 33.7844,23 Q33.5188,22.7656 33.5188,22.375 Q33.5188,22 33.7844,21.7656 Q34.05,21.5313 34.6594,21.5313 L38.3313,21.5313 L41.7219,29.8906 Q42.3156,29.8906 42.5031,30.0313 Q42.8938,30.2969 42.8938,30.75 Q42.8938,31.125 42.6281,31.3594 Q42.3781,31.5938 41.7688,31.5938 L39.4719,31.5938 Q38.8625,31.5938 38.5969,31.3594 Q38.3313,31.125 38.3313,30.7344 Q38.3313,30.3594 38.5969,30.125 Q38.8625,29.8906 39.4719,29.8906 L39.8938,29.8906 L39.4875,28.8594 Z M38.7688,27.1563 L37.4094,23.7813 L36.0344,27.1563 L38.7688,27.1563 Z " fill="#000000"/><text fill="#000000" font-family="sans-serif" font-size="14" font-style="italic" lengthAdjust="spacing" textLength="72" x="106.7" y="26.5332">Observable</text><text fill="#000000" font-family="sans-serif" font-size="10" font-style="italic" lengthAdjust="spacing" textLength="176" x="54.7" y="39.9902">nz.ac.vuw.ecs.swen225.gp22.domain</text><rect fill="#FFFFFF" height="17.0938" style="stroke:#181818;stroke-width:1.0;stroke-dasharray:2.0,2.0;" width="146" x="254" y="4"/><text fill="#000000" font-family="sans-serif" font-size="12" font-style="italic" lengthAdjust="spacing" textLength="144" x="255" y="17.457">S extends Observable&lt;S&gt;</text><line style="stroke:#181818;stroke-width:0.5;" x1="8" x2="396" y1="47.1875" y2="47.1875"/><ellipse cx="18" cy="61.4922" fill="#84BE84" rx="3" ry="3" style="stroke:#038048;stroke-width:1.0;"/><text fill="#000000" font-family="sans-serif" font-size="14" lengthAdjust="spacing" textLength="294" x="27" y="65.7207">addObserver(Observer&lt;S extends Observable</text><text fill="#000000" font-family="sans-serif" font-size="14" lengthAdjust="spacing" text-decoration="line-through" textLength="47" x="321" y="65.7207">&gt;): void</text><ellipse cx="18" cy="79.1016" fill="#84BE84" rx="3" ry="3" style="stroke:#038048;stroke-width:1.0;"/><text fill="#000000" font-family="sans-serif" font-size="14" lengthAdjust="spacing" textLength="317" x="27" y="83.3301">removeObserver(Observer&lt;S extends Observable</text><text fill="#000000" font-family="sans-serif" font-size="14" lengthAdjust="spacing" text-decoration="line-through" textLength="47" x="344" y="83.3301">&gt;): void</text><ellipse cx="18" cy="96.7109" fill="#84BE84" rx="3" ry="3" style="stroke:#038048;stroke-width:1.0;"/><text fill="#000000" font-family="sans-serif" font-size="14" lengthAdjust="spacing" textLength="154" x="27" y="100.9395">updateObservers(): void</text></g></a><rect fill="none" height="12.5781" style="stroke:none;stroke-width:1.0;" width="184" x="109.5" y="115.0156"/><text fill="#888888" font-family="sans-serif" font-size="10" lengthAdjust="spacing" textLength="184" x="109.5" y="125.3965">UMLDoclet 2.0.19, PlantUML 1.2022.8</text><!--MD5=[9ab536e898a87e0d6a03a52aa45b2331]
@startuml
    set namespaceSeparator none
    hide empty fields
    hide empty methods

    abstract class "<size:14>Observable\n<size:10>nz.ac.vuw.ecs.swen225.gp22.domain" as nz.ac.vuw.ecs.swen225.gp22.domain.Observable<S extends Observable<S>> [[Observable.html]] {
        +addObserver(Observer<S extends Observable<S>>): void
        +removeObserver(Observer<S extends Observable<S>>): void
        +updateObservers(): void
    }

    center footer UMLDoclet 2.0.19, PlantUML 1.2022.8
@enduml

PlantUML version 1.2022.8(Sun Sep 25 22:00:33 NZDT 2022)
(APACHE source distribution)
Java Runtime: Java(TM) SE Runtime Environment
JVM: Java HotSpot(TM) 64-Bit Server VM
Default Encoding: Cp1252
Language: en
Country: NZ
--></g></svg>