<?xml version="1.0" encoding="UTF-8" standalone="no"?><svg xmlns="http://www.w3.org/2000/svg" xmlns:xlink="http://www.w3.org/1999/xlink" contentStyleType="text/css" height="403px" preserveAspectRatio="none" style="width:265px;height:403px;background:#FFFFFF;" version="1.1" viewBox="0 0 265 403" width="265px" zoomAndPan="magnify"><defs/><g><!--MD5=[e90505139f0e9dba86bb59038f897b52]
class nz.ac.vuw.ecs.swen225.gp22.domain.Player--><a href="Player.html" target="_top" title="Player.html" xlink:actuate="onRequest" xlink:href="Player.html" xlink:show="new" xlink:title="Player.html" xlink:type="simple"><g id="elem_nz.ac.vuw.ecs.swen225.gp22.domain.Player"><rect codeLine="5" fill="#F1F1F1" height="224.2813" id="nz.ac.vuw.ecs.swen225.gp22.domain.Player" rx="2.5" ry="2.5" style="stroke:#181818;stroke-width:0.5;" width="215" x="23" y="153"/><ellipse cx="41.15" cy="173.0938" fill="#ADD1B2" rx="11" ry="11" style="stroke:#181818;stroke-width:1.0;"/><path d="M43.9156,168.9688 Q44.0719,168.75 44.2594,168.6406 Q44.4469,168.5313 44.6656,168.5313 Q45.0406,168.5313 45.275,168.7969 Q45.5094,169.0469 45.5094,169.6563 L45.5094,171.1094 Q45.5094,171.7188 45.275,171.9844 Q45.0406,172.25 44.6656,172.25 Q44.3219,172.25 44.1188,172.0469 Q43.9156,171.8594 43.8063,171.3438 Q43.7594,170.9844 43.5719,170.7969 Q43.2438,170.4219 42.6344,170.2031 Q42.025,169.9844 41.4,169.9844 Q40.6344,169.9844 39.9938,170.3125 Q39.3688,170.6406 38.8688,171.3906 Q38.3844,172.1406 38.3844,173.1719 L38.3844,174.2656 Q38.3844,175.5 39.275,176.3281 Q40.1656,177.1406 41.7594,177.1406 Q42.6969,177.1406 43.3531,176.8906 Q43.7438,176.7344 44.1656,176.2969 Q44.4313,176.0313 44.5719,175.9531 Q44.7281,175.875 44.9313,175.875 Q45.2594,175.875 45.5094,176.1406 Q45.775,176.3906 45.775,176.7344 Q45.775,177.0781 45.4313,177.4844 Q44.9313,178.0625 44.1344,178.3906 Q43.0563,178.8438 41.7594,178.8438 Q40.2438,178.8438 39.0406,178.2188 Q38.0563,177.7188 37.3688,176.6563 Q36.6813,175.5781 36.6813,174.2969 L36.6813,173.1406 Q36.6813,171.8125 37.2906,170.6719 Q37.9156,169.5156 39.0094,168.9063 Q40.1031,168.2813 41.3375,168.2813 Q42.0719,168.2813 42.7125,168.4531 Q43.3688,168.6094 43.9156,168.9688 Z " fill="#000000"/><text fill="#000000" font-family="sans-serif" font-size="14" lengthAdjust="spacing" textLength="40" x="123.85" y="172.5332">Player</text><text fill="#000000" font-family="sans-serif" font-size="10" lengthAdjust="spacing" textLength="176" x="55.85" y="185.9902">nz.ac.vuw.ecs.swen225.gp22.domain</text><line style="stroke:#181818;stroke-width:0.5;" x1="24" x2="237" y1="193.1875" y2="193.1875"/><ellipse cx="34" cy="207.4922" fill="#84BE84" rx="3" ry="3" style="stroke:#038048;stroke-width:1.0;"/><text fill="#000000" font-family="sans-serif" font-size="14" lengthAdjust="spacing" textLength="146" x="43" y="211.7207">Player(Point, Direction)</text><ellipse cx="34" cy="225.1016" fill="#84BE84" rx="3" ry="3" style="stroke:#038048;stroke-width:1.0;"/><text fill="#000000" font-family="sans-serif" font-size="14" lengthAdjust="spacing" textLength="71" x="43" y="229.3301">ping(): void</text><ellipse cx="34" cy="242.7109" fill="#84BE84" rx="3" ry="3" style="stroke:#038048;stroke-width:1.0;"/><text fill="#000000" font-family="sans-serif" font-size="14" lengthAdjust="spacing" textLength="87" x="43" y="246.9395">unping(): void</text><ellipse cx="34" cy="260.3203" fill="#84BE84" rx="3" ry="3" style="stroke:#038048;stroke-width:1.0;"/><text fill="#000000" font-family="sans-serif" font-size="14" lengthAdjust="spacing" textLength="189" x="43" y="264.5488">moveAndTurn(Direction): void</text><ellipse cx="34" cy="277.9297" fill="#84BE84" rx="3" ry="3" style="stroke:#038048;stroke-width:1.0;"/><text fill="#000000" font-family="sans-serif" font-size="14" lengthAdjust="spacing" textLength="109" x="43" y="282.1582">resetItems(): void</text><ellipse cx="34" cy="295.5391" fill="#84BE84" rx="3" ry="3" style="stroke:#038048;stroke-width:1.0;"/><text fill="#000000" font-family="sans-serif" font-size="14" lengthAdjust="spacing" textLength="126" x="43" y="299.7676">addKey(Color): void</text><ellipse cx="34" cy="313.1484" fill="#84BE84" rx="3" ry="3" style="stroke:#038048;stroke-width:1.0;"/><text fill="#000000" font-family="sans-serif" font-size="14" lengthAdjust="spacing" textLength="159" x="43" y="317.377">consumeKey(Color): void</text><ellipse cx="34" cy="330.7578" fill="#84BE84" rx="3" ry="3" style="stroke:#038048;stroke-width:1.0;"/><text fill="#000000" font-family="sans-serif" font-size="14" lengthAdjust="spacing" textLength="150" x="43" y="334.9863">hasKey(Color): boolean</text><ellipse cx="34" cy="348.3672" fill="#84BE84" rx="3" ry="3" style="stroke:#038048;stroke-width:1.0;"/><text fill="#000000" font-family="sans-serif" font-size="14" lengthAdjust="spacing" textLength="93" x="43" y="352.5957">keyCount(): int</text><ellipse cx="34" cy="365.9766" fill="#84BE84" rx="3" ry="3" style="stroke:#038048;stroke-width:1.0;"/><text fill="#000000" font-family="sans-serif" font-size="14" lengthAdjust="spacing" textLength="156" x="43" y="370.2051">getAllKeys(): List&lt;Color&gt;</text></g></a><!--MD5=[c1afd2d57aec8c90a42dc3be3bff6847]
class nz.ac.vuw.ecs.swen225.gp22.domain.Entity--><a href="Entity.html" target="_top" title="Entity.html" xlink:actuate="onRequest" xlink:href="Entity.html" xlink:show="new" xlink:title="Entity.html" xlink:type="simple"><g id="elem_nz.ac.vuw.ecs.swen225.gp22.domain.Entity"><rect codeLine="18" fill="#F1F1F1" height="83.4063" id="nz.ac.vuw.ecs.swen225.gp22.domain.Entity" rx="2.5" ry="2.5" style="stroke:#181818;stroke-width:0.5;" width="247" x="7" y="10"/><ellipse cx="22" cy="30.0938" fill="#A9DCDF" rx="11" ry="11" style="stroke:#181818;stroke-width:1.0;"/><path d="M24.1875,31.8594 L20.0469,31.8594 L19.625,32.8906 L20.0469,32.8906 Q20.6563,32.8906 20.9219,33.125 Q21.1875,33.3594 21.1875,33.75 Q21.1875,34.125 20.9219,34.3594 Q20.6563,34.5938 20.0469,34.5938 L17.75,34.5938 Q17.1406,34.5938 16.8906,34.3594 Q16.625,34.125 16.625,33.7344 Q16.625,33.3594 16.9063,33.125 Q17.1719,32.875 17.7969,32.8906 L20.4688,26.2344 L19.3594,26.2344 Q18.75,26.2344 18.4844,26 Q18.2188,25.7656 18.2188,25.375 Q18.2188,25 18.4844,24.7656 Q18.75,24.5313 19.3594,24.5313 L23.0313,24.5313 L26.4219,32.8906 Q27.0156,32.8906 27.2031,33.0313 Q27.5938,33.2969 27.5938,33.75 Q27.5938,34.125 27.3281,34.3594 Q27.0781,34.5938 26.4688,34.5938 L24.1719,34.5938 Q23.5625,34.5938 23.2969,34.3594 Q23.0313,34.125 23.0313,33.7344 Q23.0313,33.3594 23.2969,33.125 Q23.5625,32.8906 24.1719,32.8906 L24.5938,32.8906 L24.1875,31.8594 Z M23.4688,30.1563 L22.1094,26.7813 L20.7344,30.1563 L23.4688,30.1563 Z " fill="#000000"/><text fill="#000000" font-family="sans-serif" font-size="14" font-style="italic" lengthAdjust="spacing" textLength="35" x="106.5" y="29.5332">Entity</text><text fill="#000000" font-family="sans-serif" font-size="10" font-style="italic" lengthAdjust="spacing" textLength="176" x="36" y="42.9902">nz.ac.vuw.ecs.swen225.gp22.domain</text><rect fill="#FFFFFF" height="17.0938" style="stroke:#181818;stroke-width:1.0;stroke-dasharray:2.0,2.0;" width="37" x="220" y="7"/><text fill="#000000" font-family="sans-serif" font-size="12" font-style="italic" lengthAdjust="spacing" textLength="35" x="221" y="20.457">Player</text><line style="stroke:#181818;stroke-width:0.5;" x1="8" x2="253" y1="50.1875" y2="50.1875"/><ellipse cx="18" cy="64.4922" fill="#84BE84" rx="3" ry="3" style="stroke:#038048;stroke-width:1.0;"/><text fill="#000000" font-family="sans-serif" font-size="14" font-style="italic" lengthAdjust="spacing" textLength="70" x="27" y="68.7207">ping(): void</text><ellipse cx="18" cy="82.1016" fill="#84BE84" rx="3" ry="3" style="stroke:#038048;stroke-width:1.0;"/><text fill="#000000" font-family="sans-serif" font-size="14" font-style="italic" lengthAdjust="spacing" textLength="86" x="27" y="86.3301">unping(): void</text></g></a><!--MD5=[3d88647933d88f2ce726f87b1ab13b47]
reverse link nz.ac.vuw.ecs.swen225.gp22.domain.Entity to nz.ac.vuw.ecs.swen225.gp22.domain.Player--><g id="link_nz.ac.vuw.ecs.swen225.gp22.domain.Entity_nz.ac.vuw.ecs.swen225.gp22.domain.Player"><path codeLine="23" d="M130.5,113.68 C130.5,126.07 130.5,139.47 130.5,152.99 " fill="none" id="nz.ac.vuw.ecs.swen225.gp22.domain.Entity-backto-nz.ac.vuw.ecs.swen225.gp22.domain.Player" style="stroke:#181818;stroke-width:1.0;"/><polygon fill="none" points="123.5,113.28,130.5,93.28,137.5,113.28,123.5,113.28" style="stroke:#181818;stroke-width:1.0;"/></g><rect fill="none" height="12.5781" style="stroke:none;stroke-width:1.0;" width="184" x="33.5" y="383.2813"/><text fill="#888888" font-family="sans-serif" font-size="10" lengthAdjust="spacing" textLength="184" x="33.5" y="393.6621">UMLDoclet 2.0.19, PlantUML 1.2022.8</text><!--MD5=[d329c676d792443aa929570e7be4ce19]
@startuml
    set namespaceSeparator none
    hide empty fields
    hide empty methods

    class "<size:14>Player\n<size:10>nz.ac.vuw.ecs.swen225.gp22.domain" as nz.ac.vuw.ecs.swen225.gp22.domain.Player [[Player.html]] {
        +Player(Point, Direction)
        +ping(): void
        +unping(): void
        +moveAndTurn(Direction): void
        +resetItems(): void
        +addKey(Color): void
        +consumeKey(Color): void
        +hasKey(Color): boolean
        +keyCount(): int
        +getAllKeys(): List<Color>
    }

    abstract class "<size:14>Entity\n<size:10>nz.ac.vuw.ecs.swen225.gp22.domain" as nz.ac.vuw.ecs.swen225.gp22.domain.Entity<Player> [[Entity.html]] {
        {abstract} +ping(): void
        {abstract} +unping(): void
    }

    nz.ac.vuw.ecs.swen225.gp22.domain.Entity <|- - nz.ac.vuw.ecs.swen225.gp22.domain.Player

    center footer UMLDoclet 2.0.19, PlantUML 1.2022.8
@enduml

PlantUML version 1.2022.8(Sun Sep 25 22:00:33 NZDT 2022)
(APACHE source distribution)
Java Runtime: Java(TM) SE Runtime Environment
JVM: Java HotSpot(TM) 64-Bit Server VM
Default Encoding: Cp1252
Language: en
Country: NZ
--></g></svg>