<?xml version="1.0" encoding="UTF-8" standalone="no"?><svg xmlns="http://www.w3.org/2000/svg" xmlns:xlink="http://www.w3.org/1999/xlink" contentStyleType="text/css" height="188px" preserveAspectRatio="none" style="width:233px;height:188px;background:#FFFFFF;" version="1.1" viewBox="0 0 233 188" width="233px" zoomAndPan="magnify"><defs/><g><!--MD5=[186e21ba2cd9930336d13f364b5bb404]
class nz.ac.vuw.ecs.swen225.gp22.domain.Tile--><a href="Tile.html" target="_top" title="Tile.html" xlink:actuate="onRequest" xlink:href="Tile.html" xlink:show="new" xlink:title="Tile.html" xlink:type="simple"><g id="elem_nz.ac.vuw.ecs.swen225.gp22.domain.Tile"><rect codeLine="5" fill="#F1F1F1" height="153.8438" id="nz.ac.vuw.ecs.swen225.gp22.domain.Tile" rx="2.5" ry="2.5" style="stroke:#181818;stroke-width:0.5;" width="212" x="7" y="7"/><ellipse cx="23.8" cy="27.0938" fill="#A9DCDF" rx="11" ry="11" style="stroke:#181818;stroke-width:1.0;"/><path d="M25.9875,28.8594 L21.8469,28.8594 L21.425,29.8906 L21.8469,29.8906 Q22.4563,29.8906 22.7219,30.125 Q22.9875,30.3594 22.9875,30.75 Q22.9875,31.125 22.7219,31.3594 Q22.4563,31.5938 21.8469,31.5938 L19.55,31.5938 Q18.9406,31.5938 18.6906,31.3594 Q18.425,31.125 18.425,30.7344 Q18.425,30.3594 18.7063,30.125 Q18.9719,29.875 19.5969,29.8906 L22.2688,23.2344 L21.1594,23.2344 Q20.55,23.2344 20.2844,23 Q20.0188,22.7656 20.0188,22.375 Q20.0188,22 20.2844,21.7656 Q20.55,21.5313 21.1594,21.5313 L24.8313,21.5313 L28.2219,29.8906 Q28.8156,29.8906 29.0031,30.0313 Q29.3938,30.2969 29.3938,30.75 Q29.3938,31.125 29.1281,31.3594 Q28.8781,31.5938 28.2688,31.5938 L25.9719,31.5938 Q25.3625,31.5938 25.0969,31.3594 Q24.8313,31.125 24.8313,30.7344 Q24.8313,30.3594 25.0969,30.125 Q25.3625,29.8906 25.9719,29.8906 L26.3938,29.8906 L25.9875,28.8594 Z M25.2688,27.1563 L23.9094,23.7813 L22.5344,27.1563 L25.2688,27.1563 Z " fill="#000000"/><text fill="#000000" font-family="sans-serif" font-size="14" font-style="italic" lengthAdjust="spacing" textLength="23" x="114.7" y="26.5332">Tile</text><text fill="#000000" font-family="sans-serif" font-size="10" font-style="italic" lengthAdjust="spacing" textLength="176" x="38.2" y="39.9902">nz.ac.vuw.ecs.swen225.gp22.domain</text><line style="stroke:#181818;stroke-width:0.5;" x1="8" x2="218" y1="47.1875" y2="47.1875"/><ellipse cx="18" cy="61.4922" fill="#84BE84" rx="3" ry="3" style="stroke:#038048;stroke-width:1.0;"/><text fill="#000000" font-family="sans-serif" font-size="14" lengthAdjust="spacing" textLength="124" x="27" y="65.7207">Tile(Point, boolean)</text><ellipse cx="18" cy="79.1016" fill="#84BE84" rx="3" ry="3" style="stroke:#038048;stroke-width:1.0;"/><text fill="#000000" font-family="sans-serif" font-size="14" lengthAdjust="spacing" textLength="94" x="27" y="83.3301">getPos(): Point</text><ellipse cx="18" cy="96.7109" fill="#84BE84" rx="3" ry="3" style="stroke:#038048;stroke-width:1.0;"/><text fill="#000000" font-family="sans-serif" font-size="14" lengthAdjust="spacing" textLength="151" x="27" y="100.9395">isObstructive(): boolean</text><ellipse cx="18" cy="114.3203" fill="#84BE84" rx="3" ry="3" style="stroke:#038048;stroke-width:1.0;"/><text fill="#000000" font-family="sans-serif" font-size="14" lengthAdjust="spacing" textLength="119" x="27" y="118.5488">setPos(Point): void</text><ellipse cx="18" cy="131.9297" fill="#84BE84" rx="3" ry="3" style="stroke:#038048;stroke-width:1.0;"/><text fill="#000000" font-family="sans-serif" font-size="14" lengthAdjust="spacing" textLength="186" x="27" y="136.1582">setObstructive(boolean): void</text><ellipse cx="18" cy="149.5391" fill="#84BE84" rx="3" ry="3" style="stroke:#038048;stroke-width:1.0;"/><text fill="#000000" font-family="sans-serif" font-size="14" lengthAdjust="spacing" textLength="106" x="27" y="153.7676">deleteTile(): void</text></g></a><rect fill="none" height="12.5781" style="stroke:none;stroke-width:1.0;" width="184" x="20.5" y="167.8438"/><text fill="#888888" font-family="sans-serif" font-size="10" lengthAdjust="spacing" textLength="184" x="20.5" y="178.2246">UMLDoclet 2.0.19, PlantUML 1.2022.8</text><!--MD5=[22c796c5d7641bb40f1a4cda0b9d698f]
@startuml
    set namespaceSeparator none
    hide empty fields
    hide empty methods

    abstract class "<size:14>Tile\n<size:10>nz.ac.vuw.ecs.swen225.gp22.domain" as nz.ac.vuw.ecs.swen225.gp22.domain.Tile [[Tile.html]] {
        +Tile(Point, boolean)
        +getPos(): Point
        +isObstructive(): boolean
        +setPos(Point): void
        +setObstructive(boolean): void
        +deleteTile(): void
    }

    center footer UMLDoclet 2.0.19, PlantUML 1.2022.8
@enduml

PlantUML version 1.2022.8(Sun Sep 25 22:00:33 NZDT 2022)
(APACHE source distribution)
Java Runtime: Java(TM) SE Runtime Environment
JVM: Java HotSpot(TM) 64-Bit Server VM
Default Encoding: Cp1252
Language: en
Country: NZ
--></g></svg>