<?xml version="1.0" encoding="UTF-8" standalone="no"?><svg xmlns="http://www.w3.org/2000/svg" xmlns:xlink="http://www.w3.org/1999/xlink" contentStyleType="text/css" height="135px" preserveAspectRatio="none" style="width:274px;height:135px;background:#FFFFFF;" version="1.1" viewBox="0 0 274 135" width="274px" zoomAndPan="magnify"><defs/><g><!--MD5=[3b78d6d0c464a59900b97f485ad7623a]
class nz.ac.vuw.ecs.swen225.gp22.domain.TileDatabase--><a href="TileDatabase.html" target="_top" title="TileDatabase.html" xlink:actuate="onRequest" xlink:href="TileDatabase.html" xlink:show="new" xlink:title="TileDatabase.html" xlink:type="simple"><g id="elem_nz.ac.vuw.ecs.swen225.gp22.domain.TileDatabase"><rect codeLine="5" fill="#F1F1F1" height="101.0156" id="nz.ac.vuw.ecs.swen225.gp22.domain.TileDatabase" rx="2.5" ry="2.5" style="stroke:#181818;stroke-width:0.5;" width="253" x="7" y="7"/><ellipse cx="42.25" cy="27.0938" fill="#ADD1B2" rx="11" ry="11" style="stroke:#181818;stroke-width:1.0;"/><path d="M45.0156,22.9688 Q45.1719,22.75 45.3594,22.6406 Q45.5469,22.5313 45.7656,22.5313 Q46.1406,22.5313 46.375,22.7969 Q46.6094,23.0469 46.6094,23.6563 L46.6094,25.1094 Q46.6094,25.7188 46.375,25.9844 Q46.1406,26.25 45.7656,26.25 Q45.4219,26.25 45.2188,26.0469 Q45.0156,25.8594 44.9063,25.3438 Q44.8594,24.9844 44.6719,24.7969 Q44.3438,24.4219 43.7344,24.2031 Q43.125,23.9844 42.5,23.9844 Q41.7344,23.9844 41.0938,24.3125 Q40.4688,24.6406 39.9688,25.3906 Q39.4844,26.1406 39.4844,27.1719 L39.4844,28.2656 Q39.4844,29.5 40.375,30.3281 Q41.2656,31.1406 42.8594,31.1406 Q43.7969,31.1406 44.4531,30.8906 Q44.8438,30.7344 45.2656,30.2969 Q45.5313,30.0313 45.6719,29.9531 Q45.8281,29.875 46.0313,29.875 Q46.3594,29.875 46.6094,30.1406 Q46.875,30.3906 46.875,30.7344 Q46.875,31.0781 46.5313,31.4844 Q46.0313,32.0625 45.2344,32.3906 Q44.1563,32.8438 42.8594,32.8438 Q41.3438,32.8438 40.1406,32.2188 Q39.1563,31.7188 38.4688,30.6563 Q37.7813,29.5781 37.7813,28.2969 L37.7813,27.1406 Q37.7813,25.8125 38.3906,24.6719 Q39.0156,23.5156 40.1094,22.9063 Q41.2031,22.2813 42.4375,22.2813 Q43.1719,22.2813 43.8125,22.4531 Q44.4688,22.6094 45.0156,22.9688 Z " fill="#000000"/><text fill="#000000" font-family="sans-serif" font-size="14" lengthAdjust="spacing" textLength="84" x="106.75" y="26.5332">TileDatabase</text><text fill="#000000" font-family="sans-serif" font-size="10" lengthAdjust="spacing" textLength="176" x="60.75" y="39.9902">nz.ac.vuw.ecs.swen225.gp22.domain</text><line style="stroke:#181818;stroke-width:0.5;" x1="8" x2="259" y1="47.1875" y2="47.1875"/><ellipse cx="18" cy="61.4922" fill="#84BE84" rx="3" ry="3" style="stroke:#038048;stroke-width:1.0;"/><text fill="#000000" font-family="sans-serif" font-size="14" lengthAdjust="spacing" text-decoration="underline" textLength="179" x="27" y="65.7207">create(String, Object...): Tile</text><ellipse cx="18" cy="79.1016" fill="#84BE84" rx="3" ry="3" style="stroke:#038048;stroke-width:1.0;"/><text fill="#000000" font-family="sans-serif" font-size="14" lengthAdjust="spacing" text-decoration="underline" textLength="227" x="27" y="83.3301">getID(Class&lt;? extends Tile&gt;): String</text><ellipse cx="18" cy="96.7109" fill="#84BE84" rx="3" ry="3" style="stroke:#038048;stroke-width:1.0;"/><text fill="#000000" font-family="sans-serif" font-size="14" lengthAdjust="spacing" text-decoration="underline" textLength="111" x="27" y="100.9395">getID(Tile): String</text></g></a><rect fill="none" height="12.5781" style="stroke:none;stroke-width:1.0;" width="184" x="41" y="115.0156"/><text fill="#888888" font-family="sans-serif" font-size="10" lengthAdjust="spacing" textLength="184" x="41" y="125.3965">UMLDoclet 2.0.19, PlantUML 1.2022.8</text><!--MD5=[ceece3cfba78eb32f868cd0a2229fc18]
@startuml
    set namespaceSeparator none
    hide empty fields
    hide empty methods

    class "<size:14>TileDatabase\n<size:10>nz.ac.vuw.ecs.swen225.gp22.domain" as nz.ac.vuw.ecs.swen225.gp22.domain.TileDatabase [[TileDatabase.html]] {
        {static} +create(String, Object...): Tile
        {static} +getID(Class<? extends Tile>): String
        {static} +getID(Tile): String
    }

    center footer UMLDoclet 2.0.19, PlantUML 1.2022.8
@enduml

PlantUML version 1.2022.8(Sun Sep 25 22:00:33 NZDT 2022)
(APACHE source distribution)
Java Runtime: Java(TM) SE Runtime Environment
JVM: Java HotSpot(TM) 64-Bit Server VM
Default Encoding: Cp1252
Language: en
Country: NZ
--></g></svg>