<?xml version="1.0" encoding="UTF-8" standalone="no"?><svg xmlns="http://www.w3.org/2000/svg" xmlns:xlink="http://www.w3.org/1999/xlink" contentStyleType="text/css" height="981px" preserveAspectRatio="none" style="width:1195px;height:981px;background:#FFFFFF;" version="1.1" viewBox="0 0 1195 981" width="1195px" zoomAndPan="magnify"><defs/><g><!--MD5=[664fdbb09ffd9010ac20dfdad6379a97]
cluster nz.ac.vuw.ecs.swen225.gp22.renderer--><g id="cluster_nz.ac.vuw.ecs.swen225.gp22.renderer"><path d="M8.5,148 L277.5,148 A3.75,3.75 0 0 1 280,150.5 L287,171.6094 L1185.5,171.6094 A2.5,2.5 0 0 1 1188,174.1094 L1188,952.5 A2.5,2.5 0 0 1 1185.5,955 L8.5,955 A2.5,2.5 0 0 1 6,952.5 L6,150.5 A2.5,2.5 0 0 1 8.5,148 " fill="none" style="stroke:#000000;stroke-width:1.5;"/><line style="stroke:#000000;stroke-width:1.5;" x1="6" x2="287" y1="171.6094" y2="171.6094"/><text fill="#000000" font-family="sans-serif" font-size="14" font-weight="bold" lengthAdjust="spacing" textLength="268" x="10" y="164.5332">nz.ac.vuw.ecs.swen225.gp22.renderer</text></g><!--MD5=[491d687ecfafed1adc87dc26d19d521b]
cluster javax.sound.sampled--><g id="cluster_javax.sound.sampled"><path d="M13.5,6 L162.5,6 A3.75,3.75 0 0 1 165,8.5 L172,29.6094 L216.5,29.6094 A2.5,2.5 0 0 1 219,32.1094 L219,121.5 A2.5,2.5 0 0 1 216.5,124 L13.5,124 A2.5,2.5 0 0 1 11,121.5 L11,8.5 A2.5,2.5 0 0 1 13.5,6 " fill="none" style="stroke:#000000;stroke-width:1.5;"/><line style="stroke:#000000;stroke-width:1.5;" x1="11" x2="172" y1="29.6094" y2="29.6094"/><text fill="#000000" font-family="sans-serif" font-size="14" font-weight="bold" lengthAdjust="spacing" textLength="148" x="15" y="22.5332">javax.sound.sampled</text></g><!--MD5=[535aab4de90d4dfa371a9b40d5438fc3]
cluster javax.swing--><g id="cluster_javax.swing"><path d="M334.5,15 L417.5,15 A3.75,3.75 0 0 1 420,17.5 L427,38.6094 L435.5,38.6094 A2.5,2.5 0 0 1 438,41.1094 L438,112.5 A2.5,2.5 0 0 1 435.5,115 L334.5,115 A2.5,2.5 0 0 1 332,112.5 L332,17.5 A2.5,2.5 0 0 1 334.5,15 " fill="none" style="stroke:#000000;stroke-width:1.5;"/><line style="stroke:#000000;stroke-width:1.5;" x1="332" x2="427" y1="38.6094" y2="38.6094"/><text fill="#000000" font-family="sans-serif" font-size="14" font-weight="bold" lengthAdjust="spacing" textLength="82" x="336" y="31.5332">javax.swing</text></g><!--MD5=[d63c23c2d4b14118d71bd46d55a646bd]
cluster java.awt.event--><g id="cluster_java.awt.event"><path d="M497.5,6 L600.5,6 A3.75,3.75 0 0 1 603,8.5 L610,29.6094 L772.5,29.6094 A2.5,2.5 0 0 1 775,32.1094 L775,121.5 A2.5,2.5 0 0 1 772.5,124 L497.5,124 A2.5,2.5 0 0 1 495,121.5 L495,8.5 A2.5,2.5 0 0 1 497.5,6 " fill="none" style="stroke:#000000;stroke-width:1.5;"/><line style="stroke:#000000;stroke-width:1.5;" x1="495" x2="610" y1="29.6094" y2="29.6094"/><text fill="#000000" font-family="sans-serif" font-size="14" font-weight="bold" lengthAdjust="spacing" textLength="102" x="499" y="22.5332">java.awt.event</text></g><!--MD5=[80df190719ab852e82981afdc9475ccb]
class nz.ac.vuw.ecs.swen225.gp22.renderer.Img--><a href="Img.html" target="_top" title="Img.html" xlink:actuate="onRequest" xlink:href="Img.html" xlink:show="new" xlink:title="Img.html" xlink:type="simple"><g id="elem_nz.ac.vuw.ecs.swen225.gp22.renderer.Img"><rect codeLine="3" fill="#F1F1F1" height="593.8906" id="nz.ac.vuw.ecs.swen225.gp22.renderer.Img" rx="2.5" ry="2.5" style="stroke:#181818;stroke-width:0.5;" width="164" x="1008" y="184"/><ellipse cx="1074.75" cy="200" fill="#EB937F" rx="11" ry="11" style="stroke:#181818;stroke-width:1.0;"/><path d="M1073.6094,200.7969 L1073.6094,203.2969 L1077.9375,203.2969 L1077.9375,202.375 Q1077.9375,201.7656 1078.1719,201.5 Q1078.4219,201.2344 1078.7969,201.2344 Q1079.1719,201.2344 1079.4063,201.5 Q1079.6406,201.7656 1079.6406,202.375 L1079.6406,205 L1071.6406,205 Q1071.0156,205 1070.75,204.7656 Q1070.5,204.5313 1070.5,204.1406 Q1070.5,203.7656 1070.7656,203.5313 Q1071.0313,203.2969 1071.6406,203.2969 L1071.9063,203.2969 L1071.9063,196.6406 L1071.6406,196.6406 Q1071.0156,196.6406 1070.75,196.4063 Q1070.5,196.1719 1070.5,195.7813 Q1070.5,195.4063 1070.75,195.1719 Q1071.0156,194.9375 1071.6406,194.9375 L1079.2656,194.9375 L1079.2656,197.5313 Q1079.2656,198.1406 1079.0313,198.4063 Q1078.8125,198.6563 1078.4219,198.6563 Q1078.0469,198.6563 1077.8125,198.4063 Q1077.5781,198.1406 1077.5781,197.5313 L1077.5781,196.6406 L1073.6094,196.6406 L1073.6094,199.0938 L1075.0938,199.0938 Q1075.0938,198.4375 1075.2188,198.25 Q1075.4844,197.8438 1075.9531,197.8438 Q1076.3281,197.8438 1076.5625,198.1094 Q1076.7969,198.3594 1076.7969,198.9688 L1076.7969,200.9375 Q1076.7969,201.4844 1076.6719,201.6719 Q1076.4063,202.0625 1075.9531,202.0625 Q1075.4844,202.0625 1075.2188,201.6563 Q1075.0938,201.4688 1075.0938,200.7969 L1073.6094,200.7969 Z " fill="#000000"/><text fill="#000000" font-family="sans-serif" font-size="14" lengthAdjust="spacing" textLength="22" x="1095.25" y="205.7285">Img</text><line style="stroke:#181818;stroke-width:0.5;" x1="1009" x2="1171" y1="216" y2="216"/><ellipse cx="1019" cy="230.3047" fill="none" rx="3" ry="3" style="stroke:#038048;stroke-width:1.0;"/><text fill="#000000" font-family="sans-serif" font-size="14" lengthAdjust="spacing" text-decoration="underline" textLength="27" x="1028" y="234.5332">Title</text><ellipse cx="1019" cy="247.9141" fill="none" rx="3" ry="3" style="stroke:#038048;stroke-width:1.0;"/><text fill="#000000" font-family="sans-serif" font-size="14" lengthAdjust="spacing" text-decoration="underline" textLength="52" x="1028" y="252.1426">BlueKey</text><ellipse cx="1019" cy="265.5234" fill="none" rx="3" ry="3" style="stroke:#038048;stroke-width:1.0;"/><text fill="#000000" font-family="sans-serif" font-size="14" lengthAdjust="spacing" text-decoration="underline" textLength="105" x="1028" y="269.752">BlueLockedDoor</text><ellipse cx="1019" cy="283.1328" fill="none" rx="3" ry="3" style="stroke:#038048;stroke-width:1.0;"/><text fill="#000000" font-family="sans-serif" font-size="14" lengthAdjust="spacing" text-decoration="underline" textLength="64" x="1028" y="287.3613">GreenKey</text><ellipse cx="1019" cy="300.7422" fill="none" rx="3" ry="3" style="stroke:#038048;stroke-width:1.0;"/><text fill="#000000" font-family="sans-serif" font-size="14" lengthAdjust="spacing" text-decoration="underline" textLength="117" x="1028" y="304.9707">GreenLockedDoor</text><ellipse cx="1019" cy="318.3516" fill="none" rx="3" ry="3" style="stroke:#038048;stroke-width:1.0;"/><text fill="#000000" font-family="sans-serif" font-size="14" lengthAdjust="spacing" text-decoration="underline" textLength="50" x="1028" y="322.5801">RedKey</text><ellipse cx="1019" cy="335.9609" fill="none" rx="3" ry="3" style="stroke:#038048;stroke-width:1.0;"/><text fill="#000000" font-family="sans-serif" font-size="14" lengthAdjust="spacing" text-decoration="underline" textLength="103" x="1028" y="340.1895">RedLockedDoor</text><ellipse cx="1019" cy="353.5703" fill="none" rx="3" ry="3" style="stroke:#038048;stroke-width:1.0;"/><text fill="#000000" font-family="sans-serif" font-size="14" lengthAdjust="spacing" text-decoration="underline" textLength="64" x="1028" y="357.7988">YellowKey</text><ellipse cx="1019" cy="371.1797" fill="none" rx="3" ry="3" style="stroke:#038048;stroke-width:1.0;"/><text fill="#000000" font-family="sans-serif" font-size="14" lengthAdjust="spacing" text-decoration="underline" textLength="117" x="1028" y="375.4082">YellowLockedDoor</text><ellipse cx="1019" cy="388.7891" fill="none" rx="3" ry="3" style="stroke:#038048;stroke-width:1.0;"/><text fill="#000000" font-family="sans-serif" font-size="14" lengthAdjust="spacing" text-decoration="underline" textLength="53" x="1028" y="393.0176">FreeTile</text><ellipse cx="1019" cy="406.3984" fill="none" rx="3" ry="3" style="stroke:#038048;stroke-width:1.0;"/><text fill="#000000" font-family="sans-serif" font-size="14" lengthAdjust="spacing" text-decoration="underline" textLength="22" x="1028" y="410.627">Exit</text><ellipse cx="1019" cy="424.0078" fill="none" rx="3" ry="3" style="stroke:#038048;stroke-width:1.0;"/><text fill="#000000" font-family="sans-serif" font-size="14" lengthAdjust="spacing" text-decoration="underline" textLength="68" x="1028" y="428.2363">LockedExit</text><ellipse cx="1019" cy="441.6172" fill="none" rx="3" ry="3" style="stroke:#038048;stroke-width:1.0;"/><text fill="#000000" font-family="sans-serif" font-size="14" lengthAdjust="spacing" text-decoration="underline" textLength="54" x="1028" y="445.8457">InfoField</text><ellipse cx="1019" cy="459.2266" fill="none" rx="3" ry="3" style="stroke:#038048;stroke-width:1.0;"/><text fill="#000000" font-family="sans-serif" font-size="14" lengthAdjust="spacing" text-decoration="underline" textLength="65" x="1028" y="463.4551">Level1Info</text><ellipse cx="1019" cy="476.8359" fill="none" rx="3" ry="3" style="stroke:#038048;stroke-width:1.0;"/><text fill="#000000" font-family="sans-serif" font-size="14" lengthAdjust="spacing" text-decoration="underline" textLength="75" x="1028" y="481.0645">PlayerDown</text><ellipse cx="1019" cy="494.4453" fill="none" rx="3" ry="3" style="stroke:#038048;stroke-width:1.0;"/><text fill="#000000" font-family="sans-serif" font-size="14" lengthAdjust="spacing" text-decoration="underline" textLength="64" x="1028" y="498.6738">PlayerLeft</text><ellipse cx="1019" cy="512.0547" fill="none" rx="3" ry="3" style="stroke:#038048;stroke-width:1.0;"/><text fill="#000000" font-family="sans-serif" font-size="14" lengthAdjust="spacing" text-decoration="underline" textLength="73" x="1028" y="516.2832">PlayerRight</text><ellipse cx="1019" cy="529.6641" fill="none" rx="3" ry="3" style="stroke:#038048;stroke-width:1.0;"/><text fill="#000000" font-family="sans-serif" font-size="14" lengthAdjust="spacing" text-decoration="underline" textLength="57" x="1028" y="533.8926">PlayerUp</text><ellipse cx="1019" cy="547.2734" fill="none" rx="3" ry="3" style="stroke:#038048;stroke-width:1.0;"/><text fill="#000000" font-family="sans-serif" font-size="14" lengthAdjust="spacing" text-decoration="underline" textLength="58" x="1028" y="551.502">Treasure</text><ellipse cx="1019" cy="564.8828" fill="none" rx="3" ry="3" style="stroke:#038048;stroke-width:1.0;"/><text fill="#000000" font-family="sans-serif" font-size="14" lengthAdjust="spacing" text-decoration="underline" textLength="27" x="1028" y="569.1113">Wall</text><ellipse cx="1019" cy="582.4922" fill="none" rx="3" ry="3" style="stroke:#038048;stroke-width:1.0;"/><text fill="#000000" font-family="sans-serif" font-size="14" lengthAdjust="spacing" text-decoration="underline" textLength="70" x="1028" y="586.7207">BlueKeyNB</text><ellipse cx="1019" cy="600.1016" fill="none" rx="3" ry="3" style="stroke:#038048;stroke-width:1.0;"/><text fill="#000000" font-family="sans-serif" font-size="14" lengthAdjust="spacing" text-decoration="underline" textLength="82" x="1028" y="604.3301">GreenKeyNB</text><ellipse cx="1019" cy="617.7109" fill="none" rx="3" ry="3" style="stroke:#038048;stroke-width:1.0;"/><text fill="#000000" font-family="sans-serif" font-size="14" lengthAdjust="spacing" text-decoration="underline" textLength="68" x="1028" y="621.9395">RedKeyNB</text><ellipse cx="1019" cy="635.3203" fill="none" rx="3" ry="3" style="stroke:#038048;stroke-width:1.0;"/><text fill="#000000" font-family="sans-serif" font-size="14" lengthAdjust="spacing" text-decoration="underline" textLength="82" x="1028" y="639.5488">YellowKeyNB</text><ellipse cx="1019" cy="652.9297" fill="none" rx="3" ry="3" style="stroke:#038048;stroke-width:1.0;"/><text fill="#000000" font-family="sans-serif" font-size="14" lengthAdjust="spacing" text-decoration="underline" textLength="107" x="1028" y="657.1582">BouncyPadDown</text><ellipse cx="1019" cy="670.5391" fill="none" rx="3" ry="3" style="stroke:#038048;stroke-width:1.0;"/><text fill="#000000" font-family="sans-serif" font-size="14" lengthAdjust="spacing" text-decoration="underline" textLength="96" x="1028" y="674.7676">BouncyPadLeft</text><ellipse cx="1019" cy="688.1484" fill="none" rx="3" ry="3" style="stroke:#038048;stroke-width:1.0;"/><text fill="#000000" font-family="sans-serif" font-size="14" lengthAdjust="spacing" text-decoration="underline" textLength="105" x="1028" y="692.377">BouncyPadRight</text><ellipse cx="1019" cy="705.7578" fill="none" rx="3" ry="3" style="stroke:#038048;stroke-width:1.0;"/><text fill="#000000" font-family="sans-serif" font-size="14" lengthAdjust="spacing" text-decoration="underline" textLength="89" x="1028" y="709.9863">BouncyPadUp</text><ellipse cx="1019" cy="723.3672" fill="none" rx="3" ry="3" style="stroke:#038048;stroke-width:1.0;"/><text fill="#000000" font-family="sans-serif" font-size="14" lengthAdjust="spacing" text-decoration="underline" textLength="65" x="1028" y="727.5957">Level2Info</text><ellipse cx="1019" cy="740.9766" fill="none" rx="3" ry="3" style="stroke:#038048;stroke-width:1.0;"/><text fill="#000000" font-family="sans-serif" font-size="14" lengthAdjust="spacing" text-decoration="underline" textLength="68" x="1028" y="745.2051">MilkPuddle</text><ellipse cx="1019" cy="758.5859" fill="none" rx="3" ry="3" style="stroke:#038048;stroke-width:1.0;"/><text fill="#000000" font-family="sans-serif" font-size="14" lengthAdjust="spacing" textLength="138" x="1028" y="762.8145">image: BufferedImage</text><line style="stroke:#181818;stroke-width:0.5;" x1="1009" x2="1171" y1="769.8906" y2="769.8906"/></g></a><!--MD5=[3bfd096fb60da57362b572e9c7c3a168]
class nz.ac.vuw.ecs.swen225.gp22.renderer.SFX--><a href="SFX.html" target="_top" title="SFX.html" xlink:actuate="onRequest" xlink:href="SFX.html" xlink:show="new" xlink:title="SFX.html" xlink:type="simple"><g id="elem_nz.ac.vuw.ecs.swen225.gp22.renderer.SFX"><rect codeLine="37" fill="#F1F1F1" height="100.8281" id="nz.ac.vuw.ecs.swen225.gp22.renderer.SFX" rx="2.5" ry="2.5" style="stroke:#181818;stroke-width:0.5;" width="161" x="811.5" y="430.5"/><ellipse cx="874.75" cy="446.5" fill="#ADD1B2" rx="11" ry="11" style="stroke:#181818;stroke-width:1.0;"/><path d="M877.5156,442.375 Q877.6719,442.1563 877.8594,442.0469 Q878.0469,441.9375 878.2656,441.9375 Q878.6406,441.9375 878.875,442.2031 Q879.1094,442.4531 879.1094,443.0625 L879.1094,444.5156 Q879.1094,445.125 878.875,445.3906 Q878.6406,445.6563 878.2656,445.6563 Q877.9219,445.6563 877.7188,445.4531 Q877.5156,445.2656 877.4063,444.75 Q877.3594,444.3906 877.1719,444.2031 Q876.8438,443.8281 876.2344,443.6094 Q875.625,443.3906 875,443.3906 Q874.2344,443.3906 873.5938,443.7188 Q872.9688,444.0469 872.4688,444.7969 Q871.9844,445.5469 871.9844,446.5781 L871.9844,447.6719 Q871.9844,448.9063 872.875,449.7344 Q873.7656,450.5469 875.3594,450.5469 Q876.2969,450.5469 876.9531,450.2969 Q877.3438,450.1406 877.7656,449.7031 Q878.0313,449.4375 878.1719,449.3594 Q878.3281,449.2813 878.5313,449.2813 Q878.8594,449.2813 879.1094,449.5469 Q879.375,449.7969 879.375,450.1406 Q879.375,450.4844 879.0313,450.8906 Q878.5313,451.4688 877.7344,451.7969 Q876.6563,452.25 875.3594,452.25 Q873.8438,452.25 872.6406,451.625 Q871.6563,451.125 870.9688,450.0625 Q870.2813,448.9844 870.2813,447.7031 L870.2813,446.5469 Q870.2813,445.2188 870.8906,444.0781 Q871.5156,442.9219 872.6094,442.3125 Q873.7031,441.6875 874.9375,441.6875 Q875.6719,441.6875 876.3125,441.8594 Q876.9688,442.0156 877.5156,442.375 Z " fill="#000000"/><text fill="#000000" font-family="sans-serif" font-size="14" lengthAdjust="spacing" textLength="26" x="895.25" y="452.2285">SFX</text><line style="stroke:#181818;stroke-width:0.5;" x1="812.5" x2="971.5" y1="462.5" y2="462.5"/><line style="stroke:#181818;stroke-width:0.5;" x1="812.5" x2="971.5" y1="470.5" y2="470.5"/><ellipse cx="822.5" cy="484.8047" fill="#84BE84" rx="3" ry="3" style="stroke:#038048;stroke-width:1.0;"/><text fill="#000000" font-family="sans-serif" font-size="14" lengthAdjust="spacing" textLength="73" x="831.5" y="489.0332">SFX(String)</text><ellipse cx="822.5" cy="502.4141" fill="#84BE84" rx="3" ry="3" style="stroke:#038048;stroke-width:1.0;"/><text fill="#000000" font-family="sans-serif" font-size="14" lengthAdjust="spacing" textLength="86" x="831.5" y="506.6426">getClip(): Clip</text><ellipse cx="822.5" cy="520.0234" fill="#84BE84" rx="3" ry="3" style="stroke:#038048;stroke-width:1.0;"/><text fill="#000000" font-family="sans-serif" font-size="14" lengthAdjust="spacing" textLength="135" x="831.5" y="524.252">getClipName(): String</text></g></a><!--MD5=[0ca9ba556071b9ec09411eddedb0fb25]
class nz.ac.vuw.ecs.swen225.gp22.renderer.SFX.Sounds--><a href="SFX.Sounds.html" target="_top" title="SFX.Sounds.html" xlink:actuate="onRequest" xlink:href="SFX.Sounds.html" xlink:show="new" xlink:title="SFX.Sounds.html" xlink:type="simple"><g id="elem_nz.ac.vuw.ecs.swen225.gp22.renderer.SFX.Sounds"><rect codeLine="43" fill="#F1F1F1" height="100.8281" id="nz.ac.vuw.ecs.swen225.gp22.renderer.SFX.Sounds" rx="2.5" ry="2.5" style="stroke:#181818;stroke-width:0.5;" width="110" x="837" y="838"/><ellipse cx="852" cy="854" fill="#EB937F" rx="11" ry="11" style="stroke:#181818;stroke-width:1.0;"/><path d="M850.8594,854.7969 L850.8594,857.2969 L855.1875,857.2969 L855.1875,856.375 Q855.1875,855.7656 855.4219,855.5 Q855.6719,855.2344 856.0469,855.2344 Q856.4219,855.2344 856.6563,855.5 Q856.8906,855.7656 856.8906,856.375 L856.8906,859 L848.8906,859 Q848.2656,859 848,858.7656 Q847.75,858.5313 847.75,858.1406 Q847.75,857.7656 848.0156,857.5313 Q848.2813,857.2969 848.8906,857.2969 L849.1563,857.2969 L849.1563,850.6406 L848.8906,850.6406 Q848.2656,850.6406 848,850.4063 Q847.75,850.1719 847.75,849.7813 Q847.75,849.4063 848,849.1719 Q848.2656,848.9375 848.8906,848.9375 L856.5156,848.9375 L856.5156,851.5313 Q856.5156,852.1406 856.2813,852.4063 Q856.0625,852.6563 855.6719,852.6563 Q855.2969,852.6563 855.0625,852.4063 Q854.8281,852.1406 854.8281,851.5313 L854.8281,850.6406 L850.8594,850.6406 L850.8594,853.0938 L852.3438,853.0938 Q852.3438,852.4375 852.4688,852.25 Q852.7344,851.8438 853.2031,851.8438 Q853.5781,851.8438 853.8125,852.1094 Q854.0469,852.3594 854.0469,852.9688 L854.0469,854.9375 Q854.0469,855.4844 853.9219,855.6719 Q853.6563,856.0625 853.2031,856.0625 Q852.7344,856.0625 852.4688,855.6563 Q852.3438,855.4688 852.3438,854.7969 L850.8594,854.7969 Z " fill="#000000"/><text fill="#000000" font-family="sans-serif" font-size="14" lengthAdjust="spacing" textLength="78" x="866" y="859.7285">SFX.Sounds</text><line style="stroke:#181818;stroke-width:0.5;" x1="838" x2="946" y1="870" y2="870"/><ellipse cx="848" cy="884.3047" fill="none" rx="3" ry="3" style="stroke:#038048;stroke-width:1.0;"/><text fill="#000000" font-family="sans-serif" font-size="14" lengthAdjust="spacing" text-decoration="underline" textLength="76" x="857" y="888.5332">Background</text><ellipse cx="848" cy="901.9141" fill="none" rx="3" ry="3" style="stroke:#038048;stroke-width:1.0;"/><text fill="#000000" font-family="sans-serif" font-size="14" lengthAdjust="spacing" text-decoration="underline" textLength="69" x="857" y="906.1426">CollectItem</text><ellipse cx="848" cy="919.5234" fill="none" rx="3" ry="3" style="stroke:#038048;stroke-width:1.0;"/><text fill="#000000" font-family="sans-serif" font-size="14" lengthAdjust="spacing" text-decoration="underline" textLength="42" x="857" y="923.752">Unlock</text><line style="stroke:#181818;stroke-width:0.5;" x1="838" x2="946" y1="930.8281" y2="930.8281"/></g></a><!--MD5=[ef65c5b2094f9252bbb5ee8b648a3f04]
class nz.ac.vuw.ecs.swen225.gp22.renderer.SFXPlayer--><a href="SFXPlayer.html" target="_top" title="SFXPlayer.html" xlink:actuate="onRequest" xlink:href="SFXPlayer.html" xlink:show="new" xlink:title="SFXPlayer.html" xlink:type="simple"><g id="elem_nz.ac.vuw.ecs.swen225.gp22.renderer.SFXPlayer"><rect codeLine="49" fill="#F1F1F1" height="100.8281" id="nz.ac.vuw.ecs.swen225.gp22.renderer.SFXPlayer" rx="2.5" ry="2.5" style="stroke:#181818;stroke-width:0.5;" width="186" x="22" y="430.5"/><ellipse cx="77.75" cy="446.5" fill="#ADD1B2" rx="11" ry="11" style="stroke:#181818;stroke-width:1.0;"/><path d="M80.5156,442.375 Q80.6719,442.1563 80.8594,442.0469 Q81.0469,441.9375 81.2656,441.9375 Q81.6406,441.9375 81.875,442.2031 Q82.1094,442.4531 82.1094,443.0625 L82.1094,444.5156 Q82.1094,445.125 81.875,445.3906 Q81.6406,445.6563 81.2656,445.6563 Q80.9219,445.6563 80.7188,445.4531 Q80.5156,445.2656 80.4063,444.75 Q80.3594,444.3906 80.1719,444.2031 Q79.8438,443.8281 79.2344,443.6094 Q78.625,443.3906 78,443.3906 Q77.2344,443.3906 76.5938,443.7188 Q75.9688,444.0469 75.4688,444.7969 Q74.9844,445.5469 74.9844,446.5781 L74.9844,447.6719 Q74.9844,448.9063 75.875,449.7344 Q76.7656,450.5469 78.3594,450.5469 Q79.2969,450.5469 79.9531,450.2969 Q80.3438,450.1406 80.7656,449.7031 Q81.0313,449.4375 81.1719,449.3594 Q81.3281,449.2813 81.5313,449.2813 Q81.8594,449.2813 82.1094,449.5469 Q82.375,449.7969 82.375,450.1406 Q82.375,450.4844 82.0313,450.8906 Q81.5313,451.4688 80.7344,451.7969 Q79.6563,452.25 78.3594,452.25 Q76.8438,452.25 75.6406,451.625 Q74.6563,451.125 73.9688,450.0625 Q73.2813,448.9844 73.2813,447.7031 L73.2813,446.5469 Q73.2813,445.2188 73.8906,444.0781 Q74.5156,442.9219 75.6094,442.3125 Q76.7031,441.6875 77.9375,441.6875 Q78.6719,441.6875 79.3125,441.8594 Q79.9688,442.0156 80.5156,442.375 Z " fill="#000000"/><text fill="#000000" font-family="sans-serif" font-size="14" lengthAdjust="spacing" textLength="66" x="98.25" y="452.2285">SFXPlayer</text><line style="stroke:#181818;stroke-width:0.5;" x1="23" x2="207" y1="462.5" y2="462.5"/><line style="stroke:#181818;stroke-width:0.5;" x1="23" x2="207" y1="470.5" y2="470.5"/><ellipse cx="33" cy="484.8047" fill="#84BE84" rx="3" ry="3" style="stroke:#038048;stroke-width:1.0;"/><text fill="#000000" font-family="sans-serif" font-size="14" lengthAdjust="spacing" textLength="160" x="42" y="489.0332">playSound(SFX, int): void</text><ellipse cx="33" cy="502.4141" fill="#84BE84" rx="3" ry="3" style="stroke:#038048;stroke-width:1.0;"/><text fill="#000000" font-family="sans-serif" font-size="14" lengthAdjust="spacing" textLength="97" x="42" y="506.6426">stopSFX(): void</text><ellipse cx="33" cy="520.0234" fill="#84BE84" rx="3" ry="3" style="stroke:#038048;stroke-width:1.0;"/><text fill="#000000" font-family="sans-serif" font-size="14" lengthAdjust="spacing" textLength="151" x="42" y="524.252">update(LineEvent): void</text></g></a><!--MD5=[ebd80f6b5b9a3340a75d090700dbc8ab]
class nz.ac.vuw.ecs.swen225.gp22.renderer.SidePanel--><a href="SidePanel.html" target="_top" title="SidePanel.html" xlink:actuate="onRequest" xlink:href="SidePanel.html" xlink:show="new" xlink:title="SidePanel.html" xlink:type="simple"><g id="elem_nz.ac.vuw.ecs.swen225.gp22.renderer.SidePanel"><rect codeLine="55" fill="#F1F1F1" height="118.4375" id="nz.ac.vuw.ecs.swen225.gp22.renderer.SidePanel" rx="2.5" ry="2.5" style="stroke:#181818;stroke-width:0.5;" width="249" x="243.5" y="422"/><ellipse cx="331.75" cy="438" fill="#ADD1B2" rx="11" ry="11" style="stroke:#181818;stroke-width:1.0;"/><path d="M334.5156,433.875 Q334.6719,433.6563 334.8594,433.5469 Q335.0469,433.4375 335.2656,433.4375 Q335.6406,433.4375 335.875,433.7031 Q336.1094,433.9531 336.1094,434.5625 L336.1094,436.0156 Q336.1094,436.625 335.875,436.8906 Q335.6406,437.1563 335.2656,437.1563 Q334.9219,437.1563 334.7188,436.9531 Q334.5156,436.7656 334.4063,436.25 Q334.3594,435.8906 334.1719,435.7031 Q333.8438,435.3281 333.2344,435.1094 Q332.625,434.8906 332,434.8906 Q331.2344,434.8906 330.5938,435.2188 Q329.9688,435.5469 329.4688,436.2969 Q328.9844,437.0469 328.9844,438.0781 L328.9844,439.1719 Q328.9844,440.4063 329.875,441.2344 Q330.7656,442.0469 332.3594,442.0469 Q333.2969,442.0469 333.9531,441.7969 Q334.3438,441.6406 334.7656,441.2031 Q335.0313,440.9375 335.1719,440.8594 Q335.3281,440.7813 335.5313,440.7813 Q335.8594,440.7813 336.1094,441.0469 Q336.375,441.2969 336.375,441.6406 Q336.375,441.9844 336.0313,442.3906 Q335.5313,442.9688 334.7344,443.2969 Q333.6563,443.75 332.3594,443.75 Q330.8438,443.75 329.6406,443.125 Q328.6563,442.625 327.9688,441.5625 Q327.2813,440.4844 327.2813,439.2031 L327.2813,438.0469 Q327.2813,436.7188 327.8906,435.5781 Q328.5156,434.4219 329.6094,433.8125 Q330.7031,433.1875 331.9375,433.1875 Q332.6719,433.1875 333.3125,433.3594 Q333.9688,433.5156 334.5156,433.875 Z " fill="#000000"/><text fill="#000000" font-family="sans-serif" font-size="14" lengthAdjust="spacing" textLength="64" x="352.25" y="443.7285">SidePanel</text><line style="stroke:#181818;stroke-width:0.5;" x1="244.5" x2="491.5" y1="454" y2="454"/><line style="stroke:#181818;stroke-width:0.5;" x1="244.5" x2="491.5" y1="462" y2="462"/><ellipse cx="254.5" cy="476.3047" fill="#84BE84" rx="3" ry="3" style="stroke:#038048;stroke-width:1.0;"/><text fill="#000000" font-family="sans-serif" font-size="14" lengthAdjust="spacing" textLength="112" x="263.5" y="480.5332">SidePanel(int, int)</text><ellipse cx="254.5" cy="493.9141" fill="#84BE84" rx="3" ry="3" style="stroke:#038048;stroke-width:1.0;"/><text fill="#000000" font-family="sans-serif" font-size="14" lengthAdjust="spacing" textLength="109" x="263.5" y="498.1426">setTime(int): void</text><ellipse cx="254.5" cy="511.5234" fill="#84BE84" rx="3" ry="3" style="stroke:#038048;stroke-width:1.0;"/><text fill="#000000" font-family="sans-serif" font-size="14" lengthAdjust="spacing" textLength="205" x="263.5" y="515.752">paintComponent(Graphics): void</text><ellipse cx="254.5" cy="529.1328" fill="#84BE84" rx="3" ry="3" style="stroke:#038048;stroke-width:1.0;"/><text fill="#000000" font-family="sans-serif" font-size="14" lengthAdjust="spacing" textLength="223" x="263.5" y="533.3613">actionPerformed(ActionEvent): void</text></g></a><!--MD5=[fa72cde6251f483207e0df2c64e0c31f]
class nz.ac.vuw.ecs.swen225.gp22.renderer.Viewport--><a href="Viewport.html" target="_top" title="Viewport.html" xlink:actuate="onRequest" xlink:href="Viewport.html" xlink:show="new" xlink:title="Viewport.html" xlink:type="simple"><g id="elem_nz.ac.vuw.ecs.swen225.gp22.renderer.Viewport"><rect codeLine="62" fill="#F1F1F1" height="118.4375" id="nz.ac.vuw.ecs.swen225.gp22.renderer.Viewport" rx="2.5" ry="2.5" style="stroke:#181818;stroke-width:0.5;" width="249" x="527.5" y="422"/><ellipse cx="620.75" cy="438" fill="#ADD1B2" rx="11" ry="11" style="stroke:#181818;stroke-width:1.0;"/><path d="M623.5156,433.875 Q623.6719,433.6563 623.8594,433.5469 Q624.0469,433.4375 624.2656,433.4375 Q624.6406,433.4375 624.875,433.7031 Q625.1094,433.9531 625.1094,434.5625 L625.1094,436.0156 Q625.1094,436.625 624.875,436.8906 Q624.6406,437.1563 624.2656,437.1563 Q623.9219,437.1563 623.7188,436.9531 Q623.5156,436.7656 623.4063,436.25 Q623.3594,435.8906 623.1719,435.7031 Q622.8438,435.3281 622.2344,435.1094 Q621.625,434.8906 621,434.8906 Q620.2344,434.8906 619.5938,435.2188 Q618.9688,435.5469 618.4688,436.2969 Q617.9844,437.0469 617.9844,438.0781 L617.9844,439.1719 Q617.9844,440.4063 618.875,441.2344 Q619.7656,442.0469 621.3594,442.0469 Q622.2969,442.0469 622.9531,441.7969 Q623.3438,441.6406 623.7656,441.2031 Q624.0313,440.9375 624.1719,440.8594 Q624.3281,440.7813 624.5313,440.7813 Q624.8594,440.7813 625.1094,441.0469 Q625.375,441.2969 625.375,441.6406 Q625.375,441.9844 625.0313,442.3906 Q624.5313,442.9688 623.7344,443.2969 Q622.6563,443.75 621.3594,443.75 Q619.8438,443.75 618.6406,443.125 Q617.6563,442.625 616.9688,441.5625 Q616.2813,440.4844 616.2813,439.2031 L616.2813,438.0469 Q616.2813,436.7188 616.8906,435.5781 Q617.5156,434.4219 618.6094,433.8125 Q619.7031,433.1875 620.9375,433.1875 Q621.6719,433.1875 622.3125,433.3594 Q622.9688,433.5156 623.5156,433.875 Z " fill="#000000"/><text fill="#000000" font-family="sans-serif" font-size="14" lengthAdjust="spacing" textLength="54" x="641.25" y="443.7285">Viewport</text><line style="stroke:#181818;stroke-width:0.5;" x1="528.5" x2="775.5" y1="454" y2="454"/><line style="stroke:#181818;stroke-width:0.5;" x1="528.5" x2="775.5" y1="462" y2="462"/><ellipse cx="538.5" cy="476.3047" fill="#84BE84" rx="3" ry="3" style="stroke:#038048;stroke-width:1.0;"/><text fill="#000000" font-family="sans-serif" font-size="14" lengthAdjust="spacing" textLength="132" x="547.5" y="480.5332">paint(Graphics): void</text><ellipse cx="538.5" cy="493.9141" fill="#84BE84" rx="3" ry="3" style="stroke:#038048;stroke-width:1.0;"/><text fill="#000000" font-family="sans-serif" font-size="14" lengthAdjust="spacing" textLength="223" x="547.5" y="498.1426">actionPerformed(ActionEvent): void</text><ellipse cx="538.5" cy="511.5234" fill="#84BE84" rx="3" ry="3" style="stroke:#038048;stroke-width:1.0;"/><text fill="#000000" font-family="sans-serif" font-size="14" lengthAdjust="spacing" textLength="211" x="547.5" y="515.752">setAction(List&lt;ActionType&gt;): void</text><ellipse cx="538.5" cy="529.1328" fill="#84BE84" rx="3" ry="3" style="stroke:#038048;stroke-width:1.0;"/><text fill="#000000" font-family="sans-serif" font-size="14" lengthAdjust="spacing" textLength="112" x="547.5" y="533.3613">stopSound(): void</text></g></a><!--MD5=[e46b5534ef4dffd37a684082811fb8c6]
class javax.sound.sampled.LineListener--><g id="elem_javax.sound.sampled.LineListener"><rect codeLine="78" fill="#F1F1F1" height="65.6094" id="javax.sound.sampled.LineListener" rx="2.5" ry="2.5" style="stroke:#181818;stroke-width:0.5;" width="175" x="27.5" y="42"/><ellipse cx="71.75" cy="58" fill="#B4A7E5" rx="11" ry="11" style="stroke:#181818;stroke-width:1.0;"/><path d="M72.7031,54.6406 L72.7031,61.2969 L74.4219,61.2969 Q75.0313,61.2969 75.2969,61.5313 Q75.5625,61.7656 75.5625,62.1563 Q75.5625,62.5313 75.2969,62.7656 Q75.0313,63 74.4219,63 L69.2813,63 Q68.6719,63 68.4063,62.7656 Q68.1406,62.5313 68.1406,62.1406 Q68.1406,61.7656 68.4063,61.5313 Q68.6719,61.2969 69.2813,61.2969 L71,61.2969 L71,54.6406 L69.2813,54.6406 Q68.6719,54.6406 68.4063,54.4063 Q68.1406,54.1719 68.1406,53.7813 Q68.1406,53.4063 68.4063,53.1719 Q68.6719,52.9375 69.2813,52.9375 L74.4219,52.9375 Q75.0313,52.9375 75.2969,53.1719 Q75.5625,53.4063 75.5625,53.7813 Q75.5625,54.1719 75.2969,54.4063 Q75.0313,54.6406 74.4219,54.6406 L72.7031,54.6406 Z " fill="#000000"/><text fill="#000000" font-family="sans-serif" font-size="14" font-style="italic" lengthAdjust="spacing" textLength="78" x="92.25" y="63.7285">LineListener</text><line style="stroke:#181818;stroke-width:0.5;" x1="28.5" x2="201.5" y1="74" y2="74"/><line style="stroke:#181818;stroke-width:0.5;" x1="28.5" x2="201.5" y1="82" y2="82"/><ellipse cx="38.5" cy="96.3047" fill="#84BE84" rx="3" ry="3" style="stroke:#038048;stroke-width:1.0;"/><text fill="#000000" font-family="sans-serif" font-size="14" font-style="italic" lengthAdjust="spacing" textLength="149" x="47.5" y="100.5332">update(LineEvent): void</text></g><!--MD5=[56a185cb33bdc7c23303e5865f20a19b]
class javax.swing.JPanel--><g id="elem_javax.swing.JPanel"><rect codeLine="84" fill="#F1F1F1" height="48" id="javax.swing.JPanel" rx="2.5" ry="2.5" style="stroke:#181818;stroke-width:0.5;" width="74" x="348" y="51"/><ellipse cx="363" cy="67" fill="#ADD1B2" rx="11" ry="11" style="stroke:#181818;stroke-width:1.0;"/><path d="M365.7656,62.875 Q365.9219,62.6563 366.1094,62.5469 Q366.2969,62.4375 366.5156,62.4375 Q366.8906,62.4375 367.125,62.7031 Q367.3594,62.9531 367.3594,63.5625 L367.3594,65.0156 Q367.3594,65.625 367.125,65.8906 Q366.8906,66.1563 366.5156,66.1563 Q366.1719,66.1563 365.9688,65.9531 Q365.7656,65.7656 365.6563,65.25 Q365.6094,64.8906 365.4219,64.7031 Q365.0938,64.3281 364.4844,64.1094 Q363.875,63.8906 363.25,63.8906 Q362.4844,63.8906 361.8438,64.2188 Q361.2188,64.5469 360.7188,65.2969 Q360.2344,66.0469 360.2344,67.0781 L360.2344,68.1719 Q360.2344,69.4063 361.125,70.2344 Q362.0156,71.0469 363.6094,71.0469 Q364.5469,71.0469 365.2031,70.7969 Q365.5938,70.6406 366.0156,70.2031 Q366.2813,69.9375 366.4219,69.8594 Q366.5781,69.7813 366.7813,69.7813 Q367.1094,69.7813 367.3594,70.0469 Q367.625,70.2969 367.625,70.6406 Q367.625,70.9844 367.2813,71.3906 Q366.7813,71.9688 365.9844,72.2969 Q364.9063,72.75 363.6094,72.75 Q362.0938,72.75 360.8906,72.125 Q359.9063,71.625 359.2188,70.5625 Q358.5313,69.4844 358.5313,68.2031 L358.5313,67.0469 Q358.5313,65.7188 359.1406,64.5781 Q359.7656,63.4219 360.8594,62.8125 Q361.9531,62.1875 363.1875,62.1875 Q363.9219,62.1875 364.5625,62.3594 Q365.2188,62.5156 365.7656,62.875 Z " fill="#000000"/><text fill="#000000" font-family="sans-serif" font-size="14" lengthAdjust="spacing" textLength="42" x="377" y="72.7285">JPanel</text><line style="stroke:#181818;stroke-width:0.5;" x1="349" x2="421" y1="83" y2="83"/><line style="stroke:#181818;stroke-width:0.5;" x1="349" x2="421" y1="91" y2="91"/></g><!--MD5=[6631281fcee7fc541b441b6c950a0fa0]
class java.awt.event.ActionListener--><g id="elem_java.awt.event.ActionListener"><rect codeLine="89" fill="#F1F1F1" height="65.6094" id="java.awt.event.ActionListener" rx="2.5" ry="2.5" style="stroke:#181818;stroke-width:0.5;" width="247" x="511.5" y="42"/><ellipse cx="585.75" cy="58" fill="#B4A7E5" rx="11" ry="11" style="stroke:#181818;stroke-width:1.0;"/><path d="M586.7031,54.6406 L586.7031,61.2969 L588.4219,61.2969 Q589.0313,61.2969 589.2969,61.5313 Q589.5625,61.7656 589.5625,62.1563 Q589.5625,62.5313 589.2969,62.7656 Q589.0313,63 588.4219,63 L583.2813,63 Q582.6719,63 582.4063,62.7656 Q582.1406,62.5313 582.1406,62.1406 Q582.1406,61.7656 582.4063,61.5313 Q582.6719,61.2969 583.2813,61.2969 L585,61.2969 L585,54.6406 L583.2813,54.6406 Q582.6719,54.6406 582.4063,54.4063 Q582.1406,54.1719 582.1406,53.7813 Q582.1406,53.4063 582.4063,53.1719 Q582.6719,52.9375 583.2813,52.9375 L588.4219,52.9375 Q589.0313,52.9375 589.2969,53.1719 Q589.5625,53.4063 589.5625,53.7813 Q589.5625,54.1719 589.2969,54.4063 Q589.0313,54.6406 588.4219,54.6406 L586.7031,54.6406 Z " fill="#000000"/><text fill="#000000" font-family="sans-serif" font-size="14" font-style="italic" lengthAdjust="spacing" textLength="90" x="606.25" y="63.7285">ActionListener</text><line style="stroke:#181818;stroke-width:0.5;" x1="512.5" x2="757.5" y1="74" y2="74"/><line style="stroke:#181818;stroke-width:0.5;" x1="512.5" x2="757.5" y1="82" y2="82"/><ellipse cx="522.5" cy="96.3047" fill="#84BE84" rx="3" ry="3" style="stroke:#038048;stroke-width:1.0;"/><text fill="#000000" font-family="sans-serif" font-size="14" font-style="italic" lengthAdjust="spacing" textLength="221" x="531.5" y="100.5332">actionPerformed(ActionEvent): void</text></g><!--MD5=[62351bcb5da6f914cf6171c076bdfb43]
reverse link nz.ac.vuw.ecs.swen225.gp22.renderer.SFX to nz.ac.vuw.ecs.swen225.gp22.renderer.SFX.Sounds--><g id="link_nz.ac.vuw.ecs.swen225.gp22.renderer.SFX_nz.ac.vuw.ecs.swen225.gp22.renderer.SFX.Sounds"><path codeLine="69" d="M892,546.89 C892,627.84 892,764.5 892,837.69 " fill="none" id="nz.ac.vuw.ecs.swen225.gp22.renderer.SFX-backto-nz.ac.vuw.ecs.swen225.gp22.renderer.SFX.Sounds" style="stroke:#181818;stroke-width:1.0;"/><ellipse cx="892" cy="539.72" fill="#FFFFFF" rx="8" ry="8" style="stroke:#181818;stroke-width:1.0;"/><line style="stroke:#181818;stroke-width:1.0;" x1="892" x2="892" y1="547.72" y2="531.72"/><line style="stroke:#181818;stroke-width:1.0;" x1="884" x2="900" y1="539.72" y2="539.72"/></g><!--MD5=[293a3ce7f1622c403ffc4468fe81cab9]
reverse link javax.sound.sampled.LineListener to nz.ac.vuw.ecs.swen225.gp22.renderer.SFXPlayer--><g id="link_javax.sound.sampled.LineListener_nz.ac.vuw.ecs.swen225.gp22.renderer.SFXPlayer"><path codeLine="70" d="M115,128.21 C115,206.57 115,353.59 115,430.4 " fill="none" id="javax.sound.sampled.LineListener-backto-nz.ac.vuw.ecs.swen225.gp22.renderer.SFXPlayer" style="stroke:#181818;stroke-width:1.0;stroke-dasharray:7.0,7.0;"/><polygon fill="none" points="108,128.04,115,108.04,122,128.04,108,128.04" style="stroke:#181818;stroke-width:1.0;"/></g><!--MD5=[739a93b42f641e903ab3d7bce97e3d34]
reverse link javax.swing.JPanel to nz.ac.vuw.ecs.swen225.gp22.renderer.SidePanel--><g id="link_javax.swing.JPanel_nz.ac.vuw.ecs.swen225.gp22.renderer.SidePanel"><path codeLine="71" d="M383.18,119.28 C380.11,192.3 373.89,340.01 370.44,421.95 " fill="none" id="javax.swing.JPanel-backto-nz.ac.vuw.ecs.swen225.gp22.renderer.SidePanel" style="stroke:#181818;stroke-width:1.0;"/><polygon fill="none" points="376.19,118.86,384.02,99.17,390.18,119.45,376.19,118.86" style="stroke:#181818;stroke-width:1.0;"/></g><!--MD5=[6c60bc1427a4211bfb9e8192ba5c38b1]
reverse link java.awt.event.ActionListener to nz.ac.vuw.ecs.swen225.gp22.renderer.SidePanel--><g id="link_java.awt.event.ActionListener_nz.ac.vuw.ecs.swen225.gp22.renderer.SidePanel"><path codeLine="72" d="M534.69,118.86 C525.69,125.13 517.26,132.16 510,140 C434.73,221.35 396.3,348.31 379.33,421.89 " fill="none" id="java.awt.event.ActionListener-backto-nz.ac.vuw.ecs.swen225.gp22.renderer.SidePanel" style="stroke:#181818;stroke-width:1.0;stroke-dasharray:7.0,7.0;"/><polygon fill="none" points="531.26,112.74,551.93,108.06,538.7,124.6,531.26,112.74" style="stroke:#181818;stroke-width:1.0;"/></g><!--MD5=[e68ed371e475302317ec86297666a0ec]
reverse link javax.swing.JPanel to nz.ac.vuw.ecs.swen225.gp22.renderer.Viewport--><g id="link_javax.swing.JPanel_nz.ac.vuw.ecs.swen225.gp22.renderer.Viewport"><path codeLine="73" d="M440.07,103.94 C473.26,120.82 509.29,139.23 510,140 C585.27,221.35 623.7,348.31 640.67,421.89 " fill="none" id="javax.swing.JPanel-backto-nz.ac.vuw.ecs.swen225.gp22.renderer.Viewport" style="stroke:#181818;stroke-width:1.0;"/><polygon fill="none" points="436.83,110.14,422.17,94.84,443.17,97.66,436.83,110.14" style="stroke:#181818;stroke-width:1.0;"/></g><!--MD5=[c7110143acce2b7071751601c3ade72e]
reverse link java.awt.event.ActionListener to nz.ac.vuw.ecs.swen225.gp22.renderer.Viewport--><g id="link_java.awt.event.ActionListener_nz.ac.vuw.ecs.swen225.gp22.renderer.Viewport"><path codeLine="74" d="M637.21,128.44 C640.39,204.02 646.24,343.08 649.55,421.76 " fill="none" id="java.awt.event.ActionListener-backto-nz.ac.vuw.ecs.swen225.gp22.renderer.Viewport" style="stroke:#181818;stroke-width:1.0;stroke-dasharray:7.0,7.0;"/><polygon fill="none" points="630.2,128.32,636.35,108.04,644.18,127.73,630.2,128.32" style="stroke:#181818;stroke-width:1.0;"/></g><rect fill="none" height="12.5781" style="stroke:none;stroke-width:1.0;" width="184" x="498.5" y="961"/><text fill="#888888" font-family="sans-serif" font-size="10" lengthAdjust="spacing" textLength="184" x="498.5" y="971.3809">UMLDoclet 2.0.19, PlantUML 1.2022.8</text><!--MD5=[5256da4f3c75c3f5a894efdf374f0f73]
@startuml
    namespace nz.ac.vuw.ecs.swen225.gp22.renderer {

        enum Img [[Img.html]] {
            {static} +Title
            {static} +BlueKey
            {static} +BlueLockedDoor
            {static} +GreenKey
            {static} +GreenLockedDoor
            {static} +RedKey
            {static} +RedLockedDoor
            {static} +YellowKey
            {static} +YellowLockedDoor
            {static} +FreeTile
            {static} +Exit
            {static} +LockedExit
            {static} +InfoField
            {static} +Level1Info
            {static} +PlayerDown
            {static} +PlayerLeft
            {static} +PlayerRight
            {static} +PlayerUp
            {static} +Treasure
            {static} +Wall
            {static} +BlueKeyNB
            {static} +GreenKeyNB
            {static} +RedKeyNB
            {static} +YellowKeyNB
            {static} +BouncyPadDown
            {static} +BouncyPadLeft
            {static} +BouncyPadRight
            {static} +BouncyPadUp
            {static} +Level2Info
            {static} +MilkPuddle
            +image: BufferedImage
        }

        class SFX [[SFX.html]] {
            +SFX(String)
            +getClip(): Clip
            +getClipName(): String
        }

        enum nz.ac.vuw.ecs.swen225.gp22.renderer.SFX.Sounds [[SFX.Sounds.html]] {
            {static} +Background
            {static} +CollectItem
            {static} +Unlock
        }

        class SFXPlayer [[SFXPlayer.html]] {
            +playSound(SFX, int): void
            +stopSFX(): void
            +update(LineEvent): void
        }

        class SidePanel [[SidePanel.html]] {
            +SidePanel(int, int)
            +setTime(int): void
            +paintComponent(Graphics): void
            +actionPerformed(ActionEvent): void
        }

        class Viewport [[Viewport.html]] {
            +paint(Graphics): void
            +actionPerformed(ActionEvent): void
            +setAction(List<ActionType>): void
            +stopSound(): void
        }

        SFX +- - nz.ac.vuw.ecs.swen225.gp22.renderer.SFX.Sounds
        javax.sound.sampled.LineListener <|.. SFXPlayer
        javax.swing.JPanel <|- - SidePanel
        java.awt.event.ActionListener <|.. SidePanel
        javax.swing.JPanel <|- - Viewport
        java.awt.event.ActionListener <|.. Viewport
    }

    namespace javax.sound.sampled {
        interface LineListener {
            {abstract} +update(LineEvent): void
        }
    }

    namespace javax.swing {
        class JPanel {
        }
    }

    namespace java.awt.event {
        interface ActionListener {
            {abstract} +actionPerformed(ActionEvent): void
        }
    }

    center footer UMLDoclet 2.0.19, PlantUML 1.2022.8
@enduml

PlantUML version 1.2022.8(Sun Sep 25 22:00:33 NZDT 2022)
(APACHE source distribution)
Java Runtime: Java(TM) SE Runtime Environment
JVM: Java HotSpot(TM) 64-Bit Server VM
Default Encoding: Cp1252
Language: en
Country: NZ
--></g></svg>