<?xml version="1.0" encoding="UTF-8" standalone="no"?><svg xmlns="http://www.w3.org/2000/svg" xmlns:xlink="http://www.w3.org/1999/xlink" contentStyleType="text/css" height="260px" preserveAspectRatio="none" style="width:225px;height:260px;background:#FFFFFF;" version="1.1" viewBox="0 0 225 260" width="225px" zoomAndPan="magnify"><defs/><g><!--MD5=[ef65c5b2094f9252bbb5ee8b648a3f04]
class nz.ac.vuw.ecs.swen225.gp22.renderer.SFXPlayer--><a href="SFXPlayer.html" target="_top" title="SFXPlayer.html" xlink:actuate="onRequest" xlink:href="SFXPlayer.html" xlink:show="new" xlink:title="SFXPlayer.html" xlink:type="simple"><g id="elem_nz.ac.vuw.ecs.swen225.gp22.renderer.SFXPlayer"><rect codeLine="5" fill="#F1F1F1" height="101.0156" id="nz.ac.vuw.ecs.swen225.gp22.renderer.SFXPlayer" rx="2.5" ry="2.5" style="stroke:#181818;stroke-width:0.5;" width="211" x="7" y="133"/><ellipse cx="22" cy="153.0938" fill="#ADD1B2" rx="11" ry="11" style="stroke:#181818;stroke-width:1.0;"/><path d="M24.7656,148.9688 Q24.9219,148.75 25.1094,148.6406 Q25.2969,148.5313 25.5156,148.5313 Q25.8906,148.5313 26.125,148.7969 Q26.3594,149.0469 26.3594,149.6563 L26.3594,151.1094 Q26.3594,151.7188 26.125,151.9844 Q25.8906,152.25 25.5156,152.25 Q25.1719,152.25 24.9688,152.0469 Q24.7656,151.8594 24.6563,151.3438 Q24.6094,150.9844 24.4219,150.7969 Q24.0938,150.4219 23.4844,150.2031 Q22.875,149.9844 22.25,149.9844 Q21.4844,149.9844 20.8438,150.3125 Q20.2188,150.6406 19.7188,151.3906 Q19.2344,152.1406 19.2344,153.1719 L19.2344,154.2656 Q19.2344,155.5 20.125,156.3281 Q21.0156,157.1406 22.6094,157.1406 Q23.5469,157.1406 24.2031,156.8906 Q24.5938,156.7344 25.0156,156.2969 Q25.2813,156.0313 25.4219,155.9531 Q25.5781,155.875 25.7813,155.875 Q26.1094,155.875 26.3594,156.1406 Q26.625,156.3906 26.625,156.7344 Q26.625,157.0781 26.2813,157.4844 Q25.7813,158.0625 24.9844,158.3906 Q23.9063,158.8438 22.6094,158.8438 Q21.0938,158.8438 19.8906,158.2188 Q18.9063,157.7188 18.2188,156.6563 Q17.5313,155.5781 17.5313,154.2969 L17.5313,153.1406 Q17.5313,151.8125 18.1406,150.6719 Q18.7656,149.5156 19.8594,148.9063 Q20.9531,148.2813 22.1875,148.2813 Q22.9219,148.2813 23.5625,148.4531 Q24.2188,148.6094 24.7656,148.9688 Z " fill="#000000"/><text fill="#000000" font-family="sans-serif" font-size="14" lengthAdjust="spacing" textLength="66" x="92.5" y="152.5332">SFXPlayer</text><text fill="#000000" font-family="sans-serif" font-size="10" lengthAdjust="spacing" textLength="179" x="36" y="165.9902">nz.ac.vuw.ecs.swen225.gp22.renderer</text><line style="stroke:#181818;stroke-width:0.5;" x1="8" x2="217" y1="173.1875" y2="173.1875"/><ellipse cx="18" cy="187.4922" fill="#84BE84" rx="3" ry="3" style="stroke:#038048;stroke-width:1.0;"/><text fill="#000000" font-family="sans-serif" font-size="14" lengthAdjust="spacing" textLength="160" x="27" y="191.7207">playSound(SFX, int): void</text><ellipse cx="18" cy="205.1016" fill="#84BE84" rx="3" ry="3" style="stroke:#038048;stroke-width:1.0;"/><text fill="#000000" font-family="sans-serif" font-size="14" lengthAdjust="spacing" textLength="97" x="27" y="209.3301">stopSFX(): void</text><ellipse cx="18" cy="222.7109" fill="#84BE84" rx="3" ry="3" style="stroke:#038048;stroke-width:1.0;"/><text fill="#000000" font-family="sans-serif" font-size="14" lengthAdjust="spacing" textLength="151" x="27" y="226.9395">update(LineEvent): void</text></g></a><!--MD5=[e46b5534ef4dffd37a684082811fb8c6]
class javax.sound.sampled.LineListener--><g id="elem_javax.sound.sampled.LineListener"><rect codeLine="11" fill="#F1F1F1" height="65.7969" id="javax.sound.sampled.LineListener" rx="2.5" ry="2.5" style="stroke:#181818;stroke-width:0.5;" width="175" x="25" y="7"/><ellipse cx="60.25" cy="27.0938" fill="#B4A7E5" rx="11" ry="11" style="stroke:#181818;stroke-width:1.0;"/><path d="M61.2031,23.7344 L61.2031,30.3906 L62.9219,30.3906 Q63.5313,30.3906 63.7969,30.625 Q64.0625,30.8594 64.0625,31.25 Q64.0625,31.625 63.7969,31.8594 Q63.5313,32.0938 62.9219,32.0938 L57.7813,32.0938 Q57.1719,32.0938 56.9063,31.8594 Q56.6406,31.625 56.6406,31.2344 Q56.6406,30.8594 56.9063,30.625 Q57.1719,30.3906 57.7813,30.3906 L59.5,30.3906 L59.5,23.7344 L57.7813,23.7344 Q57.1719,23.7344 56.9063,23.5 Q56.6406,23.2656 56.6406,22.875 Q56.6406,22.5 56.9063,22.2656 Q57.1719,22.0313 57.7813,22.0313 L62.9219,22.0313 Q63.5313,22.0313 63.7969,22.2656 Q64.0625,22.5 64.0625,22.875 Q64.0625,23.2656 63.7969,23.5 Q63.5313,23.7344 62.9219,23.7344 L61.2031,23.7344 Z " fill="#000000"/><text fill="#000000" font-family="sans-serif" font-size="14" font-style="italic" lengthAdjust="spacing" textLength="78" x="88.75" y="26.5332">LineListener</text><text fill="#000000" font-family="sans-serif" font-size="10" font-style="italic" lengthAdjust="spacing" textLength="98" x="78.75" y="39.9902">javax.sound.sampled</text><line style="stroke:#181818;stroke-width:0.5;" x1="26" x2="199" y1="47.1875" y2="47.1875"/><ellipse cx="36" cy="61.4922" fill="#84BE84" rx="3" ry="3" style="stroke:#038048;stroke-width:1.0;"/><text fill="#000000" font-family="sans-serif" font-size="14" font-style="italic" lengthAdjust="spacing" textLength="149" x="45" y="65.7207">update(LineEvent): void</text></g><!--MD5=[293a3ce7f1622c403ffc4468fe81cab9]
reverse link javax.sound.sampled.LineListener to nz.ac.vuw.ecs.swen225.gp22.renderer.SFXPlayer--><g id="link_javax.sound.sampled.LineListener_nz.ac.vuw.ecs.swen225.gp22.renderer.SFXPlayer"><path codeLine="15" d="M112.5,93.56 C112.5,106.38 112.5,120.06 112.5,132.75 " fill="none" id="javax.sound.sampled.LineListener-backto-nz.ac.vuw.ecs.swen225.gp22.renderer.SFXPlayer" style="stroke:#181818;stroke-width:1.0;stroke-dasharray:7.0,7.0;"/><polygon fill="none" points="105.5,93.11,112.5,73.11,119.5,93.11,105.5,93.11" style="stroke:#181818;stroke-width:1.0;"/></g><rect fill="none" height="12.5781" style="stroke:none;stroke-width:1.0;" width="184" x="13.5" y="240.0156"/><text fill="#888888" font-family="sans-serif" font-size="10" lengthAdjust="spacing" textLength="184" x="13.5" y="250.3965">UMLDoclet 2.0.19, PlantUML 1.2022.8</text><!--MD5=[e5a33ee4124ab06d24ac8b87c4576f19]
@startuml
    set namespaceSeparator none
    hide empty fields
    hide empty methods

    class "<size:14>SFXPlayer\n<size:10>nz.ac.vuw.ecs.swen225.gp22.renderer" as nz.ac.vuw.ecs.swen225.gp22.renderer.SFXPlayer [[SFXPlayer.html]] {
        +playSound(SFX, int): void
        +stopSFX(): void
        +update(LineEvent): void
    }

    interface "<size:14>LineListener\n<size:10>javax.sound.sampled" as javax.sound.sampled.LineListener {
        {abstract} +update(LineEvent): void
    }

    javax.sound.sampled.LineListener <|.. nz.ac.vuw.ecs.swen225.gp22.renderer.SFXPlayer

    center footer UMLDoclet 2.0.19, PlantUML 1.2022.8
@enduml

PlantUML version 1.2022.8(Sun Sep 25 22:00:33 NZDT 2022)
(APACHE source distribution)
Java Runtime: Java(TM) SE Runtime Environment
JVM: Java HotSpot(TM) 64-Bit Server VM
Default Encoding: Cp1252
Language: en
Country: NZ
--></g></svg>