<?xml version="1.0" encoding="UTF-8" standalone="no"?><svg xmlns="http://www.w3.org/2000/svg" xmlns:xlink="http://www.w3.org/1999/xlink" contentStyleType="text/css" height="278px" preserveAspectRatio="none" style="width:382px;height:278px;background:#FFFFFF;" version="1.1" viewBox="0 0 382 278" width="382px" zoomAndPan="magnify"><defs/><g><!--MD5=[ebd80f6b5b9a3340a75d090700dbc8ab]
class nz.ac.vuw.ecs.swen225.gp22.renderer.SidePanel--><a href="SidePanel.html" target="_top" title="SidePanel.html" xlink:actuate="onRequest" xlink:href="SidePanel.html" xlink:show="new" xlink:title="SidePanel.html" xlink:type="simple"><g id="elem_nz.ac.vuw.ecs.swen225.gp22.renderer.SidePanel"><rect codeLine="5" fill="#F1F1F1" height="118.625" id="nz.ac.vuw.ecs.swen225.gp22.renderer.SidePanel" rx="2.5" ry="2.5" style="stroke:#181818;stroke-width:0.5;" width="249" x="26.5" y="133"/><ellipse cx="58.6" cy="153.0938" fill="#ADD1B2" rx="11" ry="11" style="stroke:#181818;stroke-width:1.0;"/><path d="M61.3656,148.9688 Q61.5219,148.75 61.7094,148.6406 Q61.8969,148.5313 62.1156,148.5313 Q62.4906,148.5313 62.725,148.7969 Q62.9594,149.0469 62.9594,149.6563 L62.9594,151.1094 Q62.9594,151.7188 62.725,151.9844 Q62.4906,152.25 62.1156,152.25 Q61.7719,152.25 61.5688,152.0469 Q61.3656,151.8594 61.2563,151.3438 Q61.2094,150.9844 61.0219,150.7969 Q60.6938,150.4219 60.0844,150.2031 Q59.475,149.9844 58.85,149.9844 Q58.0844,149.9844 57.4438,150.3125 Q56.8188,150.6406 56.3188,151.3906 Q55.8344,152.1406 55.8344,153.1719 L55.8344,154.2656 Q55.8344,155.5 56.725,156.3281 Q57.6156,157.1406 59.2094,157.1406 Q60.1469,157.1406 60.8031,156.8906 Q61.1938,156.7344 61.6156,156.2969 Q61.8813,156.0313 62.0219,155.9531 Q62.1781,155.875 62.3813,155.875 Q62.7094,155.875 62.9594,156.1406 Q63.225,156.3906 63.225,156.7344 Q63.225,157.0781 62.8813,157.4844 Q62.3813,158.0625 61.5844,158.3906 Q60.5063,158.8438 59.2094,158.8438 Q57.6938,158.8438 56.4906,158.2188 Q55.5063,157.7188 54.8188,156.6563 Q54.1313,155.5781 54.1313,154.2969 L54.1313,153.1406 Q54.1313,151.8125 54.7406,150.6719 Q55.3656,149.5156 56.4594,148.9063 Q57.5531,148.2813 58.7875,148.2813 Q59.5219,148.2813 60.1625,148.4531 Q60.8188,148.6094 61.3656,148.9688 Z " fill="#000000"/><text fill="#000000" font-family="sans-serif" font-size="14" lengthAdjust="spacing" textLength="64" x="133.9" y="152.5332">SidePanel</text><text fill="#000000" font-family="sans-serif" font-size="10" lengthAdjust="spacing" textLength="179" x="76.4" y="165.9902">nz.ac.vuw.ecs.swen225.gp22.renderer</text><line style="stroke:#181818;stroke-width:0.5;" x1="27.5" x2="274.5" y1="173.1875" y2="173.1875"/><ellipse cx="37.5" cy="187.4922" fill="#84BE84" rx="3" ry="3" style="stroke:#038048;stroke-width:1.0;"/><text fill="#000000" font-family="sans-serif" font-size="14" lengthAdjust="spacing" textLength="112" x="46.5" y="191.7207">SidePanel(int, int)</text><ellipse cx="37.5" cy="205.1016" fill="#84BE84" rx="3" ry="3" style="stroke:#038048;stroke-width:1.0;"/><text fill="#000000" font-family="sans-serif" font-size="14" lengthAdjust="spacing" textLength="109" x="46.5" y="209.3301">setTime(int): void</text><ellipse cx="37.5" cy="222.7109" fill="#84BE84" rx="3" ry="3" style="stroke:#038048;stroke-width:1.0;"/><text fill="#000000" font-family="sans-serif" font-size="14" lengthAdjust="spacing" textLength="205" x="46.5" y="226.9395">paintComponent(Graphics): void</text><ellipse cx="37.5" cy="240.3203" fill="#84BE84" rx="3" ry="3" style="stroke:#038048;stroke-width:1.0;"/><text fill="#000000" font-family="sans-serif" font-size="14" lengthAdjust="spacing" textLength="223" x="46.5" y="244.5488">actionPerformed(ActionEvent): void</text></g></a><!--MD5=[56a185cb33bdc7c23303e5865f20a19b]
class javax.swing.JPanel--><g id="elem_javax.swing.JPanel"><rect codeLine="12" fill="#F1F1F1" height="40.1875" id="javax.swing.JPanel" rx="2.5" ry="2.5" style="stroke:#181818;stroke-width:0.5;" width="86" x="7" y="20"/><ellipse cx="22" cy="40.0938" fill="#ADD1B2" rx="11" ry="11" style="stroke:#181818;stroke-width:1.0;"/><path d="M24.7656,35.9688 Q24.9219,35.75 25.1094,35.6406 Q25.2969,35.5313 25.5156,35.5313 Q25.8906,35.5313 26.125,35.7969 Q26.3594,36.0469 26.3594,36.6563 L26.3594,38.1094 Q26.3594,38.7188 26.125,38.9844 Q25.8906,39.25 25.5156,39.25 Q25.1719,39.25 24.9688,39.0469 Q24.7656,38.8594 24.6563,38.3438 Q24.6094,37.9844 24.4219,37.7969 Q24.0938,37.4219 23.4844,37.2031 Q22.875,36.9844 22.25,36.9844 Q21.4844,36.9844 20.8438,37.3125 Q20.2188,37.6406 19.7188,38.3906 Q19.2344,39.1406 19.2344,40.1719 L19.2344,41.2656 Q19.2344,42.5 20.125,43.3281 Q21.0156,44.1406 22.6094,44.1406 Q23.5469,44.1406 24.2031,43.8906 Q24.5938,43.7344 25.0156,43.2969 Q25.2813,43.0313 25.4219,42.9531 Q25.5781,42.875 25.7813,42.875 Q26.1094,42.875 26.3594,43.1406 Q26.625,43.3906 26.625,43.7344 Q26.625,44.0781 26.2813,44.4844 Q25.7813,45.0625 24.9844,45.3906 Q23.9063,45.8438 22.6094,45.8438 Q21.0938,45.8438 19.8906,45.2188 Q18.9063,44.7188 18.2188,43.6563 Q17.5313,42.5781 17.5313,41.2969 L17.5313,40.1406 Q17.5313,38.8125 18.1406,37.6719 Q18.7656,36.5156 19.8594,35.9063 Q20.9531,35.2813 22.1875,35.2813 Q22.9219,35.2813 23.5625,35.4531 Q24.2188,35.6094 24.7656,35.9688 Z " fill="#000000"/><text fill="#000000" font-family="sans-serif" font-size="14" lengthAdjust="spacing" textLength="42" x="42" y="39.5332">JPanel</text><text fill="#000000" font-family="sans-serif" font-size="10" lengthAdjust="spacing" textLength="54" x="36" y="52.9902">javax.swing</text></g><!--MD5=[6631281fcee7fc541b441b6c950a0fa0]
class java.awt.event.ActionListener--><g id="elem_java.awt.event.ActionListener"><rect codeLine="13" fill="#F1F1F1" height="65.7969" id="java.awt.event.ActionListener" rx="2.5" ry="2.5" style="stroke:#181818;stroke-width:0.5;" width="247" x="128.5" y="7"/><ellipse cx="202.75" cy="27.0938" fill="#B4A7E5" rx="11" ry="11" style="stroke:#181818;stroke-width:1.0;"/><path d="M203.7031,23.7344 L203.7031,30.3906 L205.4219,30.3906 Q206.0313,30.3906 206.2969,30.625 Q206.5625,30.8594 206.5625,31.25 Q206.5625,31.625 206.2969,31.8594 Q206.0313,32.0938 205.4219,32.0938 L200.2813,32.0938 Q199.6719,32.0938 199.4063,31.8594 Q199.1406,31.625 199.1406,31.2344 Q199.1406,30.8594 199.4063,30.625 Q199.6719,30.3906 200.2813,30.3906 L202,30.3906 L202,23.7344 L200.2813,23.7344 Q199.6719,23.7344 199.4063,23.5 Q199.1406,23.2656 199.1406,22.875 Q199.1406,22.5 199.4063,22.2656 Q199.6719,22.0313 200.2813,22.0313 L205.4219,22.0313 Q206.0313,22.0313 206.2969,22.2656 Q206.5625,22.5 206.5625,22.875 Q206.5625,23.2656 206.2969,23.5 Q206.0313,23.7344 205.4219,23.7344 L203.7031,23.7344 Z " fill="#000000"/><text fill="#000000" font-family="sans-serif" font-size="14" font-style="italic" lengthAdjust="spacing" textLength="90" x="223.25" y="26.5332">ActionListener</text><text fill="#000000" font-family="sans-serif" font-size="10" font-style="italic" lengthAdjust="spacing" textLength="68" x="234.25" y="39.9902">java.awt.event</text><line style="stroke:#181818;stroke-width:0.5;" x1="129.5" x2="374.5" y1="47.1875" y2="47.1875"/><ellipse cx="139.5" cy="61.4922" fill="#84BE84" rx="3" ry="3" style="stroke:#038048;stroke-width:1.0;"/><text fill="#000000" font-family="sans-serif" font-size="14" font-style="italic" lengthAdjust="spacing" textLength="221" x="148.5" y="65.7207">actionPerformed(ActionEvent): void</text></g><!--MD5=[739a93b42f641e903ab3d7bce97e3d34]
reverse link javax.swing.JPanel to nz.ac.vuw.ecs.swen225.gp22.renderer.SidePanel--><g id="link_javax.swing.JPanel_nz.ac.vuw.ecs.swen225.gp22.renderer.SidePanel"><path codeLine="17" d="M74.04,76.82 C85.25,93.52 98.88,113.83 111.54,132.69 " fill="none" id="javax.swing.JPanel-backto-nz.ac.vuw.ecs.swen225.gp22.renderer.SidePanel" style="stroke:#181818;stroke-width:1.0;"/><polygon fill="none" points="68.12,80.57,62.79,60.06,79.75,72.77,68.12,80.57" style="stroke:#181818;stroke-width:1.0;"/></g><!--MD5=[6c60bc1427a4211bfb9e8192ba5c38b1]
reverse link java.awt.event.ActionListener to nz.ac.vuw.ecs.swen225.gp22.renderer.SidePanel--><g id="link_java.awt.event.ActionListener_nz.ac.vuw.ecs.swen225.gp22.renderer.SidePanel"><path codeLine="18" d="M218.95,90.25 C209.81,103.86 199.81,118.77 190.36,132.85 " fill="none" id="java.awt.event.ActionListener-backto-nz.ac.vuw.ecs.swen225.gp22.renderer.SidePanel" style="stroke:#181818;stroke-width:1.0;stroke-dasharray:7.0,7.0;"/><polygon fill="none" points="213.38,85.99,230.33,73.29,225,93.79,213.38,85.99" style="stroke:#181818;stroke-width:1.0;"/></g><rect fill="none" height="12.5781" style="stroke:none;stroke-width:1.0;" width="184" x="92.25" y="257.625"/><text fill="#888888" font-family="sans-serif" font-size="10" lengthAdjust="spacing" textLength="184" x="92.25" y="268.0059">UMLDoclet 2.0.19, PlantUML 1.2022.8</text><!--MD5=[dbc8c387f3f6bbc1ce37c2be0fdbe317]
@startuml
    set namespaceSeparator none
    hide empty fields
    hide empty methods

    class "<size:14>SidePanel\n<size:10>nz.ac.vuw.ecs.swen225.gp22.renderer" as nz.ac.vuw.ecs.swen225.gp22.renderer.SidePanel [[SidePanel.html]] {
        +SidePanel(int, int)
        +setTime(int): void
        +paintComponent(Graphics): void
        +actionPerformed(ActionEvent): void
    }

    class "<size:14>JPanel\n<size:10>javax.swing" as javax.swing.JPanel
    interface "<size:14>ActionListener\n<size:10>java.awt.event" as java.awt.event.ActionListener {
        {abstract} +actionPerformed(ActionEvent): void
    }

    javax.swing.JPanel <|- - nz.ac.vuw.ecs.swen225.gp22.renderer.SidePanel
    java.awt.event.ActionListener <|.. nz.ac.vuw.ecs.swen225.gp22.renderer.SidePanel

    center footer UMLDoclet 2.0.19, PlantUML 1.2022.8
@enduml

PlantUML version 1.2022.8(Sun Sep 25 22:00:33 NZDT 2022)
(APACHE source distribution)
Java Runtime: Java(TM) SE Runtime Environment
JVM: Java HotSpot(TM) 64-Bit Server VM
Default Encoding: Cp1252
Language: en
Country: NZ
--></g></svg>