<?xml version="1.0" encoding="UTF-8" standalone="no"?><svg xmlns="http://www.w3.org/2000/svg" xmlns:xlink="http://www.w3.org/1999/xlink" contentStyleType="text/css" height="223px" preserveAspectRatio="none" style="width:272px;height:223px;background:#FFFFFF;" version="1.1" viewBox="0 0 272 223" width="272px" zoomAndPan="magnify"><defs/><g><!--MD5=[2ee2b58f08ffe3ea70d54ec43aa1f7f7]
class nz.ac.vuw.ecs.swen225.gp22.persistency.Load--><a href="Load.html" target="_top" title="Load.html" xlink:actuate="onRequest" xlink:href="Load.html" xlink:show="new" xlink:title="Load.html" xlink:type="simple"><g id="elem_nz.ac.vuw.ecs.swen225.gp22.persistency.Load"><rect codeLine="5" fill="#F1F1F1" height="189.0625" id="nz.ac.vuw.ecs.swen225.gp22.persistency.Load" rx="2.5" ry="2.5" style="stroke:#181818;stroke-width:0.5;" width="251" x="7" y="7"/><ellipse cx="34.15" cy="27.0938" fill="#ADD1B2" rx="11" ry="11" style="stroke:#181818;stroke-width:1.0;"/><path d="M36.9156,22.9688 Q37.0719,22.75 37.2594,22.6406 Q37.4469,22.5313 37.6656,22.5313 Q38.0406,22.5313 38.275,22.7969 Q38.5094,23.0469 38.5094,23.6563 L38.5094,25.1094 Q38.5094,25.7188 38.275,25.9844 Q38.0406,26.25 37.6656,26.25 Q37.3219,26.25 37.1188,26.0469 Q36.9156,25.8594 36.8063,25.3438 Q36.7594,24.9844 36.5719,24.7969 Q36.2438,24.4219 35.6344,24.2031 Q35.025,23.9844 34.4,23.9844 Q33.6344,23.9844 32.9938,24.3125 Q32.3688,24.6406 31.8688,25.3906 Q31.3844,26.1406 31.3844,27.1719 L31.3844,28.2656 Q31.3844,29.5 32.275,30.3281 Q33.1656,31.1406 34.7594,31.1406 Q35.6969,31.1406 36.3531,30.8906 Q36.7438,30.7344 37.1656,30.2969 Q37.4313,30.0313 37.5719,29.9531 Q37.7281,29.875 37.9313,29.875 Q38.2594,29.875 38.5094,30.1406 Q38.775,30.3906 38.775,30.7344 Q38.775,31.0781 38.4313,31.4844 Q37.9313,32.0625 37.1344,32.3906 Q36.0563,32.8438 34.7594,32.8438 Q33.2438,32.8438 32.0406,32.2188 Q31.0563,31.7188 30.3688,30.6563 Q29.6813,29.5781 29.6813,28.2969 L29.6813,27.1406 Q29.6813,25.8125 30.2906,24.6719 Q30.9156,23.5156 32.0094,22.9063 Q33.1031,22.2813 34.3375,22.2813 Q35.0719,22.2813 35.7125,22.4531 Q36.3688,22.6094 36.9156,22.9688 Z " fill="#000000"/><text fill="#000000" font-family="sans-serif" font-size="14" lengthAdjust="spacing" textLength="32" x="130.85" y="26.5332">Load</text><text fill="#000000" font-family="sans-serif" font-size="10" lengthAdjust="spacing" textLength="192" x="50.85" y="39.9902">nz.ac.vuw.ecs.swen225.gp22.persistency</text><line style="stroke:#181818;stroke-width:0.5;" x1="8" x2="257" y1="47.1875" y2="47.1875"/><ellipse cx="18" cy="61.4922" fill="#84BE84" rx="3" ry="3" style="stroke:#038048;stroke-width:1.0;"/><text fill="#000000" font-family="sans-serif" font-size="14" lengthAdjust="spacing" text-decoration="underline" textLength="129" x="27" y="65.7207">resumeGame(): void</text><ellipse cx="18" cy="79.1016" fill="#84BE84" rx="3" ry="3" style="stroke:#038048;stroke-width:1.0;"/><text fill="#000000" font-family="sans-serif" font-size="14" lengthAdjust="spacing" text-decoration="underline" textLength="120" x="27" y="83.3301">loadLevel(int): void</text><ellipse cx="18" cy="96.7109" fill="#84BE84" rx="3" ry="3" style="stroke:#038048;stroke-width:1.0;"/><text fill="#000000" font-family="sans-serif" font-size="14" lengthAdjust="spacing" text-decoration="underline" textLength="210" x="27" y="100.9395">previousGamePresent(): boolean</text><ellipse cx="18" cy="114.3203" fill="#84BE84" rx="3" ry="3" style="stroke:#038048;stroke-width:1.0;"/><text fill="#000000" font-family="sans-serif" font-size="14" lengthAdjust="spacing" text-decoration="underline" textLength="136" x="27" y="118.5488">previousGame(): void</text><ellipse cx="18" cy="131.9297" fill="#84BE84" rx="3" ry="3" style="stroke:#038048;stroke-width:1.0;"/><text fill="#000000" font-family="sans-serif" font-size="14" lengthAdjust="spacing" text-decoration="underline" textLength="170" x="27" y="136.1582">previousGameInfo(): String</text><ellipse cx="18" cy="149.5391" fill="#84BE84" rx="3" ry="3" style="stroke:#038048;stroke-width:1.0;"/><text fill="#000000" font-family="sans-serif" font-size="14" lengthAdjust="spacing" text-decoration="underline" textLength="225" x="27" y="153.7676">getClassLoader(): URLClassLoader</text><ellipse cx="18" cy="167.1484" fill="#84BE84" rx="3" ry="3" style="stroke:#038048;stroke-width:1.0;"/><text fill="#000000" font-family="sans-serif" font-size="14" lengthAdjust="spacing" text-decoration="underline" textLength="218" x="27" y="171.377">continueGame(File, boolean): void</text><ellipse cx="18" cy="184.7578" fill="#84BE84" rx="3" ry="3" style="stroke:#038048;stroke-width:1.0;"/><text fill="#000000" font-family="sans-serif" font-size="14" lengthAdjust="spacing" text-decoration="underline" textLength="121" x="27" y="188.9863">getFile(String): File</text></g></a><rect fill="none" height="12.5781" style="stroke:none;stroke-width:1.0;" width="184" x="40" y="203.0625"/><text fill="#888888" font-family="sans-serif" font-size="10" lengthAdjust="spacing" textLength="184" x="40" y="213.4434">UMLDoclet 2.0.19, PlantUML 1.2022.8</text><!--MD5=[736f35b815947dba85ce0b271ca2ff06]
@startuml
    set namespaceSeparator none
    hide empty fields
    hide empty methods

    class "<size:14>Load\n<size:10>nz.ac.vuw.ecs.swen225.gp22.persistency" as nz.ac.vuw.ecs.swen225.gp22.persistency.Load [[Load.html]] {
        {static} +resumeGame(): void
        {static} +loadLevel(int): void
        {static} +previousGamePresent(): boolean
        {static} +previousGame(): void
        {static} +previousGameInfo(): String
        {static} +getClassLoader(): URLClassLoader
        {static} +continueGame(File, boolean): void
        {static} +getFile(String): File
    }

    center footer UMLDoclet 2.0.19, PlantUML 1.2022.8
@enduml

PlantUML version 1.2022.8(Sun Sep 25 22:00:33 NZDT 2022)
(APACHE source distribution)
Java Runtime: Java(TM) SE Runtime Environment
JVM: Java HotSpot(TM) 64-Bit Server VM
Default Encoding: Cp1252
Language: en
Country: NZ
--></g></svg>