<?xml version="1.0" encoding="UTF-8" standalone="no"?><svg xmlns="http://www.w3.org/2000/svg" xmlns:xlink="http://www.w3.org/1999/xlink" contentStyleType="text/css" height="241px" preserveAspectRatio="none" style="width:297px;height:241px;background:#FFFFFF;" version="1.1" viewBox="0 0 297 241" width="297px" zoomAndPan="magnify"><defs/><g><!--MD5=[fa028e93986236b575ae471cbbdfabb3]
class nz.ac.vuw.ecs.swen225.gp22.persistency.LoadTest--><a href="LoadTest.html" target="_top" title="LoadTest.html" xlink:actuate="onRequest" xlink:href="LoadTest.html" xlink:show="new" xlink:title="LoadTest.html" xlink:type="simple"><g id="elem_nz.ac.vuw.ecs.swen225.gp22.persistency.LoadTest"><rect codeLine="5" fill="#F1F1F1" height="206.6719" id="nz.ac.vuw.ecs.swen225.gp22.persistency.LoadTest" rx="2.5" ry="2.5" style="stroke:#181818;stroke-width:0.5;" width="276" x="7" y="7"/><ellipse cx="45.4" cy="27.0938" fill="#ADD1B2" rx="11" ry="11" style="stroke:#181818;stroke-width:1.0;"/><path d="M48.1656,22.9688 Q48.3219,22.75 48.5094,22.6406 Q48.6969,22.5313 48.9156,22.5313 Q49.2906,22.5313 49.525,22.7969 Q49.7594,23.0469 49.7594,23.6563 L49.7594,25.1094 Q49.7594,25.7188 49.525,25.9844 Q49.2906,26.25 48.9156,26.25 Q48.5719,26.25 48.3688,26.0469 Q48.1656,25.8594 48.0563,25.3438 Q48.0094,24.9844 47.8219,24.7969 Q47.4938,24.4219 46.8844,24.2031 Q46.275,23.9844 45.65,23.9844 Q44.8844,23.9844 44.2438,24.3125 Q43.6188,24.6406 43.1188,25.3906 Q42.6344,26.1406 42.6344,27.1719 L42.6344,28.2656 Q42.6344,29.5 43.525,30.3281 Q44.4156,31.1406 46.0094,31.1406 Q46.9469,31.1406 47.6031,30.8906 Q47.9938,30.7344 48.4156,30.2969 Q48.6813,30.0313 48.8219,29.9531 Q48.9781,29.875 49.1813,29.875 Q49.5094,29.875 49.7594,30.1406 Q50.025,30.3906 50.025,30.7344 Q50.025,31.0781 49.6813,31.4844 Q49.1813,32.0625 48.3844,32.3906 Q47.3063,32.8438 46.0094,32.8438 Q44.4938,32.8438 43.2906,32.2188 Q42.3063,31.7188 41.6188,30.6563 Q40.9313,29.5781 40.9313,28.2969 L40.9313,27.1406 Q40.9313,25.8125 41.5406,24.6719 Q42.1656,23.5156 43.2594,22.9063 Q44.3531,22.2813 45.5875,22.2813 Q46.3219,22.2813 46.9625,22.4531 Q47.6188,22.6094 48.1656,22.9688 Z " fill="#000000"/><text fill="#000000" font-family="sans-serif" font-size="14" lengthAdjust="spacing" textLength="60" x="130.6" y="26.5332">LoadTest</text><text fill="#000000" font-family="sans-serif" font-size="10" lengthAdjust="spacing" textLength="192" x="64.6" y="39.9902">nz.ac.vuw.ecs.swen225.gp22.persistency</text><line style="stroke:#181818;stroke-width:0.5;" x1="8" x2="282" y1="47.1875" y2="47.1875"/><ellipse cx="18" cy="61.4922" fill="#84BE84" rx="3" ry="3" style="stroke:#038048;stroke-width:1.0;"/><text fill="#000000" font-family="sans-serif" font-size="14" lengthAdjust="spacing" textLength="105" x="27" y="65.7207">loadLevel(): void</text><ellipse cx="18" cy="79.1016" fill="#84BE84" rx="3" ry="3" style="stroke:#038048;stroke-width:1.0;"/><text fill="#000000" font-family="sans-serif" font-size="14" lengthAdjust="spacing" textLength="87" x="27" y="83.3301">getFile(): void</text><ellipse cx="18" cy="96.7109" fill="#84BE84" rx="3" ry="3" style="stroke:#038048;stroke-width:1.0;"/><text fill="#000000" font-family="sans-serif" font-size="14" lengthAdjust="spacing" textLength="223" x="27" y="100.9395">checkPreviousGamePresent(): void</text><ellipse cx="18" cy="114.3203" fill="#84BE84" rx="3" ry="3" style="stroke:#038048;stroke-width:1.0;"/><text fill="#000000" font-family="sans-serif" font-size="14" lengthAdjust="spacing" textLength="244" x="27" y="118.5488">checkPreviousGameNotPresent(): void</text><ellipse cx="18" cy="131.9297" fill="#84BE84" rx="3" ry="3" style="stroke:#038048;stroke-width:1.0;"/><text fill="#000000" font-family="sans-serif" font-size="14" lengthAdjust="spacing" textLength="164" x="27" y="136.1582">loadPreviousGame(): void</text><ellipse cx="18" cy="149.5391" fill="#84BE84" rx="3" ry="3" style="stroke:#038048;stroke-width:1.0;"/><text fill="#000000" font-family="sans-serif" font-size="14" lengthAdjust="spacing" textLength="234" x="27" y="153.7676">loadPreviousGameNotPresent(): void</text><ellipse cx="18" cy="167.1484" fill="#84BE84" rx="3" ry="3" style="stroke:#038048;stroke-width:1.0;"/><text fill="#000000" font-family="sans-serif" font-size="14" lengthAdjust="spacing" textLength="180" x="27" y="171.377">getPreviousGameInfo(): void</text><ellipse cx="18" cy="184.7578" fill="#84BE84" rx="3" ry="3" style="stroke:#038048;stroke-width:1.0;"/><text fill="#000000" font-family="sans-serif" font-size="14" lengthAdjust="spacing" textLength="250" x="27" y="188.9863">getPreviousGameInfoNotPresent(): void</text><ellipse cx="18" cy="202.3672" fill="#84BE84" rx="3" ry="3" style="stroke:#038048;stroke-width:1.0;"/><text fill="#000000" font-family="sans-serif" font-size="14" lengthAdjust="spacing" textLength="90" x="27" y="206.5957">loadJar(): void</text></g></a><rect fill="none" height="12.5781" style="stroke:none;stroke-width:1.0;" width="184" x="52.5" y="220.6719"/><text fill="#888888" font-family="sans-serif" font-size="10" lengthAdjust="spacing" textLength="184" x="52.5" y="231.0527">UMLDoclet 2.0.19, PlantUML 1.2022.8</text><!--MD5=[b4a5f65822d6541c28816881c41eea4b]
@startuml
    set namespaceSeparator none
    hide empty fields
    hide empty methods

    class "<size:14>LoadTest\n<size:10>nz.ac.vuw.ecs.swen225.gp22.persistency" as nz.ac.vuw.ecs.swen225.gp22.persistency.LoadTest [[LoadTest.html]] {
        +loadLevel(): void
        +getFile(): void
        +checkPreviousGamePresent(): void
        +checkPreviousGameNotPresent(): void
        +loadPreviousGame(): void
        +loadPreviousGameNotPresent(): void
        +getPreviousGameInfo(): void
        +getPreviousGameInfoNotPresent(): void
        +loadJar(): void
    }

    center footer UMLDoclet 2.0.19, PlantUML 1.2022.8
@enduml

PlantUML version 1.2022.8(Sun Sep 25 22:00:33 NZDT 2022)
(APACHE source distribution)
Java Runtime: Java(TM) SE Runtime Environment
JVM: Java HotSpot(TM) 64-Bit Server VM
Default Encoding: Cp1252
Language: en
Country: NZ
--></g></svg>