<?xml version="1.0" encoding="UTF-8" standalone="no"?><svg xmlns="http://www.w3.org/2000/svg" xmlns:xlink="http://www.w3.org/1999/xlink" contentStyleType="text/css" height="574px" preserveAspectRatio="none" style="width:847px;height:574px;background:#FFFFFF;" version="1.1" viewBox="0 0 847 574" width="847px" zoomAndPan="magnify"><defs/><g><!--MD5=[9f52dd7ce84f1bad0dac5c49c17778b7]
cluster nz.ac.vuw.ecs.swen225.gp22.persistency--><g id="cluster_nz.ac.vuw.ecs.swen225.gp22.persistency"><path d="M8.5,6 L296.5,6 A3.75,3.75 0 0 1 299,8.5 L306,29.6094 L837.5,29.6094 A2.5,2.5 0 0 1 840,32.1094 L840,545.5 A2.5,2.5 0 0 1 837.5,548 L8.5,548 A2.5,2.5 0 0 1 6,545.5 L6,8.5 A2.5,2.5 0 0 1 8.5,6 " fill="none" style="stroke:#000000;stroke-width:1.5;"/><line style="stroke:#000000;stroke-width:1.5;" x1="6" x2="306" y1="29.6094" y2="29.6094"/><text fill="#000000" font-family="sans-serif" font-size="14" font-weight="bold" lengthAdjust="spacing" textLength="287" x="10" y="22.5332">nz.ac.vuw.ecs.swen225.gp22.persistency</text></g><!--MD5=[2ee2b58f08ffe3ea70d54ec43aa1f7f7]
class nz.ac.vuw.ecs.swen225.gp22.persistency.Load--><a href="Load.html" target="_top" title="Load.html" xlink:actuate="onRequest" xlink:href="Load.html" xlink:show="new" xlink:title="Load.html" xlink:type="simple"><g id="elem_nz.ac.vuw.ecs.swen225.gp22.persistency.Load"><rect codeLine="3" fill="#F1F1F1" height="188.875" id="nz.ac.vuw.ecs.swen225.gp22.persistency.Load" rx="2.5" ry="2.5" style="stroke:#181818;stroke-width:0.5;" width="251" x="22.5" y="59.5"/><ellipse cx="127.75" cy="75.5" fill="#ADD1B2" rx="11" ry="11" style="stroke:#181818;stroke-width:1.0;"/><path d="M130.5156,71.375 Q130.6719,71.1563 130.8594,71.0469 Q131.0469,70.9375 131.2656,70.9375 Q131.6406,70.9375 131.875,71.2031 Q132.1094,71.4531 132.1094,72.0625 L132.1094,73.5156 Q132.1094,74.125 131.875,74.3906 Q131.6406,74.6563 131.2656,74.6563 Q130.9219,74.6563 130.7188,74.4531 Q130.5156,74.2656 130.4063,73.75 Q130.3594,73.3906 130.1719,73.2031 Q129.8438,72.8281 129.2344,72.6094 Q128.625,72.3906 128,72.3906 Q127.2344,72.3906 126.5938,72.7188 Q125.9688,73.0469 125.4688,73.7969 Q124.9844,74.5469 124.9844,75.5781 L124.9844,76.6719 Q124.9844,77.9063 125.875,78.7344 Q126.7656,79.5469 128.3594,79.5469 Q129.2969,79.5469 129.9531,79.2969 Q130.3438,79.1406 130.7656,78.7031 Q131.0313,78.4375 131.1719,78.3594 Q131.3281,78.2813 131.5313,78.2813 Q131.8594,78.2813 132.1094,78.5469 Q132.375,78.7969 132.375,79.1406 Q132.375,79.4844 132.0313,79.8906 Q131.5313,80.4688 130.7344,80.7969 Q129.6563,81.25 128.3594,81.25 Q126.8438,81.25 125.6406,80.625 Q124.6563,80.125 123.9688,79.0625 Q123.2813,77.9844 123.2813,76.7031 L123.2813,75.5469 Q123.2813,74.2188 123.8906,73.0781 Q124.5156,71.9219 125.6094,71.3125 Q126.7031,70.6875 127.9375,70.6875 Q128.6719,70.6875 129.3125,70.8594 Q129.9688,71.0156 130.5156,71.375 Z " fill="#000000"/><text fill="#000000" font-family="sans-serif" font-size="14" lengthAdjust="spacing" textLength="32" x="148.25" y="81.2285">Load</text><line style="stroke:#181818;stroke-width:0.5;" x1="23.5" x2="272.5" y1="91.5" y2="91.5"/><line style="stroke:#181818;stroke-width:0.5;" x1="23.5" x2="272.5" y1="99.5" y2="99.5"/><ellipse cx="33.5" cy="113.8047" fill="#84BE84" rx="3" ry="3" style="stroke:#038048;stroke-width:1.0;"/><text fill="#000000" font-family="sans-serif" font-size="14" lengthAdjust="spacing" text-decoration="underline" textLength="129" x="42.5" y="118.0332">resumeGame(): void</text><ellipse cx="33.5" cy="131.4141" fill="#84BE84" rx="3" ry="3" style="stroke:#038048;stroke-width:1.0;"/><text fill="#000000" font-family="sans-serif" font-size="14" lengthAdjust="spacing" text-decoration="underline" textLength="120" x="42.5" y="135.6426">loadLevel(int): void</text><ellipse cx="33.5" cy="149.0234" fill="#84BE84" rx="3" ry="3" style="stroke:#038048;stroke-width:1.0;"/><text fill="#000000" font-family="sans-serif" font-size="14" lengthAdjust="spacing" text-decoration="underline" textLength="210" x="42.5" y="153.252">previousGamePresent(): boolean</text><ellipse cx="33.5" cy="166.6328" fill="#84BE84" rx="3" ry="3" style="stroke:#038048;stroke-width:1.0;"/><text fill="#000000" font-family="sans-serif" font-size="14" lengthAdjust="spacing" text-decoration="underline" textLength="136" x="42.5" y="170.8613">previousGame(): void</text><ellipse cx="33.5" cy="184.2422" fill="#84BE84" rx="3" ry="3" style="stroke:#038048;stroke-width:1.0;"/><text fill="#000000" font-family="sans-serif" font-size="14" lengthAdjust="spacing" text-decoration="underline" textLength="170" x="42.5" y="188.4707">previousGameInfo(): String</text><ellipse cx="33.5" cy="201.8516" fill="#84BE84" rx="3" ry="3" style="stroke:#038048;stroke-width:1.0;"/><text fill="#000000" font-family="sans-serif" font-size="14" lengthAdjust="spacing" text-decoration="underline" textLength="225" x="42.5" y="206.0801">getClassLoader(): URLClassLoader</text><ellipse cx="33.5" cy="219.4609" fill="#84BE84" rx="3" ry="3" style="stroke:#038048;stroke-width:1.0;"/><text fill="#000000" font-family="sans-serif" font-size="14" lengthAdjust="spacing" text-decoration="underline" textLength="218" x="42.5" y="223.6895">continueGame(File, boolean): void</text><ellipse cx="33.5" cy="237.0703" fill="#84BE84" rx="3" ry="3" style="stroke:#038048;stroke-width:1.0;"/><text fill="#000000" font-family="sans-serif" font-size="14" lengthAdjust="spacing" text-decoration="underline" textLength="121" x="42.5" y="241.2988">getFile(String): File</text></g></a><!--MD5=[992c24d502807e25fceb696d67d93950]
class nz.ac.vuw.ecs.swen225.gp22.persistency.Parser--><a href="Parser.html" target="_top" title="Parser.html" xlink:actuate="onRequest" xlink:href="Parser.html" xlink:show="new" xlink:title="Parser.html" xlink:type="simple"><g id="elem_nz.ac.vuw.ecs.swen225.gp22.persistency.Parser"><rect codeLine="14" fill="#F1F1F1" height="224.0938" id="nz.ac.vuw.ecs.swen225.gp22.persistency.Parser" rx="2.5" ry="2.5" style="stroke:#181818;stroke-width:0.5;" width="263" x="308.5" y="42"/><ellipse cx="414.75" cy="58" fill="#ADD1B2" rx="11" ry="11" style="stroke:#181818;stroke-width:1.0;"/><path d="M417.5156,53.875 Q417.6719,53.6563 417.8594,53.5469 Q418.0469,53.4375 418.2656,53.4375 Q418.6406,53.4375 418.875,53.7031 Q419.1094,53.9531 419.1094,54.5625 L419.1094,56.0156 Q419.1094,56.625 418.875,56.8906 Q418.6406,57.1563 418.2656,57.1563 Q417.9219,57.1563 417.7188,56.9531 Q417.5156,56.7656 417.4063,56.25 Q417.3594,55.8906 417.1719,55.7031 Q416.8438,55.3281 416.2344,55.1094 Q415.625,54.8906 415,54.8906 Q414.2344,54.8906 413.5938,55.2188 Q412.9688,55.5469 412.4688,56.2969 Q411.9844,57.0469 411.9844,58.0781 L411.9844,59.1719 Q411.9844,60.4063 412.875,61.2344 Q413.7656,62.0469 415.3594,62.0469 Q416.2969,62.0469 416.9531,61.7969 Q417.3438,61.6406 417.7656,61.2031 Q418.0313,60.9375 418.1719,60.8594 Q418.3281,60.7813 418.5313,60.7813 Q418.8594,60.7813 419.1094,61.0469 Q419.375,61.2969 419.375,61.6406 Q419.375,61.9844 419.0313,62.3906 Q418.5313,62.9688 417.7344,63.2969 Q416.6563,63.75 415.3594,63.75 Q413.8438,63.75 412.6406,63.125 Q411.6563,62.625 410.9688,61.5625 Q410.2813,60.4844 410.2813,59.2031 L410.2813,58.0469 Q410.2813,56.7188 410.8906,55.5781 Q411.5156,54.4219 412.6094,53.8125 Q413.7031,53.1875 414.9375,53.1875 Q415.6719,53.1875 416.3125,53.3594 Q416.9688,53.5156 417.5156,53.875 Z " fill="#000000"/><text fill="#000000" font-family="sans-serif" font-size="14" lengthAdjust="spacing" textLength="42" x="435.25" y="63.7285">Parser</text><line style="stroke:#181818;stroke-width:0.5;" x1="309.5" x2="570.5" y1="74" y2="74"/><line style="stroke:#181818;stroke-width:0.5;" x1="309.5" x2="570.5" y1="82" y2="82"/><ellipse cx="319.5" cy="96.3047" fill="#84BE84" rx="3" ry="3" style="stroke:#038048;stroke-width:1.0;"/><text fill="#000000" font-family="sans-serif" font-size="14" lengthAdjust="spacing" textLength="75" x="328.5" y="100.5332">Parser(File)</text><ellipse cx="319.5" cy="113.9141" fill="#84BE84" rx="3" ry="3" style="stroke:#038048;stroke-width:1.0;"/><text fill="#000000" font-family="sans-serif" font-size="14" lengthAdjust="spacing" textLength="130" x="328.5" y="118.1426">parseMapInfo(): void</text><ellipse cx="319.5" cy="131.5234" fill="#84BE84" rx="3" ry="3" style="stroke:#038048;stroke-width:1.0;"/><text fill="#000000" font-family="sans-serif" font-size="14" lengthAdjust="spacing" textLength="84" x="328.5" y="135.752">getTime(): int</text><ellipse cx="319.5" cy="149.1328" fill="#84BE84" rx="3" ry="3" style="stroke:#038048;stroke-width:1.0;"/><text fill="#000000" font-family="sans-serif" font-size="14" lengthAdjust="spacing" textLength="171" x="328.5" y="153.3613">getNumKeysCollected(): int</text><ellipse cx="319.5" cy="166.7422" fill="#84BE84" rx="3" ry="3" style="stroke:#038048;stroke-width:1.0;"/><text fill="#000000" font-family="sans-serif" font-size="14" lengthAdjust="spacing" textLength="87" x="328.5" y="170.9707">getLevel(): int</text><ellipse cx="319.5" cy="184.3516" fill="#84BE84" rx="3" ry="3" style="stroke:#038048;stroke-width:1.0;"/><text fill="#000000" font-family="sans-serif" font-size="14" lengthAdjust="spacing" textLength="160" x="328.5" y="188.5801">parsePlayer(Player): void</text><ellipse cx="319.5" cy="201.9609" fill="#84BE84" rx="3" ry="3" style="stroke:#038048;stroke-width:1.0;"/><text fill="#000000" font-family="sans-serif" font-size="14" lengthAdjust="spacing" textLength="237" x="328.5" y="206.1895">parseInventory(Player, Element): void</text><ellipse cx="319.5" cy="219.5703" fill="#84BE84" rx="3" ry="3" style="stroke:#038048;stroke-width:1.0;"/><text fill="#000000" font-family="sans-serif" font-size="14" lengthAdjust="spacing" textLength="163" x="328.5" y="223.7988">entitiesPresent(): boolean</text><ellipse cx="319.5" cy="237.1797" fill="#84BE84" rx="3" ry="3" style="stroke:#038048;stroke-width:1.0;"/><text fill="#000000" font-family="sans-serif" font-size="14" lengthAdjust="spacing" textLength="157" x="328.5" y="241.4082">getEntities(): List&lt;Entity&gt;</text><ellipse cx="319.5" cy="254.7891" fill="#84BE84" rx="3" ry="3" style="stroke:#038048;stroke-width:1.0;"/><text fill="#000000" font-family="sans-serif" font-size="14" lengthAdjust="spacing" textLength="129" x="328.5" y="259.0176">getTiles(): List&lt;Tile&gt;</text></g></a><!--MD5=[fbf0d112c1613fe965b9fdd53f760999]
class nz.ac.vuw.ecs.swen225.gp22.persistency.Save--><a href="Save.html" target="_top" title="Save.html" xlink:actuate="onRequest" xlink:href="Save.html" xlink:show="new" xlink:title="Save.html" xlink:type="simple"><g id="elem_nz.ac.vuw.ecs.swen225.gp22.persistency.Save"><rect codeLine="27" fill="#F1F1F1" height="100.8281" id="nz.ac.vuw.ecs.swen225.gp22.persistency.Save" rx="2.5" ry="2.5" style="stroke:#181818;stroke-width:0.5;" width="217" x="606.5" y="103.5"/><ellipse cx="694.75" cy="119.5" fill="#ADD1B2" rx="11" ry="11" style="stroke:#181818;stroke-width:1.0;"/><path d="M697.5156,115.375 Q697.6719,115.1563 697.8594,115.0469 Q698.0469,114.9375 698.2656,114.9375 Q698.6406,114.9375 698.875,115.2031 Q699.1094,115.4531 699.1094,116.0625 L699.1094,117.5156 Q699.1094,118.125 698.875,118.3906 Q698.6406,118.6563 698.2656,118.6563 Q697.9219,118.6563 697.7188,118.4531 Q697.5156,118.2656 697.4063,117.75 Q697.3594,117.3906 697.1719,117.2031 Q696.8438,116.8281 696.2344,116.6094 Q695.625,116.3906 695,116.3906 Q694.2344,116.3906 693.5938,116.7188 Q692.9688,117.0469 692.4688,117.7969 Q691.9844,118.5469 691.9844,119.5781 L691.9844,120.6719 Q691.9844,121.9063 692.875,122.7344 Q693.7656,123.5469 695.3594,123.5469 Q696.2969,123.5469 696.9531,123.2969 Q697.3438,123.1406 697.7656,122.7031 Q698.0313,122.4375 698.1719,122.3594 Q698.3281,122.2813 698.5313,122.2813 Q698.8594,122.2813 699.1094,122.5469 Q699.375,122.7969 699.375,123.1406 Q699.375,123.4844 699.0313,123.8906 Q698.5313,124.4688 697.7344,124.7969 Q696.6563,125.25 695.3594,125.25 Q693.8438,125.25 692.6406,124.625 Q691.6563,124.125 690.9688,123.0625 Q690.2813,121.9844 690.2813,120.7031 L690.2813,119.5469 Q690.2813,118.2188 690.8906,117.0781 Q691.5156,115.9219 692.6094,115.3125 Q693.7031,114.6875 694.9375,114.6875 Q695.6719,114.6875 696.3125,114.8594 Q696.9688,115.0156 697.5156,115.375 Z " fill="#000000"/><text fill="#000000" font-family="sans-serif" font-size="14" lengthAdjust="spacing" textLength="32" x="715.25" y="125.2285">Save</text><line style="stroke:#181818;stroke-width:0.5;" x1="607.5" x2="822.5" y1="135.5" y2="135.5"/><line style="stroke:#181818;stroke-width:0.5;" x1="607.5" x2="822.5" y1="143.5" y2="143.5"/><ellipse cx="617.5" cy="157.8047" fill="#84BE84" rx="3" ry="3" style="stroke:#038048;stroke-width:1.0;"/><text fill="#000000" font-family="sans-serif" font-size="14" lengthAdjust="spacing" text-decoration="underline" textLength="112" x="626.5" y="162.0332">saveGame(): void</text><ellipse cx="617.5" cy="175.4141" fill="#84BE84" rx="3" ry="3" style="stroke:#038048;stroke-width:1.0;"/><text fill="#000000" font-family="sans-serif" font-size="14" lengthAdjust="spacing" text-decoration="underline" textLength="183" x="626.5" y="179.6426">saveInventory(Element): void</text><ellipse cx="617.5" cy="193.0234" fill="#84BE84" rx="3" ry="3" style="stroke:#038048;stroke-width:1.0;"/><text fill="#000000" font-family="sans-serif" font-size="14" lengthAdjust="spacing" text-decoration="underline" textLength="191" x="626.5" y="197.252">addPoint(Element, Point): void</text></g></a><!--MD5=[fa028e93986236b575ae471cbbdfabb3]
class nz.ac.vuw.ecs.swen225.gp22.persistency.LoadTest--><a href="LoadTest.html" target="_top" title="LoadTest.html" xlink:actuate="onRequest" xlink:href="LoadTest.html" xlink:show="new" xlink:title="LoadTest.html" xlink:type="simple"><g id="elem_nz.ac.vuw.ecs.swen225.gp22.persistency.LoadTest"><rect codeLine="33" fill="#F1F1F1" height="206.4844" id="nz.ac.vuw.ecs.swen225.gp22.persistency.LoadTest" rx="2.5" ry="2.5" style="stroke:#181818;stroke-width:0.5;" width="276" x="22" y="326"/><ellipse cx="125.75" cy="342" fill="#ADD1B2" rx="11" ry="11" style="stroke:#181818;stroke-width:1.0;"/><path d="M128.5156,337.875 Q128.6719,337.6563 128.8594,337.5469 Q129.0469,337.4375 129.2656,337.4375 Q129.6406,337.4375 129.875,337.7031 Q130.1094,337.9531 130.1094,338.5625 L130.1094,340.0156 Q130.1094,340.625 129.875,340.8906 Q129.6406,341.1563 129.2656,341.1563 Q128.9219,341.1563 128.7188,340.9531 Q128.5156,340.7656 128.4063,340.25 Q128.3594,339.8906 128.1719,339.7031 Q127.8438,339.3281 127.2344,339.1094 Q126.625,338.8906 126,338.8906 Q125.2344,338.8906 124.5938,339.2188 Q123.9688,339.5469 123.4688,340.2969 Q122.9844,341.0469 122.9844,342.0781 L122.9844,343.1719 Q122.9844,344.4063 123.875,345.2344 Q124.7656,346.0469 126.3594,346.0469 Q127.2969,346.0469 127.9531,345.7969 Q128.3438,345.6406 128.7656,345.2031 Q129.0313,344.9375 129.1719,344.8594 Q129.3281,344.7813 129.5313,344.7813 Q129.8594,344.7813 130.1094,345.0469 Q130.375,345.2969 130.375,345.6406 Q130.375,345.9844 130.0313,346.3906 Q129.5313,346.9688 128.7344,347.2969 Q127.6563,347.75 126.3594,347.75 Q124.8438,347.75 123.6406,347.125 Q122.6563,346.625 121.9688,345.5625 Q121.2813,344.4844 121.2813,343.2031 L121.2813,342.0469 Q121.2813,340.7188 121.8906,339.5781 Q122.5156,338.4219 123.6094,337.8125 Q124.7031,337.1875 125.9375,337.1875 Q126.6719,337.1875 127.3125,337.3594 Q127.9688,337.5156 128.5156,337.875 Z " fill="#000000"/><text fill="#000000" font-family="sans-serif" font-size="14" lengthAdjust="spacing" textLength="60" x="146.25" y="347.7285">LoadTest</text><line style="stroke:#181818;stroke-width:0.5;" x1="23" x2="297" y1="358" y2="358"/><line style="stroke:#181818;stroke-width:0.5;" x1="23" x2="297" y1="366" y2="366"/><ellipse cx="33" cy="380.3047" fill="#84BE84" rx="3" ry="3" style="stroke:#038048;stroke-width:1.0;"/><text fill="#000000" font-family="sans-serif" font-size="14" lengthAdjust="spacing" textLength="105" x="42" y="384.5332">loadLevel(): void</text><ellipse cx="33" cy="397.9141" fill="#84BE84" rx="3" ry="3" style="stroke:#038048;stroke-width:1.0;"/><text fill="#000000" font-family="sans-serif" font-size="14" lengthAdjust="spacing" textLength="87" x="42" y="402.1426">getFile(): void</text><ellipse cx="33" cy="415.5234" fill="#84BE84" rx="3" ry="3" style="stroke:#038048;stroke-width:1.0;"/><text fill="#000000" font-family="sans-serif" font-size="14" lengthAdjust="spacing" textLength="223" x="42" y="419.752">checkPreviousGamePresent(): void</text><ellipse cx="33" cy="433.1328" fill="#84BE84" rx="3" ry="3" style="stroke:#038048;stroke-width:1.0;"/><text fill="#000000" font-family="sans-serif" font-size="14" lengthAdjust="spacing" textLength="244" x="42" y="437.3613">checkPreviousGameNotPresent(): void</text><ellipse cx="33" cy="450.7422" fill="#84BE84" rx="3" ry="3" style="stroke:#038048;stroke-width:1.0;"/><text fill="#000000" font-family="sans-serif" font-size="14" lengthAdjust="spacing" textLength="164" x="42" y="454.9707">loadPreviousGame(): void</text><ellipse cx="33" cy="468.3516" fill="#84BE84" rx="3" ry="3" style="stroke:#038048;stroke-width:1.0;"/><text fill="#000000" font-family="sans-serif" font-size="14" lengthAdjust="spacing" textLength="234" x="42" y="472.5801">loadPreviousGameNotPresent(): void</text><ellipse cx="33" cy="485.9609" fill="#84BE84" rx="3" ry="3" style="stroke:#038048;stroke-width:1.0;"/><text fill="#000000" font-family="sans-serif" font-size="14" lengthAdjust="spacing" textLength="180" x="42" y="490.1895">getPreviousGameInfo(): void</text><ellipse cx="33" cy="503.5703" fill="#84BE84" rx="3" ry="3" style="stroke:#038048;stroke-width:1.0;"/><text fill="#000000" font-family="sans-serif" font-size="14" lengthAdjust="spacing" textLength="250" x="42" y="507.7988">getPreviousGameInfoNotPresent(): void</text><ellipse cx="33" cy="521.1797" fill="#84BE84" rx="3" ry="3" style="stroke:#038048;stroke-width:1.0;"/><text fill="#000000" font-family="sans-serif" font-size="14" lengthAdjust="spacing" textLength="90" x="42" y="525.4082">loadJar(): void</text></g></a><!--MD5=[c8ae8d0bce2ee86a06ededcc51e56633]
class nz.ac.vuw.ecs.swen225.gp22.persistency.ParserTest--><a href="ParserTest.html" target="_top" title="ParserTest.html" xlink:actuate="onRequest" xlink:href="ParserTest.html" xlink:show="new" xlink:title="ParserTest.html" xlink:type="simple"><g id="elem_nz.ac.vuw.ecs.swen225.gp22.persistency.ParserTest"><rect codeLine="45" fill="#F1F1F1" height="83.2188" id="nz.ac.vuw.ecs.swen225.gp22.persistency.ParserTest" rx="2.5" ry="2.5" style="stroke:#181818;stroke-width:0.5;" width="169" x="333.5" y="387.5"/><ellipse cx="378.75" cy="403.5" fill="#ADD1B2" rx="11" ry="11" style="stroke:#181818;stroke-width:1.0;"/><path d="M381.5156,399.375 Q381.6719,399.1563 381.8594,399.0469 Q382.0469,398.9375 382.2656,398.9375 Q382.6406,398.9375 382.875,399.2031 Q383.1094,399.4531 383.1094,400.0625 L383.1094,401.5156 Q383.1094,402.125 382.875,402.3906 Q382.6406,402.6563 382.2656,402.6563 Q381.9219,402.6563 381.7188,402.4531 Q381.5156,402.2656 381.4063,401.75 Q381.3594,401.3906 381.1719,401.2031 Q380.8438,400.8281 380.2344,400.6094 Q379.625,400.3906 379,400.3906 Q378.2344,400.3906 377.5938,400.7188 Q376.9688,401.0469 376.4688,401.7969 Q375.9844,402.5469 375.9844,403.5781 L375.9844,404.6719 Q375.9844,405.9063 376.875,406.7344 Q377.7656,407.5469 379.3594,407.5469 Q380.2969,407.5469 380.9531,407.2969 Q381.3438,407.1406 381.7656,406.7031 Q382.0313,406.4375 382.1719,406.3594 Q382.3281,406.2813 382.5313,406.2813 Q382.8594,406.2813 383.1094,406.5469 Q383.375,406.7969 383.375,407.1406 Q383.375,407.4844 383.0313,407.8906 Q382.5313,408.4688 381.7344,408.7969 Q380.6563,409.25 379.3594,409.25 Q377.8438,409.25 376.6406,408.625 Q375.6563,408.125 374.9688,407.0625 Q374.2813,405.9844 374.2813,404.7031 L374.2813,403.5469 Q374.2813,402.2188 374.8906,401.0781 Q375.5156,399.9219 376.6094,399.3125 Q377.7031,398.6875 378.9375,398.6875 Q379.6719,398.6875 380.3125,398.8594 Q380.9688,399.0156 381.5156,399.375 Z " fill="#000000"/><text fill="#000000" font-family="sans-serif" font-size="14" lengthAdjust="spacing" textLength="70" x="399.25" y="409.2285">ParserTest</text><line style="stroke:#181818;stroke-width:0.5;" x1="334.5" x2="501.5" y1="419.5" y2="419.5"/><line style="stroke:#181818;stroke-width:0.5;" x1="334.5" x2="501.5" y1="427.5" y2="427.5"/><ellipse cx="344.5" cy="441.8047" fill="#84BE84" rx="3" ry="3" style="stroke:#038048;stroke-width:1.0;"/><text fill="#000000" font-family="sans-serif" font-size="14" lengthAdjust="spacing" textLength="138" x="353.5" y="446.0332">parseInventory(): void</text><ellipse cx="344.5" cy="459.4141" fill="#84BE84" rx="3" ry="3" style="stroke:#038048;stroke-width:1.0;"/><text fill="#000000" font-family="sans-serif" font-size="14" lengthAdjust="spacing" textLength="143" x="353.5" y="463.6426">parseInvalidFile(): void</text></g></a><!--MD5=[dfa6b6e4b2cb070806381450be7cc595]
class nz.ac.vuw.ecs.swen225.gp22.persistency.SaveTest--><a href="SaveTest.html" target="_top" title="SaveTest.html" xlink:actuate="onRequest" xlink:href="SaveTest.html" xlink:show="new" xlink:title="SaveTest.html" xlink:type="simple"><g id="elem_nz.ac.vuw.ecs.swen225.gp22.persistency.SaveTest"><rect codeLine="50" fill="#F1F1F1" height="118.4375" id="nz.ac.vuw.ecs.swen225.gp22.persistency.SaveTest" rx="2.5" ry="2.5" style="stroke:#181818;stroke-width:0.5;" width="158" x="538" y="370"/><ellipse cx="582.75" cy="386" fill="#ADD1B2" rx="11" ry="11" style="stroke:#181818;stroke-width:1.0;"/><path d="M585.5156,381.875 Q585.6719,381.6563 585.8594,381.5469 Q586.0469,381.4375 586.2656,381.4375 Q586.6406,381.4375 586.875,381.7031 Q587.1094,381.9531 587.1094,382.5625 L587.1094,384.0156 Q587.1094,384.625 586.875,384.8906 Q586.6406,385.1563 586.2656,385.1563 Q585.9219,385.1563 585.7188,384.9531 Q585.5156,384.7656 585.4063,384.25 Q585.3594,383.8906 585.1719,383.7031 Q584.8438,383.3281 584.2344,383.1094 Q583.625,382.8906 583,382.8906 Q582.2344,382.8906 581.5938,383.2188 Q580.9688,383.5469 580.4688,384.2969 Q579.9844,385.0469 579.9844,386.0781 L579.9844,387.1719 Q579.9844,388.4063 580.875,389.2344 Q581.7656,390.0469 583.3594,390.0469 Q584.2969,390.0469 584.9531,389.7969 Q585.3438,389.6406 585.7656,389.2031 Q586.0313,388.9375 586.1719,388.8594 Q586.3281,388.7813 586.5313,388.7813 Q586.8594,388.7813 587.1094,389.0469 Q587.375,389.2969 587.375,389.6406 Q587.375,389.9844 587.0313,390.3906 Q586.5313,390.9688 585.7344,391.2969 Q584.6563,391.75 583.3594,391.75 Q581.8438,391.75 580.6406,391.125 Q579.6563,390.625 578.9688,389.5625 Q578.2813,388.4844 578.2813,387.2031 L578.2813,386.0469 Q578.2813,384.7188 578.8906,383.5781 Q579.5156,382.4219 580.6094,381.8125 Q581.7031,381.1875 582.9375,381.1875 Q583.6719,381.1875 584.3125,381.3594 Q584.9688,381.5156 585.5156,381.875 Z " fill="#000000"/><text fill="#000000" font-family="sans-serif" font-size="14" lengthAdjust="spacing" textLength="60" x="603.25" y="391.7285">SaveTest</text><line style="stroke:#181818;stroke-width:0.5;" x1="539" x2="695" y1="402" y2="402"/><line style="stroke:#181818;stroke-width:0.5;" x1="539" x2="695" y1="410" y2="410"/><ellipse cx="549" cy="424.3047" fill="#84BE84" rx="3" ry="3" style="stroke:#038048;stroke-width:1.0;"/><text fill="#000000" font-family="sans-serif" font-size="14" lengthAdjust="spacing" textLength="112" x="558" y="428.5332">saveGame(): void</text><ellipse cx="549" cy="441.9141" fill="#84BE84" rx="3" ry="3" style="stroke:#038048;stroke-width:1.0;"/><text fill="#000000" font-family="sans-serif" font-size="14" lengthAdjust="spacing" textLength="116" x="558" y="446.1426">saveLevel2(): void</text><ellipse cx="549" cy="459.5234" fill="#84BE84" rx="3" ry="3" style="stroke:#038048;stroke-width:1.0;"/><text fill="#000000" font-family="sans-serif" font-size="14" lengthAdjust="spacing" textLength="132" x="558" y="463.752">saveInventory(): void</text><ellipse cx="549" cy="477.1328" fill="#84BE84" rx="3" ry="3" style="stroke:#038048;stroke-width:1.0;"/><text fill="#000000" font-family="sans-serif" font-size="14" lengthAdjust="spacing" textLength="100" x="558" y="481.3613">addPoint(): void</text></g></a><rect fill="none" height="12.5781" style="stroke:none;stroke-width:1.0;" width="184" x="324.5" y="554"/><text fill="#888888" font-family="sans-serif" font-size="10" lengthAdjust="spacing" textLength="184" x="324.5" y="564.3809">UMLDoclet 2.0.19, PlantUML 1.2022.8</text><!--MD5=[0066b9c888fc69fd18b2c0331272bde7]
@startuml
    namespace nz.ac.vuw.ecs.swen225.gp22.persistency {

        class Load [[Load.html]] {
            {static} +resumeGame(): void
            {static} +loadLevel(int): void
            {static} +previousGamePresent(): boolean
            {static} +previousGame(): void
            {static} +previousGameInfo(): String
            {static} +getClassLoader(): URLClassLoader
            {static} +continueGame(File, boolean): void
            {static} +getFile(String): File
        }

        class Parser [[Parser.html]] {
            +Parser(File)
            +parseMapInfo(): void
            +getTime(): int
            +getNumKeysCollected(): int
            +getLevel(): int
            +parsePlayer(Player): void
            +parseInventory(Player, Element): void
            +entitiesPresent(): boolean
            +getEntities(): List<Entity>
            +getTiles(): List<Tile>
        }

        class Save [[Save.html]] {
            {static} +saveGame(): void
            {static} +saveInventory(Element): void
            {static} +addPoint(Element, Point): void
        }

        class LoadTest [[LoadTest.html]] {
            +loadLevel(): void
            +getFile(): void
            +checkPreviousGamePresent(): void
            +checkPreviousGameNotPresent(): void
            +loadPreviousGame(): void
            +loadPreviousGameNotPresent(): void
            +getPreviousGameInfo(): void
            +getPreviousGameInfoNotPresent(): void
            +loadJar(): void
        }

        class ParserTest [[ParserTest.html]] {
            +parseInventory(): void
            +parseInvalidFile(): void
        }

        class SaveTest [[SaveTest.html]] {
            +saveGame(): void
            +saveLevel2(): void
            +saveInventory(): void
            +addPoint(): void
        }

    }

    center footer UMLDoclet 2.0.19, PlantUML 1.2022.8
@enduml

PlantUML version 1.2022.8(Sun Sep 25 22:00:33 NZDT 2022)
(APACHE source distribution)
Java Runtime: Java(TM) SE Runtime Environment
JVM: Java HotSpot(TM) 64-Bit Server VM
Default Encoding: Cp1252
Language: en
Country: NZ
--></g></svg>