<?xml version="1.0" encoding="UTF-8" standalone="no"?><svg xmlns="http://www.w3.org/2000/svg" xmlns:xlink="http://www.w3.org/1999/xlink" contentStyleType="text/css" height="150px" preserveAspectRatio="none" style="width:262px;height:150px;background:#FFFFFF;" version="1.1" viewBox="0 0 262 150" width="262px" zoomAndPan="magnify"><defs/><g><!--MD5=[8c3ea7dc6fb14a8bdad798da18573ab7]
cluster nz.ac.vuw.ecs.swen225.gp22.fuzz--><g id="cluster_nz.ac.vuw.ecs.swen225.gp22.fuzz"><path d="M8.5,6 L242.5,6 A3.75,3.75 0 0 1 245,8.5 L252,29.6094 L252.5,29.6094 A2.5,2.5 0 0 1 255,32.1094 L255,121.5 A2.5,2.5 0 0 1 252.5,124 L8.5,124 A2.5,2.5 0 0 1 6,121.5 L6,8.5 A2.5,2.5 0 0 1 8.5,6 " fill="none" style="stroke:#000000;stroke-width:1.5;"/><line style="stroke:#000000;stroke-width:1.5;" x1="6" x2="252" y1="29.6094" y2="29.6094"/><text fill="#000000" font-family="sans-serif" font-size="14" font-weight="bold" lengthAdjust="spacing" textLength="233" x="10" y="22.5332">nz.ac.vuw.ecs.swen225.gp22.fuzz</text></g><!--MD5=[d7d310a737464954c340fc8126000c28]
class nz.ac.vuw.ecs.swen225.gp22.fuzz.FuzzTest--><a href="FuzzTest.html" target="_top" title="FuzzTest.html" xlink:actuate="onRequest" xlink:href="FuzzTest.html" xlink:show="new" xlink:title="FuzzTest.html" xlink:type="simple"><g id="elem_nz.ac.vuw.ecs.swen225.gp22.fuzz.FuzzTest"><rect codeLine="3" fill="#F1F1F1" height="65.6094" id="nz.ac.vuw.ecs.swen225.gp22.fuzz.FuzzTest" rx="2.5" ry="2.5" style="stroke:#181818;stroke-width:0.5;" width="129" x="65.5" y="42"/><ellipse cx="98.5" cy="58" fill="#ADD1B2" rx="11" ry="11" style="stroke:#181818;stroke-width:1.0;"/><path d="M101.2656,53.875 Q101.4219,53.6563 101.6094,53.5469 Q101.7969,53.4375 102.0156,53.4375 Q102.3906,53.4375 102.625,53.7031 Q102.8594,53.9531 102.8594,54.5625 L102.8594,56.0156 Q102.8594,56.625 102.625,56.8906 Q102.3906,57.1563 102.0156,57.1563 Q101.6719,57.1563 101.4688,56.9531 Q101.2656,56.7656 101.1563,56.25 Q101.1094,55.8906 100.9219,55.7031 Q100.5938,55.3281 99.9844,55.1094 Q99.375,54.8906 98.75,54.8906 Q97.9844,54.8906 97.3438,55.2188 Q96.7188,55.5469 96.2188,56.2969 Q95.7344,57.0469 95.7344,58.0781 L95.7344,59.1719 Q95.7344,60.4063 96.625,61.2344 Q97.5156,62.0469 99.1094,62.0469 Q100.0469,62.0469 100.7031,61.7969 Q101.0938,61.6406 101.5156,61.2031 Q101.7813,60.9375 101.9219,60.8594 Q102.0781,60.7813 102.2813,60.7813 Q102.6094,60.7813 102.8594,61.0469 Q103.125,61.2969 103.125,61.6406 Q103.125,61.9844 102.7813,62.3906 Q102.2813,62.9688 101.4844,63.2969 Q100.4063,63.75 99.1094,63.75 Q97.5938,63.75 96.3906,63.125 Q95.4063,62.625 94.7188,61.5625 Q94.0313,60.4844 94.0313,59.2031 L94.0313,58.0469 Q94.0313,56.7188 94.6406,55.5781 Q95.2656,54.4219 96.3594,53.8125 Q97.4531,53.1875 98.6875,53.1875 Q99.4219,53.1875 100.0625,53.3594 Q100.7188,53.5156 101.2656,53.875 Z " fill="#000000"/><text fill="#000000" font-family="sans-serif" font-size="14" lengthAdjust="spacing" textLength="57" x="116.5" y="63.7285">FuzzTest</text><line style="stroke:#181818;stroke-width:0.5;" x1="66.5" x2="193.5" y1="74" y2="74"/><line style="stroke:#181818;stroke-width:0.5;" x1="66.5" x2="193.5" y1="82" y2="82"/><ellipse cx="76.5" cy="96.3047" fill="#84BE84" rx="3" ry="3" style="stroke:#038048;stroke-width:1.0;"/><text fill="#000000" font-family="sans-serif" font-size="14" lengthAdjust="spacing" textLength="103" x="85.5" y="100.5332">fuzzTests(): void</text></g></a><rect fill="none" height="12.5781" style="stroke:none;stroke-width:1.0;" width="184" x="32" y="130"/><text fill="#888888" font-family="sans-serif" font-size="10" lengthAdjust="spacing" textLength="184" x="32" y="140.3809">UMLDoclet 2.0.19, PlantUML 1.2022.8</text><!--MD5=[ebc678506106de810761dc42752f3dc1]
@startuml
    namespace nz.ac.vuw.ecs.swen225.gp22.fuzz {

        class FuzzTest [[FuzzTest.html]] {
            +fuzzTests(): void
        }

    }

    center footer UMLDoclet 2.0.19, PlantUML 1.2022.8
@enduml

PlantUML version 1.2022.8(Sun Sep 25 22:00:33 NZDT 2022)
(APACHE source distribution)
Java Runtime: Java(TM) SE Runtime Environment
JVM: Java HotSpot(TM) 64-Bit Server VM
Default Encoding: Cp1252
Language: en
Country: NZ
--></g></svg>