<?xml version="1.0" encoding="UTF-8" standalone="no"?><svg xmlns="http://www.w3.org/2000/svg" xmlns:xlink="http://www.w3.org/1999/xlink" contentStyleType="text/css" height="431px" preserveAspectRatio="none" style="width:277px;height:431px;background:#FFFFFF;" version="1.1" viewBox="0 0 277 431" width="277px" zoomAndPan="magnify"><defs/><g><!--MD5=[a71c4d8b06598729c8a8a9a5316c5272]
cluster nz.ac.vuw.ecs.swen225.gp22.util--><g id="cluster_nz.ac.vuw.ecs.swen225.gp22.util"><path d="M8.5,6 L236.5,6 A3.75,3.75 0 0 1 239,8.5 L246,29.6094 L267.5,29.6094 A2.5,2.5 0 0 1 270,32.1094 L270,402.5 A2.5,2.5 0 0 1 267.5,405 L8.5,405 A2.5,2.5 0 0 1 6,402.5 L6,8.5 A2.5,2.5 0 0 1 8.5,6 " fill="none" style="stroke:#000000;stroke-width:1.5;"/><line style="stroke:#000000;stroke-width:1.5;" x1="6" x2="246" y1="29.6094" y2="29.6094"/><text fill="#000000" font-family="sans-serif" font-size="14" font-weight="bold" lengthAdjust="spacing" textLength="227" x="10" y="22.5332">nz.ac.vuw.ecs.swen225.gp22.util</text></g><!--MD5=[628aeb55bc993114009ae0a8e9d2c6d2]
class nz.ac.vuw.ecs.swen225.gp22.util.GameConstants--><a href="GameConstants.html" target="_top" title="GameConstants.html" xlink:actuate="onRequest" xlink:href="GameConstants.html" xlink:show="new" xlink:title="GameConstants.html" xlink:type="simple"><g id="elem_nz.ac.vuw.ecs.swen225.gp22.util.GameConstants"><rect codeLine="3" fill="#F1F1F1" height="347.3594" id="nz.ac.vuw.ecs.swen225.gp22.util.GameConstants" rx="2.5" ry="2.5" style="stroke:#181818;stroke-width:0.5;" width="232" x="22" y="42"/><ellipse cx="82.75" cy="58" fill="#ADD1B2" rx="11" ry="11" style="stroke:#181818;stroke-width:1.0;"/><path d="M85.5156,53.875 Q85.6719,53.6563 85.8594,53.5469 Q86.0469,53.4375 86.2656,53.4375 Q86.6406,53.4375 86.875,53.7031 Q87.1094,53.9531 87.1094,54.5625 L87.1094,56.0156 Q87.1094,56.625 86.875,56.8906 Q86.6406,57.1563 86.2656,57.1563 Q85.9219,57.1563 85.7188,56.9531 Q85.5156,56.7656 85.4063,56.25 Q85.3594,55.8906 85.1719,55.7031 Q84.8438,55.3281 84.2344,55.1094 Q83.625,54.8906 83,54.8906 Q82.2344,54.8906 81.5938,55.2188 Q80.9688,55.5469 80.4688,56.2969 Q79.9844,57.0469 79.9844,58.0781 L79.9844,59.1719 Q79.9844,60.4063 80.875,61.2344 Q81.7656,62.0469 83.3594,62.0469 Q84.2969,62.0469 84.9531,61.7969 Q85.3438,61.6406 85.7656,61.2031 Q86.0313,60.9375 86.1719,60.8594 Q86.3281,60.7813 86.5313,60.7813 Q86.8594,60.7813 87.1094,61.0469 Q87.375,61.2969 87.375,61.6406 Q87.375,61.9844 87.0313,62.3906 Q86.5313,62.9688 85.7344,63.2969 Q84.6563,63.75 83.3594,63.75 Q81.8438,63.75 80.6406,63.125 Q79.6563,62.625 78.9688,61.5625 Q78.2813,60.4844 78.2813,59.2031 L78.2813,58.0469 Q78.2813,56.7188 78.8906,55.5781 Q79.5156,54.4219 80.6094,53.8125 Q81.7031,53.1875 82.9375,53.1875 Q83.6719,53.1875 84.3125,53.3594 Q84.9688,53.5156 85.5156,53.875 Z " fill="#000000"/><text fill="#000000" font-family="sans-serif" font-size="14" lengthAdjust="spacing" textLength="102" x="103.25" y="63.7285">GameConstants</text><line style="stroke:#181818;stroke-width:0.5;" x1="23" x2="253" y1="74" y2="74"/><ellipse cx="33" cy="88.3047" fill="none" rx="3" ry="3" style="stroke:#038048;stroke-width:1.0;"/><text fill="#000000" font-family="sans-serif" font-size="14" lengthAdjust="spacing" text-decoration="underline" textLength="89" x="42" y="92.5332">TILE_SIZE: int</text><ellipse cx="33" cy="105.9141" fill="none" rx="3" ry="3" style="stroke:#038048;stroke-width:1.0;"/><text fill="#000000" font-family="sans-serif" font-size="14" lengthAdjust="spacing" text-decoration="underline" textLength="137" x="42" y="110.1426">NUM_GAME_TILE: int</text><ellipse cx="33" cy="123.5234" fill="none" rx="3" ry="3" style="stroke:#038048;stroke-width:1.0;"/><text fill="#000000" font-family="sans-serif" font-size="14" lengthAdjust="spacing" text-decoration="underline" textLength="116" x="42" y="127.752">FOCUS_AREA: int</text><ellipse cx="33" cy="141.1328" fill="none" rx="3" ry="3" style="stroke:#038048;stroke-width:1.0;"/><text fill="#000000" font-family="sans-serif" font-size="14" lengthAdjust="spacing" text-decoration="underline" textLength="184" x="42" y="145.3613">NUM_INVENTORY_TILES: int</text><ellipse cx="33" cy="158.7422" fill="none" rx="3" ry="3" style="stroke:#038048;stroke-width:1.0;"/><text fill="#000000" font-family="sans-serif" font-size="14" lengthAdjust="spacing" text-decoration="underline" textLength="134" x="42" y="162.9707">SIDEBAR_WIDTH: int</text><ellipse cx="33" cy="176.3516" fill="none" rx="3" ry="3" style="stroke:#038048;stroke-width:1.0;"/><text fill="#000000" font-family="sans-serif" font-size="14" lengthAdjust="spacing" text-decoration="underline" textLength="140" x="42" y="180.5801">WINDOW_HEIGHT: int</text><ellipse cx="33" cy="193.9609" fill="none" rx="3" ry="3" style="stroke:#038048;stroke-width:1.0;"/><text fill="#000000" font-family="sans-serif" font-size="14" lengthAdjust="spacing" text-decoration="underline" textLength="134" x="42" y="198.1895">WINDOW_WIDTH: int</text><ellipse cx="33" cy="211.5703" fill="none" rx="3" ry="3" style="stroke:#038048;stroke-width:1.0;"/><text fill="#000000" font-family="sans-serif" font-size="14" lengthAdjust="spacing" text-decoration="underline" textLength="167" x="42" y="215.7988">GAME_WINDOW_SIZE: int</text><ellipse cx="33" cy="229.1797" fill="none" rx="3" ry="3" style="stroke:#038048;stroke-width:1.0;"/><text fill="#000000" font-family="sans-serif" font-size="14" lengthAdjust="spacing" text-decoration="underline" textLength="170" x="42" y="233.4082">WINDOW_SIZE: Dimension</text><ellipse cx="33" cy="246.7891" fill="none" rx="3" ry="3" style="stroke:#038048;stroke-width:1.0;"/><text fill="#000000" font-family="sans-serif" font-size="14" lengthAdjust="spacing" text-decoration="underline" textLength="151" x="42" y="251.0176">GAME_SIZE: Dimension</text><ellipse cx="33" cy="264.3984" fill="none" rx="3" ry="3" style="stroke:#038048;stroke-width:1.0;"/><text fill="#000000" font-family="sans-serif" font-size="14" lengthAdjust="spacing" text-decoration="underline" textLength="142" x="42" y="268.627">SIDE_SIZE: Dimension</text><ellipse cx="33" cy="282.0078" fill="none" rx="3" ry="3" style="stroke:#038048;stroke-width:1.0;"/><text fill="#000000" font-family="sans-serif" font-size="14" lengthAdjust="spacing" text-decoration="underline" textLength="156" x="42" y="286.2363">BUTTON_COLOR: Color</text><ellipse cx="33" cy="299.6172" fill="none" rx="3" ry="3" style="stroke:#038048;stroke-width:1.0;"/><text fill="#000000" font-family="sans-serif" font-size="14" lengthAdjust="spacing" text-decoration="underline" textLength="187" x="42" y="303.8457">BG_COLOR_LIGHTER: Color</text><ellipse cx="33" cy="317.2266" fill="none" rx="3" ry="3" style="stroke:#038048;stroke-width:1.0;"/><text fill="#000000" font-family="sans-serif" font-size="14" lengthAdjust="spacing" text-decoration="underline" textLength="185" x="42" y="321.4551">BG_COLOR_DARKER: Color</text><ellipse cx="33" cy="334.8359" fill="none" rx="3" ry="3" style="stroke:#038048;stroke-width:1.0;"/><text fill="#000000" font-family="sans-serif" font-size="14" lengthAdjust="spacing" text-decoration="underline" textLength="120" x="42" y="339.0645">BG_COLOR: Color</text><ellipse cx="33" cy="352.4453" fill="none" rx="3" ry="3" style="stroke:#038048;stroke-width:1.0;"/><text fill="#000000" font-family="sans-serif" font-size="14" lengthAdjust="spacing" text-decoration="underline" textLength="135" x="42" y="356.6738">TEXT_COLOR: Color</text><ellipse cx="33" cy="370.0547" fill="none" rx="3" ry="3" style="stroke:#038048;stroke-width:1.0;"/><text fill="#000000" font-family="sans-serif" font-size="14" lengthAdjust="spacing" text-decoration="underline" textLength="206" x="42" y="374.2832">LIGHT_YELLOW_COLOR: Color</text><line style="stroke:#181818;stroke-width:0.5;" x1="23" x2="253" y1="381.3594" y2="381.3594"/></g></a><rect fill="none" height="12.5781" style="stroke:none;stroke-width:1.0;" width="184" x="39.5" y="411"/><text fill="#888888" font-family="sans-serif" font-size="10" lengthAdjust="spacing" textLength="184" x="39.5" y="421.3809">UMLDoclet 2.0.19, PlantUML 1.2022.8</text><!--MD5=[91baf927babd9afc310152f2f97fbdd6]
@startuml
    namespace nz.ac.vuw.ecs.swen225.gp22.util {

        class GameConstants [[GameConstants.html]] {
            {static} +TILE_SIZE: int
            {static} +NUM_GAME_TILE: int
            {static} +FOCUS_AREA: int
            {static} +NUM_INVENTORY_TILES: int
            {static} +SIDEBAR_WIDTH: int
            {static} +WINDOW_HEIGHT: int
            {static} +WINDOW_WIDTH: int
            {static} +GAME_WINDOW_SIZE: int
            {static} +WINDOW_SIZE: Dimension
            {static} +GAME_SIZE: Dimension
            {static} +SIDE_SIZE: Dimension
            {static} +BUTTON_COLOR: Color
            {static} +BG_COLOR_LIGHTER: Color
            {static} +BG_COLOR_DARKER: Color
            {static} +BG_COLOR: Color
            {static} +TEXT_COLOR: Color
            {static} +LIGHT_YELLOW_COLOR: Color
        }

    }

    center footer UMLDoclet 2.0.19, PlantUML 1.2022.8
@enduml

PlantUML version 1.2022.8(Sun Sep 25 22:00:33 NZDT 2022)
(APACHE source distribution)
Java Runtime: Java(TM) SE Runtime Environment
JVM: Java HotSpot(TM) 64-Bit Server VM
Default Encoding: Cp1252
Language: en
Country: NZ
--></g></svg>