<?xml version="1.0" encoding="UTF-8" standalone="no"?><svg xmlns="http://www.w3.org/2000/svg" xmlns:xlink="http://www.w3.org/1999/xlink" contentStyleType="text/css" height="639px" preserveAspectRatio="none" style="width:281px;height:639px;background:#FFFFFF;" version="1.1" viewBox="0 0 281 639" width="281px" zoomAndPan="magnify"><defs/><g><!--MD5=[f4af6368b622d465b448a2389e49aca0]
class nz.ac.vuw.ecs.swen225.gp22.app.Base--><a href="Base.html" target="_top" title="Base.html" xlink:actuate="onRequest" xlink:href="Base.html" xlink:show="new" xlink:title="Base.html" xlink:type="simple"><g id="elem_nz.ac.vuw.ecs.swen225.gp22.app.Base"><rect codeLine="5" fill="#F1F1F1" height="506.0313" id="nz.ac.vuw.ecs.swen225.gp22.app.Base" rx="2.5" ry="2.5" style="stroke:#181818;stroke-width:0.5;" width="267" x="7" y="107"/><ellipse cx="57.25" cy="127.0938" fill="#ADD1B2" rx="11" ry="11" style="stroke:#181818;stroke-width:1.0;"/><path d="M60.0156,122.9688 Q60.1719,122.75 60.3594,122.6406 Q60.5469,122.5313 60.7656,122.5313 Q61.1406,122.5313 61.375,122.7969 Q61.6094,123.0469 61.6094,123.6563 L61.6094,125.1094 Q61.6094,125.7188 61.375,125.9844 Q61.1406,126.25 60.7656,126.25 Q60.4219,126.25 60.2188,126.0469 Q60.0156,125.8594 59.9063,125.3438 Q59.8594,124.9844 59.6719,124.7969 Q59.3438,124.4219 58.7344,124.2031 Q58.125,123.9844 57.5,123.9844 Q56.7344,123.9844 56.0938,124.3125 Q55.4688,124.6406 54.9688,125.3906 Q54.4844,126.1406 54.4844,127.1719 L54.4844,128.2656 Q54.4844,129.5 55.375,130.3281 Q56.2656,131.1406 57.8594,131.1406 Q58.7969,131.1406 59.4531,130.8906 Q59.8438,130.7344 60.2656,130.2969 Q60.5313,130.0313 60.6719,129.9531 Q60.8281,129.875 61.0313,129.875 Q61.3594,129.875 61.6094,130.1406 Q61.875,130.3906 61.875,130.7344 Q61.875,131.0781 61.5313,131.4844 Q61.0313,132.0625 60.2344,132.3906 Q59.1563,132.8438 57.8594,132.8438 Q56.3438,132.8438 55.1406,132.2188 Q54.1563,131.7188 53.4688,130.6563 Q52.7813,129.5781 52.7813,128.2969 L52.7813,127.1406 Q52.7813,125.8125 53.3906,124.6719 Q54.0156,123.5156 55.1094,122.9063 Q56.2031,122.2813 57.4375,122.2813 Q58.1719,122.2813 58.8125,122.4531 Q59.4688,122.6094 60.0156,122.9688 Z " fill="#000000"/><text fill="#000000" font-family="sans-serif" font-size="14" lengthAdjust="spacing" textLength="32" x="140.75" y="126.5332">Base</text><text fill="#000000" font-family="sans-serif" font-size="10" lengthAdjust="spacing" textLength="158" x="77.75" y="139.9902">nz.ac.vuw.ecs.swen225.gp22.app</text><line style="stroke:#181818;stroke-width:0.5;" x1="8" x2="273" y1="147.1875" y2="147.1875"/><ellipse cx="18" cy="161.4922" fill="#84BE84" rx="3" ry="3" style="stroke:#038048;stroke-width:1.0;"/><text fill="#000000" font-family="sans-serif" font-size="14" lengthAdjust="spacing" textLength="141" x="27" y="165.7207">runClosePhase(): void</text><ellipse cx="18" cy="179.1016" fill="#84BE84" rx="3" ry="3" style="stroke:#038048;stroke-width:1.0;"/><text fill="#000000" font-family="sans-serif" font-size="14" lengthAdjust="spacing" text-decoration="underline" textLength="112" x="27" y="183.3301">setLevel(int): void</text><ellipse cx="18" cy="196.7109" fill="#84BE84" rx="3" ry="3" style="stroke:#038048;stroke-width:1.0;"/><text fill="#000000" font-family="sans-serif" font-size="14" lengthAdjust="spacing" text-decoration="underline" textLength="109" x="27" y="200.9395">setTime(int): void</text><ellipse cx="18" cy="214.3203" fill="#84BE84" rx="3" ry="3" style="stroke:#038048;stroke-width:1.0;"/><text fill="#000000" font-family="sans-serif" font-size="14" lengthAdjust="spacing" text-decoration="underline" textLength="87" x="27" y="218.5488">getLevel(): int</text><ellipse cx="18" cy="231.9297" fill="#84BE84" rx="3" ry="3" style="stroke:#038048;stroke-width:1.0;"/><text fill="#000000" font-family="sans-serif" font-size="14" lengthAdjust="spacing" text-decoration="underline" textLength="84" x="27" y="236.1582">getTime(): int</text><ellipse cx="18" cy="249.5391" fill="#84BE84" rx="3" ry="3" style="stroke:#038048;stroke-width:1.0;"/><text fill="#000000" font-family="sans-serif" font-size="14" lengthAdjust="spacing" textLength="110" x="27" y="253.7676">startGame(): void</text><ellipse cx="18" cy="267.1484" fill="#84BE84" rx="3" ry="3" style="stroke:#038048;stroke-width:1.0;"/><text fill="#000000" font-family="sans-serif" font-size="14" lengthAdjust="spacing" textLength="83" x="27" y="271.377">pause(): void</text><ellipse cx="18" cy="284.7578" fill="#84BE84" rx="3" ry="3" style="stroke:#038048;stroke-width:1.0;"/><text fill="#000000" font-family="sans-serif" font-size="14" lengthAdjust="spacing" textLength="100" x="27" y="288.9863">unPause(): void</text><ellipse cx="18" cy="302.3672" fill="#84BE84" rx="3" ry="3" style="stroke:#038048;stroke-width:1.0;"/><text fill="#000000" font-family="sans-serif" font-size="14" lengthAdjust="spacing" textLength="123" x="27" y="306.5957">replayPhase(): void</text><ellipse cx="18" cy="319.9766" fill="#84BE84" rx="3" ry="3" style="stroke:#038048;stroke-width:1.0;"/><text fill="#000000" font-family="sans-serif" font-size="14" lengthAdjust="spacing" textLength="109" x="27" y="324.2051">loadGame(): void</text><ellipse cx="18" cy="337.5859" fill="#84BE84" rx="3" ry="3" style="stroke:#038048;stroke-width:1.0;"/><text fill="#000000" font-family="sans-serif" font-size="14" lengthAdjust="spacing" textLength="122" x="27" y="341.8145">newGame(int): void</text><ellipse cx="18" cy="355.1953" fill="#84BE84" rx="3" ry="3" style="stroke:#038048;stroke-width:1.0;"/><text fill="#000000" font-family="sans-serif" font-size="14" lengthAdjust="spacing" textLength="112" x="27" y="359.4238">saveGame(): void</text><ellipse cx="18" cy="372.8047" fill="#84BE84" rx="3" ry="3" style="stroke:#038048;stroke-width:1.0;"/><text fill="#000000" font-family="sans-serif" font-size="14" lengthAdjust="spacing" textLength="115" x="27" y="377.0332">resetFocus(): void</text><ellipse cx="18" cy="390.4141" fill="#84BE84" rx="3" ry="3" style="stroke:#038048;stroke-width:1.0;"/><text fill="#000000" font-family="sans-serif" font-size="14" lengthAdjust="spacing" textLength="96" x="27" y="394.6426">saveExit(): void</text><ellipse cx="18" cy="408.0234" fill="#84BE84" rx="3" ry="3" style="stroke:#038048;stroke-width:1.0;"/><text fill="#000000" font-family="sans-serif" font-size="14" lengthAdjust="spacing" textLength="112" x="27" y="412.252">playerDied(): void</text><ellipse cx="18" cy="425.6328" fill="#84BE84" rx="3" ry="3" style="stroke:#038048;stroke-width:1.0;"/><text fill="#000000" font-family="sans-serif" font-size="14" lengthAdjust="spacing" textLength="112" x="27" y="429.8613">playerWon(): void</text><ellipse cx="18" cy="443.2422" fill="#84BE84" rx="3" ry="3" style="stroke:#038048;stroke-width:1.0;"/><text fill="#000000" font-family="sans-serif" font-size="14" lengthAdjust="spacing" textLength="119" x="27" y="447.4707">nextLevel(int): void</text><ellipse cx="18" cy="460.8516" fill="#84BE84" rx="3" ry="3" style="stroke:#038048;stroke-width:1.0;"/><text fill="#000000" font-family="sans-serif" font-size="14" lengthAdjust="spacing" textLength="103" x="27" y="465.0801">exitGame(): void</text><ellipse cx="18" cy="478.4609" fill="#84BE84" rx="3" ry="3" style="stroke:#038048;stroke-width:1.0;"/><text fill="#000000" font-family="sans-serif" font-size="14" lengthAdjust="spacing" textLength="174" x="27" y="482.6895">movePlayer(Direction): void</text><ellipse cx="18" cy="496.0703" fill="#84BE84" rx="3" ry="3" style="stroke:#038048;stroke-width:1.0;"/><text fill="#000000" font-family="sans-serif" font-size="14" lengthAdjust="spacing" textLength="201" x="27" y="500.2988">getGameWindow(): PhasePanel</text><ellipse cx="18" cy="513.6797" fill="#84BE84" rx="3" ry="3" style="stroke:#038048;stroke-width:1.0;"/><text fill="#000000" font-family="sans-serif" font-size="14" lengthAdjust="spacing" textLength="124" x="27" y="517.9082">menuScreen(): void</text><ellipse cx="18" cy="531.2891" fill="#84BE84" rx="3" ry="3" style="stroke:#038048;stroke-width:1.0;"/><text fill="#000000" font-family="sans-serif" font-size="14" lengthAdjust="spacing" textLength="153" x="27" y="535.5176">undo(List&lt;Action&gt;): void</text><ellipse cx="18" cy="548.8984" fill="#84BE84" rx="3" ry="3" style="stroke:#038048;stroke-width:1.0;"/><text fill="#000000" font-family="sans-serif" font-size="14" lengthAdjust="spacing" textLength="155" x="27" y="553.127">apply(List&lt;Action&gt;): void</text><ellipse cx="18" cy="566.5078" fill="#84BE84" rx="3" ry="3" style="stroke:#038048;stroke-width:1.0;"/><text fill="#000000" font-family="sans-serif" font-size="14" lengthAdjust="spacing" textLength="155" x="27" y="570.7363">getAction(Action): Action</text><ellipse cx="18" cy="584.1172" fill="#84BE84" rx="3" ry="3" style="stroke:#038048;stroke-width:1.0;"/><text fill="#000000" font-family="sans-serif" font-size="14" lengthAdjust="spacing" textLength="105" x="27" y="588.3457">loadLevel(): void</text><ellipse cx="18" cy="601.7266" fill="#84BE84" rx="3" ry="3" style="stroke:#038048;stroke-width:1.0;"/><text fill="#000000" font-family="sans-serif" font-size="14" lengthAdjust="spacing" textLength="241" x="27" y="605.9551">changeKeyListener(KeyListener): void</text></g></a><!--MD5=[18a7562403221f513ca44e0f82c4c17a]
class javax.swing.JFrame--><g id="elem_javax.swing.JFrame"><rect codeLine="34" fill="#F1F1F1" height="40.1875" id="javax.swing.JFrame" rx="2.5" ry="2.5" style="stroke:#181818;stroke-width:0.5;" width="86" x="97.5" y="7"/><ellipse cx="112.5" cy="27.0938" fill="#ADD1B2" rx="11" ry="11" style="stroke:#181818;stroke-width:1.0;"/><path d="M115.2656,22.9688 Q115.4219,22.75 115.6094,22.6406 Q115.7969,22.5313 116.0156,22.5313 Q116.3906,22.5313 116.625,22.7969 Q116.8594,23.0469 116.8594,23.6563 L116.8594,25.1094 Q116.8594,25.7188 116.625,25.9844 Q116.3906,26.25 116.0156,26.25 Q115.6719,26.25 115.4688,26.0469 Q115.2656,25.8594 115.1563,25.3438 Q115.1094,24.9844 114.9219,24.7969 Q114.5938,24.4219 113.9844,24.2031 Q113.375,23.9844 112.75,23.9844 Q111.9844,23.9844 111.3438,24.3125 Q110.7188,24.6406 110.2188,25.3906 Q109.7344,26.1406 109.7344,27.1719 L109.7344,28.2656 Q109.7344,29.5 110.625,30.3281 Q111.5156,31.1406 113.1094,31.1406 Q114.0469,31.1406 114.7031,30.8906 Q115.0938,30.7344 115.5156,30.2969 Q115.7813,30.0313 115.9219,29.9531 Q116.0781,29.875 116.2813,29.875 Q116.6094,29.875 116.8594,30.1406 Q117.125,30.3906 117.125,30.7344 Q117.125,31.0781 116.7813,31.4844 Q116.2813,32.0625 115.4844,32.3906 Q114.4063,32.8438 113.1094,32.8438 Q111.5938,32.8438 110.3906,32.2188 Q109.4063,31.7188 108.7188,30.6563 Q108.0313,29.5781 108.0313,28.2969 L108.0313,27.1406 Q108.0313,25.8125 108.6406,24.6719 Q109.2656,23.5156 110.3594,22.9063 Q111.4531,22.2813 112.6875,22.2813 Q113.4219,22.2813 114.0625,22.4531 Q114.7188,22.6094 115.2656,22.9688 Z " fill="#000000"/><text fill="#000000" font-family="sans-serif" font-size="14" lengthAdjust="spacing" textLength="47" x="130" y="26.5332">JFrame</text><text fill="#000000" font-family="sans-serif" font-size="10" lengthAdjust="spacing" textLength="54" x="126.5" y="39.9902">javax.swing</text></g><!--MD5=[ee6c23aa28de0b7cdf9feabf215fcbdc]
reverse link javax.swing.JFrame to nz.ac.vuw.ecs.swen225.gp22.app.Base--><g id="link_javax.swing.JFrame_nz.ac.vuw.ecs.swen225.gp22.app.Base"><path codeLine="36" d="M140.5,67.62 C140.5,78.99 140.5,92.3 140.5,106.85 " fill="none" id="javax.swing.JFrame-backto-nz.ac.vuw.ecs.swen225.gp22.app.Base" style="stroke:#181818;stroke-width:1.0;"/><polygon fill="none" points="133.5,67.23,140.5,47.23,147.5,67.23,133.5,67.23" style="stroke:#181818;stroke-width:1.0;"/></g><rect fill="none" height="12.5781" style="stroke:none;stroke-width:1.0;" width="184" x="41.5" y="619.0313"/><text fill="#888888" font-family="sans-serif" font-size="10" lengthAdjust="spacing" textLength="184" x="41.5" y="629.4121">UMLDoclet 2.0.19, PlantUML 1.2022.8</text><!--MD5=[76982ff5143102351d38e750f15d227d]
@startuml
    set namespaceSeparator none
    hide empty fields
    hide empty methods

    class "<size:14>Base\n<size:10>nz.ac.vuw.ecs.swen225.gp22.app" as nz.ac.vuw.ecs.swen225.gp22.app.Base [[Base.html]] {
        +runClosePhase(): void
        {static} +setLevel(int): void
        {static} +setTime(int): void
        {static} +getLevel(): int
        {static} +getTime(): int
        +startGame(): void
        +pause(): void
        +unPause(): void
        +replayPhase(): void
        +loadGame(): void
        +newGame(int): void
        +saveGame(): void
        +resetFocus(): void
        +saveExit(): void
        +playerDied(): void
        +playerWon(): void
        +nextLevel(int): void
        +exitGame(): void
        +movePlayer(Direction): void
        +getGameWindow(): PhasePanel
        +menuScreen(): void
        +undo(List<Action>): void
        +apply(List<Action>): void
        +getAction(Action): Action
        +loadLevel(): void
        +changeKeyListener(KeyListener): void
    }

    class "<size:14>JFrame\n<size:10>javax.swing" as javax.swing.JFrame

    javax.swing.JFrame <|- - nz.ac.vuw.ecs.swen225.gp22.app.Base

    center footer UMLDoclet 2.0.19, PlantUML 1.2022.8
@enduml

PlantUML version 1.2022.8(Sun Sep 25 22:00:33 NZDT 2022)
(APACHE source distribution)
Java Runtime: Java(TM) SE Runtime Environment
JVM: Java HotSpot(TM) 64-Bit Server VM
Default Encoding: Cp1252
Language: en
Country: NZ
--></g></svg>