<?xml version="1.0" encoding="UTF-8" standalone="no"?><svg xmlns="http://www.w3.org/2000/svg" xmlns:xlink="http://www.w3.org/1999/xlink" contentStyleType="text/css" height="368px" preserveAspectRatio="none" style="width:210px;height:368px;background:#FFFFFF;" version="1.1" viewBox="0 0 210 368" width="210px" zoomAndPan="magnify"><defs/><g><!--MD5=[0122497da4757ce8c59cda9ed5207394]
class nz.ac.vuw.ecs.swen225.gp22.app.GameDialog--><a href="GameDialog.html" target="_top" title="GameDialog.html" xlink:actuate="onRequest" xlink:href="GameDialog.html" xlink:show="new" xlink:title="GameDialog.html" xlink:type="simple"><g id="elem_nz.ac.vuw.ecs.swen225.gp22.app.GameDialog"><rect codeLine="5" fill="#F1F1F1" height="136.2344" id="nz.ac.vuw.ecs.swen225.gp22.app.GameDialog" rx="2.5" ry="2.5" style="stroke:#181818;stroke-width:0.5;" width="196" x="7" y="107"/><ellipse cx="24.7" cy="127.0938" fill="#ADD1B2" rx="11" ry="11" style="stroke:#181818;stroke-width:1.0;"/><path d="M27.4656,122.9688 Q27.6219,122.75 27.8094,122.6406 Q27.9969,122.5313 28.2156,122.5313 Q28.5906,122.5313 28.825,122.7969 Q29.0594,123.0469 29.0594,123.6563 L29.0594,125.1094 Q29.0594,125.7188 28.825,125.9844 Q28.5906,126.25 28.2156,126.25 Q27.8719,126.25 27.6688,126.0469 Q27.4656,125.8594 27.3563,125.3438 Q27.3094,124.9844 27.1219,124.7969 Q26.7938,124.4219 26.1844,124.2031 Q25.575,123.9844 24.95,123.9844 Q24.1844,123.9844 23.5438,124.3125 Q22.9188,124.6406 22.4188,125.3906 Q21.9344,126.1406 21.9344,127.1719 L21.9344,128.2656 Q21.9344,129.5 22.825,130.3281 Q23.7156,131.1406 25.3094,131.1406 Q26.2469,131.1406 26.9031,130.8906 Q27.2938,130.7344 27.7156,130.2969 Q27.9813,130.0313 28.1219,129.9531 Q28.2781,129.875 28.4813,129.875 Q28.8094,129.875 29.0594,130.1406 Q29.325,130.3906 29.325,130.7344 Q29.325,131.0781 28.9813,131.4844 Q28.4813,132.0625 27.6844,132.3906 Q26.6063,132.8438 25.3094,132.8438 Q23.7938,132.8438 22.5906,132.2188 Q21.6063,131.7188 20.9188,130.6563 Q20.2313,129.5781 20.2313,128.2969 L20.2313,127.1406 Q20.2313,125.8125 20.8406,124.6719 Q21.4656,123.5156 22.5594,122.9063 Q23.6531,122.2813 24.8875,122.2813 Q25.6219,122.2813 26.2625,122.4531 Q26.9188,122.6094 27.4656,122.9688 Z " fill="#000000"/><text fill="#000000" font-family="sans-serif" font-size="14" lengthAdjust="spacing" textLength="78" x="79.3" y="126.5332">GameDialog</text><text fill="#000000" font-family="sans-serif" font-size="10" lengthAdjust="spacing" textLength="158" x="39.3" y="139.9902">nz.ac.vuw.ecs.swen225.gp22.app</text><line style="stroke:#181818;stroke-width:0.5;" x1="8" x2="202" y1="147.1875" y2="147.1875"/><ellipse cx="18" cy="161.4922" fill="#84BE84" rx="3" ry="3" style="stroke:#038048;stroke-width:1.0;"/><text fill="#000000" font-family="sans-serif" font-size="14" lengthAdjust="spacing" textLength="170" x="27" y="165.7207">GameDialog(Base, PopUp)</text><ellipse cx="18" cy="179.1016" fill="#84BE84" rx="3" ry="3" style="stroke:#038048;stroke-width:1.0;"/><text fill="#000000" font-family="sans-serif" font-size="14" lengthAdjust="spacing" textLength="165" x="27" y="183.3301">GameDialog(Base, String)</text><ellipse cx="18" cy="196.7109" fill="#84BE84" rx="3" ry="3" style="stroke:#038048;stroke-width:1.0;"/><text fill="#000000" font-family="sans-serif" font-size="14" lengthAdjust="spacing" textLength="143" x="27" y="200.9395">GameDialog(Base, int)</text><ellipse cx="18" cy="214.3203" fill="#84BE84" rx="3" ry="3" style="stroke:#038048;stroke-width:1.0;"/><text fill="#000000" font-family="sans-serif" font-size="14" lengthAdjust="spacing" textLength="126" x="27" y="218.5488">makeBounds(): void</text><ellipse cx="18" cy="231.9297" fill="#84BE84" rx="3" ry="3" style="stroke:#038048;stroke-width:1.0;"/><text fill="#000000" font-family="sans-serif" font-size="14" lengthAdjust="spacing" textLength="122" x="27" y="236.1582">visibleFocus(): void</text></g></a><!--MD5=[c13749207e1e160b2790bec8d09e837f]
class javax.swing.JDialog--><g id="elem_javax.swing.JDialog"><rect codeLine="13" fill="#F1F1F1" height="40.1875" id="javax.swing.JDialog" rx="2.5" ry="2.5" style="stroke:#181818;stroke-width:0.5;" width="86" x="62" y="7"/><ellipse cx="77" cy="27.0938" fill="#ADD1B2" rx="11" ry="11" style="stroke:#181818;stroke-width:1.0;"/><path d="M79.7656,22.9688 Q79.9219,22.75 80.1094,22.6406 Q80.2969,22.5313 80.5156,22.5313 Q80.8906,22.5313 81.125,22.7969 Q81.3594,23.0469 81.3594,23.6563 L81.3594,25.1094 Q81.3594,25.7188 81.125,25.9844 Q80.8906,26.25 80.5156,26.25 Q80.1719,26.25 79.9688,26.0469 Q79.7656,25.8594 79.6563,25.3438 Q79.6094,24.9844 79.4219,24.7969 Q79.0938,24.4219 78.4844,24.2031 Q77.875,23.9844 77.25,23.9844 Q76.4844,23.9844 75.8438,24.3125 Q75.2188,24.6406 74.7188,25.3906 Q74.2344,26.1406 74.2344,27.1719 L74.2344,28.2656 Q74.2344,29.5 75.125,30.3281 Q76.0156,31.1406 77.6094,31.1406 Q78.5469,31.1406 79.2031,30.8906 Q79.5938,30.7344 80.0156,30.2969 Q80.2813,30.0313 80.4219,29.9531 Q80.5781,29.875 80.7813,29.875 Q81.1094,29.875 81.3594,30.1406 Q81.625,30.3906 81.625,30.7344 Q81.625,31.0781 81.2813,31.4844 Q80.7813,32.0625 79.9844,32.3906 Q78.9063,32.8438 77.6094,32.8438 Q76.0938,32.8438 74.8906,32.2188 Q73.9063,31.7188 73.2188,30.6563 Q72.5313,29.5781 72.5313,28.2969 L72.5313,27.1406 Q72.5313,25.8125 73.1406,24.6719 Q73.7656,23.5156 74.8594,22.9063 Q75.9531,22.2813 77.1875,22.2813 Q77.9219,22.2813 78.5625,22.4531 Q79.2188,22.6094 79.7656,22.9688 Z " fill="#000000"/><text fill="#000000" font-family="sans-serif" font-size="14" lengthAdjust="spacing" textLength="46" x="95" y="26.5332">JDialog</text><text fill="#000000" font-family="sans-serif" font-size="10" lengthAdjust="spacing" textLength="54" x="91" y="39.9902">javax.swing</text></g><!--MD5=[05f81305bfb0ba6515a16e9c088304f0]
class nz.ac.vuw.ecs.swen225.gp22.app.GameDialog.PopUp--><a href="GameDialog.PopUp.html" target="_top" title="GameDialog.PopUp.html" xlink:actuate="onRequest" xlink:href="GameDialog.PopUp.html" xlink:show="new" xlink:title="GameDialog.PopUp.html" xlink:type="simple"><g id="elem_nz.ac.vuw.ecs.swen225.gp22.app.GameDialog.PopUp"><rect codeLine="14" fill="#F1F1F1" height="40.1875" id="nz.ac.vuw.ecs.swen225.gp22.app.GameDialog.PopUp" rx="2.5" ry="2.5" style="stroke:#181818;stroke-width:0.5;" width="190" x="10" y="303"/><ellipse cx="25" cy="323.0938" fill="#EB937F" rx="11" ry="11" style="stroke:#181818;stroke-width:1.0;"/><path d="M23.8594,323.8906 L23.8594,326.3906 L28.1875,326.3906 L28.1875,325.4688 Q28.1875,324.8594 28.4219,324.5938 Q28.6719,324.3281 29.0469,324.3281 Q29.4219,324.3281 29.6563,324.5938 Q29.8906,324.8594 29.8906,325.4688 L29.8906,328.0938 L21.8906,328.0938 Q21.2656,328.0938 21,327.8594 Q20.75,327.625 20.75,327.2344 Q20.75,326.8594 21.0156,326.625 Q21.2813,326.3906 21.8906,326.3906 L22.1563,326.3906 L22.1563,319.7344 L21.8906,319.7344 Q21.2656,319.7344 21,319.5 Q20.75,319.2656 20.75,318.875 Q20.75,318.5 21,318.2656 Q21.2656,318.0313 21.8906,318.0313 L29.5156,318.0313 L29.5156,320.625 Q29.5156,321.2344 29.2813,321.5 Q29.0625,321.75 28.6719,321.75 Q28.2969,321.75 28.0625,321.5 Q27.8281,321.2344 27.8281,320.625 L27.8281,319.7344 L23.8594,319.7344 L23.8594,322.1875 L25.3438,322.1875 Q25.3438,321.5313 25.4688,321.3438 Q25.7344,320.9375 26.2031,320.9375 Q26.5781,320.9375 26.8125,321.2031 Q27.0469,321.4531 27.0469,322.0625 L27.0469,324.0313 Q27.0469,324.5781 26.9219,324.7656 Q26.6563,325.1563 26.2031,325.1563 Q25.7344,325.1563 25.4688,324.75 Q25.3438,324.5625 25.3438,323.8906 L23.8594,323.8906 Z " fill="#000000"/><text fill="#000000" font-family="sans-serif" font-size="14" lengthAdjust="spacing" textLength="124" x="56" y="322.5332">GameDialog.PopUp</text><text fill="#000000" font-family="sans-serif" font-size="10" lengthAdjust="spacing" textLength="158" x="39" y="335.9902">nz.ac.vuw.ecs.swen225.gp22.app</text></g></a><!--MD5=[70499d69bc83b7ab949e806df670d7b0]
reverse link javax.swing.JDialog to nz.ac.vuw.ecs.swen225.gp22.app.GameDialog--><g id="link_javax.swing.JDialog_nz.ac.vuw.ecs.swen225.gp22.app.GameDialog"><path codeLine="16" d="M105,67.48 C105,79.66 105,93.44 105,106.95 " fill="none" id="javax.swing.JDialog-backto-nz.ac.vuw.ecs.swen225.gp22.app.GameDialog" style="stroke:#181818;stroke-width:1.0;"/><polygon fill="none" points="98,67.09,105,47.09,112,67.09,98,67.09" style="stroke:#181818;stroke-width:1.0;"/></g><!--MD5=[afa0770d0851793620ea9ea3d862e82a]
reverse link nz.ac.vuw.ecs.swen225.gp22.app.GameDialog to nz.ac.vuw.ecs.swen225.gp22.app.GameDialog.PopUp--><g id="link_nz.ac.vuw.ecs.swen225.gp22.app.GameDialog_nz.ac.vuw.ecs.swen225.gp22.app.GameDialog.PopUp"><path codeLine="17" d="M105,258.17 C105,274.95 105,291.07 105,302.91 " fill="none" id="nz.ac.vuw.ecs.swen225.gp22.app.GameDialog-backto-nz.ac.vuw.ecs.swen225.gp22.app.GameDialog.PopUp" style="stroke:#181818;stroke-width:1.0;"/><ellipse cx="105" cy="251.02" fill="#FFFFFF" rx="8" ry="8" style="stroke:#181818;stroke-width:1.0;"/><line style="stroke:#181818;stroke-width:1.0;" x1="105" x2="105" y1="259.02" y2="243.02"/><line style="stroke:#181818;stroke-width:1.0;" x1="97" x2="113" y1="251.02" y2="251.02"/></g><rect fill="none" height="12.5781" style="stroke:none;stroke-width:1.0;" width="184" x="6" y="348.1875"/><text fill="#888888" font-family="sans-serif" font-size="10" lengthAdjust="spacing" textLength="184" x="6" y="358.5684">UMLDoclet 2.0.19, PlantUML 1.2022.8</text><!--MD5=[bf29c6f05c58e9e2dc4769ed842400eb]
@startuml
    set namespaceSeparator none
    hide empty fields
    hide empty methods

    class "<size:14>GameDialog\n<size:10>nz.ac.vuw.ecs.swen225.gp22.app" as nz.ac.vuw.ecs.swen225.gp22.app.GameDialog [[GameDialog.html]] {
        +GameDialog(Base, PopUp)
        +GameDialog(Base, String)
        +GameDialog(Base, int)
        +makeBounds(): void
        +visibleFocus(): void
    }

    class "<size:14>JDialog\n<size:10>javax.swing" as javax.swing.JDialog
    enum "<size:14>GameDialog.PopUp\n<size:10>nz.ac.vuw.ecs.swen225.gp22.app" as nz.ac.vuw.ecs.swen225.gp22.app.GameDialog.PopUp [[GameDialog.PopUp.html]]

    javax.swing.JDialog <|- - nz.ac.vuw.ecs.swen225.gp22.app.GameDialog
    nz.ac.vuw.ecs.swen225.gp22.app.GameDialog +- - nz.ac.vuw.ecs.swen225.gp22.app.GameDialog.PopUp

    center footer UMLDoclet 2.0.19, PlantUML 1.2022.8
@enduml

PlantUML version 1.2022.8(Sun Sep 25 22:00:33 NZDT 2022)
(APACHE source distribution)
Java Runtime: Java(TM) SE Runtime Environment
JVM: Java HotSpot(TM) 64-Bit Server VM
Default Encoding: Cp1252
Language: en
Country: NZ
--></g></svg>