<?xml version="1.0" encoding="UTF-8" standalone="no"?><svg xmlns="http://www.w3.org/2000/svg" xmlns:xlink="http://www.w3.org/1999/xlink" contentStyleType="text/css" height="305px" preserveAspectRatio="none" style="width:205px;height:305px;background:#FFFFFF;" version="1.1" viewBox="0 0 205 305" width="205px" zoomAndPan="magnify"><defs/><g><!--MD5=[3a6f72ca5534b80dca39e96dd3c75033]
class nz.ac.vuw.ecs.swen225.gp22.app.GameMenuBar--><a href="GameMenuBar.html" target="_top" title="GameMenuBar.html" xlink:actuate="onRequest" xlink:href="GameMenuBar.html" xlink:show="new" xlink:title="GameMenuBar.html" xlink:type="simple"><g id="elem_nz.ac.vuw.ecs.swen225.gp22.app.GameMenuBar"><rect codeLine="5" fill="#F1F1F1" height="171.4531" id="nz.ac.vuw.ecs.swen225.gp22.app.GameMenuBar" rx="2.5" ry="2.5" style="stroke:#181818;stroke-width:0.5;" width="191" x="7" y="107"/><ellipse cx="22.45" cy="127.0938" fill="#ADD1B2" rx="11" ry="11" style="stroke:#181818;stroke-width:1.0;"/><path d="M25.2156,122.9688 Q25.3719,122.75 25.5594,122.6406 Q25.7469,122.5313 25.9656,122.5313 Q26.3406,122.5313 26.575,122.7969 Q26.8094,123.0469 26.8094,123.6563 L26.8094,125.1094 Q26.8094,125.7188 26.575,125.9844 Q26.3406,126.25 25.9656,126.25 Q25.6219,126.25 25.4188,126.0469 Q25.2156,125.8594 25.1063,125.3438 Q25.0594,124.9844 24.8719,124.7969 Q24.5438,124.4219 23.9344,124.2031 Q23.325,123.9844 22.7,123.9844 Q21.9344,123.9844 21.2938,124.3125 Q20.6688,124.6406 20.1688,125.3906 Q19.6844,126.1406 19.6844,127.1719 L19.6844,128.2656 Q19.6844,129.5 20.575,130.3281 Q21.4656,131.1406 23.0594,131.1406 Q23.9969,131.1406 24.6531,130.8906 Q25.0438,130.7344 25.4656,130.2969 Q25.7313,130.0313 25.8719,129.9531 Q26.0281,129.875 26.2313,129.875 Q26.5594,129.875 26.8094,130.1406 Q27.075,130.3906 27.075,130.7344 Q27.075,131.0781 26.7313,131.4844 Q26.2313,132.0625 25.4344,132.3906 Q24.3563,132.8438 23.0594,132.8438 Q21.5438,132.8438 20.3406,132.2188 Q19.3563,131.7188 18.6688,130.6563 Q17.9813,129.5781 17.9813,128.2969 L17.9813,127.1406 Q17.9813,125.8125 18.5906,124.6719 Q19.2156,123.5156 20.3094,122.9063 Q21.4031,122.2813 22.6375,122.2813 Q23.3719,122.2813 24.0125,122.4531 Q24.6688,122.6094 25.2156,122.9688 Z " fill="#000000"/><text fill="#000000" font-family="sans-serif" font-size="14" lengthAdjust="spacing" textLength="95" x="68.05" y="126.5332">GameMenuBar</text><text fill="#000000" font-family="sans-serif" font-size="10" lengthAdjust="spacing" textLength="158" x="36.55" y="139.9902">nz.ac.vuw.ecs.swen225.gp22.app</text><line style="stroke:#181818;stroke-width:0.5;" x1="8" x2="197" y1="147.1875" y2="147.1875"/><ellipse cx="18" cy="161.4922" fill="#84BE84" rx="3" ry="3" style="stroke:#038048;stroke-width:1.0;"/><text fill="#000000" font-family="sans-serif" font-size="14" lengthAdjust="spacing" textLength="137" x="27" y="165.7207">GameMenuBar(Base)</text><ellipse cx="18" cy="179.1016" fill="#84BE84" rx="3" ry="3" style="stroke:#038048;stroke-width:1.0;"/><text fill="#000000" font-family="sans-serif" font-size="14" lengthAdjust="spacing" textLength="103" x="27" y="183.3301">setPause(): void</text><ellipse cx="18" cy="196.7109" fill="#84BE84" rx="3" ry="3" style="stroke:#038048;stroke-width:1.0;"/><text fill="#000000" font-family="sans-serif" font-size="14" lengthAdjust="spacing" textLength="120" x="27" y="200.9395">setUnPause(): void</text><ellipse cx="18" cy="214.3203" fill="#84BE84" rx="3" ry="3" style="stroke:#038048;stroke-width:1.0;"/><text fill="#000000" font-family="sans-serif" font-size="14" lengthAdjust="spacing" textLength="154" x="27" y="218.5488">addGameButtons(): void</text><ellipse cx="18" cy="231.9297" fill="#84BE84" rx="3" ry="3" style="stroke:#038048;stroke-width:1.0;"/><text fill="#000000" font-family="sans-serif" font-size="14" lengthAdjust="spacing" textLength="141" x="27" y="236.1582">addLoadButton(): void</text><ellipse cx="18" cy="249.5391" fill="#84BE84" rx="3" ry="3" style="stroke:#038048;stroke-width:1.0;"/><text fill="#000000" font-family="sans-serif" font-size="14" lengthAdjust="spacing" textLength="131" x="27" y="253.7676">addExitButton(): void</text><ellipse cx="18" cy="267.1484" fill="#84BE84" rx="3" ry="3" style="stroke:#038048;stroke-width:1.0;"/><text fill="#000000" font-family="sans-serif" font-size="14" lengthAdjust="spacing" textLength="165" x="27" y="271.377">getIcon(String): ImageIcon</text></g></a><!--MD5=[e1d5997e74a9e0bf94752554eaad51e9]
class javax.swing.JMenuBar--><g id="elem_javax.swing.JMenuBar"><rect codeLine="15" fill="#F1F1F1" height="40.1875" id="javax.swing.JMenuBar" rx="2.5" ry="2.5" style="stroke:#181818;stroke-width:0.5;" width="95" x="55" y="7"/><ellipse cx="70" cy="27.0938" fill="#ADD1B2" rx="11" ry="11" style="stroke:#181818;stroke-width:1.0;"/><path d="M72.7656,22.9688 Q72.9219,22.75 73.1094,22.6406 Q73.2969,22.5313 73.5156,22.5313 Q73.8906,22.5313 74.125,22.7969 Q74.3594,23.0469 74.3594,23.6563 L74.3594,25.1094 Q74.3594,25.7188 74.125,25.9844 Q73.8906,26.25 73.5156,26.25 Q73.1719,26.25 72.9688,26.0469 Q72.7656,25.8594 72.6563,25.3438 Q72.6094,24.9844 72.4219,24.7969 Q72.0938,24.4219 71.4844,24.2031 Q70.875,23.9844 70.25,23.9844 Q69.4844,23.9844 68.8438,24.3125 Q68.2188,24.6406 67.7188,25.3906 Q67.2344,26.1406 67.2344,27.1719 L67.2344,28.2656 Q67.2344,29.5 68.125,30.3281 Q69.0156,31.1406 70.6094,31.1406 Q71.5469,31.1406 72.2031,30.8906 Q72.5938,30.7344 73.0156,30.2969 Q73.2813,30.0313 73.4219,29.9531 Q73.5781,29.875 73.7813,29.875 Q74.1094,29.875 74.3594,30.1406 Q74.625,30.3906 74.625,30.7344 Q74.625,31.0781 74.2813,31.4844 Q73.7813,32.0625 72.9844,32.3906 Q71.9063,32.8438 70.6094,32.8438 Q69.0938,32.8438 67.8906,32.2188 Q66.9063,31.7188 66.2188,30.6563 Q65.5313,29.5781 65.5313,28.2969 L65.5313,27.1406 Q65.5313,25.8125 66.1406,24.6719 Q66.7656,23.5156 67.8594,22.9063 Q68.9531,22.2813 70.1875,22.2813 Q70.9219,22.2813 71.5625,22.4531 Q72.2188,22.6094 72.7656,22.9688 Z " fill="#000000"/><text fill="#000000" font-family="sans-serif" font-size="14" lengthAdjust="spacing" textLength="63" x="84" y="26.5332">JMenuBar</text><text fill="#000000" font-family="sans-serif" font-size="10" lengthAdjust="spacing" textLength="54" x="88.5" y="39.9902">javax.swing</text></g><!--MD5=[43cfa6acf8676ff6808af71047039396]
reverse link javax.swing.JMenuBar to nz.ac.vuw.ecs.swen225.gp22.app.GameMenuBar--><g id="link_javax.swing.JMenuBar_nz.ac.vuw.ecs.swen225.gp22.app.GameMenuBar"><path codeLine="17" d="M102.5,67.14 C102.5,79.18 102.5,92.95 102.5,106.83 " fill="none" id="javax.swing.JMenuBar-backto-nz.ac.vuw.ecs.swen225.gp22.app.GameMenuBar" style="stroke:#181818;stroke-width:1.0;"/><polygon fill="none" points="95.5,67.08,102.5,47.08,109.5,67.08,95.5,67.08" style="stroke:#181818;stroke-width:1.0;"/></g><rect fill="none" height="12.5781" style="stroke:none;stroke-width:1.0;" width="184" x="3.5" y="284.4531"/><text fill="#888888" font-family="sans-serif" font-size="10" lengthAdjust="spacing" textLength="184" x="3.5" y="294.834">UMLDoclet 2.0.19, PlantUML 1.2022.8</text><!--MD5=[29051890c83c3b83fdfe31d18e2aa491]
@startuml
    set namespaceSeparator none
    hide empty fields
    hide empty methods

    class "<size:14>GameMenuBar\n<size:10>nz.ac.vuw.ecs.swen225.gp22.app" as nz.ac.vuw.ecs.swen225.gp22.app.GameMenuBar [[GameMenuBar.html]] {
        +GameMenuBar(Base)
        +setPause(): void
        +setUnPause(): void
        +addGameButtons(): void
        +addLoadButton(): void
        +addExitButton(): void
        +getIcon(String): ImageIcon
    }

    class "<size:14>JMenuBar\n<size:10>javax.swing" as javax.swing.JMenuBar

    javax.swing.JMenuBar <|- - nz.ac.vuw.ecs.swen225.gp22.app.GameMenuBar

    center footer UMLDoclet 2.0.19, PlantUML 1.2022.8
@enduml

PlantUML version 1.2022.8(Sun Sep 25 22:00:33 NZDT 2022)
(APACHE source distribution)
Java Runtime: Java(TM) SE Runtime Environment
JVM: Java HotSpot(TM) 64-Bit Server VM
Default Encoding: Cp1252
Language: en
Country: NZ
--></g></svg>