<?xml version="1.0" encoding="UTF-8" standalone="no"?><svg xmlns="http://www.w3.org/2000/svg" xmlns:xlink="http://www.w3.org/1999/xlink" contentStyleType="text/css" height="252px" preserveAspectRatio="none" style="width:379px;height:252px;background:#FFFFFF;" version="1.1" viewBox="0 0 379 252" width="379px" zoomAndPan="magnify"><defs/><g><!--MD5=[cf01fca930a7b7fcb8f3b11db8eb8d29]
class nz.ac.vuw.ecs.swen225.gp22.app.GameMenuItem--><a href="GameMenuItem.html" target="_top" title="GameMenuItem.html" xlink:actuate="onRequest" xlink:href="GameMenuItem.html" xlink:show="new" xlink:title="GameMenuItem.html" xlink:type="simple"><g id="elem_nz.ac.vuw.ecs.swen225.gp22.app.GameMenuItem"><rect codeLine="5" fill="#F1F1F1" height="118.625" id="nz.ac.vuw.ecs.swen225.gp22.app.GameMenuItem" rx="2.5" ry="2.5" style="stroke:#181818;stroke-width:0.5;" width="365" x="7" y="107"/><ellipse cx="106.25" cy="127.0938" fill="#ADD1B2" rx="11" ry="11" style="stroke:#181818;stroke-width:1.0;"/><path d="M109.0156,122.9688 Q109.1719,122.75 109.3594,122.6406 Q109.5469,122.5313 109.7656,122.5313 Q110.1406,122.5313 110.375,122.7969 Q110.6094,123.0469 110.6094,123.6563 L110.6094,125.1094 Q110.6094,125.7188 110.375,125.9844 Q110.1406,126.25 109.7656,126.25 Q109.4219,126.25 109.2188,126.0469 Q109.0156,125.8594 108.9063,125.3438 Q108.8594,124.9844 108.6719,124.7969 Q108.3438,124.4219 107.7344,124.2031 Q107.125,123.9844 106.5,123.9844 Q105.7344,123.9844 105.0938,124.3125 Q104.4688,124.6406 103.9688,125.3906 Q103.4844,126.1406 103.4844,127.1719 L103.4844,128.2656 Q103.4844,129.5 104.375,130.3281 Q105.2656,131.1406 106.8594,131.1406 Q107.7969,131.1406 108.4531,130.8906 Q108.8438,130.7344 109.2656,130.2969 Q109.5313,130.0313 109.6719,129.9531 Q109.8281,129.875 110.0313,129.875 Q110.3594,129.875 110.6094,130.1406 Q110.875,130.3906 110.875,130.7344 Q110.875,131.0781 110.5313,131.4844 Q110.0313,132.0625 109.2344,132.3906 Q108.1563,132.8438 106.8594,132.8438 Q105.3438,132.8438 104.1406,132.2188 Q103.1563,131.7188 102.4688,130.6563 Q101.7813,129.5781 101.7813,128.2969 L101.7813,127.1406 Q101.7813,125.8125 102.3906,124.6719 Q103.0156,123.5156 104.1094,122.9063 Q105.2031,122.2813 106.4375,122.2813 Q107.1719,122.2813 107.8125,122.4531 Q108.4688,122.6094 109.0156,122.9688 Z " fill="#000000"/><text fill="#000000" font-family="sans-serif" font-size="14" lengthAdjust="spacing" textLength="99" x="156.25" y="126.5332">GameMenuItem</text><text fill="#000000" font-family="sans-serif" font-size="10" lengthAdjust="spacing" textLength="158" x="126.75" y="139.9902">nz.ac.vuw.ecs.swen225.gp22.app</text><line style="stroke:#181818;stroke-width:0.5;" x1="8" x2="371" y1="147.1875" y2="147.1875"/><ellipse cx="18" cy="161.4922" fill="#84BE84" rx="3" ry="3" style="stroke:#038048;stroke-width:1.0;"/><text fill="#000000" font-family="sans-serif" font-size="14" lengthAdjust="spacing" textLength="339" x="27" y="165.7207">GameMenuItem(String, ActionListener, int, ImageIcon)</text><ellipse cx="18" cy="179.1016" fill="#84BE84" rx="3" ry="3" style="stroke:#038048;stroke-width:1.0;"/><text fill="#000000" font-family="sans-serif" font-size="14" lengthAdjust="spacing" textLength="244" x="27" y="183.3301">GameMenuItem(String, ActionListener)</text><ellipse cx="18" cy="196.7109" fill="#84BE84" rx="3" ry="3" style="stroke:#038048;stroke-width:1.0;"/><text fill="#000000" font-family="sans-serif" font-size="14" lengthAdjust="spacing" textLength="271" x="27" y="200.9395">changeActionListener(ActionListener): void</text><ellipse cx="18" cy="214.3203" fill="#84BE84" rx="3" ry="3" style="stroke:#038048;stroke-width:1.0;"/><text fill="#000000" font-family="sans-serif" font-size="14" lengthAdjust="spacing" textLength="181" x="27" y="218.5488">changeIcon(ImageIcon): void</text></g></a><!--MD5=[801279a97d5ea4633e4fbb3768139b60]
class javax.swing.JMenuItem--><g id="elem_javax.swing.JMenuItem"><rect codeLine="12" fill="#F1F1F1" height="40.1875" id="javax.swing.JMenuItem" rx="2.5" ry="2.5" style="stroke:#181818;stroke-width:0.5;" width="99" x="140" y="7"/><ellipse cx="155" cy="27.0938" fill="#ADD1B2" rx="11" ry="11" style="stroke:#181818;stroke-width:1.0;"/><path d="M157.7656,22.9688 Q157.9219,22.75 158.1094,22.6406 Q158.2969,22.5313 158.5156,22.5313 Q158.8906,22.5313 159.125,22.7969 Q159.3594,23.0469 159.3594,23.6563 L159.3594,25.1094 Q159.3594,25.7188 159.125,25.9844 Q158.8906,26.25 158.5156,26.25 Q158.1719,26.25 157.9688,26.0469 Q157.7656,25.8594 157.6563,25.3438 Q157.6094,24.9844 157.4219,24.7969 Q157.0938,24.4219 156.4844,24.2031 Q155.875,23.9844 155.25,23.9844 Q154.4844,23.9844 153.8438,24.3125 Q153.2188,24.6406 152.7188,25.3906 Q152.2344,26.1406 152.2344,27.1719 L152.2344,28.2656 Q152.2344,29.5 153.125,30.3281 Q154.0156,31.1406 155.6094,31.1406 Q156.5469,31.1406 157.2031,30.8906 Q157.5938,30.7344 158.0156,30.2969 Q158.2813,30.0313 158.4219,29.9531 Q158.5781,29.875 158.7813,29.875 Q159.1094,29.875 159.3594,30.1406 Q159.625,30.3906 159.625,30.7344 Q159.625,31.0781 159.2813,31.4844 Q158.7813,32.0625 157.9844,32.3906 Q156.9063,32.8438 155.6094,32.8438 Q154.0938,32.8438 152.8906,32.2188 Q151.9063,31.7188 151.2188,30.6563 Q150.5313,29.5781 150.5313,28.2969 L150.5313,27.1406 Q150.5313,25.8125 151.1406,24.6719 Q151.7656,23.5156 152.8594,22.9063 Q153.9531,22.2813 155.1875,22.2813 Q155.9219,22.2813 156.5625,22.4531 Q157.2188,22.6094 157.7656,22.9688 Z " fill="#000000"/><text fill="#000000" font-family="sans-serif" font-size="14" lengthAdjust="spacing" textLength="67" x="169" y="26.5332">JMenuItem</text><text fill="#000000" font-family="sans-serif" font-size="10" lengthAdjust="spacing" textLength="54" x="175.5" y="39.9902">javax.swing</text></g><!--MD5=[f54f3ad600d4fcf57808fbd1a7d494fc]
reverse link javax.swing.JMenuItem to nz.ac.vuw.ecs.swen225.gp22.app.GameMenuItem--><g id="link_javax.swing.JMenuItem_nz.ac.vuw.ecs.swen225.gp22.app.GameMenuItem"><path codeLine="14" d="M189.5,67.14 C189.5,79.46 189.5,93.33 189.5,106.7 " fill="none" id="javax.swing.JMenuItem-backto-nz.ac.vuw.ecs.swen225.gp22.app.GameMenuItem" style="stroke:#181818;stroke-width:1.0;"/><polygon fill="none" points="182.5,67.12,189.5,47.12,196.5,67.12,182.5,67.12" style="stroke:#181818;stroke-width:1.0;"/></g><rect fill="none" height="12.5781" style="stroke:none;stroke-width:1.0;" width="184" x="90.5" y="231.625"/><text fill="#888888" font-family="sans-serif" font-size="10" lengthAdjust="spacing" textLength="184" x="90.5" y="242.0059">UMLDoclet 2.0.19, PlantUML 1.2022.8</text><!--MD5=[9c9c74dda0b1c4e65ea8b8420256e2ae]
@startuml
    set namespaceSeparator none
    hide empty fields
    hide empty methods

    class "<size:14>GameMenuItem\n<size:10>nz.ac.vuw.ecs.swen225.gp22.app" as nz.ac.vuw.ecs.swen225.gp22.app.GameMenuItem [[GameMenuItem.html]] {
        +GameMenuItem(String, ActionListener, int, ImageIcon)
        +GameMenuItem(String, ActionListener)
        +changeActionListener(ActionListener): void
        +changeIcon(ImageIcon): void
    }

    class "<size:14>JMenuItem\n<size:10>javax.swing" as javax.swing.JMenuItem

    javax.swing.JMenuItem <|- - nz.ac.vuw.ecs.swen225.gp22.app.GameMenuItem

    center footer UMLDoclet 2.0.19, PlantUML 1.2022.8
@enduml

PlantUML version 1.2022.8(Sun Sep 25 22:00:33 NZDT 2022)
(APACHE source distribution)
Java Runtime: Java(TM) SE Runtime Environment
JVM: Java HotSpot(TM) 64-Bit Server VM
Default Encoding: Cp1252
Language: en
Country: NZ
--></g></svg>