<?xml version="1.0" encoding="UTF-8" standalone="no"?><svg xmlns="http://www.w3.org/2000/svg" xmlns:xlink="http://www.w3.org/1999/xlink" contentStyleType="text/css" height="269px" preserveAspectRatio="none" style="width:383px;height:269px;background:#FFFFFF;" version="1.1" viewBox="0 0 383 269" width="383px" zoomAndPan="magnify"><defs/><g><!--MD5=[1e12b721866f0c423ffb9b16f061485e]
class nz.ac.vuw.ecs.swen225.gp22.app.GameButton--><a href="GameButton.html" target="_top" title="GameButton.html" xlink:actuate="onRequest" xlink:href="GameButton.html" xlink:show="new" xlink:title="GameButton.html" xlink:type="simple"><g id="elem_nz.ac.vuw.ecs.swen225.gp22.app.GameButton"><rect codeLine="5" fill="#F1F1F1" height="136.2344" id="nz.ac.vuw.ecs.swen225.gp22.app.GameButton" rx="2.5" ry="2.5" style="stroke:#181818;stroke-width:0.5;" width="369" x="7" y="107"/><ellipse cx="108.25" cy="127.0938" fill="#ADD1B2" rx="11" ry="11" style="stroke:#181818;stroke-width:1.0;"/><path d="M111.0156,122.9688 Q111.1719,122.75 111.3594,122.6406 Q111.5469,122.5313 111.7656,122.5313 Q112.1406,122.5313 112.375,122.7969 Q112.6094,123.0469 112.6094,123.6563 L112.6094,125.1094 Q112.6094,125.7188 112.375,125.9844 Q112.1406,126.25 111.7656,126.25 Q111.4219,126.25 111.2188,126.0469 Q111.0156,125.8594 110.9063,125.3438 Q110.8594,124.9844 110.6719,124.7969 Q110.3438,124.4219 109.7344,124.2031 Q109.125,123.9844 108.5,123.9844 Q107.7344,123.9844 107.0938,124.3125 Q106.4688,124.6406 105.9688,125.3906 Q105.4844,126.1406 105.4844,127.1719 L105.4844,128.2656 Q105.4844,129.5 106.375,130.3281 Q107.2656,131.1406 108.8594,131.1406 Q109.7969,131.1406 110.4531,130.8906 Q110.8438,130.7344 111.2656,130.2969 Q111.5313,130.0313 111.6719,129.9531 Q111.8281,129.875 112.0313,129.875 Q112.3594,129.875 112.6094,130.1406 Q112.875,130.3906 112.875,130.7344 Q112.875,131.0781 112.5313,131.4844 Q112.0313,132.0625 111.2344,132.3906 Q110.1563,132.8438 108.8594,132.8438 Q107.3438,132.8438 106.1406,132.2188 Q105.1563,131.7188 104.4688,130.6563 Q103.7813,129.5781 103.7813,128.2969 L103.7813,127.1406 Q103.7813,125.8125 104.3906,124.6719 Q105.0156,123.5156 106.1094,122.9063 Q107.2031,122.2813 108.4375,122.2813 Q109.1719,122.2813 109.8125,122.4531 Q110.4688,122.6094 111.0156,122.9688 Z " fill="#000000"/><text fill="#000000" font-family="sans-serif" font-size="14" lengthAdjust="spacing" textLength="79" x="168.25" y="126.5332">GameButton</text><text fill="#000000" font-family="sans-serif" font-size="10" lengthAdjust="spacing" textLength="158" x="128.75" y="139.9902">nz.ac.vuw.ecs.swen225.gp22.app</text><line style="stroke:#181818;stroke-width:0.5;" x1="8" x2="375" y1="147.1875" y2="147.1875"/><ellipse cx="18" cy="161.4922" fill="#84BE84" rx="3" ry="3" style="stroke:#038048;stroke-width:1.0;"/><text fill="#000000" font-family="sans-serif" font-size="14" lengthAdjust="spacing" textLength="298" x="27" y="165.7207">GameButton(String, Dimension, ActionListener)</text><ellipse cx="18" cy="179.1016" fill="#84BE84" rx="3" ry="3" style="stroke:#038048;stroke-width:1.0;"/><text fill="#000000" font-family="sans-serif" font-size="14" lengthAdjust="spacing" textLength="343" x="27" y="183.3301">GameButton(String, Dimension, ActionListener, String)</text><ellipse cx="18" cy="196.7109" fill="#84BE84" rx="3" ry="3" style="stroke:#038048;stroke-width:1.0;"/><text fill="#000000" font-family="sans-serif" font-size="14" lengthAdjust="spacing" textLength="154" x="27" y="200.9395">changeIcon(String): void</text><ellipse cx="18" cy="214.3203" fill="#84BE84" rx="3" ry="3" style="stroke:#038048;stroke-width:1.0;"/><text fill="#000000" font-family="sans-serif" font-size="14" lengthAdjust="spacing" textLength="271" x="27" y="218.5488">changeActionListener(ActionListener): void</text><ellipse cx="18" cy="231.9297" fill="#84BE84" rx="3" ry="3" style="stroke:#038048;stroke-width:1.0;"/><text fill="#000000" font-family="sans-serif" font-size="14" lengthAdjust="spacing" textLength="205" x="27" y="236.1582">paintComponent(Graphics): void</text></g></a><!--MD5=[7d319166b5dc6b8762d043b6fe35067f]
class javax.swing.JButton--><g id="elem_javax.swing.JButton"><rect codeLine="13" fill="#F1F1F1" height="40.1875" id="javax.swing.JButton" rx="2.5" ry="2.5" style="stroke:#181818;stroke-width:0.5;" width="86" x="148.5" y="7"/><ellipse cx="163.5" cy="27.0938" fill="#ADD1B2" rx="11" ry="11" style="stroke:#181818;stroke-width:1.0;"/><path d="M166.2656,22.9688 Q166.4219,22.75 166.6094,22.6406 Q166.7969,22.5313 167.0156,22.5313 Q167.3906,22.5313 167.625,22.7969 Q167.8594,23.0469 167.8594,23.6563 L167.8594,25.1094 Q167.8594,25.7188 167.625,25.9844 Q167.3906,26.25 167.0156,26.25 Q166.6719,26.25 166.4688,26.0469 Q166.2656,25.8594 166.1563,25.3438 Q166.1094,24.9844 165.9219,24.7969 Q165.5938,24.4219 164.9844,24.2031 Q164.375,23.9844 163.75,23.9844 Q162.9844,23.9844 162.3438,24.3125 Q161.7188,24.6406 161.2188,25.3906 Q160.7344,26.1406 160.7344,27.1719 L160.7344,28.2656 Q160.7344,29.5 161.625,30.3281 Q162.5156,31.1406 164.1094,31.1406 Q165.0469,31.1406 165.7031,30.8906 Q166.0938,30.7344 166.5156,30.2969 Q166.7813,30.0313 166.9219,29.9531 Q167.0781,29.875 167.2813,29.875 Q167.6094,29.875 167.8594,30.1406 Q168.125,30.3906 168.125,30.7344 Q168.125,31.0781 167.7813,31.4844 Q167.2813,32.0625 166.4844,32.3906 Q165.4063,32.8438 164.1094,32.8438 Q162.5938,32.8438 161.3906,32.2188 Q160.4063,31.7188 159.7188,30.6563 Q159.0313,29.5781 159.0313,28.2969 L159.0313,27.1406 Q159.0313,25.8125 159.6406,24.6719 Q160.2656,23.5156 161.3594,22.9063 Q162.4531,22.2813 163.6875,22.2813 Q164.4219,22.2813 165.0625,22.4531 Q165.7188,22.6094 166.2656,22.9688 Z " fill="#000000"/><text fill="#000000" font-family="sans-serif" font-size="14" lengthAdjust="spacing" textLength="47" x="181" y="26.5332">JButton</text><text fill="#000000" font-family="sans-serif" font-size="10" lengthAdjust="spacing" textLength="54" x="177.5" y="39.9902">javax.swing</text></g><!--MD5=[4d926b58a6a65f336eadbba2af2f8cba]
reverse link javax.swing.JButton to nz.ac.vuw.ecs.swen225.gp22.app.GameButton--><g id="link_javax.swing.JButton_nz.ac.vuw.ecs.swen225.gp22.app.GameButton"><path codeLine="15" d="M191.5,67.48 C191.5,79.66 191.5,93.44 191.5,106.95 " fill="none" id="javax.swing.JButton-backto-nz.ac.vuw.ecs.swen225.gp22.app.GameButton" style="stroke:#181818;stroke-width:1.0;"/><polygon fill="none" points="184.5,67.09,191.5,47.09,198.5,67.09,184.5,67.09" style="stroke:#181818;stroke-width:1.0;"/></g><rect fill="none" height="12.5781" style="stroke:none;stroke-width:1.0;" width="184" x="92.5" y="249.2344"/><text fill="#888888" font-family="sans-serif" font-size="10" lengthAdjust="spacing" textLength="184" x="92.5" y="259.6152">UMLDoclet 2.0.19, PlantUML 1.2022.8</text><!--MD5=[56def8aa69fc5a33c05d489846b70cb5]
@startuml
    set namespaceSeparator none
    hide empty fields
    hide empty methods

    class "<size:14>GameButton\n<size:10>nz.ac.vuw.ecs.swen225.gp22.app" as nz.ac.vuw.ecs.swen225.gp22.app.GameButton [[GameButton.html]] {
        +GameButton(String, Dimension, ActionListener)
        +GameButton(String, Dimension, ActionListener, String)
        +changeIcon(String): void
        +changeActionListener(ActionListener): void
        +paintComponent(Graphics): void
    }

    class "<size:14>JButton\n<size:10>javax.swing" as javax.swing.JButton

    javax.swing.JButton <|- - nz.ac.vuw.ecs.swen225.gp22.app.GameButton

    center footer UMLDoclet 2.0.19, PlantUML 1.2022.8
@enduml

PlantUML version 1.2022.8(Sun Sep 25 22:00:33 NZDT 2022)
(APACHE source distribution)
Java Runtime: Java(TM) SE Runtime Environment
JVM: Java HotSpot(TM) 64-Bit Server VM
Default Encoding: Cp1252
Language: en
Country: NZ
--></g></svg>