<?xml version="1.0" encoding="UTF-8" standalone="no"?><svg xmlns="http://www.w3.org/2000/svg" xmlns:xlink="http://www.w3.org/1999/xlink" contentStyleType="text/css" height="330px" preserveAspectRatio="none" style="width:285px;height:330px;background:#FFFFFF;" version="1.1" viewBox="0 0 285 330" width="285px" zoomAndPan="magnify"><defs/><g><!--MD5=[85ff4836a613686de580006803ddcc35]
class nz.ac.vuw.ecs.swen225.gp22.app.Keys--><a href="Keys.html" target="_top" title="Keys.html" xlink:actuate="onRequest" xlink:href="Keys.html" xlink:show="new" xlink:title="Keys.html" xlink:type="simple"><g id="elem_nz.ac.vuw.ecs.swen225.gp22.app.Keys"><rect codeLine="5" fill="#F1F1F1" height="136.2344" id="nz.ac.vuw.ecs.swen225.gp22.app.Keys" rx="2.5" ry="2.5" style="stroke:#181818;stroke-width:0.5;" width="271" x="7" y="168"/><ellipse cx="59.25" cy="188.0938" fill="#ADD1B2" rx="11" ry="11" style="stroke:#181818;stroke-width:1.0;"/><path d="M62.0156,183.9688 Q62.1719,183.75 62.3594,183.6406 Q62.5469,183.5313 62.7656,183.5313 Q63.1406,183.5313 63.375,183.7969 Q63.6094,184.0469 63.6094,184.6563 L63.6094,186.1094 Q63.6094,186.7188 63.375,186.9844 Q63.1406,187.25 62.7656,187.25 Q62.4219,187.25 62.2188,187.0469 Q62.0156,186.8594 61.9063,186.3438 Q61.8594,185.9844 61.6719,185.7969 Q61.3438,185.4219 60.7344,185.2031 Q60.125,184.9844 59.5,184.9844 Q58.7344,184.9844 58.0938,185.3125 Q57.4688,185.6406 56.9688,186.3906 Q56.4844,187.1406 56.4844,188.1719 L56.4844,189.2656 Q56.4844,190.5 57.375,191.3281 Q58.2656,192.1406 59.8594,192.1406 Q60.7969,192.1406 61.4531,191.8906 Q61.8438,191.7344 62.2656,191.2969 Q62.5313,191.0313 62.6719,190.9531 Q62.8281,190.875 63.0313,190.875 Q63.3594,190.875 63.6094,191.1406 Q63.875,191.3906 63.875,191.7344 Q63.875,192.0781 63.5313,192.4844 Q63.0313,193.0625 62.2344,193.3906 Q61.1563,193.8438 59.8594,193.8438 Q58.3438,193.8438 57.1406,193.2188 Q56.1563,192.7188 55.4688,191.6563 Q54.7813,190.5781 54.7813,189.2969 L54.7813,188.1406 Q54.7813,186.8125 55.3906,185.6719 Q56.0156,184.5156 57.1094,183.9063 Q58.2031,183.2813 59.4375,183.2813 Q60.1719,183.2813 60.8125,183.4531 Q61.4688,183.6094 62.0156,183.9688 Z " fill="#000000"/><text fill="#000000" font-family="sans-serif" font-size="14" lengthAdjust="spacing" textLength="31" x="143.25" y="187.5332">Keys</text><text fill="#000000" font-family="sans-serif" font-size="10" lengthAdjust="spacing" textLength="158" x="79.75" y="200.9902">nz.ac.vuw.ecs.swen225.gp22.app</text><line style="stroke:#181818;stroke-width:0.5;" x1="8" x2="277" y1="208.1875" y2="208.1875"/><ellipse cx="18" cy="222.4922" fill="#84BE84" rx="3" ry="3" style="stroke:#038048;stroke-width:1.0;"/><text fill="#000000" font-family="sans-serif" font-size="14" lengthAdjust="spacing" textLength="245" x="27" y="226.7207">setAction(int, Runnable, boolean): void</text><ellipse cx="18" cy="240.1016" fill="#84BE84" rx="3" ry="3" style="stroke:#038048;stroke-width:1.0;"/><text fill="#000000" font-family="sans-serif" font-size="14" lengthAdjust="spacing" textLength="186" x="27" y="244.3301">setAction(int, Runnable): void</text><ellipse cx="18" cy="257.7109" fill="#84BE84" rx="3" ry="3" style="stroke:#038048;stroke-width:1.0;"/><text fill="#000000" font-family="sans-serif" font-size="14" lengthAdjust="spacing" textLength="166" x="27" y="261.9395">keyTyped(KeyEvent): void</text><ellipse cx="18" cy="275.3203" fill="#84BE84" rx="3" ry="3" style="stroke:#038048;stroke-width:1.0;"/><text fill="#000000" font-family="sans-serif" font-size="14" lengthAdjust="spacing" textLength="178" x="27" y="279.5488">keyPressed(KeyEvent): void</text><ellipse cx="18" cy="292.9297" fill="#84BE84" rx="3" ry="3" style="stroke:#038048;stroke-width:1.0;"/><text fill="#000000" font-family="sans-serif" font-size="14" lengthAdjust="spacing" textLength="186" x="27" y="297.1582">keyReleased(KeyEvent): void</text></g></a><!--MD5=[3eb55d915ce4c988cc6fe2a782a0fcdf]
class java.awt.event.KeyListener--><g id="elem_java.awt.event.KeyListener"><rect codeLine="13" fill="#F1F1F1" height="101.0156" id="java.awt.event.KeyListener" rx="2.5" ry="2.5" style="stroke:#181818;stroke-width:0.5;" width="211" x="37" y="7"/><ellipse cx="100.75" cy="27.0938" fill="#B4A7E5" rx="11" ry="11" style="stroke:#181818;stroke-width:1.0;"/><path d="M101.7031,23.7344 L101.7031,30.3906 L103.4219,30.3906 Q104.0313,30.3906 104.2969,30.625 Q104.5625,30.8594 104.5625,31.25 Q104.5625,31.625 104.2969,31.8594 Q104.0313,32.0938 103.4219,32.0938 L98.2813,32.0938 Q97.6719,32.0938 97.4063,31.8594 Q97.1406,31.625 97.1406,31.2344 Q97.1406,30.8594 97.4063,30.625 Q97.6719,30.3906 98.2813,30.3906 L100,30.3906 L100,23.7344 L98.2813,23.7344 Q97.6719,23.7344 97.4063,23.5 Q97.1406,23.2656 97.1406,22.875 Q97.1406,22.5 97.4063,22.2656 Q97.6719,22.0313 98.2813,22.0313 L103.4219,22.0313 Q104.0313,22.0313 104.2969,22.2656 Q104.5625,22.5 104.5625,22.875 Q104.5625,23.2656 104.2969,23.5 Q104.0313,23.7344 103.4219,23.7344 L101.7031,23.7344 Z " fill="#000000"/><text fill="#000000" font-family="sans-serif" font-size="14" font-style="italic" lengthAdjust="spacing" textLength="75" x="121.25" y="26.5332">KeyListener</text><text fill="#000000" font-family="sans-serif" font-size="10" font-style="italic" lengthAdjust="spacing" textLength="68" x="124.75" y="39.9902">java.awt.event</text><line style="stroke:#181818;stroke-width:0.5;" x1="38" x2="247" y1="47.1875" y2="47.1875"/><ellipse cx="48" cy="61.4922" fill="#84BE84" rx="3" ry="3" style="stroke:#038048;stroke-width:1.0;"/><text fill="#000000" font-family="sans-serif" font-size="14" font-style="italic" lengthAdjust="spacing" textLength="165" x="57" y="65.7207">keyTyped(KeyEvent): void</text><ellipse cx="48" cy="79.1016" fill="#84BE84" rx="3" ry="3" style="stroke:#038048;stroke-width:1.0;"/><text fill="#000000" font-family="sans-serif" font-size="14" font-style="italic" lengthAdjust="spacing" textLength="177" x="57" y="83.3301">keyPressed(KeyEvent): void</text><ellipse cx="48" cy="96.7109" fill="#84BE84" rx="3" ry="3" style="stroke:#038048;stroke-width:1.0;"/><text fill="#000000" font-family="sans-serif" font-size="14" font-style="italic" lengthAdjust="spacing" textLength="185" x="57" y="100.9395">keyReleased(KeyEvent): void</text></g><!--MD5=[4222f7c368899ded438c0aa94a5b87bb]
reverse link java.awt.event.KeyListener to nz.ac.vuw.ecs.swen225.gp22.app.Keys--><g id="link_java.awt.event.KeyListener_nz.ac.vuw.ecs.swen225.gp22.app.Keys"><path codeLine="19" d="M142.5,128.57 C142.5,141.55 142.5,155.07 142.5,167.96 " fill="none" id="java.awt.event.KeyListener-backto-nz.ac.vuw.ecs.swen225.gp22.app.Keys" style="stroke:#181818;stroke-width:1.0;stroke-dasharray:7.0,7.0;"/><polygon fill="none" points="135.5,128.13,142.5,108.13,149.5,128.13,135.5,128.13" style="stroke:#181818;stroke-width:1.0;"/></g><rect fill="none" height="12.5781" style="stroke:none;stroke-width:1.0;" width="184" x="43.5" y="310.2344"/><text fill="#888888" font-family="sans-serif" font-size="10" lengthAdjust="spacing" textLength="184" x="43.5" y="320.6152">UMLDoclet 2.0.19, PlantUML 1.2022.8</text><!--MD5=[42889fd641d9e54cbd45eff4f9a05fa3]
@startuml
    set namespaceSeparator none
    hide empty fields
    hide empty methods

    class "<size:14>Keys\n<size:10>nz.ac.vuw.ecs.swen225.gp22.app" as nz.ac.vuw.ecs.swen225.gp22.app.Keys [[Keys.html]] {
        +setAction(int, Runnable, boolean): void
        +setAction(int, Runnable): void
        +keyTyped(KeyEvent): void
        +keyPressed(KeyEvent): void
        +keyReleased(KeyEvent): void
    }

    interface "<size:14>KeyListener\n<size:10>java.awt.event" as java.awt.event.KeyListener {
        {abstract} +keyTyped(KeyEvent): void
        {abstract} +keyPressed(KeyEvent): void
        {abstract} +keyReleased(KeyEvent): void
    }

    java.awt.event.KeyListener <|.. nz.ac.vuw.ecs.swen225.gp22.app.Keys

    center footer UMLDoclet 2.0.19, PlantUML 1.2022.8
@enduml

PlantUML version 1.2022.8(Sun Sep 25 22:00:33 NZDT 2022)
(APACHE source distribution)
Java Runtime: Java(TM) SE Runtime Environment
JVM: Java HotSpot(TM) 64-Bit Server VM
Default Encoding: Cp1252
Language: en
Country: NZ
--></g></svg>