<?xml version="1.0" encoding="UTF-8" standalone="no"?><svg xmlns="http://www.w3.org/2000/svg" xmlns:xlink="http://www.w3.org/1999/xlink" contentStyleType="text/css" height="199px" preserveAspectRatio="none" style="width:204px;height:199px;background:#FFFFFF;" version="1.1" viewBox="0 0 204 199" width="204px" zoomAndPan="magnify"><defs/><g><!--MD5=[89e0708b08860a588969f69970b8b8c4]
class nz.ac.vuw.ecs.swen225.gp22.app.MenuMainPanel--><a href="MenuMainPanel.html" target="_top" title="MenuMainPanel.html" xlink:actuate="onRequest" xlink:href="MenuMainPanel.html" xlink:show="new" xlink:title="MenuMainPanel.html" xlink:type="simple"><g id="elem_nz.ac.vuw.ecs.swen225.gp22.app.MenuMainPanel"><rect codeLine="5" fill="#F1F1F1" height="65.7969" id="nz.ac.vuw.ecs.swen225.gp22.app.MenuMainPanel" rx="2.5" ry="2.5" style="stroke:#181818;stroke-width:0.5;" width="190" x="7" y="107"/><ellipse cx="22" cy="127.0938" fill="#ADD1B2" rx="11" ry="11" style="stroke:#181818;stroke-width:1.0;"/><path d="M24.7656,122.9688 Q24.9219,122.75 25.1094,122.6406 Q25.2969,122.5313 25.5156,122.5313 Q25.8906,122.5313 26.125,122.7969 Q26.3594,123.0469 26.3594,123.6563 L26.3594,125.1094 Q26.3594,125.7188 26.125,125.9844 Q25.8906,126.25 25.5156,126.25 Q25.1719,126.25 24.9688,126.0469 Q24.7656,125.8594 24.6563,125.3438 Q24.6094,124.9844 24.4219,124.7969 Q24.0938,124.4219 23.4844,124.2031 Q22.875,123.9844 22.25,123.9844 Q21.4844,123.9844 20.8438,124.3125 Q20.2188,124.6406 19.7188,125.3906 Q19.2344,126.1406 19.2344,127.1719 L19.2344,128.2656 Q19.2344,129.5 20.125,130.3281 Q21.0156,131.1406 22.6094,131.1406 Q23.5469,131.1406 24.2031,130.8906 Q24.5938,130.7344 25.0156,130.2969 Q25.2813,130.0313 25.4219,129.9531 Q25.5781,129.875 25.7813,129.875 Q26.1094,129.875 26.3594,130.1406 Q26.625,130.3906 26.625,130.7344 Q26.625,131.0781 26.2813,131.4844 Q25.7813,132.0625 24.9844,132.3906 Q23.9063,132.8438 22.6094,132.8438 Q21.0938,132.8438 19.8906,132.2188 Q18.9063,131.7188 18.2188,130.6563 Q17.5313,129.5781 17.5313,128.2969 L17.5313,127.1406 Q17.5313,125.8125 18.1406,124.6719 Q18.7656,123.5156 19.8594,122.9063 Q20.9531,122.2813 22.1875,122.2813 Q22.9219,122.2813 23.5625,122.4531 Q24.2188,122.6094 24.7656,122.9688 Z " fill="#000000"/><text fill="#000000" font-family="sans-serif" font-size="14" lengthAdjust="spacing" textLength="101" x="64.5" y="126.5332">MenuMainPanel</text><text fill="#000000" font-family="sans-serif" font-size="10" lengthAdjust="spacing" textLength="158" x="36" y="139.9902">nz.ac.vuw.ecs.swen225.gp22.app</text><line style="stroke:#181818;stroke-width:0.5;" x1="8" x2="196" y1="147.1875" y2="147.1875"/><ellipse cx="18" cy="161.4922" fill="#84BE84" rx="3" ry="3" style="stroke:#038048;stroke-width:1.0;"/><text fill="#000000" font-family="sans-serif" font-size="14" lengthAdjust="spacing" textLength="143" x="27" y="165.7207">MenuMainPanel(Base)</text></g></a><!--MD5=[56a185cb33bdc7c23303e5865f20a19b]
class javax.swing.JPanel--><g id="elem_javax.swing.JPanel"><rect codeLine="9" fill="#F1F1F1" height="40.1875" id="javax.swing.JPanel" rx="2.5" ry="2.5" style="stroke:#181818;stroke-width:0.5;" width="86" x="59" y="7"/><ellipse cx="74" cy="27.0938" fill="#ADD1B2" rx="11" ry="11" style="stroke:#181818;stroke-width:1.0;"/><path d="M76.7656,22.9688 Q76.9219,22.75 77.1094,22.6406 Q77.2969,22.5313 77.5156,22.5313 Q77.8906,22.5313 78.125,22.7969 Q78.3594,23.0469 78.3594,23.6563 L78.3594,25.1094 Q78.3594,25.7188 78.125,25.9844 Q77.8906,26.25 77.5156,26.25 Q77.1719,26.25 76.9688,26.0469 Q76.7656,25.8594 76.6563,25.3438 Q76.6094,24.9844 76.4219,24.7969 Q76.0938,24.4219 75.4844,24.2031 Q74.875,23.9844 74.25,23.9844 Q73.4844,23.9844 72.8438,24.3125 Q72.2188,24.6406 71.7188,25.3906 Q71.2344,26.1406 71.2344,27.1719 L71.2344,28.2656 Q71.2344,29.5 72.125,30.3281 Q73.0156,31.1406 74.6094,31.1406 Q75.5469,31.1406 76.2031,30.8906 Q76.5938,30.7344 77.0156,30.2969 Q77.2813,30.0313 77.4219,29.9531 Q77.5781,29.875 77.7813,29.875 Q78.1094,29.875 78.3594,30.1406 Q78.625,30.3906 78.625,30.7344 Q78.625,31.0781 78.2813,31.4844 Q77.7813,32.0625 76.9844,32.3906 Q75.9063,32.8438 74.6094,32.8438 Q73.0938,32.8438 71.8906,32.2188 Q70.9063,31.7188 70.2188,30.6563 Q69.5313,29.5781 69.5313,28.2969 L69.5313,27.1406 Q69.5313,25.8125 70.1406,24.6719 Q70.7656,23.5156 71.8594,22.9063 Q72.9531,22.2813 74.1875,22.2813 Q74.9219,22.2813 75.5625,22.4531 Q76.2188,22.6094 76.7656,22.9688 Z " fill="#000000"/><text fill="#000000" font-family="sans-serif" font-size="14" lengthAdjust="spacing" textLength="42" x="94" y="26.5332">JPanel</text><text fill="#000000" font-family="sans-serif" font-size="10" lengthAdjust="spacing" textLength="54" x="88" y="39.9902">javax.swing</text></g><!--MD5=[fe94a40c2213e39212e14d4f30aba984]
reverse link javax.swing.JPanel to nz.ac.vuw.ecs.swen225.gp22.app.MenuMainPanel--><g id="link_javax.swing.JPanel_nz.ac.vuw.ecs.swen225.gp22.app.MenuMainPanel"><path codeLine="11" d="M102,67.09 C102,80.05 102,94.32 102,106.71 " fill="none" id="javax.swing.JPanel-backto-nz.ac.vuw.ecs.swen225.gp22.app.MenuMainPanel" style="stroke:#181818;stroke-width:1.0;"/><polygon fill="none" points="95,67.08,102,47.08,109,67.08,95,67.08" style="stroke:#181818;stroke-width:1.0;"/></g><rect fill="none" height="12.5781" style="stroke:none;stroke-width:1.0;" width="184" x="3" y="178.7969"/><text fill="#888888" font-family="sans-serif" font-size="10" lengthAdjust="spacing" textLength="184" x="3" y="189.1777">UMLDoclet 2.0.19, PlantUML 1.2022.8</text><!--MD5=[b2e6471c2166d519fc1382542720432f]
@startuml
    set namespaceSeparator none
    hide empty fields
    hide empty methods

    class "<size:14>MenuMainPanel\n<size:10>nz.ac.vuw.ecs.swen225.gp22.app" as nz.ac.vuw.ecs.swen225.gp22.app.MenuMainPanel [[MenuMainPanel.html]] {
        +MenuMainPanel(Base)
    }

    class "<size:14>JPanel\n<size:10>javax.swing" as javax.swing.JPanel

    javax.swing.JPanel <|- - nz.ac.vuw.ecs.swen225.gp22.app.MenuMainPanel

    center footer UMLDoclet 2.0.19, PlantUML 1.2022.8
@enduml

PlantUML version 1.2022.8(Sun Sep 25 22:00:33 NZDT 2022)
(APACHE source distribution)
Java Runtime: Java(TM) SE Runtime Environment
JVM: Java HotSpot(TM) 64-Bit Server VM
Default Encoding: Cp1252
Language: en
Country: NZ
--></g></svg>