<?xml version="1.0" encoding="UTF-8" standalone="no"?><svg xmlns="http://www.w3.org/2000/svg" xmlns:xlink="http://www.w3.org/1999/xlink" contentStyleType="text/css" height="972px" preserveAspectRatio="none" style="width:2773px;height:972px;background:#FFFFFF;" version="1.1" viewBox="0 0 2773 972" width="2773px" zoomAndPan="magnify"><defs/><g><!--MD5=[52976c862519184f821fcadd77b8b983]
cluster nz.ac.vuw.ecs.swen225.gp22.app--><g id="cluster_nz.ac.vuw.ecs.swen225.gp22.app"><path d="M8.5,192 L240.5,192 A3.75,3.75 0 0 1 243,194.5 L250,215.6094 L2563.5,215.6094 A2.5,2.5 0 0 1 2566,218.1094 L2566,943.5 A2.5,2.5 0 0 1 2563.5,946 L8.5,946 A2.5,2.5 0 0 1 6,943.5 L6,194.5 A2.5,2.5 0 0 1 8.5,192 " fill="none" style="stroke:#000000;stroke-width:1.5;"/><line style="stroke:#000000;stroke-width:1.5;" x1="6" x2="250" y1="215.6094" y2="215.6094"/><text fill="#000000" font-family="sans-serif" font-size="14" font-weight="bold" lengthAdjust="spacing" textLength="231" x="10" y="208.5332">nz.ac.vuw.ecs.swen225.gp22.app</text></g><!--MD5=[535aab4de90d4dfa371a9b40d5438fc3]
cluster javax.swing--><g id="cluster_javax.swing"><path d="M662.5,6 L745.5,6 A3.75,3.75 0 0 1 748,8.5 L755,29.6094 L1738.5,29.6094 A2.5,2.5 0 0 1 1741,32.1094 L1741,156.5 A2.5,2.5 0 0 1 1738.5,159 L662.5,159 A2.5,2.5 0 0 1 660,156.5 L660,8.5 A2.5,2.5 0 0 1 662.5,6 " fill="none" style="stroke:#000000;stroke-width:1.5;"/><line style="stroke:#000000;stroke-width:1.5;" x1="660" x2="755" y1="29.6094" y2="29.6094"/><text fill="#000000" font-family="sans-serif" font-size="14" font-weight="bold" lengthAdjust="spacing" textLength="82" x="664" y="22.5332">javax.swing</text></g><!--MD5=[d63c23c2d4b14118d71bd46d55a646bd]
cluster java.awt.event--><g id="cluster_java.awt.event"><path d="M2524.5,6 L2627.5,6 A3.75,3.75 0 0 1 2630,8.5 L2637,29.6094 L2763.5,29.6094 A2.5,2.5 0 0 1 2766,32.1094 L2766,156.5 A2.5,2.5 0 0 1 2763.5,159 L2524.5,159 A2.5,2.5 0 0 1 2522,156.5 L2522,8.5 A2.5,2.5 0 0 1 2524.5,6 " fill="none" style="stroke:#000000;stroke-width:1.5;"/><line style="stroke:#000000;stroke-width:1.5;" x1="2522" x2="2637" y1="29.6094" y2="29.6094"/><text fill="#000000" font-family="sans-serif" font-size="14" font-weight="bold" lengthAdjust="spacing" textLength="102" x="2526" y="22.5332">java.awt.event</text></g><!--MD5=[f4af6368b622d465b448a2389e49aca0]
class nz.ac.vuw.ecs.swen225.gp22.app.Base--><a href="Base.html" target="_top" title="Base.html" xlink:actuate="onRequest" xlink:href="Base.html" xlink:show="new" xlink:title="Base.html" xlink:type="simple"><g id="elem_nz.ac.vuw.ecs.swen225.gp22.app.Base"><rect codeLine="3" fill="#F1F1F1" height="488.2344" id="nz.ac.vuw.ecs.swen225.gp22.app.Base" rx="2.5" ry="2.5" style="stroke:#181818;stroke-width:0.5;" width="267" x="406.5" y="228"/><ellipse cx="519.75" cy="244" fill="#ADD1B2" rx="11" ry="11" style="stroke:#181818;stroke-width:1.0;"/><path d="M522.5156,239.875 Q522.6719,239.6563 522.8594,239.5469 Q523.0469,239.4375 523.2656,239.4375 Q523.6406,239.4375 523.875,239.7031 Q524.1094,239.9531 524.1094,240.5625 L524.1094,242.0156 Q524.1094,242.625 523.875,242.8906 Q523.6406,243.1563 523.2656,243.1563 Q522.9219,243.1563 522.7188,242.9531 Q522.5156,242.7656 522.4063,242.25 Q522.3594,241.8906 522.1719,241.7031 Q521.8438,241.3281 521.2344,241.1094 Q520.625,240.8906 520,240.8906 Q519.2344,240.8906 518.5938,241.2188 Q517.9688,241.5469 517.4688,242.2969 Q516.9844,243.0469 516.9844,244.0781 L516.9844,245.1719 Q516.9844,246.4063 517.875,247.2344 Q518.7656,248.0469 520.3594,248.0469 Q521.2969,248.0469 521.9531,247.7969 Q522.3438,247.6406 522.7656,247.2031 Q523.0313,246.9375 523.1719,246.8594 Q523.3281,246.7813 523.5313,246.7813 Q523.8594,246.7813 524.1094,247.0469 Q524.375,247.2969 524.375,247.6406 Q524.375,247.9844 524.0313,248.3906 Q523.5313,248.9688 522.7344,249.2969 Q521.6563,249.75 520.3594,249.75 Q518.8438,249.75 517.6406,249.125 Q516.6563,248.625 515.9688,247.5625 Q515.2813,246.4844 515.2813,245.2031 L515.2813,244.0469 Q515.2813,242.7188 515.8906,241.5781 Q516.5156,240.4219 517.6094,239.8125 Q518.7031,239.1875 519.9375,239.1875 Q520.6719,239.1875 521.3125,239.3594 Q521.9688,239.5156 522.5156,239.875 Z " fill="#000000"/><text fill="#000000" font-family="sans-serif" font-size="14" lengthAdjust="spacing" textLength="32" x="540.25" y="249.7285">Base</text><line style="stroke:#181818;stroke-width:0.5;" x1="407.5" x2="672.5" y1="260" y2="260"/><line style="stroke:#181818;stroke-width:0.5;" x1="407.5" x2="672.5" y1="268" y2="268"/><ellipse cx="417.5" cy="282.3047" fill="#84BE84" rx="3" ry="3" style="stroke:#038048;stroke-width:1.0;"/><text fill="#000000" font-family="sans-serif" font-size="14" lengthAdjust="spacing" textLength="141" x="426.5" y="286.5332">runClosePhase(): void</text><ellipse cx="417.5" cy="299.9141" fill="#84BE84" rx="3" ry="3" style="stroke:#038048;stroke-width:1.0;"/><text fill="#000000" font-family="sans-serif" font-size="14" lengthAdjust="spacing" text-decoration="underline" textLength="112" x="426.5" y="304.1426">setLevel(int): void</text><ellipse cx="417.5" cy="317.5234" fill="#84BE84" rx="3" ry="3" style="stroke:#038048;stroke-width:1.0;"/><text fill="#000000" font-family="sans-serif" font-size="14" lengthAdjust="spacing" text-decoration="underline" textLength="109" x="426.5" y="321.752">setTime(int): void</text><ellipse cx="417.5" cy="335.1328" fill="#84BE84" rx="3" ry="3" style="stroke:#038048;stroke-width:1.0;"/><text fill="#000000" font-family="sans-serif" font-size="14" lengthAdjust="spacing" text-decoration="underline" textLength="87" x="426.5" y="339.3613">getLevel(): int</text><ellipse cx="417.5" cy="352.7422" fill="#84BE84" rx="3" ry="3" style="stroke:#038048;stroke-width:1.0;"/><text fill="#000000" font-family="sans-serif" font-size="14" lengthAdjust="spacing" text-decoration="underline" textLength="84" x="426.5" y="356.9707">getTime(): int</text><ellipse cx="417.5" cy="370.3516" fill="#84BE84" rx="3" ry="3" style="stroke:#038048;stroke-width:1.0;"/><text fill="#000000" font-family="sans-serif" font-size="14" lengthAdjust="spacing" textLength="110" x="426.5" y="374.5801">startGame(): void</text><ellipse cx="417.5" cy="387.9609" fill="#84BE84" rx="3" ry="3" style="stroke:#038048;stroke-width:1.0;"/><text fill="#000000" font-family="sans-serif" font-size="14" lengthAdjust="spacing" textLength="83" x="426.5" y="392.1895">pause(): void</text><ellipse cx="417.5" cy="405.5703" fill="#84BE84" rx="3" ry="3" style="stroke:#038048;stroke-width:1.0;"/><text fill="#000000" font-family="sans-serif" font-size="14" lengthAdjust="spacing" textLength="100" x="426.5" y="409.7988">unPause(): void</text><ellipse cx="417.5" cy="423.1797" fill="#84BE84" rx="3" ry="3" style="stroke:#038048;stroke-width:1.0;"/><text fill="#000000" font-family="sans-serif" font-size="14" lengthAdjust="spacing" textLength="123" x="426.5" y="427.4082">replayPhase(): void</text><ellipse cx="417.5" cy="440.7891" fill="#84BE84" rx="3" ry="3" style="stroke:#038048;stroke-width:1.0;"/><text fill="#000000" font-family="sans-serif" font-size="14" lengthAdjust="spacing" textLength="109" x="426.5" y="445.0176">loadGame(): void</text><ellipse cx="417.5" cy="458.3984" fill="#84BE84" rx="3" ry="3" style="stroke:#038048;stroke-width:1.0;"/><text fill="#000000" font-family="sans-serif" font-size="14" lengthAdjust="spacing" textLength="122" x="426.5" y="462.627">newGame(int): void</text><ellipse cx="417.5" cy="476.0078" fill="#84BE84" rx="3" ry="3" style="stroke:#038048;stroke-width:1.0;"/><text fill="#000000" font-family="sans-serif" font-size="14" lengthAdjust="spacing" textLength="112" x="426.5" y="480.2363">saveGame(): void</text><ellipse cx="417.5" cy="493.6172" fill="#84BE84" rx="3" ry="3" style="stroke:#038048;stroke-width:1.0;"/><text fill="#000000" font-family="sans-serif" font-size="14" lengthAdjust="spacing" textLength="115" x="426.5" y="497.8457">resetFocus(): void</text><ellipse cx="417.5" cy="511.2266" fill="#84BE84" rx="3" ry="3" style="stroke:#038048;stroke-width:1.0;"/><text fill="#000000" font-family="sans-serif" font-size="14" lengthAdjust="spacing" textLength="96" x="426.5" y="515.4551">saveExit(): void</text><ellipse cx="417.5" cy="528.8359" fill="#84BE84" rx="3" ry="3" style="stroke:#038048;stroke-width:1.0;"/><text fill="#000000" font-family="sans-serif" font-size="14" lengthAdjust="spacing" textLength="112" x="426.5" y="533.0645">playerDied(): void</text><ellipse cx="417.5" cy="546.4453" fill="#84BE84" rx="3" ry="3" style="stroke:#038048;stroke-width:1.0;"/><text fill="#000000" font-family="sans-serif" font-size="14" lengthAdjust="spacing" textLength="112" x="426.5" y="550.6738">playerWon(): void</text><ellipse cx="417.5" cy="564.0547" fill="#84BE84" rx="3" ry="3" style="stroke:#038048;stroke-width:1.0;"/><text fill="#000000" font-family="sans-serif" font-size="14" lengthAdjust="spacing" textLength="119" x="426.5" y="568.2832">nextLevel(int): void</text><ellipse cx="417.5" cy="581.6641" fill="#84BE84" rx="3" ry="3" style="stroke:#038048;stroke-width:1.0;"/><text fill="#000000" font-family="sans-serif" font-size="14" lengthAdjust="spacing" textLength="103" x="426.5" y="585.8926">exitGame(): void</text><ellipse cx="417.5" cy="599.2734" fill="#84BE84" rx="3" ry="3" style="stroke:#038048;stroke-width:1.0;"/><text fill="#000000" font-family="sans-serif" font-size="14" lengthAdjust="spacing" textLength="174" x="426.5" y="603.502">movePlayer(Direction): void</text><ellipse cx="417.5" cy="616.8828" fill="#84BE84" rx="3" ry="3" style="stroke:#038048;stroke-width:1.0;"/><text fill="#000000" font-family="sans-serif" font-size="14" lengthAdjust="spacing" textLength="124" x="426.5" y="621.1113">menuScreen(): void</text><ellipse cx="417.5" cy="634.4922" fill="#84BE84" rx="3" ry="3" style="stroke:#038048;stroke-width:1.0;"/><text fill="#000000" font-family="sans-serif" font-size="14" lengthAdjust="spacing" textLength="153" x="426.5" y="638.7207">undo(List&lt;Action&gt;): void</text><ellipse cx="417.5" cy="652.1016" fill="#84BE84" rx="3" ry="3" style="stroke:#038048;stroke-width:1.0;"/><text fill="#000000" font-family="sans-serif" font-size="14" lengthAdjust="spacing" textLength="155" x="426.5" y="656.3301">apply(List&lt;Action&gt;): void</text><ellipse cx="417.5" cy="669.7109" fill="#84BE84" rx="3" ry="3" style="stroke:#038048;stroke-width:1.0;"/><text fill="#000000" font-family="sans-serif" font-size="14" lengthAdjust="spacing" textLength="155" x="426.5" y="673.9395">getAction(Action): Action</text><ellipse cx="417.5" cy="687.3203" fill="#84BE84" rx="3" ry="3" style="stroke:#038048;stroke-width:1.0;"/><text fill="#000000" font-family="sans-serif" font-size="14" lengthAdjust="spacing" textLength="105" x="426.5" y="691.5488">loadLevel(): void</text><ellipse cx="417.5" cy="704.9297" fill="#84BE84" rx="3" ry="3" style="stroke:#038048;stroke-width:1.0;"/><text fill="#000000" font-family="sans-serif" font-size="14" lengthAdjust="spacing" textLength="241" x="426.5" y="709.1582">changeKeyListener(KeyListener): void</text></g></a><!--MD5=[68d3cef38b0407db7ac5f85b61c55e8e]
class nz.ac.vuw.ecs.swen225.gp22.app.Controller--><a href="Controller.html" target="_top" title="Controller.html" xlink:actuate="onRequest" xlink:href="Controller.html" xlink:show="new" xlink:title="Controller.html" xlink:type="simple"><g id="elem_nz.ac.vuw.ecs.swen225.gp22.app.Controller"><rect codeLine="31" fill="#F1F1F1" height="100.8281" id="nz.ac.vuw.ecs.swen225.gp22.app.Controller" rx="2.5" ry="2.5" style="stroke:#181818;stroke-width:0.5;" width="189" x="2319.5" y="811.5"/><ellipse cx="2378.75" cy="827.5" fill="#ADD1B2" rx="11" ry="11" style="stroke:#181818;stroke-width:1.0;"/><path d="M2381.5156,823.375 Q2381.6719,823.1563 2381.8594,823.0469 Q2382.0469,822.9375 2382.2656,822.9375 Q2382.6406,822.9375 2382.875,823.2031 Q2383.1094,823.4531 2383.1094,824.0625 L2383.1094,825.5156 Q2383.1094,826.125 2382.875,826.3906 Q2382.6406,826.6563 2382.2656,826.6563 Q2381.9219,826.6563 2381.7188,826.4531 Q2381.5156,826.2656 2381.4063,825.75 Q2381.3594,825.3906 2381.1719,825.2031 Q2380.8438,824.8281 2380.2344,824.6094 Q2379.625,824.3906 2379,824.3906 Q2378.2344,824.3906 2377.5938,824.7188 Q2376.9688,825.0469 2376.4688,825.7969 Q2375.9844,826.5469 2375.9844,827.5781 L2375.9844,828.6719 Q2375.9844,829.9063 2376.875,830.7344 Q2377.7656,831.5469 2379.3594,831.5469 Q2380.2969,831.5469 2380.9531,831.2969 Q2381.3438,831.1406 2381.7656,830.7031 Q2382.0313,830.4375 2382.1719,830.3594 Q2382.3281,830.2813 2382.5313,830.2813 Q2382.8594,830.2813 2383.1094,830.5469 Q2383.375,830.7969 2383.375,831.1406 Q2383.375,831.4844 2383.0313,831.8906 Q2382.5313,832.4688 2381.7344,832.7969 Q2380.6563,833.25 2379.3594,833.25 Q2377.8438,833.25 2376.6406,832.625 Q2375.6563,832.125 2374.9688,831.0625 Q2374.2813,829.9844 2374.2813,828.7031 L2374.2813,827.5469 Q2374.2813,826.2188 2374.8906,825.0781 Q2375.5156,823.9219 2376.6094,823.3125 Q2377.7031,822.6875 2378.9375,822.6875 Q2379.6719,822.6875 2380.3125,822.8594 Q2380.9688,823.0156 2381.5156,823.375 Z " fill="#000000"/><text fill="#000000" font-family="sans-serif" font-size="14" lengthAdjust="spacing" textLength="62" x="2399.25" y="833.2285">Controller</text><line style="stroke:#181818;stroke-width:0.5;" x1="2320.5" x2="2507.5" y1="843.5" y2="843.5"/><line style="stroke:#181818;stroke-width:0.5;" x1="2320.5" x2="2507.5" y1="851.5" y2="851.5"/><ellipse cx="2330.5" cy="865.8047" fill="#84BE84" rx="3" ry="3" style="stroke:#038048;stroke-width:1.0;"/><text fill="#000000" font-family="sans-serif" font-size="14" lengthAdjust="spacing" textLength="104" x="2339.5" y="870.0332">Controller(Base)</text><ellipse cx="2330.5" cy="883.4141" fill="#84BE84" rx="3" ry="3" style="stroke:#038048;stroke-width:1.0;"/><text fill="#000000" font-family="sans-serif" font-size="14" lengthAdjust="spacing" textLength="163" x="2339.5" y="887.6426">Controller(Base, boolean)</text><ellipse cx="2330.5" cy="901.0234" fill="#84BE84" rx="3" ry="3" style="stroke:#038048;stroke-width:1.0;"/><text fill="#000000" font-family="sans-serif" font-size="14" lengthAdjust="spacing" textLength="158" x="2339.5" y="905.252">Controller(Base, JDialog)</text></g></a><!--MD5=[1e12b721866f0c423ffb9b16f061485e]
class nz.ac.vuw.ecs.swen225.gp22.app.GameButton--><a href="GameButton.html" target="_top" title="GameButton.html" xlink:actuate="onRequest" xlink:href="GameButton.html" xlink:show="new" xlink:title="GameButton.html" xlink:type="simple"><g id="elem_nz.ac.vuw.ecs.swen225.gp22.app.GameButton"><rect codeLine="37" fill="#F1F1F1" height="136.0469" id="nz.ac.vuw.ecs.swen225.gp22.app.GameButton" rx="2.5" ry="2.5" style="stroke:#181818;stroke-width:0.5;" width="369" x="708.5" y="404"/><ellipse cx="849.25" cy="420" fill="#ADD1B2" rx="11" ry="11" style="stroke:#181818;stroke-width:1.0;"/><path d="M852.0156,415.875 Q852.1719,415.6563 852.3594,415.5469 Q852.5469,415.4375 852.7656,415.4375 Q853.1406,415.4375 853.375,415.7031 Q853.6094,415.9531 853.6094,416.5625 L853.6094,418.0156 Q853.6094,418.625 853.375,418.8906 Q853.1406,419.1563 852.7656,419.1563 Q852.4219,419.1563 852.2188,418.9531 Q852.0156,418.7656 851.9063,418.25 Q851.8594,417.8906 851.6719,417.7031 Q851.3438,417.3281 850.7344,417.1094 Q850.125,416.8906 849.5,416.8906 Q848.7344,416.8906 848.0938,417.2188 Q847.4688,417.5469 846.9688,418.2969 Q846.4844,419.0469 846.4844,420.0781 L846.4844,421.1719 Q846.4844,422.4063 847.375,423.2344 Q848.2656,424.0469 849.8594,424.0469 Q850.7969,424.0469 851.4531,423.7969 Q851.8438,423.6406 852.2656,423.2031 Q852.5313,422.9375 852.6719,422.8594 Q852.8281,422.7813 853.0313,422.7813 Q853.3594,422.7813 853.6094,423.0469 Q853.875,423.2969 853.875,423.6406 Q853.875,423.9844 853.5313,424.3906 Q853.0313,424.9688 852.2344,425.2969 Q851.1563,425.75 849.8594,425.75 Q848.3438,425.75 847.1406,425.125 Q846.1563,424.625 845.4688,423.5625 Q844.7813,422.4844 844.7813,421.2031 L844.7813,420.0469 Q844.7813,418.7188 845.3906,417.5781 Q846.0156,416.4219 847.1094,415.8125 Q848.2031,415.1875 849.4375,415.1875 Q850.1719,415.1875 850.8125,415.3594 Q851.4688,415.5156 852.0156,415.875 Z " fill="#000000"/><text fill="#000000" font-family="sans-serif" font-size="14" lengthAdjust="spacing" textLength="79" x="869.75" y="425.7285">GameButton</text><line style="stroke:#181818;stroke-width:0.5;" x1="709.5" x2="1076.5" y1="436" y2="436"/><line style="stroke:#181818;stroke-width:0.5;" x1="709.5" x2="1076.5" y1="444" y2="444"/><ellipse cx="719.5" cy="458.3047" fill="#84BE84" rx="3" ry="3" style="stroke:#038048;stroke-width:1.0;"/><text fill="#000000" font-family="sans-serif" font-size="14" lengthAdjust="spacing" textLength="298" x="728.5" y="462.5332">GameButton(String, Dimension, ActionListener)</text><ellipse cx="719.5" cy="475.9141" fill="#84BE84" rx="3" ry="3" style="stroke:#038048;stroke-width:1.0;"/><text fill="#000000" font-family="sans-serif" font-size="14" lengthAdjust="spacing" textLength="343" x="728.5" y="480.1426">GameButton(String, Dimension, ActionListener, String)</text><ellipse cx="719.5" cy="493.5234" fill="#84BE84" rx="3" ry="3" style="stroke:#038048;stroke-width:1.0;"/><text fill="#000000" font-family="sans-serif" font-size="14" lengthAdjust="spacing" textLength="154" x="728.5" y="497.752">changeIcon(String): void</text><ellipse cx="719.5" cy="511.1328" fill="#84BE84" rx="3" ry="3" style="stroke:#038048;stroke-width:1.0;"/><text fill="#000000" font-family="sans-serif" font-size="14" lengthAdjust="spacing" textLength="271" x="728.5" y="515.3613">changeActionListener(ActionListener): void</text><ellipse cx="719.5" cy="528.7422" fill="#84BE84" rx="3" ry="3" style="stroke:#038048;stroke-width:1.0;"/><text fill="#000000" font-family="sans-serif" font-size="14" lengthAdjust="spacing" textLength="205" x="728.5" y="532.9707">paintComponent(Graphics): void</text></g></a><!--MD5=[0122497da4757ce8c59cda9ed5207394]
class nz.ac.vuw.ecs.swen225.gp22.app.GameDialog--><a href="GameDialog.html" target="_top" title="GameDialog.html" xlink:actuate="onRequest" xlink:href="GameDialog.html" xlink:show="new" xlink:title="GameDialog.html" xlink:type="simple"><g id="elem_nz.ac.vuw.ecs.swen225.gp22.app.GameDialog"><rect codeLine="45" fill="#F1F1F1" height="136.0469" id="nz.ac.vuw.ecs.swen225.gp22.app.GameDialog" rx="2.5" ry="2.5" style="stroke:#181818;stroke-width:0.5;" width="196" x="1113" y="404"/><ellipse cx="1167.75" cy="420" fill="#ADD1B2" rx="11" ry="11" style="stroke:#181818;stroke-width:1.0;"/><path d="M1170.5156,415.875 Q1170.6719,415.6563 1170.8594,415.5469 Q1171.0469,415.4375 1171.2656,415.4375 Q1171.6406,415.4375 1171.875,415.7031 Q1172.1094,415.9531 1172.1094,416.5625 L1172.1094,418.0156 Q1172.1094,418.625 1171.875,418.8906 Q1171.6406,419.1563 1171.2656,419.1563 Q1170.9219,419.1563 1170.7188,418.9531 Q1170.5156,418.7656 1170.4063,418.25 Q1170.3594,417.8906 1170.1719,417.7031 Q1169.8438,417.3281 1169.2344,417.1094 Q1168.625,416.8906 1168,416.8906 Q1167.2344,416.8906 1166.5938,417.2188 Q1165.9688,417.5469 1165.4688,418.2969 Q1164.9844,419.0469 1164.9844,420.0781 L1164.9844,421.1719 Q1164.9844,422.4063 1165.875,423.2344 Q1166.7656,424.0469 1168.3594,424.0469 Q1169.2969,424.0469 1169.9531,423.7969 Q1170.3438,423.6406 1170.7656,423.2031 Q1171.0313,422.9375 1171.1719,422.8594 Q1171.3281,422.7813 1171.5313,422.7813 Q1171.8594,422.7813 1172.1094,423.0469 Q1172.375,423.2969 1172.375,423.6406 Q1172.375,423.9844 1172.0313,424.3906 Q1171.5313,424.9688 1170.7344,425.2969 Q1169.6563,425.75 1168.3594,425.75 Q1166.8438,425.75 1165.6406,425.125 Q1164.6563,424.625 1163.9688,423.5625 Q1163.2813,422.4844 1163.2813,421.2031 L1163.2813,420.0469 Q1163.2813,418.7188 1163.8906,417.5781 Q1164.5156,416.4219 1165.6094,415.8125 Q1166.7031,415.1875 1167.9375,415.1875 Q1168.6719,415.1875 1169.3125,415.3594 Q1169.9688,415.5156 1170.5156,415.875 Z " fill="#000000"/><text fill="#000000" font-family="sans-serif" font-size="14" lengthAdjust="spacing" textLength="78" x="1188.25" y="425.7285">GameDialog</text><line style="stroke:#181818;stroke-width:0.5;" x1="1114" x2="1308" y1="436" y2="436"/><line style="stroke:#181818;stroke-width:0.5;" x1="1114" x2="1308" y1="444" y2="444"/><ellipse cx="1124" cy="458.3047" fill="#84BE84" rx="3" ry="3" style="stroke:#038048;stroke-width:1.0;"/><text fill="#000000" font-family="sans-serif" font-size="14" lengthAdjust="spacing" textLength="170" x="1133" y="462.5332">GameDialog(Base, PopUp)</text><ellipse cx="1124" cy="475.9141" fill="#84BE84" rx="3" ry="3" style="stroke:#038048;stroke-width:1.0;"/><text fill="#000000" font-family="sans-serif" font-size="14" lengthAdjust="spacing" textLength="165" x="1133" y="480.1426">GameDialog(Base, String)</text><ellipse cx="1124" cy="493.5234" fill="#84BE84" rx="3" ry="3" style="stroke:#038048;stroke-width:1.0;"/><text fill="#000000" font-family="sans-serif" font-size="14" lengthAdjust="spacing" textLength="143" x="1133" y="497.752">GameDialog(Base, int)</text><ellipse cx="1124" cy="511.1328" fill="#84BE84" rx="3" ry="3" style="stroke:#038048;stroke-width:1.0;"/><text fill="#000000" font-family="sans-serif" font-size="14" lengthAdjust="spacing" textLength="126" x="1133" y="515.3613">makeBounds(): void</text><ellipse cx="1124" cy="528.7422" fill="#84BE84" rx="3" ry="3" style="stroke:#038048;stroke-width:1.0;"/><text fill="#000000" font-family="sans-serif" font-size="14" lengthAdjust="spacing" textLength="122" x="1133" y="532.9707">visibleFocus(): void</text></g></a><!--MD5=[05f81305bfb0ba6515a16e9c088304f0]
class nz.ac.vuw.ecs.swen225.gp22.app.GameDialog.PopUp--><a href="GameDialog.PopUp.html" target="_top" title="GameDialog.PopUp.html" xlink:actuate="onRequest" xlink:href="GameDialog.PopUp.html" xlink:show="new" xlink:title="GameDialog.PopUp.html" xlink:type="simple"><g id="elem_nz.ac.vuw.ecs.swen225.gp22.app.GameDialog.PopUp"><rect codeLine="53" fill="#F1F1F1" height="118.4375" id="nz.ac.vuw.ecs.swen225.gp22.app.GameDialog.PopUp" rx="2.5" ry="2.5" style="stroke:#181818;stroke-width:0.5;" width="156" x="1133" y="803"/><ellipse cx="1148" cy="819" fill="#EB937F" rx="11" ry="11" style="stroke:#181818;stroke-width:1.0;"/><path d="M1146.8594,819.7969 L1146.8594,822.2969 L1151.1875,822.2969 L1151.1875,821.375 Q1151.1875,820.7656 1151.4219,820.5 Q1151.6719,820.2344 1152.0469,820.2344 Q1152.4219,820.2344 1152.6563,820.5 Q1152.8906,820.7656 1152.8906,821.375 L1152.8906,824 L1144.8906,824 Q1144.2656,824 1144,823.7656 Q1143.75,823.5313 1143.75,823.1406 Q1143.75,822.7656 1144.0156,822.5313 Q1144.2813,822.2969 1144.8906,822.2969 L1145.1563,822.2969 L1145.1563,815.6406 L1144.8906,815.6406 Q1144.2656,815.6406 1144,815.4063 Q1143.75,815.1719 1143.75,814.7813 Q1143.75,814.4063 1144,814.1719 Q1144.2656,813.9375 1144.8906,813.9375 L1152.5156,813.9375 L1152.5156,816.5313 Q1152.5156,817.1406 1152.2813,817.4063 Q1152.0625,817.6563 1151.6719,817.6563 Q1151.2969,817.6563 1151.0625,817.4063 Q1150.8281,817.1406 1150.8281,816.5313 L1150.8281,815.6406 L1146.8594,815.6406 L1146.8594,818.0938 L1148.3438,818.0938 Q1148.3438,817.4375 1148.4688,817.25 Q1148.7344,816.8438 1149.2031,816.8438 Q1149.5781,816.8438 1149.8125,817.1094 Q1150.0469,817.3594 1150.0469,817.9688 L1150.0469,819.9375 Q1150.0469,820.4844 1149.9219,820.6719 Q1149.6563,821.0625 1149.2031,821.0625 Q1148.7344,821.0625 1148.4688,820.6563 Q1148.3438,820.4688 1148.3438,819.7969 L1146.8594,819.7969 Z " fill="#000000"/><text fill="#000000" font-family="sans-serif" font-size="14" lengthAdjust="spacing" textLength="124" x="1162" y="824.7285">GameDialog.PopUp</text><line style="stroke:#181818;stroke-width:0.5;" x1="1134" x2="1288" y1="835" y2="835"/><ellipse cx="1144" cy="849.3047" fill="none" rx="3" ry="3" style="stroke:#038048;stroke-width:1.0;"/><text fill="#000000" font-family="sans-serif" font-size="14" lengthAdjust="spacing" text-decoration="underline" textLength="40" x="1153" y="853.5332">Pause</text><ellipse cx="1144" cy="866.9141" fill="none" rx="3" ry="3" style="stroke:#038048;stroke-width:1.0;"/><text fill="#000000" font-family="sans-serif" font-size="14" lengthAdjust="spacing" text-decoration="underline" textLength="69" x="1153" y="871.1426">GameOver</text><ellipse cx="1144" cy="884.5234" fill="none" rx="3" ry="3" style="stroke:#038048;stroke-width:1.0;"/><text fill="#000000" font-family="sans-serif" font-size="14" lengthAdjust="spacing" text-decoration="underline" textLength="106" x="1153" y="888.752">GameCompleted</text><ellipse cx="1144" cy="902.1328" fill="none" rx="3" ry="3" style="stroke:#038048;stroke-width:1.0;"/><text fill="#000000" font-family="sans-serif" font-size="14" lengthAdjust="spacing" text-decoration="underline" textLength="32" x="1153" y="906.3613">Save</text><line style="stroke:#181818;stroke-width:0.5;" x1="1134" x2="1288" y1="913.4375" y2="913.4375"/></g></a><!--MD5=[3a6f72ca5534b80dca39e96dd3c75033]
class nz.ac.vuw.ecs.swen225.gp22.app.GameMenuBar--><a href="GameMenuBar.html" target="_top" title="GameMenuBar.html" xlink:actuate="onRequest" xlink:href="GameMenuBar.html" xlink:show="new" xlink:title="GameMenuBar.html" xlink:type="simple"><g id="elem_nz.ac.vuw.ecs.swen225.gp22.app.GameMenuBar"><rect codeLine="60" fill="#F1F1F1" height="171.2656" id="nz.ac.vuw.ecs.swen225.gp22.app.GameMenuBar" rx="2.5" ry="2.5" style="stroke:#181818;stroke-width:0.5;" width="191" x="1344.5" y="386.5"/><ellipse cx="1388.3" cy="402.5" fill="#ADD1B2" rx="11" ry="11" style="stroke:#181818;stroke-width:1.0;"/><path d="M1391.0656,398.375 Q1391.2219,398.1563 1391.4094,398.0469 Q1391.5969,397.9375 1391.8156,397.9375 Q1392.1906,397.9375 1392.425,398.2031 Q1392.6594,398.4531 1392.6594,399.0625 L1392.6594,400.5156 Q1392.6594,401.125 1392.425,401.3906 Q1392.1906,401.6563 1391.8156,401.6563 Q1391.4719,401.6563 1391.2688,401.4531 Q1391.0656,401.2656 1390.9563,400.75 Q1390.9094,400.3906 1390.7219,400.2031 Q1390.3938,399.8281 1389.7844,399.6094 Q1389.175,399.3906 1388.55,399.3906 Q1387.7844,399.3906 1387.1438,399.7188 Q1386.5188,400.0469 1386.0188,400.7969 Q1385.5344,401.5469 1385.5344,402.5781 L1385.5344,403.6719 Q1385.5344,404.9063 1386.425,405.7344 Q1387.3156,406.5469 1388.9094,406.5469 Q1389.8469,406.5469 1390.5031,406.2969 Q1390.8938,406.1406 1391.3156,405.7031 Q1391.5813,405.4375 1391.7219,405.3594 Q1391.8781,405.2813 1392.0813,405.2813 Q1392.4094,405.2813 1392.6594,405.5469 Q1392.925,405.7969 1392.925,406.1406 Q1392.925,406.4844 1392.5813,406.8906 Q1392.0813,407.4688 1391.2844,407.7969 Q1390.2063,408.25 1388.9094,408.25 Q1387.3938,408.25 1386.1906,407.625 Q1385.2063,407.125 1384.5188,406.0625 Q1383.8313,404.9844 1383.8313,403.7031 L1383.8313,402.5469 Q1383.8313,401.2188 1384.4406,400.0781 Q1385.0656,398.9219 1386.1594,398.3125 Q1387.2531,397.6875 1388.4875,397.6875 Q1389.2219,397.6875 1389.8625,397.8594 Q1390.5188,398.0156 1391.0656,398.375 Z " fill="#000000"/><text fill="#000000" font-family="sans-serif" font-size="14" lengthAdjust="spacing" textLength="95" x="1408.7" y="408.2285">GameMenuBar</text><line style="stroke:#181818;stroke-width:0.5;" x1="1345.5" x2="1534.5" y1="418.5" y2="418.5"/><line style="stroke:#181818;stroke-width:0.5;" x1="1345.5" x2="1534.5" y1="426.5" y2="426.5"/><ellipse cx="1355.5" cy="440.8047" fill="#84BE84" rx="3" ry="3" style="stroke:#038048;stroke-width:1.0;"/><text fill="#000000" font-family="sans-serif" font-size="14" lengthAdjust="spacing" textLength="137" x="1364.5" y="445.0332">GameMenuBar(Base)</text><ellipse cx="1355.5" cy="458.4141" fill="#84BE84" rx="3" ry="3" style="stroke:#038048;stroke-width:1.0;"/><text fill="#000000" font-family="sans-serif" font-size="14" lengthAdjust="spacing" textLength="103" x="1364.5" y="462.6426">setPause(): void</text><ellipse cx="1355.5" cy="476.0234" fill="#84BE84" rx="3" ry="3" style="stroke:#038048;stroke-width:1.0;"/><text fill="#000000" font-family="sans-serif" font-size="14" lengthAdjust="spacing" textLength="120" x="1364.5" y="480.252">setUnPause(): void</text><ellipse cx="1355.5" cy="493.6328" fill="#84BE84" rx="3" ry="3" style="stroke:#038048;stroke-width:1.0;"/><text fill="#000000" font-family="sans-serif" font-size="14" lengthAdjust="spacing" textLength="154" x="1364.5" y="497.8613">addGameButtons(): void</text><ellipse cx="1355.5" cy="511.2422" fill="#84BE84" rx="3" ry="3" style="stroke:#038048;stroke-width:1.0;"/><text fill="#000000" font-family="sans-serif" font-size="14" lengthAdjust="spacing" textLength="141" x="1364.5" y="515.4707">addLoadButton(): void</text><ellipse cx="1355.5" cy="528.8516" fill="#84BE84" rx="3" ry="3" style="stroke:#038048;stroke-width:1.0;"/><text fill="#000000" font-family="sans-serif" font-size="14" lengthAdjust="spacing" textLength="131" x="1364.5" y="533.0801">addExitButton(): void</text><ellipse cx="1355.5" cy="546.4609" fill="#84BE84" rx="3" ry="3" style="stroke:#038048;stroke-width:1.0;"/><text fill="#000000" font-family="sans-serif" font-size="14" lengthAdjust="spacing" textLength="165" x="1364.5" y="550.6895">getIcon(String): ImageIcon</text></g></a><!--MD5=[cf01fca930a7b7fcb8f3b11db8eb8d29]
class nz.ac.vuw.ecs.swen225.gp22.app.GameMenuItem--><a href="GameMenuItem.html" target="_top" title="GameMenuItem.html" xlink:actuate="onRequest" xlink:href="GameMenuItem.html" xlink:show="new" xlink:title="GameMenuItem.html" xlink:type="simple"><g id="elem_nz.ac.vuw.ecs.swen225.gp22.app.GameMenuItem"><rect codeLine="70" fill="#F1F1F1" height="118.4375" id="nz.ac.vuw.ecs.swen225.gp22.app.GameMenuItem" rx="2.5" ry="2.5" style="stroke:#181818;stroke-width:0.5;" width="365" x="1570.5" y="413"/><ellipse cx="1699.25" cy="429" fill="#ADD1B2" rx="11" ry="11" style="stroke:#181818;stroke-width:1.0;"/><path d="M1702.0156,424.875 Q1702.1719,424.6563 1702.3594,424.5469 Q1702.5469,424.4375 1702.7656,424.4375 Q1703.1406,424.4375 1703.375,424.7031 Q1703.6094,424.9531 1703.6094,425.5625 L1703.6094,427.0156 Q1703.6094,427.625 1703.375,427.8906 Q1703.1406,428.1563 1702.7656,428.1563 Q1702.4219,428.1563 1702.2188,427.9531 Q1702.0156,427.7656 1701.9063,427.25 Q1701.8594,426.8906 1701.6719,426.7031 Q1701.3438,426.3281 1700.7344,426.1094 Q1700.125,425.8906 1699.5,425.8906 Q1698.7344,425.8906 1698.0938,426.2188 Q1697.4688,426.5469 1696.9688,427.2969 Q1696.4844,428.0469 1696.4844,429.0781 L1696.4844,430.1719 Q1696.4844,431.4063 1697.375,432.2344 Q1698.2656,433.0469 1699.8594,433.0469 Q1700.7969,433.0469 1701.4531,432.7969 Q1701.8438,432.6406 1702.2656,432.2031 Q1702.5313,431.9375 1702.6719,431.8594 Q1702.8281,431.7813 1703.0313,431.7813 Q1703.3594,431.7813 1703.6094,432.0469 Q1703.875,432.2969 1703.875,432.6406 Q1703.875,432.9844 1703.5313,433.3906 Q1703.0313,433.9688 1702.2344,434.2969 Q1701.1563,434.75 1699.8594,434.75 Q1698.3438,434.75 1697.1406,434.125 Q1696.1563,433.625 1695.4688,432.5625 Q1694.7813,431.4844 1694.7813,430.2031 L1694.7813,429.0469 Q1694.7813,427.7188 1695.3906,426.5781 Q1696.0156,425.4219 1697.1094,424.8125 Q1698.2031,424.1875 1699.4375,424.1875 Q1700.1719,424.1875 1700.8125,424.3594 Q1701.4688,424.5156 1702.0156,424.875 Z " fill="#000000"/><text fill="#000000" font-family="sans-serif" font-size="14" lengthAdjust="spacing" textLength="99" x="1719.75" y="434.7285">GameMenuItem</text><line style="stroke:#181818;stroke-width:0.5;" x1="1571.5" x2="1934.5" y1="445" y2="445"/><line style="stroke:#181818;stroke-width:0.5;" x1="1571.5" x2="1934.5" y1="453" y2="453"/><ellipse cx="1581.5" cy="467.3047" fill="#84BE84" rx="3" ry="3" style="stroke:#038048;stroke-width:1.0;"/><text fill="#000000" font-family="sans-serif" font-size="14" lengthAdjust="spacing" textLength="339" x="1590.5" y="471.5332">GameMenuItem(String, ActionListener, int, ImageIcon)</text><ellipse cx="1581.5" cy="484.9141" fill="#84BE84" rx="3" ry="3" style="stroke:#038048;stroke-width:1.0;"/><text fill="#000000" font-family="sans-serif" font-size="14" lengthAdjust="spacing" textLength="244" x="1590.5" y="489.1426">GameMenuItem(String, ActionListener)</text><ellipse cx="1581.5" cy="502.5234" fill="#84BE84" rx="3" ry="3" style="stroke:#038048;stroke-width:1.0;"/><text fill="#000000" font-family="sans-serif" font-size="14" lengthAdjust="spacing" textLength="271" x="1590.5" y="506.752">changeActionListener(ActionListener): void</text><ellipse cx="1581.5" cy="520.1328" fill="#84BE84" rx="3" ry="3" style="stroke:#038048;stroke-width:1.0;"/><text fill="#000000" font-family="sans-serif" font-size="14" lengthAdjust="spacing" textLength="181" x="1590.5" y="524.3613">changeIcon(ImageIcon): void</text></g></a><!--MD5=[d6c4f0b4042580796c7d2e6b055caeec]
class nz.ac.vuw.ecs.swen225.gp22.app.ImagePanel--><a href="ImagePanel.html" target="_top" title="ImagePanel.html" xlink:actuate="onRequest" xlink:href="ImagePanel.html" xlink:show="new" xlink:title="ImagePanel.html" xlink:type="simple"><g id="elem_nz.ac.vuw.ecs.swen225.gp22.app.ImagePanel"><rect codeLine="77" fill="#F1F1F1" height="83.2188" id="nz.ac.vuw.ecs.swen225.gp22.app.ImagePanel" rx="2.5" ry="2.5" style="stroke:#181818;stroke-width:0.5;" width="272" x="1971" y="430.5"/><ellipse cx="2065.75" cy="446.5" fill="#ADD1B2" rx="11" ry="11" style="stroke:#181818;stroke-width:1.0;"/><path d="M2068.5156,442.375 Q2068.6719,442.1563 2068.8594,442.0469 Q2069.0469,441.9375 2069.2656,441.9375 Q2069.6406,441.9375 2069.875,442.2031 Q2070.1094,442.4531 2070.1094,443.0625 L2070.1094,444.5156 Q2070.1094,445.125 2069.875,445.3906 Q2069.6406,445.6563 2069.2656,445.6563 Q2068.9219,445.6563 2068.7188,445.4531 Q2068.5156,445.2656 2068.4063,444.75 Q2068.3594,444.3906 2068.1719,444.2031 Q2067.8438,443.8281 2067.2344,443.6094 Q2066.625,443.3906 2066,443.3906 Q2065.2344,443.3906 2064.5938,443.7188 Q2063.9688,444.0469 2063.4688,444.7969 Q2062.9844,445.5469 2062.9844,446.5781 L2062.9844,447.6719 Q2062.9844,448.9063 2063.875,449.7344 Q2064.7656,450.5469 2066.3594,450.5469 Q2067.2969,450.5469 2067.9531,450.2969 Q2068.3438,450.1406 2068.7656,449.7031 Q2069.0313,449.4375 2069.1719,449.3594 Q2069.3281,449.2813 2069.5313,449.2813 Q2069.8594,449.2813 2070.1094,449.5469 Q2070.375,449.7969 2070.375,450.1406 Q2070.375,450.4844 2070.0313,450.8906 Q2069.5313,451.4688 2068.7344,451.7969 Q2067.6563,452.25 2066.3594,452.25 Q2064.8438,452.25 2063.6406,451.625 Q2062.6563,451.125 2061.9688,450.0625 Q2061.2813,448.9844 2061.2813,447.7031 L2061.2813,446.5469 Q2061.2813,445.2188 2061.8906,444.0781 Q2062.5156,442.9219 2063.6094,442.3125 Q2064.7031,441.6875 2065.9375,441.6875 Q2066.6719,441.6875 2067.3125,441.8594 Q2067.9688,442.0156 2068.5156,442.375 Z " fill="#000000"/><text fill="#000000" font-family="sans-serif" font-size="14" lengthAdjust="spacing" textLength="74" x="2086.25" y="452.2285">ImagePanel</text><line style="stroke:#181818;stroke-width:0.5;" x1="1972" x2="2242" y1="462.5" y2="462.5"/><line style="stroke:#181818;stroke-width:0.5;" x1="1972" x2="2242" y1="470.5" y2="470.5"/><ellipse cx="1982" cy="484.8047" fill="#84BE84" rx="3" ry="3" style="stroke:#038048;stroke-width:1.0;"/><text fill="#000000" font-family="sans-serif" font-size="14" lengthAdjust="spacing" textLength="246" x="1991" y="489.0332">ImagePanel(String, Dimension, double)</text><polygon fill="#FFFF44" points="1982,497.4141,1986,501.4141,1982,505.4141,1978,501.4141" style="stroke:#B38D22;stroke-width:1.0;"/><text fill="#000000" font-family="sans-serif" font-size="14" lengthAdjust="spacing" textLength="205" x="1991" y="506.6426">paintComponent(Graphics): void</text></g></a><!--MD5=[85ff4836a613686de580006803ddcc35]
class nz.ac.vuw.ecs.swen225.gp22.app.Keys--><a href="Keys.html" target="_top" title="Keys.html" xlink:actuate="onRequest" xlink:href="Keys.html" xlink:show="new" xlink:title="Keys.html" xlink:type="simple"><g id="elem_nz.ac.vuw.ecs.swen225.gp22.app.Keys"><rect codeLine="82" fill="#F1F1F1" height="136.0469" id="nz.ac.vuw.ecs.swen225.gp22.app.Keys" rx="2.5" ry="2.5" style="stroke:#181818;stroke-width:0.5;" width="271" x="2278.5" y="404"/><ellipse cx="2394.25" cy="420" fill="#ADD1B2" rx="11" ry="11" style="stroke:#181818;stroke-width:1.0;"/><path d="M2397.0156,415.875 Q2397.1719,415.6563 2397.3594,415.5469 Q2397.5469,415.4375 2397.7656,415.4375 Q2398.1406,415.4375 2398.375,415.7031 Q2398.6094,415.9531 2398.6094,416.5625 L2398.6094,418.0156 Q2398.6094,418.625 2398.375,418.8906 Q2398.1406,419.1563 2397.7656,419.1563 Q2397.4219,419.1563 2397.2188,418.9531 Q2397.0156,418.7656 2396.9063,418.25 Q2396.8594,417.8906 2396.6719,417.7031 Q2396.3438,417.3281 2395.7344,417.1094 Q2395.125,416.8906 2394.5,416.8906 Q2393.7344,416.8906 2393.0938,417.2188 Q2392.4688,417.5469 2391.9688,418.2969 Q2391.4844,419.0469 2391.4844,420.0781 L2391.4844,421.1719 Q2391.4844,422.4063 2392.375,423.2344 Q2393.2656,424.0469 2394.8594,424.0469 Q2395.7969,424.0469 2396.4531,423.7969 Q2396.8438,423.6406 2397.2656,423.2031 Q2397.5313,422.9375 2397.6719,422.8594 Q2397.8281,422.7813 2398.0313,422.7813 Q2398.3594,422.7813 2398.6094,423.0469 Q2398.875,423.2969 2398.875,423.6406 Q2398.875,423.9844 2398.5313,424.3906 Q2398.0313,424.9688 2397.2344,425.2969 Q2396.1563,425.75 2394.8594,425.75 Q2393.3438,425.75 2392.1406,425.125 Q2391.1563,424.625 2390.4688,423.5625 Q2389.7813,422.4844 2389.7813,421.2031 L2389.7813,420.0469 Q2389.7813,418.7188 2390.3906,417.5781 Q2391.0156,416.4219 2392.1094,415.8125 Q2393.2031,415.1875 2394.4375,415.1875 Q2395.1719,415.1875 2395.8125,415.3594 Q2396.4688,415.5156 2397.0156,415.875 Z " fill="#000000"/><text fill="#000000" font-family="sans-serif" font-size="14" lengthAdjust="spacing" textLength="31" x="2414.75" y="425.7285">Keys</text><line style="stroke:#181818;stroke-width:0.5;" x1="2279.5" x2="2548.5" y1="436" y2="436"/><line style="stroke:#181818;stroke-width:0.5;" x1="2279.5" x2="2548.5" y1="444" y2="444"/><ellipse cx="2289.5" cy="458.3047" fill="#84BE84" rx="3" ry="3" style="stroke:#038048;stroke-width:1.0;"/><text fill="#000000" font-family="sans-serif" font-size="14" lengthAdjust="spacing" textLength="245" x="2298.5" y="462.5332">setAction(int, Runnable, boolean): void</text><ellipse cx="2289.5" cy="475.9141" fill="#84BE84" rx="3" ry="3" style="stroke:#038048;stroke-width:1.0;"/><text fill="#000000" font-family="sans-serif" font-size="14" lengthAdjust="spacing" textLength="186" x="2298.5" y="480.1426">setAction(int, Runnable): void</text><ellipse cx="2289.5" cy="493.5234" fill="#84BE84" rx="3" ry="3" style="stroke:#038048;stroke-width:1.0;"/><text fill="#000000" font-family="sans-serif" font-size="14" lengthAdjust="spacing" textLength="166" x="2298.5" y="497.752">keyTyped(KeyEvent): void</text><ellipse cx="2289.5" cy="511.1328" fill="#84BE84" rx="3" ry="3" style="stroke:#038048;stroke-width:1.0;"/><text fill="#000000" font-family="sans-serif" font-size="14" lengthAdjust="spacing" textLength="178" x="2298.5" y="515.3613">keyPressed(KeyEvent): void</text><ellipse cx="2289.5" cy="528.7422" fill="#84BE84" rx="3" ry="3" style="stroke:#038048;stroke-width:1.0;"/><text fill="#000000" font-family="sans-serif" font-size="14" lengthAdjust="spacing" textLength="186" x="2298.5" y="532.9707">keyReleased(KeyEvent): void</text></g></a><!--MD5=[977d3d20510a40db2430d6193efd3856]
class nz.ac.vuw.ecs.swen225.gp22.app.Main--><a href="Main.html" target="_top" title="Main.html" xlink:actuate="onRequest" xlink:href="Main.html" xlink:show="new" xlink:title="Main.html" xlink:type="simple"><g id="elem_nz.ac.vuw.ecs.swen225.gp22.app.Main"><rect codeLine="90" fill="#F1F1F1" height="65.6094" id="nz.ac.vuw.ecs.swen225.gp22.app.Main" rx="2.5" ry="2.5" style="stroke:#181818;stroke-width:0.5;" width="145" x="226.5" y="439"/><ellipse cx="279.75" cy="455" fill="#ADD1B2" rx="11" ry="11" style="stroke:#181818;stroke-width:1.0;"/><path d="M282.5156,450.875 Q282.6719,450.6563 282.8594,450.5469 Q283.0469,450.4375 283.2656,450.4375 Q283.6406,450.4375 283.875,450.7031 Q284.1094,450.9531 284.1094,451.5625 L284.1094,453.0156 Q284.1094,453.625 283.875,453.8906 Q283.6406,454.1563 283.2656,454.1563 Q282.9219,454.1563 282.7188,453.9531 Q282.5156,453.7656 282.4063,453.25 Q282.3594,452.8906 282.1719,452.7031 Q281.8438,452.3281 281.2344,452.1094 Q280.625,451.8906 280,451.8906 Q279.2344,451.8906 278.5938,452.2188 Q277.9688,452.5469 277.4688,453.2969 Q276.9844,454.0469 276.9844,455.0781 L276.9844,456.1719 Q276.9844,457.4063 277.875,458.2344 Q278.7656,459.0469 280.3594,459.0469 Q281.2969,459.0469 281.9531,458.7969 Q282.3438,458.6406 282.7656,458.2031 Q283.0313,457.9375 283.1719,457.8594 Q283.3281,457.7813 283.5313,457.7813 Q283.8594,457.7813 284.1094,458.0469 Q284.375,458.2969 284.375,458.6406 Q284.375,458.9844 284.0313,459.3906 Q283.5313,459.9688 282.7344,460.2969 Q281.6563,460.75 280.3594,460.75 Q278.8438,460.75 277.6406,460.125 Q276.6563,459.625 275.9688,458.5625 Q275.2813,457.4844 275.2813,456.2031 L275.2813,455.0469 Q275.2813,453.7188 275.8906,452.5781 Q276.5156,451.4219 277.6094,450.8125 Q278.7031,450.1875 279.9375,450.1875 Q280.6719,450.1875 281.3125,450.3594 Q281.9688,450.5156 282.5156,450.875 Z " fill="#000000"/><text fill="#000000" font-family="sans-serif" font-size="14" lengthAdjust="spacing" textLength="30" x="300.25" y="460.7285">Main</text><line style="stroke:#181818;stroke-width:0.5;" x1="227.5" x2="370.5" y1="471" y2="471"/><line style="stroke:#181818;stroke-width:0.5;" x1="227.5" x2="370.5" y1="479" y2="479"/><ellipse cx="237.5" cy="493.3047" fill="#84BE84" rx="3" ry="3" style="stroke:#038048;stroke-width:1.0;"/><text fill="#000000" font-family="sans-serif" font-size="14" lengthAdjust="spacing" text-decoration="underline" textLength="119" x="246.5" y="497.5332">main(String[]): void</text></g></a><!--MD5=[89e0708b08860a588969f69970b8b8c4]
class nz.ac.vuw.ecs.swen225.gp22.app.MenuMainPanel--><a href="MenuMainPanel.html" target="_top" title="MenuMainPanel.html" xlink:actuate="onRequest" xlink:href="MenuMainPanel.html" xlink:show="new" xlink:title="MenuMainPanel.html" xlink:type="simple"><g id="elem_nz.ac.vuw.ecs.swen225.gp22.app.MenuMainPanel"><rect codeLine="94" fill="#F1F1F1" height="65.6094" id="nz.ac.vuw.ecs.swen225.gp22.app.MenuMainPanel" rx="2.5" ry="2.5" style="stroke:#181818;stroke-width:0.5;" width="169" x="22.5" y="439"/><ellipse cx="53.7" cy="455" fill="#ADD1B2" rx="11" ry="11" style="stroke:#181818;stroke-width:1.0;"/><path d="M56.4656,450.875 Q56.6219,450.6563 56.8094,450.5469 Q56.9969,450.4375 57.2156,450.4375 Q57.5906,450.4375 57.825,450.7031 Q58.0594,450.9531 58.0594,451.5625 L58.0594,453.0156 Q58.0594,453.625 57.825,453.8906 Q57.5906,454.1563 57.2156,454.1563 Q56.8719,454.1563 56.6688,453.9531 Q56.4656,453.7656 56.3563,453.25 Q56.3094,452.8906 56.1219,452.7031 Q55.7938,452.3281 55.1844,452.1094 Q54.575,451.8906 53.95,451.8906 Q53.1844,451.8906 52.5438,452.2188 Q51.9188,452.5469 51.4188,453.2969 Q50.9344,454.0469 50.9344,455.0781 L50.9344,456.1719 Q50.9344,457.4063 51.825,458.2344 Q52.7156,459.0469 54.3094,459.0469 Q55.2469,459.0469 55.9031,458.7969 Q56.2938,458.6406 56.7156,458.2031 Q56.9813,457.9375 57.1219,457.8594 Q57.2781,457.7813 57.4813,457.7813 Q57.8094,457.7813 58.0594,458.0469 Q58.325,458.2969 58.325,458.6406 Q58.325,458.9844 57.9813,459.3906 Q57.4813,459.9688 56.6844,460.2969 Q55.6063,460.75 54.3094,460.75 Q52.7938,460.75 51.5906,460.125 Q50.6063,459.625 49.9188,458.5625 Q49.2313,457.4844 49.2313,456.2031 L49.2313,455.0469 Q49.2313,453.7188 49.8406,452.5781 Q50.4656,451.4219 51.5594,450.8125 Q52.6531,450.1875 53.8875,450.1875 Q54.6219,450.1875 55.2625,450.3594 Q55.9188,450.5156 56.4656,450.875 Z " fill="#000000"/><text fill="#000000" font-family="sans-serif" font-size="14" lengthAdjust="spacing" textLength="101" x="71.3" y="460.7285">MenuMainPanel</text><line style="stroke:#181818;stroke-width:0.5;" x1="23.5" x2="190.5" y1="471" y2="471"/><line style="stroke:#181818;stroke-width:0.5;" x1="23.5" x2="190.5" y1="479" y2="479"/><ellipse cx="33.5" cy="493.3047" fill="#84BE84" rx="3" ry="3" style="stroke:#038048;stroke-width:1.0;"/><text fill="#000000" font-family="sans-serif" font-size="14" lengthAdjust="spacing" textLength="143" x="42.5" y="497.5332">MenuMainPanel(Base)</text></g></a><!--MD5=[ab36ee5959569a78b7f5cd409ac75014]
class nz.ac.vuw.ecs.swen225.gp22.app.PhasePanel--><a href="PhasePanel.html" target="_top" title="PhasePanel.html" xlink:actuate="onRequest" xlink:href="PhasePanel.html" xlink:show="new" xlink:title="PhasePanel.html" xlink:type="simple"><g id="elem_nz.ac.vuw.ecs.swen225.gp22.app.PhasePanel"><rect codeLine="98" fill="#F1F1F1" height="136.0469" id="nz.ac.vuw.ecs.swen225.gp22.app.PhasePanel" rx="2.5" ry="2.5" style="stroke:#181818;stroke-width:0.5;" width="276" x="1785" y="794"/><ellipse cx="1880.75" cy="810" fill="#ADD1B2" rx="11" ry="11" style="stroke:#181818;stroke-width:1.0;"/><path d="M1883.5156,805.875 Q1883.6719,805.6563 1883.8594,805.5469 Q1884.0469,805.4375 1884.2656,805.4375 Q1884.6406,805.4375 1884.875,805.7031 Q1885.1094,805.9531 1885.1094,806.5625 L1885.1094,808.0156 Q1885.1094,808.625 1884.875,808.8906 Q1884.6406,809.1563 1884.2656,809.1563 Q1883.9219,809.1563 1883.7188,808.9531 Q1883.5156,808.7656 1883.4063,808.25 Q1883.3594,807.8906 1883.1719,807.7031 Q1882.8438,807.3281 1882.2344,807.1094 Q1881.625,806.8906 1881,806.8906 Q1880.2344,806.8906 1879.5938,807.2188 Q1878.9688,807.5469 1878.4688,808.2969 Q1877.9844,809.0469 1877.9844,810.0781 L1877.9844,811.1719 Q1877.9844,812.4063 1878.875,813.2344 Q1879.7656,814.0469 1881.3594,814.0469 Q1882.2969,814.0469 1882.9531,813.7969 Q1883.3438,813.6406 1883.7656,813.2031 Q1884.0313,812.9375 1884.1719,812.8594 Q1884.3281,812.7813 1884.5313,812.7813 Q1884.8594,812.7813 1885.1094,813.0469 Q1885.375,813.2969 1885.375,813.6406 Q1885.375,813.9844 1885.0313,814.3906 Q1884.5313,814.9688 1883.7344,815.2969 Q1882.6563,815.75 1881.3594,815.75 Q1879.8438,815.75 1878.6406,815.125 Q1877.6563,814.625 1876.9688,813.5625 Q1876.2813,812.4844 1876.2813,811.2031 L1876.2813,810.0469 Q1876.2813,808.7188 1876.8906,807.5781 Q1877.5156,806.4219 1878.6094,805.8125 Q1879.7031,805.1875 1880.9375,805.1875 Q1881.6719,805.1875 1882.3125,805.3594 Q1882.9688,805.5156 1883.5156,805.875 Z " fill="#000000"/><text fill="#000000" font-family="sans-serif" font-size="14" lengthAdjust="spacing" textLength="76" x="1901.25" y="815.7285">PhasePanel</text><line style="stroke:#181818;stroke-width:0.5;" x1="1786" x2="2060" y1="826" y2="826"/><line style="stroke:#181818;stroke-width:0.5;" x1="1786" x2="2060" y1="834" y2="834"/><ellipse cx="1796" cy="848.3047" fill="#84BE84" rx="3" ry="3" style="stroke:#038048;stroke-width:1.0;"/><text fill="#000000" font-family="sans-serif" font-size="14" lengthAdjust="spacing" textLength="178" x="1805" y="852.5332">PhasePanel(JPanel, JPanel)</text><ellipse cx="1796" cy="865.9141" fill="#84BE84" rx="3" ry="3" style="stroke:#038048;stroke-width:1.0;"/><text fill="#000000" font-family="sans-serif" font-size="14" lengthAdjust="spacing" textLength="123" x="1805" y="870.1426">setUpPanels(): void</text><ellipse cx="1796" cy="883.5234" fill="#84BE84" rx="3" ry="3" style="stroke:#038048;stroke-width:1.0;"/><text fill="#000000" font-family="sans-serif" font-size="14" lengthAdjust="spacing" textLength="134" x="1805" y="887.752">updateTime(int): void</text><ellipse cx="1796" cy="901.1328" fill="#84BE84" rx="3" ry="3" style="stroke:#038048;stroke-width:1.0;"/><text fill="#000000" font-family="sans-serif" font-size="14" lengthAdjust="spacing" textLength="112" x="1805" y="905.3613">stopSound(): void</text><ellipse cx="1796" cy="918.7422" fill="#84BE84" rx="3" ry="3" style="stroke:#038048;stroke-width:1.0;"/><text fill="#000000" font-family="sans-serif" font-size="14" lengthAdjust="spacing" textLength="250" x="1805" y="922.9707">getAllComponents(): List&lt;JComponent&gt;</text></g></a><!--MD5=[18a7562403221f513ca44e0f82c4c17a]
class javax.swing.JFrame--><g id="elem_javax.swing.JFrame"><rect codeLine="121" fill="#F1F1F1" height="100.8281" id="javax.swing.JFrame" rx="2.5" ry="2.5" style="stroke:#181818;stroke-width:0.5;" width="263" x="676.5" y="42"/><ellipse cx="780.25" cy="58" fill="#ADD1B2" rx="11" ry="11" style="stroke:#181818;stroke-width:1.0;"/><path d="M783.0156,53.875 Q783.1719,53.6563 783.3594,53.5469 Q783.5469,53.4375 783.7656,53.4375 Q784.1406,53.4375 784.375,53.7031 Q784.6094,53.9531 784.6094,54.5625 L784.6094,56.0156 Q784.6094,56.625 784.375,56.8906 Q784.1406,57.1563 783.7656,57.1563 Q783.4219,57.1563 783.2188,56.9531 Q783.0156,56.7656 782.9063,56.25 Q782.8594,55.8906 782.6719,55.7031 Q782.3438,55.3281 781.7344,55.1094 Q781.125,54.8906 780.5,54.8906 Q779.7344,54.8906 779.0938,55.2188 Q778.4688,55.5469 777.9688,56.2969 Q777.4844,57.0469 777.4844,58.0781 L777.4844,59.1719 Q777.4844,60.4063 778.375,61.2344 Q779.2656,62.0469 780.8594,62.0469 Q781.7969,62.0469 782.4531,61.7969 Q782.8438,61.6406 783.2656,61.2031 Q783.5313,60.9375 783.6719,60.8594 Q783.8281,60.7813 784.0313,60.7813 Q784.3594,60.7813 784.6094,61.0469 Q784.875,61.2969 784.875,61.6406 Q784.875,61.9844 784.5313,62.3906 Q784.0313,62.9688 783.2344,63.2969 Q782.1563,63.75 780.8594,63.75 Q779.3438,63.75 778.1406,63.125 Q777.1563,62.625 776.4688,61.5625 Q775.7813,60.4844 775.7813,59.2031 L775.7813,58.0469 Q775.7813,56.7188 776.3906,55.5781 Q777.0156,54.4219 778.1094,53.8125 Q779.2031,53.1875 780.4375,53.1875 Q781.1719,53.1875 781.8125,53.3594 Q782.4688,53.5156 783.0156,53.875 Z " fill="#000000"/><text fill="#000000" font-family="sans-serif" font-size="14" lengthAdjust="spacing" textLength="47" x="800.75" y="63.7285">JFrame</text><line style="stroke:#181818;stroke-width:0.5;" x1="677.5" x2="938.5" y1="74" y2="74"/><polygon fill="none" points="687.5,83.3047,691.5,87.3047,687.5,91.3047,683.5,87.3047" style="stroke:#B38D22;stroke-width:1.0;"/><text fill="#000000" font-family="sans-serif" font-size="14" lengthAdjust="spacing" textLength="135" x="696.5" y="92.5332">rootPane: JRootPane</text><polygon fill="none" points="687.5,100.9141,691.5,104.9141,687.5,108.9141,683.5,104.9141" style="stroke:#B38D22;stroke-width:1.0;"/><text fill="#000000" font-family="sans-serif" font-size="14" lengthAdjust="spacing" textLength="228" x="696.5" y="110.1426">rootPaneCheckingEnabled: boolean</text><polygon fill="none" points="687.5,118.5234,691.5,122.5234,687.5,126.5234,683.5,122.5234" style="stroke:#B38D22;stroke-width:1.0;"/><text fill="#000000" font-family="sans-serif" font-size="14" lengthAdjust="spacing" textLength="237" x="696.5" y="127.752">accessibleContext: AccessibleContext</text><line style="stroke:#181818;stroke-width:0.5;" x1="677.5" x2="938.5" y1="134.8281" y2="134.8281"/></g><!--MD5=[7d319166b5dc6b8762d043b6fe35067f]
class javax.swing.JButton--><g id="elem_javax.swing.JButton"><rect codeLine="126" fill="#F1F1F1" height="48" id="javax.swing.JButton" rx="2.5" ry="2.5" style="stroke:#181818;stroke-width:0.5;" width="79" x="974.5" y="68.5"/><ellipse cx="989.5" cy="84.5" fill="#ADD1B2" rx="11" ry="11" style="stroke:#181818;stroke-width:1.0;"/><path d="M992.2656,80.375 Q992.4219,80.1563 992.6094,80.0469 Q992.7969,79.9375 993.0156,79.9375 Q993.3906,79.9375 993.625,80.2031 Q993.8594,80.4531 993.8594,81.0625 L993.8594,82.5156 Q993.8594,83.125 993.625,83.3906 Q993.3906,83.6563 993.0156,83.6563 Q992.6719,83.6563 992.4688,83.4531 Q992.2656,83.2656 992.1563,82.75 Q992.1094,82.3906 991.9219,82.2031 Q991.5938,81.8281 990.9844,81.6094 Q990.375,81.3906 989.75,81.3906 Q988.9844,81.3906 988.3438,81.7188 Q987.7188,82.0469 987.2188,82.7969 Q986.7344,83.5469 986.7344,84.5781 L986.7344,85.6719 Q986.7344,86.9063 987.625,87.7344 Q988.5156,88.5469 990.1094,88.5469 Q991.0469,88.5469 991.7031,88.2969 Q992.0938,88.1406 992.5156,87.7031 Q992.7813,87.4375 992.9219,87.3594 Q993.0781,87.2813 993.2813,87.2813 Q993.6094,87.2813 993.8594,87.5469 Q994.125,87.7969 994.125,88.1406 Q994.125,88.4844 993.7813,88.8906 Q993.2813,89.4688 992.4844,89.7969 Q991.4063,90.25 990.1094,90.25 Q988.5938,90.25 987.3906,89.625 Q986.4063,89.125 985.7188,88.0625 Q985.0313,86.9844 985.0313,85.7031 L985.0313,84.5469 Q985.0313,83.2188 985.6406,82.0781 Q986.2656,80.9219 987.3594,80.3125 Q988.4531,79.6875 989.6875,79.6875 Q990.4219,79.6875 991.0625,79.8594 Q991.7188,80.0156 992.2656,80.375 Z " fill="#000000"/><text fill="#000000" font-family="sans-serif" font-size="14" lengthAdjust="spacing" textLength="47" x="1003.5" y="90.2285">JButton</text><line style="stroke:#181818;stroke-width:0.5;" x1="975.5" x2="1052.5" y1="100.5" y2="100.5"/><line style="stroke:#181818;stroke-width:0.5;" x1="975.5" x2="1052.5" y1="108.5" y2="108.5"/></g><!--MD5=[c13749207e1e160b2790bec8d09e837f]
class javax.swing.JDialog--><g id="elem_javax.swing.JDialog"><rect codeLine="128" fill="#F1F1F1" height="100.8281" id="javax.swing.JDialog" rx="2.5" ry="2.5" style="stroke:#181818;stroke-width:0.5;" width="263" x="1088.5" y="42"/><ellipse cx="1192.75" cy="58" fill="#ADD1B2" rx="11" ry="11" style="stroke:#181818;stroke-width:1.0;"/><path d="M1195.5156,53.875 Q1195.6719,53.6563 1195.8594,53.5469 Q1196.0469,53.4375 1196.2656,53.4375 Q1196.6406,53.4375 1196.875,53.7031 Q1197.1094,53.9531 1197.1094,54.5625 L1197.1094,56.0156 Q1197.1094,56.625 1196.875,56.8906 Q1196.6406,57.1563 1196.2656,57.1563 Q1195.9219,57.1563 1195.7188,56.9531 Q1195.5156,56.7656 1195.4063,56.25 Q1195.3594,55.8906 1195.1719,55.7031 Q1194.8438,55.3281 1194.2344,55.1094 Q1193.625,54.8906 1193,54.8906 Q1192.2344,54.8906 1191.5938,55.2188 Q1190.9688,55.5469 1190.4688,56.2969 Q1189.9844,57.0469 1189.9844,58.0781 L1189.9844,59.1719 Q1189.9844,60.4063 1190.875,61.2344 Q1191.7656,62.0469 1193.3594,62.0469 Q1194.2969,62.0469 1194.9531,61.7969 Q1195.3438,61.6406 1195.7656,61.2031 Q1196.0313,60.9375 1196.1719,60.8594 Q1196.3281,60.7813 1196.5313,60.7813 Q1196.8594,60.7813 1197.1094,61.0469 Q1197.375,61.2969 1197.375,61.6406 Q1197.375,61.9844 1197.0313,62.3906 Q1196.5313,62.9688 1195.7344,63.2969 Q1194.6563,63.75 1193.3594,63.75 Q1191.8438,63.75 1190.6406,63.125 Q1189.6563,62.625 1188.9688,61.5625 Q1188.2813,60.4844 1188.2813,59.2031 L1188.2813,58.0469 Q1188.2813,56.7188 1188.8906,55.5781 Q1189.5156,54.4219 1190.6094,53.8125 Q1191.7031,53.1875 1192.9375,53.1875 Q1193.6719,53.1875 1194.3125,53.3594 Q1194.9688,53.5156 1195.5156,53.875 Z " fill="#000000"/><text fill="#000000" font-family="sans-serif" font-size="14" lengthAdjust="spacing" textLength="46" x="1213.25" y="63.7285">JDialog</text><line style="stroke:#181818;stroke-width:0.5;" x1="1089.5" x2="1350.5" y1="74" y2="74"/><polygon fill="none" points="1099.5,83.3047,1103.5,87.3047,1099.5,91.3047,1095.5,87.3047" style="stroke:#B38D22;stroke-width:1.0;"/><text fill="#000000" font-family="sans-serif" font-size="14" lengthAdjust="spacing" textLength="135" x="1108.5" y="92.5332">rootPane: JRootPane</text><polygon fill="none" points="1099.5,100.9141,1103.5,104.9141,1099.5,108.9141,1095.5,104.9141" style="stroke:#B38D22;stroke-width:1.0;"/><text fill="#000000" font-family="sans-serif" font-size="14" lengthAdjust="spacing" textLength="228" x="1108.5" y="110.1426">rootPaneCheckingEnabled: boolean</text><polygon fill="none" points="1099.5,118.5234,1103.5,122.5234,1099.5,126.5234,1095.5,122.5234" style="stroke:#B38D22;stroke-width:1.0;"/><text fill="#000000" font-family="sans-serif" font-size="14" lengthAdjust="spacing" textLength="237" x="1108.5" y="127.752">accessibleContext: AccessibleContext</text><line style="stroke:#181818;stroke-width:0.5;" x1="1089.5" x2="1350.5" y1="134.8281" y2="134.8281"/></g><!--MD5=[e1d5997e74a9e0bf94752554eaad51e9]
class javax.swing.JMenuBar--><g id="elem_javax.swing.JMenuBar"><rect codeLine="133" fill="#F1F1F1" height="48" id="javax.swing.JMenuBar" rx="2.5" ry="2.5" style="stroke:#181818;stroke-width:0.5;" width="95" x="1386.5" y="68.5"/><ellipse cx="1401.5" cy="84.5" fill="#ADD1B2" rx="11" ry="11" style="stroke:#181818;stroke-width:1.0;"/><path d="M1404.2656,80.375 Q1404.4219,80.1563 1404.6094,80.0469 Q1404.7969,79.9375 1405.0156,79.9375 Q1405.3906,79.9375 1405.625,80.2031 Q1405.8594,80.4531 1405.8594,81.0625 L1405.8594,82.5156 Q1405.8594,83.125 1405.625,83.3906 Q1405.3906,83.6563 1405.0156,83.6563 Q1404.6719,83.6563 1404.4688,83.4531 Q1404.2656,83.2656 1404.1563,82.75 Q1404.1094,82.3906 1403.9219,82.2031 Q1403.5938,81.8281 1402.9844,81.6094 Q1402.375,81.3906 1401.75,81.3906 Q1400.9844,81.3906 1400.3438,81.7188 Q1399.7188,82.0469 1399.2188,82.7969 Q1398.7344,83.5469 1398.7344,84.5781 L1398.7344,85.6719 Q1398.7344,86.9063 1399.625,87.7344 Q1400.5156,88.5469 1402.1094,88.5469 Q1403.0469,88.5469 1403.7031,88.2969 Q1404.0938,88.1406 1404.5156,87.7031 Q1404.7813,87.4375 1404.9219,87.3594 Q1405.0781,87.2813 1405.2813,87.2813 Q1405.6094,87.2813 1405.8594,87.5469 Q1406.125,87.7969 1406.125,88.1406 Q1406.125,88.4844 1405.7813,88.8906 Q1405.2813,89.4688 1404.4844,89.7969 Q1403.4063,90.25 1402.1094,90.25 Q1400.5938,90.25 1399.3906,89.625 Q1398.4063,89.125 1397.7188,88.0625 Q1397.0313,86.9844 1397.0313,85.7031 L1397.0313,84.5469 Q1397.0313,83.2188 1397.6406,82.0781 Q1398.2656,80.9219 1399.3594,80.3125 Q1400.4531,79.6875 1401.6875,79.6875 Q1402.4219,79.6875 1403.0625,79.8594 Q1403.7188,80.0156 1404.2656,80.375 Z " fill="#000000"/><text fill="#000000" font-family="sans-serif" font-size="14" lengthAdjust="spacing" textLength="63" x="1415.5" y="90.2285">JMenuBar</text><line style="stroke:#181818;stroke-width:0.5;" x1="1387.5" x2="1480.5" y1="100.5" y2="100.5"/><line style="stroke:#181818;stroke-width:0.5;" x1="1387.5" x2="1480.5" y1="108.5" y2="108.5"/></g><!--MD5=[801279a97d5ea4633e4fbb3768139b60]
class javax.swing.JMenuItem--><g id="elem_javax.swing.JMenuItem"><rect codeLine="135" fill="#F1F1F1" height="48" id="javax.swing.JMenuItem" rx="2.5" ry="2.5" style="stroke:#181818;stroke-width:0.5;" width="99" x="1516.5" y="68.5"/><ellipse cx="1531.5" cy="84.5" fill="#ADD1B2" rx="11" ry="11" style="stroke:#181818;stroke-width:1.0;"/><path d="M1534.2656,80.375 Q1534.4219,80.1563 1534.6094,80.0469 Q1534.7969,79.9375 1535.0156,79.9375 Q1535.3906,79.9375 1535.625,80.2031 Q1535.8594,80.4531 1535.8594,81.0625 L1535.8594,82.5156 Q1535.8594,83.125 1535.625,83.3906 Q1535.3906,83.6563 1535.0156,83.6563 Q1534.6719,83.6563 1534.4688,83.4531 Q1534.2656,83.2656 1534.1563,82.75 Q1534.1094,82.3906 1533.9219,82.2031 Q1533.5938,81.8281 1532.9844,81.6094 Q1532.375,81.3906 1531.75,81.3906 Q1530.9844,81.3906 1530.3438,81.7188 Q1529.7188,82.0469 1529.2188,82.7969 Q1528.7344,83.5469 1528.7344,84.5781 L1528.7344,85.6719 Q1528.7344,86.9063 1529.625,87.7344 Q1530.5156,88.5469 1532.1094,88.5469 Q1533.0469,88.5469 1533.7031,88.2969 Q1534.0938,88.1406 1534.5156,87.7031 Q1534.7813,87.4375 1534.9219,87.3594 Q1535.0781,87.2813 1535.2813,87.2813 Q1535.6094,87.2813 1535.8594,87.5469 Q1536.125,87.7969 1536.125,88.1406 Q1536.125,88.4844 1535.7813,88.8906 Q1535.2813,89.4688 1534.4844,89.7969 Q1533.4063,90.25 1532.1094,90.25 Q1530.5938,90.25 1529.3906,89.625 Q1528.4063,89.125 1527.7188,88.0625 Q1527.0313,86.9844 1527.0313,85.7031 L1527.0313,84.5469 Q1527.0313,83.2188 1527.6406,82.0781 Q1528.2656,80.9219 1529.3594,80.3125 Q1530.4531,79.6875 1531.6875,79.6875 Q1532.4219,79.6875 1533.0625,79.8594 Q1533.7188,80.0156 1534.2656,80.375 Z " fill="#000000"/><text fill="#000000" font-family="sans-serif" font-size="14" lengthAdjust="spacing" textLength="67" x="1545.5" y="90.2285">JMenuItem</text><line style="stroke:#181818;stroke-width:0.5;" x1="1517.5" x2="1614.5" y1="100.5" y2="100.5"/><line style="stroke:#181818;stroke-width:0.5;" x1="1517.5" x2="1614.5" y1="108.5" y2="108.5"/></g><!--MD5=[56a185cb33bdc7c23303e5865f20a19b]
class javax.swing.JPanel--><g id="elem_javax.swing.JPanel"><rect codeLine="137" fill="#F1F1F1" height="48" id="javax.swing.JPanel" rx="2.5" ry="2.5" style="stroke:#181818;stroke-width:0.5;" width="74" x="1651" y="68.5"/><ellipse cx="1666" cy="84.5" fill="#ADD1B2" rx="11" ry="11" style="stroke:#181818;stroke-width:1.0;"/><path d="M1668.7656,80.375 Q1668.9219,80.1563 1669.1094,80.0469 Q1669.2969,79.9375 1669.5156,79.9375 Q1669.8906,79.9375 1670.125,80.2031 Q1670.3594,80.4531 1670.3594,81.0625 L1670.3594,82.5156 Q1670.3594,83.125 1670.125,83.3906 Q1669.8906,83.6563 1669.5156,83.6563 Q1669.1719,83.6563 1668.9688,83.4531 Q1668.7656,83.2656 1668.6563,82.75 Q1668.6094,82.3906 1668.4219,82.2031 Q1668.0938,81.8281 1667.4844,81.6094 Q1666.875,81.3906 1666.25,81.3906 Q1665.4844,81.3906 1664.8438,81.7188 Q1664.2188,82.0469 1663.7188,82.7969 Q1663.2344,83.5469 1663.2344,84.5781 L1663.2344,85.6719 Q1663.2344,86.9063 1664.125,87.7344 Q1665.0156,88.5469 1666.6094,88.5469 Q1667.5469,88.5469 1668.2031,88.2969 Q1668.5938,88.1406 1669.0156,87.7031 Q1669.2813,87.4375 1669.4219,87.3594 Q1669.5781,87.2813 1669.7813,87.2813 Q1670.1094,87.2813 1670.3594,87.5469 Q1670.625,87.7969 1670.625,88.1406 Q1670.625,88.4844 1670.2813,88.8906 Q1669.7813,89.4688 1668.9844,89.7969 Q1667.9063,90.25 1666.6094,90.25 Q1665.0938,90.25 1663.8906,89.625 Q1662.9063,89.125 1662.2188,88.0625 Q1661.5313,86.9844 1661.5313,85.7031 L1661.5313,84.5469 Q1661.5313,83.2188 1662.1406,82.0781 Q1662.7656,80.9219 1663.8594,80.3125 Q1664.9531,79.6875 1666.1875,79.6875 Q1666.9219,79.6875 1667.5625,79.8594 Q1668.2188,80.0156 1668.7656,80.375 Z " fill="#000000"/><text fill="#000000" font-family="sans-serif" font-size="14" lengthAdjust="spacing" textLength="42" x="1680" y="90.2285">JPanel</text><line style="stroke:#181818;stroke-width:0.5;" x1="1652" x2="1724" y1="100.5" y2="100.5"/><line style="stroke:#181818;stroke-width:0.5;" x1="1652" x2="1724" y1="108.5" y2="108.5"/></g><!--MD5=[3eb55d915ce4c988cc6fe2a782a0fcdf]
class java.awt.event.KeyListener--><g id="elem_java.awt.event.KeyListener"><rect codeLine="142" fill="#F1F1F1" height="100.8281" id="java.awt.event.KeyListener" rx="2.5" ry="2.5" style="stroke:#181818;stroke-width:0.5;" width="211" x="2538.5" y="42"/><ellipse cx="2602.25" cy="58" fill="#B4A7E5" rx="11" ry="11" style="stroke:#181818;stroke-width:1.0;"/><path d="M2603.2031,54.6406 L2603.2031,61.2969 L2604.9219,61.2969 Q2605.5313,61.2969 2605.7969,61.5313 Q2606.0625,61.7656 2606.0625,62.1563 Q2606.0625,62.5313 2605.7969,62.7656 Q2605.5313,63 2604.9219,63 L2599.7813,63 Q2599.1719,63 2598.9063,62.7656 Q2598.6406,62.5313 2598.6406,62.1406 Q2598.6406,61.7656 2598.9063,61.5313 Q2599.1719,61.2969 2599.7813,61.2969 L2601.5,61.2969 L2601.5,54.6406 L2599.7813,54.6406 Q2599.1719,54.6406 2598.9063,54.4063 Q2598.6406,54.1719 2598.6406,53.7813 Q2598.6406,53.4063 2598.9063,53.1719 Q2599.1719,52.9375 2599.7813,52.9375 L2604.9219,52.9375 Q2605.5313,52.9375 2605.7969,53.1719 Q2606.0625,53.4063 2606.0625,53.7813 Q2606.0625,54.1719 2605.7969,54.4063 Q2605.5313,54.6406 2604.9219,54.6406 L2603.2031,54.6406 Z " fill="#000000"/><text fill="#000000" font-family="sans-serif" font-size="14" font-style="italic" lengthAdjust="spacing" textLength="75" x="2622.75" y="63.7285">KeyListener</text><line style="stroke:#181818;stroke-width:0.5;" x1="2539.5" x2="2748.5" y1="74" y2="74"/><line style="stroke:#181818;stroke-width:0.5;" x1="2539.5" x2="2748.5" y1="82" y2="82"/><ellipse cx="2549.5" cy="96.3047" fill="#84BE84" rx="3" ry="3" style="stroke:#038048;stroke-width:1.0;"/><text fill="#000000" font-family="sans-serif" font-size="14" font-style="italic" lengthAdjust="spacing" textLength="165" x="2558.5" y="100.5332">keyTyped(KeyEvent): void</text><ellipse cx="2549.5" cy="113.9141" fill="#84BE84" rx="3" ry="3" style="stroke:#038048;stroke-width:1.0;"/><text fill="#000000" font-family="sans-serif" font-size="14" font-style="italic" lengthAdjust="spacing" textLength="177" x="2558.5" y="118.1426">keyPressed(KeyEvent): void</text><ellipse cx="2549.5" cy="131.5234" fill="#84BE84" rx="3" ry="3" style="stroke:#038048;stroke-width:1.0;"/><text fill="#000000" font-family="sans-serif" font-size="14" font-style="italic" lengthAdjust="spacing" textLength="185" x="2558.5" y="135.752">keyReleased(KeyEvent): void</text></g><!--MD5=[ee6c23aa28de0b7cdf9feabf215fcbdc]
reverse link javax.swing.JFrame to nz.ac.vuw.ecs.swen225.gp22.app.Base--><g id="link_javax.swing.JFrame_nz.ac.vuw.ecs.swen225.gp22.app.Base"><path codeLine="106" d="M718.22,156.3 C708.45,165.02 699.13,174.32 691,184 C679.51,197.69 668.54,212.4 658.15,227.67 " fill="none" id="javax.swing.JFrame-backto-nz.ac.vuw.ecs.swen225.gp22.app.Base" style="stroke:#181818;stroke-width:1.0;"/><polygon fill="none" points="714.02,150.69,733.81,143.13,723.05,161.38,714.02,150.69" style="stroke:#181818;stroke-width:1.0;"/></g><!--MD5=[3fcd30b3ea5108fdde2732cf05c7f6bf]
link nz.ac.vuw.ecs.swen225.gp22.app.Base to nz.ac.vuw.ecs.swen225.gp22.app.PhasePanel--><g id="link_nz.ac.vuw.ecs.swen225.gp22.app.Base_nz.ac.vuw.ecs.swen225.gp22.app.PhasePanel"><path codeLine="107" d="M673.67,703.67 C679.25,708.08 685.03,712.2 691,716 C702.43,723.26 1457.56,808.75 1779.8,844.96 " fill="none" id="nz.ac.vuw.ecs.swen225.gp22.app.Base-to-nz.ac.vuw.ecs.swen225.gp22.app.PhasePanel" style="stroke:#181818;stroke-width:1.0;"/><polygon fill="#181818" points="1784.98,845.54,1776.4815,840.5625,1780.0111,844.9831,1775.5905,848.5128,1784.98,845.54" style="stroke:#181818;stroke-width:1.0;"/><text fill="#000000" font-family="sans-serif" font-size="13" lengthAdjust="spacing" textLength="78" x="1062" y="760.4951">gameWindow</text></g><!--MD5=[7da9c75a6b07c1cb7c2187e0b0e79e3c]
reverse link nz.ac.vuw.ecs.swen225.gp22.app.Keys to nz.ac.vuw.ecs.swen225.gp22.app.Controller--><g id="link_nz.ac.vuw.ecs.swen225.gp22.app.Keys_nz.ac.vuw.ecs.swen225.gp22.app.Controller"><path codeLine="108" d="M2414,560.54 C2414,637.95 2414,748.11 2414,811.3 " fill="none" id="nz.ac.vuw.ecs.swen225.gp22.app.Keys-backto-nz.ac.vuw.ecs.swen225.gp22.app.Controller" style="stroke:#181818;stroke-width:1.0;"/><polygon fill="none" points="2407,560.14,2414,540.14,2421,560.14,2407,560.14" style="stroke:#181818;stroke-width:1.0;"/></g><!--MD5=[4d926b58a6a65f336eadbba2af2f8cba]
reverse link javax.swing.JButton to nz.ac.vuw.ecs.swen225.gp22.app.GameButton--><g id="link_javax.swing.JButton_nz.ac.vuw.ecs.swen225.gp22.app.GameButton"><path codeLine="109" d="M1000.44,135.79 C979.58,200.89 939.41,326.22 914.53,403.83 " fill="none" id="javax.swing.JButton-backto-nz.ac.vuw.ecs.swen225.gp22.app.GameButton" style="stroke:#181818;stroke-width:1.0;"/><polygon fill="none" points="993.84,133.45,1006.61,116.55,1007.17,137.73,993.84,133.45" style="stroke:#181818;stroke-width:1.0;"/></g><!--MD5=[70499d69bc83b7ab949e806df670d7b0]
reverse link javax.swing.JDialog to nz.ac.vuw.ecs.swen225.gp22.app.GameDialog--><g id="link_javax.swing.JDialog_nz.ac.vuw.ecs.swen225.gp22.app.GameDialog"><path codeLine="110" d="M1218.33,163.34 C1216.7,232.05 1214.21,336.22 1212.6,403.95 " fill="none" id="javax.swing.JDialog-backto-nz.ac.vuw.ecs.swen225.gp22.app.GameDialog" style="stroke:#181818;stroke-width:1.0;"/><polygon fill="none" points="1211.34,163.07,1218.81,143.24,1225.34,163.4,1211.34,163.07" style="stroke:#181818;stroke-width:1.0;"/></g><!--MD5=[afa0770d0851793620ea9ea3d862e82a]
reverse link nz.ac.vuw.ecs.swen225.gp22.app.GameDialog to nz.ac.vuw.ecs.swen225.gp22.app.GameDialog.PopUp--><g id="link_nz.ac.vuw.ecs.swen225.gp22.app.GameDialog_nz.ac.vuw.ecs.swen225.gp22.app.GameDialog.PopUp"><path codeLine="111" d="M1211,555.48 C1211,629.81 1211,737.23 1211,802.9 " fill="none" id="nz.ac.vuw.ecs.swen225.gp22.app.GameDialog-backto-nz.ac.vuw.ecs.swen225.gp22.app.GameDialog.PopUp" style="stroke:#181818;stroke-width:1.0;"/><ellipse cx="1211" cy="548.14" fill="#FFFFFF" rx="8" ry="8" style="stroke:#181818;stroke-width:1.0;"/><line style="stroke:#181818;stroke-width:1.0;" x1="1211" x2="1211" y1="556.14" y2="540.14"/><line style="stroke:#181818;stroke-width:1.0;" x1="1203" x2="1219" y1="548.14" y2="548.14"/></g><!--MD5=[43cfa6acf8676ff6808af71047039396]
reverse link javax.swing.JMenuBar to nz.ac.vuw.ecs.swen225.gp22.app.GameMenuBar--><g id="link_javax.swing.JMenuBar_nz.ac.vuw.ecs.swen225.gp22.app.GameMenuBar"><path codeLine="112" d="M1434.69,136.75 C1435.65,197.32 1437.42,308.66 1438.65,386.11 " fill="none" id="javax.swing.JMenuBar-backto-nz.ac.vuw.ecs.swen225.gp22.app.GameMenuBar" style="stroke:#181818;stroke-width:1.0;"/><polygon fill="none" points="1427.69,136.65,1434.37,116.55,1441.68,136.43,1427.69,136.65" style="stroke:#181818;stroke-width:1.0;"/></g><!--MD5=[f54f3ad600d4fcf57808fbd1a7d494fc]
reverse link javax.swing.JMenuItem to nz.ac.vuw.ecs.swen225.gp22.app.GameMenuItem--><g id="link_javax.swing.JMenuItem_nz.ac.vuw.ecs.swen225.gp22.app.GameMenuItem"><path codeLine="113" d="M1586.47,134.81 C1619.84,202.18 1686.07,335.89 1724.18,412.83 " fill="none" id="javax.swing.JMenuItem-backto-nz.ac.vuw.ecs.swen225.gp22.app.GameMenuItem" style="stroke:#181818;stroke-width:1.0;"/><polygon fill="none" points="1580.02,137.57,1577.42,116.55,1592.57,131.36,1580.02,137.57" style="stroke:#181818;stroke-width:1.0;"/></g><!--MD5=[8c43ecd3f9924bb2534c5e24fc0ef795]
reverse link javax.swing.JPanel to nz.ac.vuw.ecs.swen225.gp22.app.ImagePanel--><g id="link_javax.swing.JPanel_nz.ac.vuw.ecs.swen225.gp22.app.ImagePanel"><path codeLine="114" d="M1745.04,100.6 C1803.17,110.43 1893.08,133.15 1953,184 C2031.79,250.86 2076.57,368.52 2095.74,430.38 " fill="none" id="javax.swing.JPanel-backto-nz.ac.vuw.ecs.swen225.gp22.app.ImagePanel" style="stroke:#181818;stroke-width:1.0;"/><polygon fill="none" points="1743.87,107.5,1725.17,97.53,1746.01,93.66,1743.87,107.5" style="stroke:#181818;stroke-width:1.0;"/></g><!--MD5=[4222f7c368899ded438c0aa94a5b87bb]
reverse link java.awt.event.KeyListener to nz.ac.vuw.ecs.swen225.gp22.app.Keys--><g id="link_java.awt.event.KeyListener_nz.ac.vuw.ecs.swen225.gp22.app.Keys"><path codeLine="115" d="M2603.06,160.7 C2561.23,229.35 2496.65,335.34 2454.85,403.95 " fill="none" id="java.awt.event.KeyListener-backto-nz.ac.vuw.ecs.swen225.gp22.app.Keys" style="stroke:#181818;stroke-width:1.0;stroke-dasharray:7.0,7.0;"/><polygon fill="none" points="2597.31,156.68,2613.7,143.24,2609.27,163.96,2597.31,156.68" style="stroke:#181818;stroke-width:1.0;"/></g><!--MD5=[fe94a40c2213e39212e14d4f30aba984]
reverse link javax.swing.JPanel to nz.ac.vuw.ecs.swen225.gp22.app.MenuMainPanel--><g id="link_javax.swing.JPanel_nz.ac.vuw.ecs.swen225.gp22.app.MenuMainPanel"><path codeLine="116" d="M1667.55,133.93 C1658.79,146.89 1647.26,159.75 1633,167 C1597.73,184.92 241.18,160.99 209,184 C125.76,243.51 110.08,377.02 107.39,438.67 " fill="none" id="javax.swing.JPanel-backto-nz.ac.vuw.ecs.swen225.gp22.app.MenuMainPanel" style="stroke:#181818;stroke-width:1.0;"/><polygon fill="none" points="1661.53,130.35,1677.75,116.71,1673.58,137.48,1661.53,130.35" style="stroke:#181818;stroke-width:1.0;"/></g><!--MD5=[b622ec1b5ac9118c7043296d631dc312]
reverse link javax.swing.JPanel to nz.ac.vuw.ecs.swen225.gp22.app.PhasePanel--><g id="link_javax.swing.JPanel_nz.ac.vuw.ecs.swen225.gp22.app.PhasePanel"><path codeLine="117" d="M1745.42,97.31 C1936.33,110.23 2539.34,153.34 2567,184 C2725.4,359.54 2714.69,531.36 2567,716 C2551.06,735.93 2245.52,798.32 2061.1,834.44 " fill="none" id="javax.swing.JPanel-backto-nz.ac.vuw.ecs.swen225.gp22.app.PhasePanel" style="stroke:#181818;stroke-width:1.0;"/><polygon fill="none" points="1744.73,104.28,1725.24,95.95,1745.67,90.31,1744.73,104.28" style="stroke:#181818;stroke-width:1.0;"/></g><rect fill="none" height="12.5781" style="stroke:none;stroke-width:1.0;" width="184" x="1287.5" y="952"/><text fill="#888888" font-family="sans-serif" font-size="10" lengthAdjust="spacing" textLength="184" x="1287.5" y="962.3809">UMLDoclet 2.0.19, PlantUML 1.2022.8</text><!--MD5=[8ff1db1b9cb67772de611276bf34275a]
@startuml
    namespace nz.ac.vuw.ecs.swen225.gp22.app {

        class Base [[Base.html]] {
            +runClosePhase(): void
            {static} +setLevel(int): void
            {static} +setTime(int): void
            {static} +getLevel(): int
            {static} +getTime(): int
            +startGame(): void
            +pause(): void
            +unPause(): void
            +replayPhase(): void
            +loadGame(): void
            +newGame(int): void
            +saveGame(): void
            +resetFocus(): void
            +saveExit(): void
            +playerDied(): void
            +playerWon(): void
            +nextLevel(int): void
            +exitGame(): void
            +movePlayer(Direction): void
            +menuScreen(): void
            +undo(List<Action>): void
            +apply(List<Action>): void
            +getAction(Action): Action
            +loadLevel(): void
            +changeKeyListener(KeyListener): void
        }

        class Controller [[Controller.html]] {
            +Controller(Base)
            +Controller(Base, boolean)
            +Controller(Base, JDialog)
        }

        class GameButton [[GameButton.html]] {
            +GameButton(String, Dimension, ActionListener)
            +GameButton(String, Dimension, ActionListener, String)
            +changeIcon(String): void
            +changeActionListener(ActionListener): void
            +paintComponent(Graphics): void
        }

        class GameDialog [[GameDialog.html]] {
            +GameDialog(Base, PopUp)
            +GameDialog(Base, String)
            +GameDialog(Base, int)
            +makeBounds(): void
            +visibleFocus(): void
        }

        enum nz.ac.vuw.ecs.swen225.gp22.app.GameDialog.PopUp [[GameDialog.PopUp.html]] {
            {static} +Pause
            {static} +GameOver
            {static} +GameCompleted
            {static} +Save
        }

        class GameMenuBar [[GameMenuBar.html]] {
            +GameMenuBar(Base)
            +setPause(): void
            +setUnPause(): void
            +addGameButtons(): void
            +addLoadButton(): void
            +addExitButton(): void
            +getIcon(String): ImageIcon
        }

        class GameMenuItem [[GameMenuItem.html]] {
            +GameMenuItem(String, ActionListener, int, ImageIcon)
            +GameMenuItem(String, ActionListener)
            +changeActionListener(ActionListener): void
            +changeIcon(ImageIcon): void
        }

        class ImagePanel [[ImagePanel.html]] {
            +ImagePanel(String, Dimension, double)
            #paintComponent(Graphics): void
        }

        class Keys [[Keys.html]] {
            +setAction(int, Runnable, boolean): void
            +setAction(int, Runnable): void
            +keyTyped(KeyEvent): void
            +keyPressed(KeyEvent): void
            +keyReleased(KeyEvent): void
        }

        class Main [[Main.html]] {
            {static} +main(String[]): void
        }

        class MenuMainPanel [[MenuMainPanel.html]] {
            +MenuMainPanel(Base)
        }

        class PhasePanel [[PhasePanel.html]] {
            +PhasePanel(JPanel, JPanel)
            +setUpPanels(): void
            +updateTime(int): void
            +stopSound(): void
            +getAllComponents(): List<JComponent>
        }

        javax.swing.JFrame <|- - Base
        Base - -> PhasePanel: gameWindow
        Keys <|- - Controller
        javax.swing.JButton <|- - GameButton
        javax.swing.JDialog <|- - GameDialog
        GameDialog +- - nz.ac.vuw.ecs.swen225.gp22.app.GameDialog.PopUp
        javax.swing.JMenuBar <|- - GameMenuBar
        javax.swing.JMenuItem <|- - GameMenuItem
        javax.swing.JPanel <|- - ImagePanel
        java.awt.event.KeyListener <|.. Keys
        javax.swing.JPanel <|- - MenuMainPanel
        javax.swing.JPanel <|- - PhasePanel
    }

    namespace javax.swing {
        class JFrame {
            #rootPane: JRootPane
            #rootPaneCheckingEnabled: boolean
            #accessibleContext: AccessibleContext
        }
        class JButton {
        }
        class JDialog {
            #rootPane: JRootPane
            #rootPaneCheckingEnabled: boolean
            #accessibleContext: AccessibleContext
        }
        class JMenuBar {
        }
        class JMenuItem {
        }
        class JPanel {
        }
    }

    namespace java.awt.event {
        interface KeyListener {
            {abstract} +keyTyped(KeyEvent): void
            {abstract} +keyPressed(KeyEvent): void
            {abstract} +keyReleased(KeyEvent): void
        }
    }

    center footer UMLDoclet 2.0.19, PlantUML 1.2022.8
@enduml

PlantUML version 1.2022.8(Sun Sep 25 22:00:33 NZDT 2022)
(APACHE source distribution)
Java Runtime: Java(TM) SE Runtime Environment
JVM: Java HotSpot(TM) 64-Bit Server VM
Default Encoding: Cp1252
Language: en
Country: NZ
--></g></svg>