<?xml version="1.0" encoding="UTF-8" standalone="no"?><svg xmlns="http://www.w3.org/2000/svg" xmlns:xlink="http://www.w3.org/1999/xlink" contentStyleType="text/css" height="269px" preserveAspectRatio="none" style="width:290px;height:269px;background:#FFFFFF;" version="1.1" viewBox="0 0 290 269" width="290px" zoomAndPan="magnify"><defs/><g><!--MD5=[ab36ee5959569a78b7f5cd409ac75014]
class nz.ac.vuw.ecs.swen225.gp22.app.PhasePanel--><a href="PhasePanel.html" target="_top" title="PhasePanel.html" xlink:actuate="onRequest" xlink:href="PhasePanel.html" xlink:show="new" xlink:title="PhasePanel.html" xlink:type="simple"><g id="elem_nz.ac.vuw.ecs.swen225.gp22.app.PhasePanel"><rect codeLine="5" fill="#F1F1F1" height="136.2344" id="nz.ac.vuw.ecs.swen225.gp22.app.PhasePanel" rx="2.5" ry="2.5" style="stroke:#181818;stroke-width:0.5;" width="276" x="7" y="107"/><ellipse cx="61.75" cy="127.0938" fill="#ADD1B2" rx="11" ry="11" style="stroke:#181818;stroke-width:1.0;"/><path d="M64.5156,122.9688 Q64.6719,122.75 64.8594,122.6406 Q65.0469,122.5313 65.2656,122.5313 Q65.6406,122.5313 65.875,122.7969 Q66.1094,123.0469 66.1094,123.6563 L66.1094,125.1094 Q66.1094,125.7188 65.875,125.9844 Q65.6406,126.25 65.2656,126.25 Q64.9219,126.25 64.7188,126.0469 Q64.5156,125.8594 64.4063,125.3438 Q64.3594,124.9844 64.1719,124.7969 Q63.8438,124.4219 63.2344,124.2031 Q62.625,123.9844 62,123.9844 Q61.2344,123.9844 60.5938,124.3125 Q59.9688,124.6406 59.4688,125.3906 Q58.9844,126.1406 58.9844,127.1719 L58.9844,128.2656 Q58.9844,129.5 59.875,130.3281 Q60.7656,131.1406 62.3594,131.1406 Q63.2969,131.1406 63.9531,130.8906 Q64.3438,130.7344 64.7656,130.2969 Q65.0313,130.0313 65.1719,129.9531 Q65.3281,129.875 65.5313,129.875 Q65.8594,129.875 66.1094,130.1406 Q66.375,130.3906 66.375,130.7344 Q66.375,131.0781 66.0313,131.4844 Q65.5313,132.0625 64.7344,132.3906 Q63.6563,132.8438 62.3594,132.8438 Q60.8438,132.8438 59.6406,132.2188 Q58.6563,131.7188 57.9688,130.6563 Q57.2813,129.5781 57.2813,128.2969 L57.2813,127.1406 Q57.2813,125.8125 57.8906,124.6719 Q58.5156,123.5156 59.6094,122.9063 Q60.7031,122.2813 61.9375,122.2813 Q62.6719,122.2813 63.3125,122.4531 Q63.9688,122.6094 64.5156,122.9688 Z " fill="#000000"/><text fill="#000000" font-family="sans-serif" font-size="14" lengthAdjust="spacing" textLength="76" x="123.25" y="126.5332">PhasePanel</text><text fill="#000000" font-family="sans-serif" font-size="10" lengthAdjust="spacing" textLength="158" x="82.25" y="139.9902">nz.ac.vuw.ecs.swen225.gp22.app</text><line style="stroke:#181818;stroke-width:0.5;" x1="8" x2="282" y1="147.1875" y2="147.1875"/><ellipse cx="18" cy="161.4922" fill="#84BE84" rx="3" ry="3" style="stroke:#038048;stroke-width:1.0;"/><text fill="#000000" font-family="sans-serif" font-size="14" lengthAdjust="spacing" textLength="178" x="27" y="165.7207">PhasePanel(JPanel, JPanel)</text><ellipse cx="18" cy="179.1016" fill="#84BE84" rx="3" ry="3" style="stroke:#038048;stroke-width:1.0;"/><text fill="#000000" font-family="sans-serif" font-size="14" lengthAdjust="spacing" textLength="123" x="27" y="183.3301">setUpPanels(): void</text><ellipse cx="18" cy="196.7109" fill="#84BE84" rx="3" ry="3" style="stroke:#038048;stroke-width:1.0;"/><text fill="#000000" font-family="sans-serif" font-size="14" lengthAdjust="spacing" textLength="134" x="27" y="200.9395">updateTime(int): void</text><ellipse cx="18" cy="214.3203" fill="#84BE84" rx="3" ry="3" style="stroke:#038048;stroke-width:1.0;"/><text fill="#000000" font-family="sans-serif" font-size="14" lengthAdjust="spacing" textLength="112" x="27" y="218.5488">stopSound(): void</text><ellipse cx="18" cy="231.9297" fill="#84BE84" rx="3" ry="3" style="stroke:#038048;stroke-width:1.0;"/><text fill="#000000" font-family="sans-serif" font-size="14" lengthAdjust="spacing" textLength="250" x="27" y="236.1582">getAllComponents(): List&lt;JComponent&gt;</text></g></a><!--MD5=[56a185cb33bdc7c23303e5865f20a19b]
class javax.swing.JPanel--><g id="elem_javax.swing.JPanel"><rect codeLine="13" fill="#F1F1F1" height="40.1875" id="javax.swing.JPanel" rx="2.5" ry="2.5" style="stroke:#181818;stroke-width:0.5;" width="86" x="102" y="7"/><ellipse cx="117" cy="27.0938" fill="#ADD1B2" rx="11" ry="11" style="stroke:#181818;stroke-width:1.0;"/><path d="M119.7656,22.9688 Q119.9219,22.75 120.1094,22.6406 Q120.2969,22.5313 120.5156,22.5313 Q120.8906,22.5313 121.125,22.7969 Q121.3594,23.0469 121.3594,23.6563 L121.3594,25.1094 Q121.3594,25.7188 121.125,25.9844 Q120.8906,26.25 120.5156,26.25 Q120.1719,26.25 119.9688,26.0469 Q119.7656,25.8594 119.6563,25.3438 Q119.6094,24.9844 119.4219,24.7969 Q119.0938,24.4219 118.4844,24.2031 Q117.875,23.9844 117.25,23.9844 Q116.4844,23.9844 115.8438,24.3125 Q115.2188,24.6406 114.7188,25.3906 Q114.2344,26.1406 114.2344,27.1719 L114.2344,28.2656 Q114.2344,29.5 115.125,30.3281 Q116.0156,31.1406 117.6094,31.1406 Q118.5469,31.1406 119.2031,30.8906 Q119.5938,30.7344 120.0156,30.2969 Q120.2813,30.0313 120.4219,29.9531 Q120.5781,29.875 120.7813,29.875 Q121.1094,29.875 121.3594,30.1406 Q121.625,30.3906 121.625,30.7344 Q121.625,31.0781 121.2813,31.4844 Q120.7813,32.0625 119.9844,32.3906 Q118.9063,32.8438 117.6094,32.8438 Q116.0938,32.8438 114.8906,32.2188 Q113.9063,31.7188 113.2188,30.6563 Q112.5313,29.5781 112.5313,28.2969 L112.5313,27.1406 Q112.5313,25.8125 113.1406,24.6719 Q113.7656,23.5156 114.8594,22.9063 Q115.9531,22.2813 117.1875,22.2813 Q117.9219,22.2813 118.5625,22.4531 Q119.2188,22.6094 119.7656,22.9688 Z " fill="#000000"/><text fill="#000000" font-family="sans-serif" font-size="14" lengthAdjust="spacing" textLength="42" x="137" y="26.5332">JPanel</text><text fill="#000000" font-family="sans-serif" font-size="10" lengthAdjust="spacing" textLength="54" x="131" y="39.9902">javax.swing</text></g><!--MD5=[b622ec1b5ac9118c7043296d631dc312]
reverse link javax.swing.JPanel to nz.ac.vuw.ecs.swen225.gp22.app.PhasePanel--><g id="link_javax.swing.JPanel_nz.ac.vuw.ecs.swen225.gp22.app.PhasePanel"><path codeLine="15" d="M145,67.48 C145,79.66 145,93.44 145,106.95 " fill="none" id="javax.swing.JPanel-backto-nz.ac.vuw.ecs.swen225.gp22.app.PhasePanel" style="stroke:#181818;stroke-width:1.0;"/><polygon fill="none" points="138,67.09,145,47.09,152,67.09,138,67.09" style="stroke:#181818;stroke-width:1.0;"/></g><rect fill="none" height="12.5781" style="stroke:none;stroke-width:1.0;" width="184" x="46" y="249.2344"/><text fill="#888888" font-family="sans-serif" font-size="10" lengthAdjust="spacing" textLength="184" x="46" y="259.6152">UMLDoclet 2.0.19, PlantUML 1.2022.8</text><!--MD5=[20904bb5008ba7ce01a246491644b016]
@startuml
    set namespaceSeparator none
    hide empty fields
    hide empty methods

    class "<size:14>PhasePanel\n<size:10>nz.ac.vuw.ecs.swen225.gp22.app" as nz.ac.vuw.ecs.swen225.gp22.app.PhasePanel [[PhasePanel.html]] {
        +PhasePanel(JPanel, JPanel)
        +setUpPanels(): void
        +updateTime(int): void
        +stopSound(): void
        +getAllComponents(): List<JComponent>
    }

    class "<size:14>JPanel\n<size:10>javax.swing" as javax.swing.JPanel

    javax.swing.JPanel <|- - nz.ac.vuw.ecs.swen225.gp22.app.PhasePanel

    center footer UMLDoclet 2.0.19, PlantUML 1.2022.8
@enduml

PlantUML version 1.2022.8(Sun Sep 25 22:00:33 NZDT 2022)
(APACHE source distribution)
Java Runtime: Java(TM) SE Runtime Environment
JVM: Java HotSpot(TM) 64-Bit Server VM
Default Encoding: Cp1252
Language: en
Country: NZ
--></g></svg>