<?xml version="1.0" encoding="UTF-8" standalone="no"?><svg xmlns="http://www.w3.org/2000/svg" xmlns:xlink="http://www.w3.org/1999/xlink" contentStyleType="text/css" height="340px" preserveAspectRatio="none" style="width:330px;height:340px;background:#FFFFFF;" version="1.1" viewBox="0 0 330 340" width="330px" zoomAndPan="magnify"><defs/><g><!--MD5=[dc491b58113ef3bd4d4d053f96f8cd5f]
class nz.ac.vuw.ecs.swen225.gp22.recorder.Action--><a href="Action.html" target="_top" title="Action.html" xlink:actuate="onRequest" xlink:href="Action.html" xlink:show="new" xlink:title="Action.html" xlink:type="simple"><g id="elem_nz.ac.vuw.ecs.swen225.gp22.recorder.Action"><rect codeLine="5" fill="#F1F1F1" height="206.6719" id="nz.ac.vuw.ecs.swen225.gp22.recorder.Action" rx="2.5" ry="2.5" style="stroke:#181818;stroke-width:0.5;" width="316" x="7" y="107"/><ellipse cx="71.25" cy="127.0938" fill="#ADD1B2" rx="11" ry="11" style="stroke:#181818;stroke-width:1.0;"/><path d="M74.0156,122.9688 Q74.1719,122.75 74.3594,122.6406 Q74.5469,122.5313 74.7656,122.5313 Q75.1406,122.5313 75.375,122.7969 Q75.6094,123.0469 75.6094,123.6563 L75.6094,125.1094 Q75.6094,125.7188 75.375,125.9844 Q75.1406,126.25 74.7656,126.25 Q74.4219,126.25 74.2188,126.0469 Q74.0156,125.8594 73.9063,125.3438 Q73.8594,124.9844 73.6719,124.7969 Q73.3438,124.4219 72.7344,124.2031 Q72.125,123.9844 71.5,123.9844 Q70.7344,123.9844 70.0938,124.3125 Q69.4688,124.6406 68.9688,125.3906 Q68.4844,126.1406 68.4844,127.1719 L68.4844,128.2656 Q68.4844,129.5 69.375,130.3281 Q70.2656,131.1406 71.8594,131.1406 Q72.7969,131.1406 73.4531,130.8906 Q73.8438,130.7344 74.2656,130.2969 Q74.5313,130.0313 74.6719,129.9531 Q74.8281,129.875 75.0313,129.875 Q75.3594,129.875 75.6094,130.1406 Q75.875,130.3906 75.875,130.7344 Q75.875,131.0781 75.5313,131.4844 Q75.0313,132.0625 74.2344,132.3906 Q73.1563,132.8438 71.8594,132.8438 Q70.3438,132.8438 69.1406,132.2188 Q68.1563,131.7188 67.4688,130.6563 Q66.7813,129.5781 66.7813,128.2969 L66.7813,127.1406 Q66.7813,125.8125 67.3906,124.6719 Q68.0156,123.5156 69.1094,122.9063 Q70.2031,122.2813 71.4375,122.2813 Q72.1719,122.2813 72.8125,122.4531 Q73.4688,122.6094 74.0156,122.9688 Z " fill="#000000"/><text fill="#000000" font-family="sans-serif" font-size="14" lengthAdjust="spacing" textLength="39" x="161.75" y="126.5332">Action</text><text fill="#000000" font-family="sans-serif" font-size="10" lengthAdjust="spacing" textLength="179" x="91.75" y="139.9902">nz.ac.vuw.ecs.swen225.gp22.recorder</text><line style="stroke:#181818;stroke-width:0.5;" x1="8" x2="322" y1="147.1875" y2="147.1875"/><ellipse cx="18" cy="161.4922" fill="#84BE84" rx="3" ry="3" style="stroke:#038048;stroke-width:1.0;"/><text fill="#000000" font-family="sans-serif" font-size="14" lengthAdjust="spacing" textLength="290" x="27" y="165.7207">Action(int, String, int, int, String, String, String)</text><ellipse cx="18" cy="179.1016" fill="#84BE84" rx="3" ry="3" style="stroke:#038048;stroke-width:1.0;"/><text fill="#000000" font-family="sans-serif" font-size="14" lengthAdjust="spacing" textLength="101" x="27" y="183.3301">toxml(): Element</text><ellipse cx="18" cy="196.7109" fill="#84BE84" rx="3" ry="3" style="stroke:#038048;stroke-width:1.0;"/><text fill="#000000" font-family="sans-serif" font-size="14" lengthAdjust="spacing" textLength="80" x="27" y="200.9395">entityID(): int</text><ellipse cx="18" cy="214.3203" fill="#84BE84" rx="3" ry="3" style="stroke:#038048;stroke-width:1.0;"/><text fill="#000000" font-family="sans-serif" font-size="14" lengthAdjust="spacing" textLength="125" x="27" y="218.5488">actionType(): String</text><ellipse cx="18" cy="231.9297" fill="#84BE84" rx="3" ry="3" style="stroke:#038048;stroke-width:1.0;"/><text fill="#000000" font-family="sans-serif" font-size="14" lengthAdjust="spacing" textLength="39" x="27" y="236.1582">x(): int</text><ellipse cx="18" cy="249.5391" fill="#84BE84" rx="3" ry="3" style="stroke:#038048;stroke-width:1.0;"/><text fill="#000000" font-family="sans-serif" font-size="14" lengthAdjust="spacing" textLength="40" x="27" y="253.7676">y(): int</text><ellipse cx="18" cy="267.1484" fill="#84BE84" rx="3" ry="3" style="stroke:#038048;stroke-width:1.0;"/><text fill="#000000" font-family="sans-serif" font-size="14" lengthAdjust="spacing" textLength="101" x="27" y="271.377">prevDir(): String</text><ellipse cx="18" cy="284.7578" fill="#84BE84" rx="3" ry="3" style="stroke:#038048;stroke-width:1.0;"/><text fill="#000000" font-family="sans-serif" font-size="14" lengthAdjust="spacing" textLength="98" x="27" y="288.9863">currDir(): String</text><ellipse cx="18" cy="302.3672" fill="#84BE84" rx="3" ry="3" style="stroke:#038048;stroke-width:1.0;"/><text fill="#000000" font-family="sans-serif" font-size="14" lengthAdjust="spacing" textLength="86" x="27" y="306.5957">color(): String</text></g></a><!--MD5=[aeced6b90a5f9cea7e9b0d4e8b5a9b7c]
class java.lang.Record--><g id="elem_java.lang.Record"><rect codeLine="17" fill="#F1F1F1" height="40.1875" id="java.lang.Record" rx="2.5" ry="2.5" style="stroke:#181818;stroke-width:0.5;" width="78" x="126" y="7"/><ellipse cx="141" cy="27.0938" fill="#A9DCDF" rx="11" ry="11" style="stroke:#181818;stroke-width:1.0;"/><path d="M143.1875,28.8594 L139.0469,28.8594 L138.625,29.8906 L139.0469,29.8906 Q139.6563,29.8906 139.9219,30.125 Q140.1875,30.3594 140.1875,30.75 Q140.1875,31.125 139.9219,31.3594 Q139.6563,31.5938 139.0469,31.5938 L136.75,31.5938 Q136.1406,31.5938 135.8906,31.3594 Q135.625,31.125 135.625,30.7344 Q135.625,30.3594 135.9063,30.125 Q136.1719,29.875 136.7969,29.8906 L139.4688,23.2344 L138.3594,23.2344 Q137.75,23.2344 137.4844,23 Q137.2188,22.7656 137.2188,22.375 Q137.2188,22 137.4844,21.7656 Q137.75,21.5313 138.3594,21.5313 L142.0313,21.5313 L145.4219,29.8906 Q146.0156,29.8906 146.2031,30.0313 Q146.5938,30.2969 146.5938,30.75 Q146.5938,31.125 146.3281,31.3594 Q146.0781,31.5938 145.4688,31.5938 L143.1719,31.5938 Q142.5625,31.5938 142.2969,31.3594 Q142.0313,31.125 142.0313,30.7344 Q142.0313,30.3594 142.2969,30.125 Q142.5625,29.8906 143.1719,29.8906 L143.5938,29.8906 L143.1875,28.8594 Z M142.4688,27.1563 L141.1094,23.7813 L139.7344,27.1563 L142.4688,27.1563 Z " fill="#000000"/><text fill="#000000" font-family="sans-serif" font-size="14" font-style="italic" lengthAdjust="spacing" textLength="46" x="155" y="26.5332">Record</text><text fill="#000000" font-family="sans-serif" font-size="10" font-style="italic" lengthAdjust="spacing" textLength="43" x="156.5" y="39.9902">java.lang</text></g><!--MD5=[e35940fae331bb14f0a2d9a393424044]
reverse link java.lang.Record to nz.ac.vuw.ecs.swen225.gp22.recorder.Action--><g id="link_java.lang.Record_nz.ac.vuw.ecs.swen225.gp22.recorder.Action"><path codeLine="19" d="M165,67.32 C165,79.15 165,92.71 165,106.66 " fill="none" id="java.lang.Record-backto-nz.ac.vuw.ecs.swen225.gp22.recorder.Action" style="stroke:#181818;stroke-width:1.0;"/><polygon fill="none" points="158,67.08,165,47.08,172,67.08,158,67.08" style="stroke:#181818;stroke-width:1.0;"/></g><rect fill="none" height="12.5781" style="stroke:none;stroke-width:1.0;" width="184" x="66" y="319.6719"/><text fill="#888888" font-family="sans-serif" font-size="10" lengthAdjust="spacing" textLength="184" x="66" y="330.0527">UMLDoclet 2.0.19, PlantUML 1.2022.8</text><!--MD5=[77f3f3fa45079c403a7b5cb3520bf9a6]
@startuml
    set namespaceSeparator none
    hide empty fields
    hide empty methods

    class "<size:14>Action\n<size:10>nz.ac.vuw.ecs.swen225.gp22.recorder" as nz.ac.vuw.ecs.swen225.gp22.recorder.Action [[Action.html]] {
        +Action(int, String, int, int, String, String, String)
        +toxml(): Element
        +entityID(): int
        +actionType(): String
        +x(): int
        +y(): int
        +prevDir(): String
        +currDir(): String
        +color(): String
    }

    abstract class "<size:14>Record\n<size:10>java.lang" as java.lang.Record

    java.lang.Record <|- - nz.ac.vuw.ecs.swen225.gp22.recorder.Action

    center footer UMLDoclet 2.0.19, PlantUML 1.2022.8
@enduml

PlantUML version 1.2022.8(Sun Sep 25 22:00:33 NZDT 2022)
(APACHE source distribution)
Java Runtime: Java(TM) SE Runtime Environment
JVM: Java HotSpot(TM) 64-Bit Server VM
Default Encoding: Cp1252
Language: en
Country: NZ
--></g></svg>