<?xml version="1.0" encoding="UTF-8" standalone="no"?><svg xmlns="http://www.w3.org/2000/svg" xmlns:xlink="http://www.w3.org/1999/xlink" contentStyleType="text/css" height="206px" preserveAspectRatio="none" style="width:251px;height:206px;background:#FFFFFF;" version="1.1" viewBox="0 0 251 206" width="251px" zoomAndPan="magnify"><defs/><g><!--MD5=[74e60d4a71a05f46a053662cbb35ad07]
class nz.ac.vuw.ecs.swen225.gp22.recorder.GameState--><a href="GameState.html" target="_top" title="GameState.html" xlink:actuate="onRequest" xlink:href="GameState.html" xlink:show="new" xlink:title="GameState.html" xlink:type="simple"><g id="elem_nz.ac.vuw.ecs.swen225.gp22.recorder.GameState"><rect codeLine="5" fill="#F1F1F1" height="171.4531" id="nz.ac.vuw.ecs.swen225.gp22.recorder.GameState" rx="2.5" ry="2.5" style="stroke:#181818;stroke-width:0.5;" width="230" x="7" y="7"/><ellipse cx="30.55" cy="27.0938" fill="#ADD1B2" rx="11" ry="11" style="stroke:#181818;stroke-width:1.0;"/><path d="M33.3156,22.9688 Q33.4719,22.75 33.6594,22.6406 Q33.8469,22.5313 34.0656,22.5313 Q34.4406,22.5313 34.675,22.7969 Q34.9094,23.0469 34.9094,23.6563 L34.9094,25.1094 Q34.9094,25.7188 34.675,25.9844 Q34.4406,26.25 34.0656,26.25 Q33.7219,26.25 33.5188,26.0469 Q33.3156,25.8594 33.2063,25.3438 Q33.1594,24.9844 32.9719,24.7969 Q32.6438,24.4219 32.0344,24.2031 Q31.425,23.9844 30.8,23.9844 Q30.0344,23.9844 29.3938,24.3125 Q28.7688,24.6406 28.2688,25.3906 Q27.7844,26.1406 27.7844,27.1719 L27.7844,28.2656 Q27.7844,29.5 28.675,30.3281 Q29.5656,31.1406 31.1594,31.1406 Q32.0969,31.1406 32.7531,30.8906 Q33.1438,30.7344 33.5656,30.2969 Q33.8313,30.0313 33.9719,29.9531 Q34.1281,29.875 34.3313,29.875 Q34.6594,29.875 34.9094,30.1406 Q35.175,30.3906 35.175,30.7344 Q35.175,31.0781 34.8313,31.4844 Q34.3313,32.0625 33.5344,32.3906 Q32.4563,32.8438 31.1594,32.8438 Q29.6438,32.8438 28.4406,32.2188 Q27.4563,31.7188 26.7688,30.6563 Q26.0813,29.5781 26.0813,28.2969 L26.0813,27.1406 Q26.0813,25.8125 26.6906,24.6719 Q27.3156,23.5156 28.4094,22.9063 Q29.5031,22.2813 30.7375,22.2813 Q31.4719,22.2813 32.1125,22.4531 Q32.7688,22.6094 33.3156,22.9688 Z " fill="#000000"/><text fill="#000000" font-family="sans-serif" font-size="14" lengthAdjust="spacing" textLength="71" x="100.45" y="26.5332">GameState</text><text fill="#000000" font-family="sans-serif" font-size="10" lengthAdjust="spacing" textLength="179" x="46.45" y="39.9902">nz.ac.vuw.ecs.swen225.gp22.recorder</text><line style="stroke:#181818;stroke-width:0.5;" x1="8" x2="236" y1="47.1875" y2="47.1875"/><polygon fill="#FFFF44" points="18,56.4922,22,60.4922,18,64.4922,14,60.4922" style="stroke:#B38D22;stroke-width:1.0;"/><text fill="#000000" font-family="sans-serif" font-size="14" lengthAdjust="spacing" textLength="119" x="27" y="65.7207">GameState(int, int)</text><polygon fill="#FFFF44" points="18,74.1016,22,78.1016,18,82.1016,14,78.1016" style="stroke:#B38D22;stroke-width:1.0;"/><text fill="#000000" font-family="sans-serif" font-size="14" lengthAdjust="spacing" textLength="204" x="27" y="83.3301">GameState(int, int, List&lt;Action&gt;)</text><polygon fill="#FFFF44" points="18,91.7109,22,95.7109,18,99.7109,14,95.7109" style="stroke:#B38D22;stroke-width:1.0;"/><text fill="#000000" font-family="sans-serif" font-size="14" lengthAdjust="spacing" textLength="146" x="27" y="100.9395">addAction(Action): void</text><ellipse cx="18" cy="114.3203" fill="#84BE84" rx="3" ry="3" style="stroke:#038048;stroke-width:1.0;"/><text fill="#000000" font-family="sans-serif" font-size="14" lengthAdjust="spacing" textLength="84" x="27" y="118.5488">getTime(): int</text><ellipse cx="18" cy="131.9297" fill="#84BE84" rx="3" ry="3" style="stroke:#038048;stroke-width:1.0;"/><text fill="#000000" font-family="sans-serif" font-size="14" lengthAdjust="spacing" textLength="110" x="27" y="136.1582">apply(Base): void</text><ellipse cx="18" cy="149.5391" fill="#84BE84" rx="3" ry="3" style="stroke:#038048;stroke-width:1.0;"/><text fill="#000000" font-family="sans-serif" font-size="14" lengthAdjust="spacing" textLength="108" x="27" y="153.7676">undo(Base): void</text><ellipse cx="18" cy="167.1484" fill="#84BE84" rx="3" ry="3" style="stroke:#038048;stroke-width:1.0;"/><text fill="#000000" font-family="sans-serif" font-size="14" lengthAdjust="spacing" textLength="101" x="27" y="171.377">toxml(): Element</text></g></a><rect fill="none" height="12.5781" style="stroke:none;stroke-width:1.0;" width="184" x="29.5" y="185.4531"/><text fill="#888888" font-family="sans-serif" font-size="10" lengthAdjust="spacing" textLength="184" x="29.5" y="195.834">UMLDoclet 2.0.19, PlantUML 1.2022.8</text><!--MD5=[06992bd39d7eb6bf6a6ee8f108f83d8e]
@startuml
    set namespaceSeparator none
    hide empty fields
    hide empty methods

    class "<size:14>GameState\n<size:10>nz.ac.vuw.ecs.swen225.gp22.recorder" as nz.ac.vuw.ecs.swen225.gp22.recorder.GameState [[GameState.html]] {
        #GameState(int, int)
        #GameState(int, int, List<Action>)
        #addAction(Action): void
        +getTime(): int
        +apply(Base): void
        +undo(Base): void
        +toxml(): Element
    }

    center footer UMLDoclet 2.0.19, PlantUML 1.2022.8
@enduml

PlantUML version 1.2022.8(Sun Sep 25 22:00:33 NZDT 2022)
(APACHE source distribution)
Java Runtime: Java(TM) SE Runtime Environment
JVM: Java HotSpot(TM) 64-Bit Server VM
Default Encoding: Cp1252
Language: en
Country: NZ
--></g></svg>