<?xml version="1.0" encoding="UTF-8" standalone="no"?><svg xmlns="http://www.w3.org/2000/svg" xmlns:xlink="http://www.w3.org/1999/xlink" contentStyleType="text/css" height="672px" preserveAspectRatio="none" style="width:884px;height:672px;background:#FFFFFF;" version="1.1" viewBox="0 0 884 672" width="884px" zoomAndPan="magnify"><defs/><g><!--MD5=[1b02d7203d936c7abd83488c023a191e]
cluster nz.ac.vuw.ecs.swen225.gp22.recorder--><g id="cluster_nz.ac.vuw.ecs.swen225.gp22.recorder"><path d="M8.5,139 L276.5,139 A3.75,3.75 0 0 1 279,141.5 L286,162.6094 L874.5,162.6094 A2.5,2.5 0 0 1 877,165.1094 L877,643.5 A2.5,2.5 0 0 1 874.5,646 L8.5,646 A2.5,2.5 0 0 1 6,643.5 L6,141.5 A2.5,2.5 0 0 1 8.5,139 " fill="none" style="stroke:#000000;stroke-width:1.5;"/><line style="stroke:#000000;stroke-width:1.5;" x1="6" x2="286" y1="162.6094" y2="162.6094"/><text fill="#000000" font-family="sans-serif" font-size="14" font-weight="bold" lengthAdjust="spacing" textLength="267" x="10" y="155.5332">nz.ac.vuw.ecs.swen225.gp22.recorder</text></g><!--MD5=[aa8f7b917213fcc1c2766e2d59b49067]
cluster java.lang--><g id="cluster_java.lang"><path d="M358.5,6 L422.5,6 A3.75,3.75 0 0 1 425,8.5 L432,29.6094 L463.5,29.6094 A2.5,2.5 0 0 1 466,32.1094 L466,103.5 A2.5,2.5 0 0 1 463.5,106 L358.5,106 A2.5,2.5 0 0 1 356,103.5 L356,8.5 A2.5,2.5 0 0 1 358.5,6 " fill="none" style="stroke:#000000;stroke-width:1.5;"/><line style="stroke:#000000;stroke-width:1.5;" x1="356" x2="432" y1="29.6094" y2="29.6094"/><text fill="#000000" font-family="sans-serif" font-size="14" font-weight="bold" lengthAdjust="spacing" textLength="63" x="360" y="22.5332">java.lang</text></g><!--MD5=[535aab4de90d4dfa371a9b40d5438fc3]
cluster javax.swing--><g id="cluster_javax.swing"><path d="M756.5,6 L839.5,6 A3.75,3.75 0 0 1 842,8.5 L849,29.6094 L857.5,29.6094 A2.5,2.5 0 0 1 860,32.1094 L860,103.5 A2.5,2.5 0 0 1 857.5,106 L756.5,106 A2.5,2.5 0 0 1 754,103.5 L754,8.5 A2.5,2.5 0 0 1 756.5,6 " fill="none" style="stroke:#000000;stroke-width:1.5;"/><line style="stroke:#000000;stroke-width:1.5;" x1="754" x2="849" y1="29.6094" y2="29.6094"/><text fill="#000000" font-family="sans-serif" font-size="14" font-weight="bold" lengthAdjust="spacing" textLength="82" x="758" y="22.5332">javax.swing</text></g><!--MD5=[dc491b58113ef3bd4d4d053f96f8cd5f]
class nz.ac.vuw.ecs.swen225.gp22.recorder.Action--><a href="Action.html" target="_top" title="Action.html" xlink:actuate="onRequest" xlink:href="Action.html" xlink:show="new" xlink:title="Action.html" xlink:type="simple"><g id="elem_nz.ac.vuw.ecs.swen225.gp22.recorder.Action"><rect codeLine="3" fill="#F1F1F1" height="206.4844" id="nz.ac.vuw.ecs.swen225.gp22.recorder.Action" rx="2.5" ry="2.5" style="stroke:#181818;stroke-width:0.5;" width="316" x="253" y="175"/><ellipse cx="387.25" cy="191" fill="#ADD1B2" rx="11" ry="11" style="stroke:#181818;stroke-width:1.0;"/><path d="M390.0156,186.875 Q390.1719,186.6563 390.3594,186.5469 Q390.5469,186.4375 390.7656,186.4375 Q391.1406,186.4375 391.375,186.7031 Q391.6094,186.9531 391.6094,187.5625 L391.6094,189.0156 Q391.6094,189.625 391.375,189.8906 Q391.1406,190.1563 390.7656,190.1563 Q390.4219,190.1563 390.2188,189.9531 Q390.0156,189.7656 389.9063,189.25 Q389.8594,188.8906 389.6719,188.7031 Q389.3438,188.3281 388.7344,188.1094 Q388.125,187.8906 387.5,187.8906 Q386.7344,187.8906 386.0938,188.2188 Q385.4688,188.5469 384.9688,189.2969 Q384.4844,190.0469 384.4844,191.0781 L384.4844,192.1719 Q384.4844,193.4063 385.375,194.2344 Q386.2656,195.0469 387.8594,195.0469 Q388.7969,195.0469 389.4531,194.7969 Q389.8438,194.6406 390.2656,194.2031 Q390.5313,193.9375 390.6719,193.8594 Q390.8281,193.7813 391.0313,193.7813 Q391.3594,193.7813 391.6094,194.0469 Q391.875,194.2969 391.875,194.6406 Q391.875,194.9844 391.5313,195.3906 Q391.0313,195.9688 390.2344,196.2969 Q389.1563,196.75 387.8594,196.75 Q386.3438,196.75 385.1406,196.125 Q384.1563,195.625 383.4688,194.5625 Q382.7813,193.4844 382.7813,192.2031 L382.7813,191.0469 Q382.7813,189.7188 383.3906,188.5781 Q384.0156,187.4219 385.1094,186.8125 Q386.2031,186.1875 387.4375,186.1875 Q388.1719,186.1875 388.8125,186.3594 Q389.4688,186.5156 390.0156,186.875 Z " fill="#000000"/><text fill="#000000" font-family="sans-serif" font-size="14" lengthAdjust="spacing" textLength="39" x="407.75" y="196.7285">Action</text><line style="stroke:#181818;stroke-width:0.5;" x1="254" x2="568" y1="207" y2="207"/><line style="stroke:#181818;stroke-width:0.5;" x1="254" x2="568" y1="215" y2="215"/><ellipse cx="264" cy="229.3047" fill="#84BE84" rx="3" ry="3" style="stroke:#038048;stroke-width:1.0;"/><text fill="#000000" font-family="sans-serif" font-size="14" lengthAdjust="spacing" textLength="290" x="273" y="233.5332">Action(int, String, int, int, String, String, String)</text><ellipse cx="264" cy="246.9141" fill="#84BE84" rx="3" ry="3" style="stroke:#038048;stroke-width:1.0;"/><text fill="#000000" font-family="sans-serif" font-size="14" lengthAdjust="spacing" textLength="101" x="273" y="251.1426">toxml(): Element</text><ellipse cx="264" cy="264.5234" fill="#84BE84" rx="3" ry="3" style="stroke:#038048;stroke-width:1.0;"/><text fill="#000000" font-family="sans-serif" font-size="14" lengthAdjust="spacing" textLength="80" x="273" y="268.752">entityID(): int</text><ellipse cx="264" cy="282.1328" fill="#84BE84" rx="3" ry="3" style="stroke:#038048;stroke-width:1.0;"/><text fill="#000000" font-family="sans-serif" font-size="14" lengthAdjust="spacing" textLength="125" x="273" y="286.3613">actionType(): String</text><ellipse cx="264" cy="299.7422" fill="#84BE84" rx="3" ry="3" style="stroke:#038048;stroke-width:1.0;"/><text fill="#000000" font-family="sans-serif" font-size="14" lengthAdjust="spacing" textLength="39" x="273" y="303.9707">x(): int</text><ellipse cx="264" cy="317.3516" fill="#84BE84" rx="3" ry="3" style="stroke:#038048;stroke-width:1.0;"/><text fill="#000000" font-family="sans-serif" font-size="14" lengthAdjust="spacing" textLength="40" x="273" y="321.5801">y(): int</text><ellipse cx="264" cy="334.9609" fill="#84BE84" rx="3" ry="3" style="stroke:#038048;stroke-width:1.0;"/><text fill="#000000" font-family="sans-serif" font-size="14" lengthAdjust="spacing" textLength="101" x="273" y="339.1895">prevDir(): String</text><ellipse cx="264" cy="352.5703" fill="#84BE84" rx="3" ry="3" style="stroke:#038048;stroke-width:1.0;"/><text fill="#000000" font-family="sans-serif" font-size="14" lengthAdjust="spacing" textLength="98" x="273" y="356.7988">currDir(): String</text><ellipse cx="264" cy="370.1797" fill="#84BE84" rx="3" ry="3" style="stroke:#038048;stroke-width:1.0;"/><text fill="#000000" font-family="sans-serif" font-size="14" lengthAdjust="spacing" textLength="86" x="273" y="374.4082">color(): String</text></g></a><!--MD5=[74e60d4a71a05f46a053662cbb35ad07]
class nz.ac.vuw.ecs.swen225.gp22.recorder.GameState--><a href="GameState.html" target="_top" title="GameState.html" xlink:actuate="onRequest" xlink:href="GameState.html" xlink:show="new" xlink:title="GameState.html" xlink:type="simple"><g id="elem_nz.ac.vuw.ecs.swen225.gp22.recorder.GameState"><rect codeLine="15" fill="#F1F1F1" height="171.2656" id="nz.ac.vuw.ecs.swen225.gp22.recorder.GameState" rx="2.5" ry="2.5" style="stroke:#181818;stroke-width:0.5;" width="230" x="546" y="459"/><ellipse cx="621.25" cy="475" fill="#ADD1B2" rx="11" ry="11" style="stroke:#181818;stroke-width:1.0;"/><path d="M624.0156,470.875 Q624.1719,470.6563 624.3594,470.5469 Q624.5469,470.4375 624.7656,470.4375 Q625.1406,470.4375 625.375,470.7031 Q625.6094,470.9531 625.6094,471.5625 L625.6094,473.0156 Q625.6094,473.625 625.375,473.8906 Q625.1406,474.1563 624.7656,474.1563 Q624.4219,474.1563 624.2188,473.9531 Q624.0156,473.7656 623.9063,473.25 Q623.8594,472.8906 623.6719,472.7031 Q623.3438,472.3281 622.7344,472.1094 Q622.125,471.8906 621.5,471.8906 Q620.7344,471.8906 620.0938,472.2188 Q619.4688,472.5469 618.9688,473.2969 Q618.4844,474.0469 618.4844,475.0781 L618.4844,476.1719 Q618.4844,477.4063 619.375,478.2344 Q620.2656,479.0469 621.8594,479.0469 Q622.7969,479.0469 623.4531,478.7969 Q623.8438,478.6406 624.2656,478.2031 Q624.5313,477.9375 624.6719,477.8594 Q624.8281,477.7813 625.0313,477.7813 Q625.3594,477.7813 625.6094,478.0469 Q625.875,478.2969 625.875,478.6406 Q625.875,478.9844 625.5313,479.3906 Q625.0313,479.9688 624.2344,480.2969 Q623.1563,480.75 621.8594,480.75 Q620.3438,480.75 619.1406,480.125 Q618.1563,479.625 617.4688,478.5625 Q616.7813,477.4844 616.7813,476.2031 L616.7813,475.0469 Q616.7813,473.7188 617.3906,472.5781 Q618.0156,471.4219 619.1094,470.8125 Q620.2031,470.1875 621.4375,470.1875 Q622.1719,470.1875 622.8125,470.3594 Q623.4688,470.5156 624.0156,470.875 Z " fill="#000000"/><text fill="#000000" font-family="sans-serif" font-size="14" lengthAdjust="spacing" textLength="71" x="641.75" y="480.7285">GameState</text><line style="stroke:#181818;stroke-width:0.5;" x1="547" x2="775" y1="491" y2="491"/><line style="stroke:#181818;stroke-width:0.5;" x1="547" x2="775" y1="499" y2="499"/><polygon fill="#FFFF44" points="557,508.3047,561,512.3047,557,516.3047,553,512.3047" style="stroke:#B38D22;stroke-width:1.0;"/><text fill="#000000" font-family="sans-serif" font-size="14" lengthAdjust="spacing" textLength="119" x="566" y="517.5332">GameState(int, int)</text><polygon fill="#FFFF44" points="557,525.9141,561,529.9141,557,533.9141,553,529.9141" style="stroke:#B38D22;stroke-width:1.0;"/><text fill="#000000" font-family="sans-serif" font-size="14" lengthAdjust="spacing" textLength="204" x="566" y="535.1426">GameState(int, int, List&lt;Action&gt;)</text><polygon fill="#FFFF44" points="557,543.5234,561,547.5234,557,551.5234,553,547.5234" style="stroke:#B38D22;stroke-width:1.0;"/><text fill="#000000" font-family="sans-serif" font-size="14" lengthAdjust="spacing" textLength="146" x="566" y="552.752">addAction(Action): void</text><ellipse cx="557" cy="566.1328" fill="#84BE84" rx="3" ry="3" style="stroke:#038048;stroke-width:1.0;"/><text fill="#000000" font-family="sans-serif" font-size="14" lengthAdjust="spacing" textLength="84" x="566" y="570.3613">getTime(): int</text><ellipse cx="557" cy="583.7422" fill="#84BE84" rx="3" ry="3" style="stroke:#038048;stroke-width:1.0;"/><text fill="#000000" font-family="sans-serif" font-size="14" lengthAdjust="spacing" textLength="110" x="566" y="587.9707">apply(Base): void</text><ellipse cx="557" cy="601.3516" fill="#84BE84" rx="3" ry="3" style="stroke:#038048;stroke-width:1.0;"/><text fill="#000000" font-family="sans-serif" font-size="14" lengthAdjust="spacing" textLength="108" x="566" y="605.5801">undo(Base): void</text><ellipse cx="557" cy="618.9609" fill="#84BE84" rx="3" ry="3" style="stroke:#038048;stroke-width:1.0;"/><text fill="#000000" font-family="sans-serif" font-size="14" lengthAdjust="spacing" textLength="101" x="566" y="623.1895">toxml(): Element</text></g></a><!--MD5=[45fd9d8c5bf5e3188b4943519f9269ac]
class nz.ac.vuw.ecs.swen225.gp22.recorder.Parser--><a href="Parser.html" target="_top" title="Parser.html" xlink:actuate="onRequest" xlink:href="Parser.html" xlink:show="new" xlink:title="Parser.html" xlink:type="simple"><g id="elem_nz.ac.vuw.ecs.swen225.gp22.recorder.Parser"><rect codeLine="25" fill="#F1F1F1" height="65.6094" id="nz.ac.vuw.ecs.swen225.gp22.recorder.Parser" rx="2.5" ry="2.5" style="stroke:#181818;stroke-width:0.5;" width="113" x="604.5" y="245"/><ellipse cx="637.05" cy="261" fill="#ADD1B2" rx="11" ry="11" style="stroke:#181818;stroke-width:1.0;"/><path d="M639.8156,256.875 Q639.9719,256.6563 640.1594,256.5469 Q640.3469,256.4375 640.5656,256.4375 Q640.9406,256.4375 641.175,256.7031 Q641.4094,256.9531 641.4094,257.5625 L641.4094,259.0156 Q641.4094,259.625 641.175,259.8906 Q640.9406,260.1563 640.5656,260.1563 Q640.2219,260.1563 640.0188,259.9531 Q639.8156,259.7656 639.7063,259.25 Q639.6594,258.8906 639.4719,258.7031 Q639.1438,258.3281 638.5344,258.1094 Q637.925,257.8906 637.3,257.8906 Q636.5344,257.8906 635.8938,258.2188 Q635.2688,258.5469 634.7688,259.2969 Q634.2844,260.0469 634.2844,261.0781 L634.2844,262.1719 Q634.2844,263.4063 635.175,264.2344 Q636.0656,265.0469 637.6594,265.0469 Q638.5969,265.0469 639.2531,264.7969 Q639.6438,264.6406 640.0656,264.2031 Q640.3313,263.9375 640.4719,263.8594 Q640.6281,263.7813 640.8313,263.7813 Q641.1594,263.7813 641.4094,264.0469 Q641.675,264.2969 641.675,264.6406 Q641.675,264.9844 641.3313,265.3906 Q640.8313,265.9688 640.0344,266.2969 Q638.9563,266.75 637.6594,266.75 Q636.1438,266.75 634.9406,266.125 Q633.9563,265.625 633.2688,264.5625 Q632.5813,263.4844 632.5813,262.2031 L632.5813,261.0469 Q632.5813,259.7188 633.1906,258.5781 Q633.8156,257.4219 634.9094,256.8125 Q636.0031,256.1875 637.2375,256.1875 Q637.9719,256.1875 638.6125,256.3594 Q639.2688,256.5156 639.8156,256.875 Z " fill="#000000"/><text fill="#000000" font-family="sans-serif" font-size="14" lengthAdjust="spacing" textLength="42" x="654.95" y="266.7285">Parser</text><line style="stroke:#181818;stroke-width:0.5;" x1="605.5" x2="716.5" y1="277" y2="277"/><line style="stroke:#181818;stroke-width:0.5;" x1="605.5" x2="716.5" y1="285" y2="285"/><ellipse cx="615.5" cy="299.3047" fill="#84BE84" rx="3" ry="3" style="stroke:#038048;stroke-width:1.0;"/><text fill="#000000" font-family="sans-serif" font-size="14" lengthAdjust="spacing" textLength="87" x="624.5" y="303.5332">getLevel(): int</text></g></a><!--MD5=[a28400f3d84794cc952ac027c893b56a]
class nz.ac.vuw.ecs.swen225.gp22.recorder.Player--><a href="Player.html" target="_top" title="Player.html" xlink:actuate="onRequest" xlink:href="Player.html" xlink:show="new" xlink:title="Player.html" xlink:type="simple"><g id="elem_nz.ac.vuw.ecs.swen225.gp22.recorder.Player"><rect codeLine="29" fill="#F1F1F1" height="65.6094" id="nz.ac.vuw.ecs.swen225.gp22.recorder.Player" rx="2.5" ry="2.5" style="stroke:#181818;stroke-width:0.5;" width="108" x="753" y="245"/><ellipse cx="784.2" cy="261" fill="#ADD1B2" rx="11" ry="11" style="stroke:#181818;stroke-width:1.0;"/><path d="M786.9656,256.875 Q787.1219,256.6563 787.3094,256.5469 Q787.4969,256.4375 787.7156,256.4375 Q788.0906,256.4375 788.325,256.7031 Q788.5594,256.9531 788.5594,257.5625 L788.5594,259.0156 Q788.5594,259.625 788.325,259.8906 Q788.0906,260.1563 787.7156,260.1563 Q787.3719,260.1563 787.1688,259.9531 Q786.9656,259.7656 786.8563,259.25 Q786.8094,258.8906 786.6219,258.7031 Q786.2938,258.3281 785.6844,258.1094 Q785.075,257.8906 784.45,257.8906 Q783.6844,257.8906 783.0438,258.2188 Q782.4188,258.5469 781.9188,259.2969 Q781.4344,260.0469 781.4344,261.0781 L781.4344,262.1719 Q781.4344,263.4063 782.325,264.2344 Q783.2156,265.0469 784.8094,265.0469 Q785.7469,265.0469 786.4031,264.7969 Q786.7938,264.6406 787.2156,264.2031 Q787.4813,263.9375 787.6219,263.8594 Q787.7781,263.7813 787.9813,263.7813 Q788.3094,263.7813 788.5594,264.0469 Q788.825,264.2969 788.825,264.6406 Q788.825,264.9844 788.4813,265.3906 Q787.9813,265.9688 787.1844,266.2969 Q786.1063,266.75 784.8094,266.75 Q783.2938,266.75 782.0906,266.125 Q781.1063,265.625 780.4188,264.5625 Q779.7313,263.4844 779.7313,262.2031 L779.7313,261.0469 Q779.7313,259.7188 780.3406,258.5781 Q780.9656,257.4219 782.0594,256.8125 Q783.1531,256.1875 784.3875,256.1875 Q785.1219,256.1875 785.7625,256.3594 Q786.4188,256.5156 786.9656,256.875 Z " fill="#000000"/><text fill="#000000" font-family="sans-serif" font-size="14" lengthAdjust="spacing" textLength="40" x="801.8" y="266.7285">Player</text><line style="stroke:#181818;stroke-width:0.5;" x1="754" x2="860" y1="277" y2="277"/><line style="stroke:#181818;stroke-width:0.5;" x1="754" x2="860" y1="285" y2="285"/><ellipse cx="764" cy="299.3047" fill="#84BE84" rx="3" ry="3" style="stroke:#038048;stroke-width:1.0;"/><text fill="#000000" font-family="sans-serif" font-size="14" lengthAdjust="spacing" textLength="82" x="773" y="303.5332">Player(Base)</text></g></a><!--MD5=[05dc728495d45c37ddd07a23bda3fd1e]
class nz.ac.vuw.ecs.swen225.gp22.recorder.Recorder--><a href="Recorder.html" target="_top" title="Recorder.html" xlink:actuate="onRequest" xlink:href="Recorder.html" xlink:show="new" xlink:title="Recorder.html" xlink:type="simple"><g id="elem_nz.ac.vuw.ecs.swen225.gp22.recorder.Recorder"><rect codeLine="33" fill="#F1F1F1" height="100.8281" id="nz.ac.vuw.ecs.swen225.gp22.recorder.Recorder" rx="2.5" ry="2.5" style="stroke:#181818;stroke-width:0.5;" width="195" x="22.5" y="227.5"/><ellipse cx="86.25" cy="243.5" fill="#ADD1B2" rx="11" ry="11" style="stroke:#181818;stroke-width:1.0;"/><path d="M89.0156,239.375 Q89.1719,239.1563 89.3594,239.0469 Q89.5469,238.9375 89.7656,238.9375 Q90.1406,238.9375 90.375,239.2031 Q90.6094,239.4531 90.6094,240.0625 L90.6094,241.5156 Q90.6094,242.125 90.375,242.3906 Q90.1406,242.6563 89.7656,242.6563 Q89.4219,242.6563 89.2188,242.4531 Q89.0156,242.2656 88.9063,241.75 Q88.8594,241.3906 88.6719,241.2031 Q88.3438,240.8281 87.7344,240.6094 Q87.125,240.3906 86.5,240.3906 Q85.7344,240.3906 85.0938,240.7188 Q84.4688,241.0469 83.9688,241.7969 Q83.4844,242.5469 83.4844,243.5781 L83.4844,244.6719 Q83.4844,245.9063 84.375,246.7344 Q85.2656,247.5469 86.8594,247.5469 Q87.7969,247.5469 88.4531,247.2969 Q88.8438,247.1406 89.2656,246.7031 Q89.5313,246.4375 89.6719,246.3594 Q89.8281,246.2813 90.0313,246.2813 Q90.3594,246.2813 90.6094,246.5469 Q90.875,246.7969 90.875,247.1406 Q90.875,247.4844 90.5313,247.8906 Q90.0313,248.4688 89.2344,248.7969 Q88.1563,249.25 86.8594,249.25 Q85.3438,249.25 84.1406,248.625 Q83.1563,248.125 82.4688,247.0625 Q81.7813,245.9844 81.7813,244.7031 L81.7813,243.5469 Q81.7813,242.2188 82.3906,241.0781 Q83.0156,239.9219 84.1094,239.3125 Q85.2031,238.6875 86.4375,238.6875 Q87.1719,238.6875 87.8125,238.8594 Q88.4688,239.0156 89.0156,239.375 Z " fill="#000000"/><text fill="#000000" font-family="sans-serif" font-size="14" lengthAdjust="spacing" textLength="59" x="106.75" y="249.2285">Recorder</text><line style="stroke:#181818;stroke-width:0.5;" x1="23.5" x2="216.5" y1="259.5" y2="259.5"/><line style="stroke:#181818;stroke-width:0.5;" x1="23.5" x2="216.5" y1="267.5" y2="267.5"/><ellipse cx="33.5" cy="281.8047" fill="#84BE84" rx="3" ry="3" style="stroke:#038048;stroke-width:1.0;"/><text fill="#000000" font-family="sans-serif" font-size="14" lengthAdjust="spacing" textLength="107" x="42.5" y="286.0332">Recorder(int, int)</text><ellipse cx="33.5" cy="299.4141" fill="#84BE84" rx="3" ry="3" style="stroke:#038048;stroke-width:1.0;"/><text fill="#000000" font-family="sans-serif" font-size="14" lengthAdjust="spacing" textLength="169" x="42.5" y="303.6426">addAction(Action, int): void</text><ellipse cx="33.5" cy="317.0234" fill="#84BE84" rx="3" ry="3" style="stroke:#038048;stroke-width:1.0;"/><text fill="#000000" font-family="sans-serif" font-size="14" lengthAdjust="spacing" textLength="74" x="42.5" y="321.252">save(): void</text></g></a><!--MD5=[aeced6b90a5f9cea7e9b0d4e8b5a9b7c]
class java.lang.Record--><g id="elem_java.lang.Record"><rect codeLine="45" fill="#F1F1F1" height="48" id="java.lang.Record" rx="2.5" ry="2.5" style="stroke:#181818;stroke-width:0.5;" width="78" x="372" y="42"/><ellipse cx="387" cy="58" fill="#A9DCDF" rx="11" ry="11" style="stroke:#181818;stroke-width:1.0;"/><path d="M389.1875,59.7656 L385.0469,59.7656 L384.625,60.7969 L385.0469,60.7969 Q385.6563,60.7969 385.9219,61.0313 Q386.1875,61.2656 386.1875,61.6563 Q386.1875,62.0313 385.9219,62.2656 Q385.6563,62.5 385.0469,62.5 L382.75,62.5 Q382.1406,62.5 381.8906,62.2656 Q381.625,62.0313 381.625,61.6406 Q381.625,61.2656 381.9063,61.0313 Q382.1719,60.7813 382.7969,60.7969 L385.4688,54.1406 L384.3594,54.1406 Q383.75,54.1406 383.4844,53.9063 Q383.2188,53.6719 383.2188,53.2813 Q383.2188,52.9063 383.4844,52.6719 Q383.75,52.4375 384.3594,52.4375 L388.0313,52.4375 L391.4219,60.7969 Q392.0156,60.7969 392.2031,60.9375 Q392.5938,61.2031 392.5938,61.6563 Q392.5938,62.0313 392.3281,62.2656 Q392.0781,62.5 391.4688,62.5 L389.1719,62.5 Q388.5625,62.5 388.2969,62.2656 Q388.0313,62.0313 388.0313,61.6406 Q388.0313,61.2656 388.2969,61.0313 Q388.5625,60.7969 389.1719,60.7969 L389.5938,60.7969 L389.1875,59.7656 Z M388.4688,58.0625 L387.1094,54.6875 L385.7344,58.0625 L388.4688,58.0625 Z " fill="#000000"/><text fill="#000000" font-family="sans-serif" font-size="14" font-style="italic" lengthAdjust="spacing" textLength="46" x="401" y="63.7285">Record</text><line style="stroke:#181818;stroke-width:0.5;" x1="373" x2="449" y1="74" y2="74"/><line style="stroke:#181818;stroke-width:0.5;" x1="373" x2="449" y1="82" y2="82"/></g><!--MD5=[56a185cb33bdc7c23303e5865f20a19b]
class javax.swing.JPanel--><g id="elem_javax.swing.JPanel"><rect codeLine="49" fill="#F1F1F1" height="48" id="javax.swing.JPanel" rx="2.5" ry="2.5" style="stroke:#181818;stroke-width:0.5;" width="74" x="770" y="42"/><ellipse cx="785" cy="58" fill="#ADD1B2" rx="11" ry="11" style="stroke:#181818;stroke-width:1.0;"/><path d="M787.7656,53.875 Q787.9219,53.6563 788.1094,53.5469 Q788.2969,53.4375 788.5156,53.4375 Q788.8906,53.4375 789.125,53.7031 Q789.3594,53.9531 789.3594,54.5625 L789.3594,56.0156 Q789.3594,56.625 789.125,56.8906 Q788.8906,57.1563 788.5156,57.1563 Q788.1719,57.1563 787.9688,56.9531 Q787.7656,56.7656 787.6563,56.25 Q787.6094,55.8906 787.4219,55.7031 Q787.0938,55.3281 786.4844,55.1094 Q785.875,54.8906 785.25,54.8906 Q784.4844,54.8906 783.8438,55.2188 Q783.2188,55.5469 782.7188,56.2969 Q782.2344,57.0469 782.2344,58.0781 L782.2344,59.1719 Q782.2344,60.4063 783.125,61.2344 Q784.0156,62.0469 785.6094,62.0469 Q786.5469,62.0469 787.2031,61.7969 Q787.5938,61.6406 788.0156,61.2031 Q788.2813,60.9375 788.4219,60.8594 Q788.5781,60.7813 788.7813,60.7813 Q789.1094,60.7813 789.3594,61.0469 Q789.625,61.2969 789.625,61.6406 Q789.625,61.9844 789.2813,62.3906 Q788.7813,62.9688 787.9844,63.2969 Q786.9063,63.75 785.6094,63.75 Q784.0938,63.75 782.8906,63.125 Q781.9063,62.625 781.2188,61.5625 Q780.5313,60.4844 780.5313,59.2031 L780.5313,58.0469 Q780.5313,56.7188 781.1406,55.5781 Q781.7656,54.4219 782.8594,53.8125 Q783.9531,53.1875 785.1875,53.1875 Q785.9219,53.1875 786.5625,53.3594 Q787.2188,53.5156 787.7656,53.875 Z " fill="#000000"/><text fill="#000000" font-family="sans-serif" font-size="14" lengthAdjust="spacing" textLength="42" x="799" y="63.7285">JPanel</text><line style="stroke:#181818;stroke-width:0.5;" x1="771" x2="843" y1="74" y2="74"/><line style="stroke:#181818;stroke-width:0.5;" x1="771" x2="843" y1="82" y2="82"/></g><!--MD5=[e35940fae331bb14f0a2d9a393424044]
reverse link java.lang.Record to nz.ac.vuw.ecs.swen225.gp22.recorder.Action--><g id="link_java.lang.Record_nz.ac.vuw.ecs.swen225.gp22.recorder.Action"><path codeLine="39" d="M411,110.56 C411,129.35 411,152.19 411,174.85 " fill="none" id="java.lang.Record-backto-nz.ac.vuw.ecs.swen225.gp22.recorder.Action" style="stroke:#181818;stroke-width:1.0;"/><polygon fill="none" points="404,110.28,411,90.28,418,110.28,404,110.28" style="stroke:#181818;stroke-width:1.0;"/></g><!--MD5=[c0a9ee2c91192879c33fc682d5d021f6]
link nz.ac.vuw.ecs.swen225.gp22.recorder.Parser to nz.ac.vuw.ecs.swen225.gp22.recorder.GameState--><g id="link_nz.ac.vuw.ecs.swen225.gp22.recorder.Parser_nz.ac.vuw.ecs.swen225.gp22.recorder.GameState"><path codeLine="40" d="M661,311.17 C661,346.44 661,404.59 661,453.88 " fill="none" id="nz.ac.vuw.ecs.swen225.gp22.recorder.Parser-to-nz.ac.vuw.ecs.swen225.gp22.recorder.GameState" style="stroke:#181818;stroke-width:1.0;"/><polygon fill="#181818" points="661,458.93,665,449.93,661,453.93,657,449.93,661,458.93" style="stroke:#181818;stroke-width:1.0;"/><text fill="#000000" font-family="sans-serif" font-size="13" lengthAdjust="spacing" textLength="36" x="662" y="425.4951">states</text><text fill="#000000" font-family="sans-serif" font-size="13" lengthAdjust="spacing" textLength="5" x="655.7773" y="448.0954">*</text></g><!--MD5=[06158c2697cd431503ee45e5fb7031c0]
reverse link javax.swing.JPanel to nz.ac.vuw.ecs.swen225.gp22.recorder.Player--><g id="link_javax.swing.JPanel_nz.ac.vuw.ecs.swen225.gp22.recorder.Player"><path codeLine="41" d="M807,110.32 C807,150.27 807,208.69 807,244.71 " fill="none" id="javax.swing.JPanel-backto-nz.ac.vuw.ecs.swen225.gp22.recorder.Player" style="stroke:#181818;stroke-width:1.0;"/><polygon fill="none" points="800,110.28,807,90.28,814,110.28,800,110.28" style="stroke:#181818;stroke-width:1.0;"/></g><rect fill="none" height="12.5781" style="stroke:none;stroke-width:1.0;" width="184" x="343" y="652"/><text fill="#888888" font-family="sans-serif" font-size="10" lengthAdjust="spacing" textLength="184" x="343" y="662.3809">UMLDoclet 2.0.19, PlantUML 1.2022.8</text><!--MD5=[aa548daea48596328abff3e5cdfcb722]
@startuml
    namespace nz.ac.vuw.ecs.swen225.gp22.recorder {

        class Action [[Action.html]] {
            +Action(int, String, int, int, String, String, String)
            +toxml(): Element
            +entityID(): int
            +actionType(): String
            +x(): int
            +y(): int
            +prevDir(): String
            +currDir(): String
            +color(): String
        }

        class GameState [[GameState.html]] {
            #GameState(int, int)
            #GameState(int, int, List<Action>)
            #addAction(Action): void
            +getTime(): int
            +apply(Base): void
            +undo(Base): void
            +toxml(): Element
        }

        class Parser [[Parser.html]] {
            +getLevel(): int
        }

        class Player [[Player.html]] {
            +Player(Base)
        }

        class Recorder [[Recorder.html]] {
            +Recorder(int, int)
            +addAction(Action, int): void
            +save(): void
        }

        java.lang.Record <|- - Action
        Parser - -> "*" GameState: states
        javax.swing.JPanel <|- - Player
    }

    namespace java.lang {
        abstract class Record
    }

    namespace javax.swing {
        class JPanel {
        }
    }

    center footer UMLDoclet 2.0.19, PlantUML 1.2022.8
@enduml

PlantUML version 1.2022.8(Sun Sep 25 22:00:33 NZDT 2022)
(APACHE source distribution)
Java Runtime: Java(TM) SE Runtime Environment
JVM: Java HotSpot(TM) 64-Bit Server VM
Default Encoding: Cp1252
Language: en
Country: NZ
--></g></svg>