<?xml version="1.0" encoding="UTF-8" standalone="no"?><svg xmlns="http://www.w3.org/2000/svg" xmlns:xlink="http://www.w3.org/1999/xlink" contentStyleType="text/css" height="117px" preserveAspectRatio="none" style="width:234px;height:117px;background:#FFFFFF;" version="1.1" viewBox="0 0 234 117" width="234px" zoomAndPan="magnify"><defs/><g><!--MD5=[45fd9d8c5bf5e3188b4943519f9269ac]
class nz.ac.vuw.ecs.swen225.gp22.recorder.Parser--><a href="Parser.html" target="_top" title="Parser.html" xlink:actuate="onRequest" xlink:href="Parser.html" xlink:show="new" xlink:title="Parser.html" xlink:type="simple"><g id="elem_nz.ac.vuw.ecs.swen225.gp22.recorder.Parser"><rect codeLine="5" fill="#F1F1F1" height="83.4063" id="nz.ac.vuw.ecs.swen225.gp22.recorder.Parser" rx="2.5" ry="2.5" style="stroke:#181818;stroke-width:0.5;" width="213" x="7" y="7"/><ellipse cx="22.9" cy="27.0938" fill="#ADD1B2" rx="11" ry="11" style="stroke:#181818;stroke-width:1.0;"/><path d="M25.6656,22.9688 Q25.8219,22.75 26.0094,22.6406 Q26.1969,22.5313 26.4156,22.5313 Q26.7906,22.5313 27.025,22.7969 Q27.2594,23.0469 27.2594,23.6563 L27.2594,25.1094 Q27.2594,25.7188 27.025,25.9844 Q26.7906,26.25 26.4156,26.25 Q26.0719,26.25 25.8688,26.0469 Q25.6656,25.8594 25.5563,25.3438 Q25.5094,24.9844 25.3219,24.7969 Q24.9938,24.4219 24.3844,24.2031 Q23.775,23.9844 23.15,23.9844 Q22.3844,23.9844 21.7438,24.3125 Q21.1188,24.6406 20.6188,25.3906 Q20.1344,26.1406 20.1344,27.1719 L20.1344,28.2656 Q20.1344,29.5 21.025,30.3281 Q21.9156,31.1406 23.5094,31.1406 Q24.4469,31.1406 25.1031,30.8906 Q25.4938,30.7344 25.9156,30.2969 Q26.1813,30.0313 26.3219,29.9531 Q26.4781,29.875 26.6813,29.875 Q27.0094,29.875 27.2594,30.1406 Q27.525,30.3906 27.525,30.7344 Q27.525,31.0781 27.1813,31.4844 Q26.6813,32.0625 25.8844,32.3906 Q24.8063,32.8438 23.5094,32.8438 Q21.9938,32.8438 20.7906,32.2188 Q19.8063,31.7188 19.1188,30.6563 Q18.4313,29.5781 18.4313,28.2969 L18.4313,27.1406 Q18.4313,25.8125 19.0406,24.6719 Q19.6656,23.5156 20.7594,22.9063 Q21.8531,22.2813 23.0875,22.2813 Q23.8219,22.2813 24.4625,22.4531 Q25.1188,22.6094 25.6656,22.9688 Z " fill="#000000"/><text fill="#000000" font-family="sans-serif" font-size="14" lengthAdjust="spacing" textLength="42" x="105.6" y="26.5332">Parser</text><text fill="#000000" font-family="sans-serif" font-size="10" lengthAdjust="spacing" textLength="179" x="37.1" y="39.9902">nz.ac.vuw.ecs.swen225.gp22.recorder</text><line style="stroke:#181818;stroke-width:0.5;" x1="8" x2="219" y1="47.1875" y2="47.1875"/><ellipse cx="18" cy="61.4922" fill="#84BE84" rx="3" ry="3" style="stroke:#038048;stroke-width:1.0;"/><text fill="#000000" font-family="sans-serif" font-size="14" lengthAdjust="spacing" textLength="87" x="27" y="65.7207">getLevel(): int</text><ellipse cx="18" cy="79.1016" fill="#84BE84" rx="3" ry="3" style="stroke:#038048;stroke-width:1.0;"/><text fill="#000000" font-family="sans-serif" font-size="14" lengthAdjust="spacing" textLength="187" x="27" y="83.3301">getStates(): List&lt;GameState&gt;</text></g></a><rect fill="none" height="12.5781" style="stroke:none;stroke-width:1.0;" width="184" x="21" y="97.4063"/><text fill="#888888" font-family="sans-serif" font-size="10" lengthAdjust="spacing" textLength="184" x="21" y="107.7871">UMLDoclet 2.0.19, PlantUML 1.2022.8</text><!--MD5=[4928f349bf12b13abda985c169a6f3a5]
@startuml
    set namespaceSeparator none
    hide empty fields
    hide empty methods

    class "<size:14>Parser\n<size:10>nz.ac.vuw.ecs.swen225.gp22.recorder" as nz.ac.vuw.ecs.swen225.gp22.recorder.Parser [[Parser.html]] {
        +getLevel(): int
        +getStates(): List<GameState>
    }

    center footer UMLDoclet 2.0.19, PlantUML 1.2022.8
@enduml

PlantUML version 1.2022.8(Sun Sep 25 22:00:33 NZDT 2022)
(APACHE source distribution)
Java Runtime: Java(TM) SE Runtime Environment
JVM: Java HotSpot(TM) 64-Bit Server VM
Default Encoding: Cp1252
Language: en
Country: NZ
--></g></svg>