<?xml version="1.0" encoding="UTF-8" standalone="no"?><svg xmlns="http://www.w3.org/2000/svg" xmlns:xlink="http://www.w3.org/1999/xlink" contentStyleType="text/css" height="199px" preserveAspectRatio="none" style="width:225px;height:199px;background:#FFFFFF;" version="1.1" viewBox="0 0 225 199" width="225px" zoomAndPan="magnify"><defs/><g><!--MD5=[a28400f3d84794cc952ac027c893b56a]
class nz.ac.vuw.ecs.swen225.gp22.recorder.Player--><a href="Player.html" target="_top" title="Player.html" xlink:actuate="onRequest" xlink:href="Player.html" xlink:show="new" xlink:title="Player.html" xlink:type="simple"><g id="elem_nz.ac.vuw.ecs.swen225.gp22.recorder.Player"><rect codeLine="5" fill="#F1F1F1" height="65.7969" id="nz.ac.vuw.ecs.swen225.gp22.recorder.Player" rx="2.5" ry="2.5" style="stroke:#181818;stroke-width:0.5;" width="211" x="7" y="107"/><ellipse cx="22" cy="127.0938" fill="#ADD1B2" rx="11" ry="11" style="stroke:#181818;stroke-width:1.0;"/><path d="M24.7656,122.9688 Q24.9219,122.75 25.1094,122.6406 Q25.2969,122.5313 25.5156,122.5313 Q25.8906,122.5313 26.125,122.7969 Q26.3594,123.0469 26.3594,123.6563 L26.3594,125.1094 Q26.3594,125.7188 26.125,125.9844 Q25.8906,126.25 25.5156,126.25 Q25.1719,126.25 24.9688,126.0469 Q24.7656,125.8594 24.6563,125.3438 Q24.6094,124.9844 24.4219,124.7969 Q24.0938,124.4219 23.4844,124.2031 Q22.875,123.9844 22.25,123.9844 Q21.4844,123.9844 20.8438,124.3125 Q20.2188,124.6406 19.7188,125.3906 Q19.2344,126.1406 19.2344,127.1719 L19.2344,128.2656 Q19.2344,129.5 20.125,130.3281 Q21.0156,131.1406 22.6094,131.1406 Q23.5469,131.1406 24.2031,130.8906 Q24.5938,130.7344 25.0156,130.2969 Q25.2813,130.0313 25.4219,129.9531 Q25.5781,129.875 25.7813,129.875 Q26.1094,129.875 26.3594,130.1406 Q26.625,130.3906 26.625,130.7344 Q26.625,131.0781 26.2813,131.4844 Q25.7813,132.0625 24.9844,132.3906 Q23.9063,132.8438 22.6094,132.8438 Q21.0938,132.8438 19.8906,132.2188 Q18.9063,131.7188 18.2188,130.6563 Q17.5313,129.5781 17.5313,128.2969 L17.5313,127.1406 Q17.5313,125.8125 18.1406,124.6719 Q18.7656,123.5156 19.8594,122.9063 Q20.9531,122.2813 22.1875,122.2813 Q22.9219,122.2813 23.5625,122.4531 Q24.2188,122.6094 24.7656,122.9688 Z " fill="#000000"/><text fill="#000000" font-family="sans-serif" font-size="14" lengthAdjust="spacing" textLength="40" x="105.5" y="126.5332">Player</text><text fill="#000000" font-family="sans-serif" font-size="10" lengthAdjust="spacing" textLength="179" x="36" y="139.9902">nz.ac.vuw.ecs.swen225.gp22.recorder</text><line style="stroke:#181818;stroke-width:0.5;" x1="8" x2="217" y1="147.1875" y2="147.1875"/><ellipse cx="18" cy="161.4922" fill="#84BE84" rx="3" ry="3" style="stroke:#038048;stroke-width:1.0;"/><text fill="#000000" font-family="sans-serif" font-size="14" lengthAdjust="spacing" textLength="82" x="27" y="165.7207">Player(Base)</text></g></a><!--MD5=[56a185cb33bdc7c23303e5865f20a19b]
class javax.swing.JPanel--><g id="elem_javax.swing.JPanel"><rect codeLine="9" fill="#F1F1F1" height="40.1875" id="javax.swing.JPanel" rx="2.5" ry="2.5" style="stroke:#181818;stroke-width:0.5;" width="86" x="69.5" y="7"/><ellipse cx="84.5" cy="27.0938" fill="#ADD1B2" rx="11" ry="11" style="stroke:#181818;stroke-width:1.0;"/><path d="M87.2656,22.9688 Q87.4219,22.75 87.6094,22.6406 Q87.7969,22.5313 88.0156,22.5313 Q88.3906,22.5313 88.625,22.7969 Q88.8594,23.0469 88.8594,23.6563 L88.8594,25.1094 Q88.8594,25.7188 88.625,25.9844 Q88.3906,26.25 88.0156,26.25 Q87.6719,26.25 87.4688,26.0469 Q87.2656,25.8594 87.1563,25.3438 Q87.1094,24.9844 86.9219,24.7969 Q86.5938,24.4219 85.9844,24.2031 Q85.375,23.9844 84.75,23.9844 Q83.9844,23.9844 83.3438,24.3125 Q82.7188,24.6406 82.2188,25.3906 Q81.7344,26.1406 81.7344,27.1719 L81.7344,28.2656 Q81.7344,29.5 82.625,30.3281 Q83.5156,31.1406 85.1094,31.1406 Q86.0469,31.1406 86.7031,30.8906 Q87.0938,30.7344 87.5156,30.2969 Q87.7813,30.0313 87.9219,29.9531 Q88.0781,29.875 88.2813,29.875 Q88.6094,29.875 88.8594,30.1406 Q89.125,30.3906 89.125,30.7344 Q89.125,31.0781 88.7813,31.4844 Q88.2813,32.0625 87.4844,32.3906 Q86.4063,32.8438 85.1094,32.8438 Q83.5938,32.8438 82.3906,32.2188 Q81.4063,31.7188 80.7188,30.6563 Q80.0313,29.5781 80.0313,28.2969 L80.0313,27.1406 Q80.0313,25.8125 80.6406,24.6719 Q81.2656,23.5156 82.3594,22.9063 Q83.4531,22.2813 84.6875,22.2813 Q85.4219,22.2813 86.0625,22.4531 Q86.7188,22.6094 87.2656,22.9688 Z " fill="#000000"/><text fill="#000000" font-family="sans-serif" font-size="14" lengthAdjust="spacing" textLength="42" x="104.5" y="26.5332">JPanel</text><text fill="#000000" font-family="sans-serif" font-size="10" lengthAdjust="spacing" textLength="54" x="98.5" y="39.9902">javax.swing</text></g><!--MD5=[06158c2697cd431503ee45e5fb7031c0]
reverse link javax.swing.JPanel to nz.ac.vuw.ecs.swen225.gp22.recorder.Player--><g id="link_javax.swing.JPanel_nz.ac.vuw.ecs.swen225.gp22.recorder.Player"><path codeLine="11" d="M112.5,67.09 C112.5,80.05 112.5,94.32 112.5,106.71 " fill="none" id="javax.swing.JPanel-backto-nz.ac.vuw.ecs.swen225.gp22.recorder.Player" style="stroke:#181818;stroke-width:1.0;"/><polygon fill="none" points="105.5,67.08,112.5,47.08,119.5,67.08,105.5,67.08" style="stroke:#181818;stroke-width:1.0;"/></g><rect fill="none" height="12.5781" style="stroke:none;stroke-width:1.0;" width="184" x="13.5" y="178.7969"/><text fill="#888888" font-family="sans-serif" font-size="10" lengthAdjust="spacing" textLength="184" x="13.5" y="189.1777">UMLDoclet 2.0.19, PlantUML 1.2022.8</text><!--MD5=[90b9f55e617d3231c21e30dd09434e6e]
@startuml
    set namespaceSeparator none
    hide empty fields
    hide empty methods

    class "<size:14>Player\n<size:10>nz.ac.vuw.ecs.swen225.gp22.recorder" as nz.ac.vuw.ecs.swen225.gp22.recorder.Player [[Player.html]] {
        +Player(Base)
    }

    class "<size:14>JPanel\n<size:10>javax.swing" as javax.swing.JPanel

    javax.swing.JPanel <|- - nz.ac.vuw.ecs.swen225.gp22.recorder.Player

    center footer UMLDoclet 2.0.19, PlantUML 1.2022.8
@enduml

PlantUML version 1.2022.8(Sun Sep 25 22:00:33 NZDT 2022)
(APACHE source distribution)
Java Runtime: Java(TM) SE Runtime Environment
JVM: Java HotSpot(TM) 64-Bit Server VM
Default Encoding: Cp1252
Language: en
Country: NZ
--></g></svg>